<?xml version="1.0" encoding="utf-8" standalone="no"?>
<!DOCTYPE svg PUBLIC "-//W3C//DTD SVG 1.1//EN"
  "http://www.w3.org/Graphics/SVG/1.1/DTD/svg11.dtd">
<!-- Created with matplotlib (https://matplotlib.org/) -->
<svg height="432pt" version="1.1" viewBox="0 0 1152 432" width="1152pt" xmlns="http://www.w3.org/2000/svg" xmlns:xlink="http://www.w3.org/1999/xlink">
 <metadata>
  <rdf:RDF xmlns:cc="http://creativecommons.org/ns#" xmlns:dc="http://purl.org/dc/elements/1.1/" xmlns:rdf="http://www.w3.org/1999/02/22-rdf-syntax-ns#">
   <cc:Work>
    <dc:type rdf:resource="http://purl.org/dc/dcmitype/StillImage"/>
    <dc:date>2021-04-07T17:46:42.952829</dc:date>
    <dc:format>image/svg+xml</dc:format>
    <dc:creator>
     <cc:Agent>
      <dc:title>Matplotlib v3.3.4, https://matplotlib.org/</dc:title>
     </cc:Agent>
    </dc:creator>
   </cc:Work>
  </rdf:RDF>
 </metadata>
 <defs>
  <style type="text/css">*{stroke-linecap:butt;stroke-linejoin:round;}</style>
 </defs>
 <g id="figure_1">
  <g id="patch_1">
   <path d="M 0 432 
L 1152 432 
L 1152 0 
L 0 0 
z
" style="fill:#ffffff;"/>
  </g>
  <g id="axes_1">
   <g id="patch_2">
    <path d="M 53.8 382.04 
L 568.98 382.04 
L 568.98 31.56 
L 53.8 31.56 
z
" style="fill:#ffffff;"/>
   </g>
   <g id="matplotlib.axis_1">
    <g id="xtick_1">
     <g id="line2d_1">
      <defs>
       <path d="M 0 0 
L 0 3.5 
" id="m8dfaef55dd" style="stroke:#000000;stroke-width:0.8;"/>
      </defs>
      <g>
       <use style="stroke:#000000;stroke-width:0.8;" x="77.217273" xlink:href="#m8dfaef55dd" y="382.04"/>
      </g>
     </g>
     <g id="text_1">
      <!-- Jan -->
      <g transform="translate(67.197116 398.917969)scale(0.13 -0.13)">
       <defs>
        <path d="M 9.8125 72.90625 
L 19.671875 72.90625 
L 19.671875 5.078125 
Q 19.671875 -8.109375 14.671875 -14.0625 
Q 9.671875 -20.015625 -1.421875 -20.015625 
L -5.171875 -20.015625 
L -5.171875 -11.71875 
L -2.09375 -11.71875 
Q 4.4375 -11.71875 7.125 -8.046875 
Q 9.8125 -4.390625 9.8125 5.078125 
z
" id="DejaVuSans-74"/>
        <path d="M 34.28125 27.484375 
Q 23.390625 27.484375 19.1875 25 
Q 14.984375 22.515625 14.984375 16.5 
Q 14.984375 11.71875 18.140625 8.90625 
Q 21.296875 6.109375 26.703125 6.109375 
Q 34.1875 6.109375 38.703125 11.40625 
Q 43.21875 16.703125 43.21875 25.484375 
L 43.21875 27.484375 
z
M 52.203125 31.203125 
L 52.203125 0 
L 43.21875 0 
L 43.21875 8.296875 
Q 40.140625 3.328125 35.546875 0.953125 
Q 30.953125 -1.421875 24.3125 -1.421875 
Q 15.921875 -1.421875 10.953125 3.296875 
Q 6 8.015625 6 15.921875 
Q 6 25.140625 12.171875 29.828125 
Q 18.359375 34.515625 30.609375 34.515625 
L 43.21875 34.515625 
L 43.21875 35.40625 
Q 43.21875 41.609375 39.140625 45 
Q 35.0625 48.390625 27.6875 48.390625 
Q 23 48.390625 18.546875 47.265625 
Q 14.109375 46.140625 10.015625 43.890625 
L 10.015625 52.203125 
Q 14.9375 54.109375 19.578125 55.046875 
Q 24.21875 56 28.609375 56 
Q 40.484375 56 46.34375 49.84375 
Q 52.203125 43.703125 52.203125 31.203125 
z
" id="DejaVuSans-97"/>
        <path d="M 54.890625 33.015625 
L 54.890625 0 
L 45.90625 0 
L 45.90625 32.71875 
Q 45.90625 40.484375 42.875 44.328125 
Q 39.84375 48.1875 33.796875 48.1875 
Q 26.515625 48.1875 22.3125 43.546875 
Q 18.109375 38.921875 18.109375 30.90625 
L 18.109375 0 
L 9.078125 0 
L 9.078125 54.6875 
L 18.109375 54.6875 
L 18.109375 46.1875 
Q 21.34375 51.125 25.703125 53.5625 
Q 30.078125 56 35.796875 56 
Q 45.21875 56 50.046875 50.171875 
Q 54.890625 44.34375 54.890625 33.015625 
z
" id="DejaVuSans-110"/>
       </defs>
       <use xlink:href="#DejaVuSans-74"/>
       <use x="29.492188" xlink:href="#DejaVuSans-97"/>
       <use x="90.771484" xlink:href="#DejaVuSans-110"/>
      </g>
     </g>
    </g>
    <g id="xtick_2">
     <g id="line2d_2">
      <g>
       <use style="stroke:#000000;stroke-width:0.8;" x="150.07101" xlink:href="#m8dfaef55dd" y="382.04"/>
      </g>
     </g>
     <g id="text_2">
      <!-- 15 -->
      <g transform="translate(141.79976 398.917969)scale(0.13 -0.13)">
       <defs>
        <path d="M 12.40625 8.296875 
L 28.515625 8.296875 
L 28.515625 63.921875 
L 10.984375 60.40625 
L 10.984375 69.390625 
L 28.421875 72.90625 
L 38.28125 72.90625 
L 38.28125 8.296875 
L 54.390625 8.296875 
L 54.390625 0 
L 12.40625 0 
z
" id="DejaVuSans-49"/>
        <path d="M 10.796875 72.90625 
L 49.515625 72.90625 
L 49.515625 64.59375 
L 19.828125 64.59375 
L 19.828125 46.734375 
Q 21.96875 47.46875 24.109375 47.828125 
Q 26.265625 48.1875 28.421875 48.1875 
Q 40.625 48.1875 47.75 41.5 
Q 54.890625 34.8125 54.890625 23.390625 
Q 54.890625 11.625 47.5625 5.09375 
Q 40.234375 -1.421875 26.90625 -1.421875 
Q 22.3125 -1.421875 17.546875 -0.640625 
Q 12.796875 0.140625 7.71875 1.703125 
L 7.71875 11.625 
Q 12.109375 9.234375 16.796875 8.0625 
Q 21.484375 6.890625 26.703125 6.890625 
Q 35.15625 6.890625 40.078125 11.328125 
Q 45.015625 15.765625 45.015625 23.390625 
Q 45.015625 31 40.078125 35.4375 
Q 35.15625 39.890625 26.703125 39.890625 
Q 22.75 39.890625 18.8125 39.015625 
Q 14.890625 38.140625 10.796875 36.28125 
z
" id="DejaVuSans-53"/>
       </defs>
       <use xlink:href="#DejaVuSans-49"/>
       <use x="63.623047" xlink:href="#DejaVuSans-53"/>
      </g>
     </g>
    </g>
    <g id="xtick_3">
     <g id="line2d_3">
      <g>
       <use style="stroke:#000000;stroke-width:0.8;" x="238.536263" xlink:href="#m8dfaef55dd" y="382.04"/>
      </g>
     </g>
     <g id="text_3">
      <!-- Feb -->
      <g transform="translate(227.029231 398.917969)scale(0.13 -0.13)">
       <defs>
        <path d="M 9.8125 72.90625 
L 51.703125 72.90625 
L 51.703125 64.59375 
L 19.671875 64.59375 
L 19.671875 43.109375 
L 48.578125 43.109375 
L 48.578125 34.8125 
L 19.671875 34.8125 
L 19.671875 0 
L 9.8125 0 
z
" id="DejaVuSans-70"/>
        <path d="M 56.203125 29.59375 
L 56.203125 25.203125 
L 14.890625 25.203125 
Q 15.484375 15.921875 20.484375 11.0625 
Q 25.484375 6.203125 34.421875 6.203125 
Q 39.59375 6.203125 44.453125 7.46875 
Q 49.3125 8.734375 54.109375 11.28125 
L 54.109375 2.78125 
Q 49.265625 0.734375 44.1875 -0.34375 
Q 39.109375 -1.421875 33.890625 -1.421875 
Q 20.796875 -1.421875 13.15625 6.1875 
Q 5.515625 13.8125 5.515625 26.8125 
Q 5.515625 40.234375 12.765625 48.109375 
Q 20.015625 56 32.328125 56 
Q 43.359375 56 49.78125 48.890625 
Q 56.203125 41.796875 56.203125 29.59375 
z
M 47.21875 32.234375 
Q 47.125 39.59375 43.09375 43.984375 
Q 39.0625 48.390625 32.421875 48.390625 
Q 24.90625 48.390625 20.390625 44.140625 
Q 15.875 39.890625 15.1875 32.171875 
z
" id="DejaVuSans-101"/>
        <path d="M 48.6875 27.296875 
Q 48.6875 37.203125 44.609375 42.84375 
Q 40.53125 48.484375 33.40625 48.484375 
Q 26.265625 48.484375 22.1875 42.84375 
Q 18.109375 37.203125 18.109375 27.296875 
Q 18.109375 17.390625 22.1875 11.75 
Q 26.265625 6.109375 33.40625 6.109375 
Q 40.53125 6.109375 44.609375 11.75 
Q 48.6875 17.390625 48.6875 27.296875 
z
M 18.109375 46.390625 
Q 20.953125 51.265625 25.265625 53.625 
Q 29.59375 56 35.59375 56 
Q 45.5625 56 51.78125 48.09375 
Q 58.015625 40.1875 58.015625 27.296875 
Q 58.015625 14.40625 51.78125 6.484375 
Q 45.5625 -1.421875 35.59375 -1.421875 
Q 29.59375 -1.421875 25.265625 0.953125 
Q 20.953125 3.328125 18.109375 8.203125 
L 18.109375 0 
L 9.078125 0 
L 9.078125 75.984375 
L 18.109375 75.984375 
z
" id="DejaVuSans-98"/>
       </defs>
       <use xlink:href="#DejaVuSans-70"/>
       <use x="52.019531" xlink:href="#DejaVuSans-101"/>
       <use x="113.542969" xlink:href="#DejaVuSans-98"/>
      </g>
     </g>
    </g>
    <g id="xtick_4">
     <g id="line2d_4">
      <g>
       <use style="stroke:#000000;stroke-width:0.8;" x="311.39" xlink:href="#m8dfaef55dd" y="382.04"/>
      </g>
     </g>
     <g id="text_4">
      <!-- 15 -->
      <g transform="translate(303.11875 398.917969)scale(0.13 -0.13)">
       <use xlink:href="#DejaVuSans-49"/>
       <use x="63.623047" xlink:href="#DejaVuSans-53"/>
      </g>
     </g>
    </g>
    <g id="xtick_5">
     <g id="line2d_5">
      <g>
       <use style="stroke:#000000;stroke-width:0.8;" x="384.243737" xlink:href="#m8dfaef55dd" y="382.04"/>
      </g>
     </g>
     <g id="text_5">
      <!-- Mar -->
      <g transform="translate(371.980065 398.917969)scale(0.13 -0.13)">
       <defs>
        <path d="M 9.8125 72.90625 
L 24.515625 72.90625 
L 43.109375 23.296875 
L 61.8125 72.90625 
L 76.515625 72.90625 
L 76.515625 0 
L 66.890625 0 
L 66.890625 64.015625 
L 48.09375 14.015625 
L 38.1875 14.015625 
L 19.390625 64.015625 
L 19.390625 0 
L 9.8125 0 
z
" id="DejaVuSans-77"/>
        <path d="M 41.109375 46.296875 
Q 39.59375 47.171875 37.8125 47.578125 
Q 36.03125 48 33.890625 48 
Q 26.265625 48 22.1875 43.046875 
Q 18.109375 38.09375 18.109375 28.8125 
L 18.109375 0 
L 9.078125 0 
L 9.078125 54.6875 
L 18.109375 54.6875 
L 18.109375 46.1875 
Q 20.953125 51.171875 25.484375 53.578125 
Q 30.03125 56 36.53125 56 
Q 37.453125 56 38.578125 55.875 
Q 39.703125 55.765625 41.0625 55.515625 
z
" id="DejaVuSans-114"/>
       </defs>
       <use xlink:href="#DejaVuSans-77"/>
       <use x="86.279297" xlink:href="#DejaVuSans-97"/>
       <use x="147.558594" xlink:href="#DejaVuSans-114"/>
      </g>
     </g>
    </g>
    <g id="xtick_6">
     <g id="line2d_6">
      <g>
       <use style="stroke:#000000;stroke-width:0.8;" x="457.097475" xlink:href="#m8dfaef55dd" y="382.04"/>
      </g>
     </g>
     <g id="text_6">
      <!-- 15 -->
      <g transform="translate(448.826225 398.917969)scale(0.13 -0.13)">
       <use xlink:href="#DejaVuSans-49"/>
       <use x="63.623047" xlink:href="#DejaVuSans-53"/>
      </g>
     </g>
    </g>
    <g id="xtick_7">
     <g id="line2d_7">
      <g>
       <use style="stroke:#000000;stroke-width:0.8;" x="545.562727" xlink:href="#m8dfaef55dd" y="382.04"/>
      </g>
     </g>
     <g id="text_7">
      <!-- Apr -->
      <g transform="translate(534.317727 398.917969)scale(0.13 -0.13)">
       <defs>
        <path d="M 34.1875 63.1875 
L 20.796875 26.90625 
L 47.609375 26.90625 
z
M 28.609375 72.90625 
L 39.796875 72.90625 
L 67.578125 0 
L 57.328125 0 
L 50.6875 18.703125 
L 17.828125 18.703125 
L 11.1875 0 
L 0.78125 0 
z
" id="DejaVuSans-65"/>
        <path d="M 18.109375 8.203125 
L 18.109375 -20.796875 
L 9.078125 -20.796875 
L 9.078125 54.6875 
L 18.109375 54.6875 
L 18.109375 46.390625 
Q 20.953125 51.265625 25.265625 53.625 
Q 29.59375 56 35.59375 56 
Q 45.5625 56 51.78125 48.09375 
Q 58.015625 40.1875 58.015625 27.296875 
Q 58.015625 14.40625 51.78125 6.484375 
Q 45.5625 -1.421875 35.59375 -1.421875 
Q 29.59375 -1.421875 25.265625 0.953125 
Q 20.953125 3.328125 18.109375 8.203125 
z
M 48.6875 27.296875 
Q 48.6875 37.203125 44.609375 42.84375 
Q 40.53125 48.484375 33.40625 48.484375 
Q 26.265625 48.484375 22.1875 42.84375 
Q 18.109375 37.203125 18.109375 27.296875 
Q 18.109375 17.390625 22.1875 11.75 
Q 26.265625 6.109375 33.40625 6.109375 
Q 40.53125 6.109375 44.609375 11.75 
Q 48.6875 17.390625 48.6875 27.296875 
z
" id="DejaVuSans-112"/>
       </defs>
       <use xlink:href="#DejaVuSans-65"/>
       <use x="68.408203" xlink:href="#DejaVuSans-112"/>
       <use x="131.884766" xlink:href="#DejaVuSans-114"/>
      </g>
     </g>
    </g>
    <g id="text_8">
     <!-- 2021-Apr -->
     <g transform="translate(509.007344 414.499531)scale(0.13 -0.13)">
      <defs>
       <path d="M 19.1875 8.296875 
L 53.609375 8.296875 
L 53.609375 0 
L 7.328125 0 
L 7.328125 8.296875 
Q 12.9375 14.109375 22.625 23.890625 
Q 32.328125 33.6875 34.8125 36.53125 
Q 39.546875 41.84375 41.421875 45.53125 
Q 43.3125 49.21875 43.3125 52.78125 
Q 43.3125 58.59375 39.234375 62.25 
Q 35.15625 65.921875 28.609375 65.921875 
Q 23.96875 65.921875 18.8125 64.3125 
Q 13.671875 62.703125 7.8125 59.421875 
L 7.8125 69.390625 
Q 13.765625 71.78125 18.9375 73 
Q 24.125 74.21875 28.421875 74.21875 
Q 39.75 74.21875 46.484375 68.546875 
Q 53.21875 62.890625 53.21875 53.421875 
Q 53.21875 48.921875 51.53125 44.890625 
Q 49.859375 40.875 45.40625 35.40625 
Q 44.1875 33.984375 37.640625 27.21875 
Q 31.109375 20.453125 19.1875 8.296875 
z
" id="DejaVuSans-50"/>
       <path d="M 31.78125 66.40625 
Q 24.171875 66.40625 20.328125 58.90625 
Q 16.5 51.421875 16.5 36.375 
Q 16.5 21.390625 20.328125 13.890625 
Q 24.171875 6.390625 31.78125 6.390625 
Q 39.453125 6.390625 43.28125 13.890625 
Q 47.125 21.390625 47.125 36.375 
Q 47.125 51.421875 43.28125 58.90625 
Q 39.453125 66.40625 31.78125 66.40625 
z
M 31.78125 74.21875 
Q 44.046875 74.21875 50.515625 64.515625 
Q 56.984375 54.828125 56.984375 36.375 
Q 56.984375 17.96875 50.515625 8.265625 
Q 44.046875 -1.421875 31.78125 -1.421875 
Q 19.53125 -1.421875 13.0625 8.265625 
Q 6.59375 17.96875 6.59375 36.375 
Q 6.59375 54.828125 13.0625 64.515625 
Q 19.53125 74.21875 31.78125 74.21875 
z
" id="DejaVuSans-48"/>
       <path d="M 4.890625 31.390625 
L 31.203125 31.390625 
L 31.203125 23.390625 
L 4.890625 23.390625 
z
" id="DejaVuSans-45"/>
      </defs>
      <use xlink:href="#DejaVuSans-50"/>
      <use x="63.623047" xlink:href="#DejaVuSans-48"/>
      <use x="127.246094" xlink:href="#DejaVuSans-50"/>
      <use x="190.869141" xlink:href="#DejaVuSans-49"/>
      <use x="254.492188" xlink:href="#DejaVuSans-45"/>
      <use x="288.326172" xlink:href="#DejaVuSans-65"/>
      <use x="356.734375" xlink:href="#DejaVuSans-112"/>
      <use x="420.210938" xlink:href="#DejaVuSans-114"/>
     </g>
    </g>
   </g>
   <g id="matplotlib.axis_2">
    <g id="ytick_1">
     <g id="line2d_8">
      <defs>
       <path d="M 0 0 
L -3.5 0 
" id="m12df4c6c64" style="stroke:#000000;stroke-width:0.8;"/>
      </defs>
      <g>
       <use style="stroke:#000000;stroke-width:0.8;" x="53.8" xlink:href="#m12df4c6c64" y="382.04"/>
      </g>
     </g>
     <g id="text_9">
      <!-- 0 -->
      <g transform="translate(38.52875 386.978984)scale(0.13 -0.13)">
       <use xlink:href="#DejaVuSans-48"/>
      </g>
     </g>
    </g>
    <g id="ytick_2">
     <g id="line2d_9">
      <g>
       <use style="stroke:#000000;stroke-width:0.8;" x="53.8" xlink:href="#m12df4c6c64" y="338.23"/>
      </g>
     </g>
     <g id="text_10">
      <!-- 500 -->
      <g transform="translate(21.98625 343.168984)scale(0.13 -0.13)">
       <use xlink:href="#DejaVuSans-53"/>
       <use x="63.623047" xlink:href="#DejaVuSans-48"/>
       <use x="127.246094" xlink:href="#DejaVuSans-48"/>
      </g>
     </g>
    </g>
    <g id="ytick_3">
     <g id="line2d_10">
      <g>
       <use style="stroke:#000000;stroke-width:0.8;" x="53.8" xlink:href="#m12df4c6c64" y="294.42"/>
      </g>
     </g>
     <g id="text_11">
      <!-- 1000 -->
      <g transform="translate(13.715 299.358984)scale(0.13 -0.13)">
       <use xlink:href="#DejaVuSans-49"/>
       <use x="63.623047" xlink:href="#DejaVuSans-48"/>
       <use x="127.246094" xlink:href="#DejaVuSans-48"/>
       <use x="190.869141" xlink:href="#DejaVuSans-48"/>
      </g>
     </g>
    </g>
    <g id="ytick_4">
     <g id="line2d_11">
      <g>
       <use style="stroke:#000000;stroke-width:0.8;" x="53.8" xlink:href="#m12df4c6c64" y="250.61"/>
      </g>
     </g>
     <g id="text_12">
      <!-- 1500 -->
      <g transform="translate(13.715 255.548984)scale(0.13 -0.13)">
       <use xlink:href="#DejaVuSans-49"/>
       <use x="63.623047" xlink:href="#DejaVuSans-53"/>
       <use x="127.246094" xlink:href="#DejaVuSans-48"/>
       <use x="190.869141" xlink:href="#DejaVuSans-48"/>
      </g>
     </g>
    </g>
    <g id="ytick_5">
     <g id="line2d_12">
      <g>
       <use style="stroke:#000000;stroke-width:0.8;" x="53.8" xlink:href="#m12df4c6c64" y="206.8"/>
      </g>
     </g>
     <g id="text_13">
      <!-- 2000 -->
      <g transform="translate(13.715 211.738984)scale(0.13 -0.13)">
       <use xlink:href="#DejaVuSans-50"/>
       <use x="63.623047" xlink:href="#DejaVuSans-48"/>
       <use x="127.246094" xlink:href="#DejaVuSans-48"/>
       <use x="190.869141" xlink:href="#DejaVuSans-48"/>
      </g>
     </g>
    </g>
    <g id="ytick_6">
     <g id="line2d_13">
      <g>
       <use style="stroke:#000000;stroke-width:0.8;" x="53.8" xlink:href="#m12df4c6c64" y="162.99"/>
      </g>
     </g>
     <g id="text_14">
      <!-- 2500 -->
      <g transform="translate(13.715 167.928984)scale(0.13 -0.13)">
       <use xlink:href="#DejaVuSans-50"/>
       <use x="63.623047" xlink:href="#DejaVuSans-53"/>
       <use x="127.246094" xlink:href="#DejaVuSans-48"/>
       <use x="190.869141" xlink:href="#DejaVuSans-48"/>
      </g>
     </g>
    </g>
    <g id="ytick_7">
     <g id="line2d_14">
      <g>
       <use style="stroke:#000000;stroke-width:0.8;" x="53.8" xlink:href="#m12df4c6c64" y="119.18"/>
      </g>
     </g>
     <g id="text_15">
      <!-- 3000 -->
      <g transform="translate(13.715 124.118984)scale(0.13 -0.13)">
       <defs>
        <path d="M 40.578125 39.3125 
Q 47.65625 37.796875 51.625 33 
Q 55.609375 28.21875 55.609375 21.1875 
Q 55.609375 10.40625 48.1875 4.484375 
Q 40.765625 -1.421875 27.09375 -1.421875 
Q 22.515625 -1.421875 17.65625 -0.515625 
Q 12.796875 0.390625 7.625 2.203125 
L 7.625 11.71875 
Q 11.71875 9.328125 16.59375 8.109375 
Q 21.484375 6.890625 26.8125 6.890625 
Q 36.078125 6.890625 40.9375 10.546875 
Q 45.796875 14.203125 45.796875 21.1875 
Q 45.796875 27.640625 41.28125 31.265625 
Q 36.765625 34.90625 28.71875 34.90625 
L 20.21875 34.90625 
L 20.21875 43.015625 
L 29.109375 43.015625 
Q 36.375 43.015625 40.234375 45.921875 
Q 44.09375 48.828125 44.09375 54.296875 
Q 44.09375 59.90625 40.109375 62.90625 
Q 36.140625 65.921875 28.71875 65.921875 
Q 24.65625 65.921875 20.015625 65.03125 
Q 15.375 64.15625 9.8125 62.3125 
L 9.8125 71.09375 
Q 15.4375 72.65625 20.34375 73.4375 
Q 25.25 74.21875 29.59375 74.21875 
Q 40.828125 74.21875 47.359375 69.109375 
Q 53.90625 64.015625 53.90625 55.328125 
Q 53.90625 49.265625 50.4375 45.09375 
Q 46.96875 40.921875 40.578125 39.3125 
z
" id="DejaVuSans-51"/>
       </defs>
       <use xlink:href="#DejaVuSans-51"/>
       <use x="63.623047" xlink:href="#DejaVuSans-48"/>
       <use x="127.246094" xlink:href="#DejaVuSans-48"/>
       <use x="190.869141" xlink:href="#DejaVuSans-48"/>
      </g>
     </g>
    </g>
    <g id="ytick_8">
     <g id="line2d_15">
      <g>
       <use style="stroke:#000000;stroke-width:0.8;" x="53.8" xlink:href="#m12df4c6c64" y="75.37"/>
      </g>
     </g>
     <g id="text_16">
      <!-- 3500 -->
      <g transform="translate(13.715 80.308984)scale(0.13 -0.13)">
       <use xlink:href="#DejaVuSans-51"/>
       <use x="63.623047" xlink:href="#DejaVuSans-53"/>
       <use x="127.246094" xlink:href="#DejaVuSans-48"/>
       <use x="190.869141" xlink:href="#DejaVuSans-48"/>
      </g>
     </g>
    </g>
    <g id="ytick_9">
     <g id="line2d_16">
      <g>
       <use style="stroke:#000000;stroke-width:0.8;" x="53.8" xlink:href="#m12df4c6c64" y="31.56"/>
      </g>
     </g>
     <g id="text_17">
      <!-- 4000 -->
      <g transform="translate(13.715 36.498984)scale(0.13 -0.13)">
       <defs>
        <path d="M 37.796875 64.3125 
L 12.890625 25.390625 
L 37.796875 25.390625 
z
M 35.203125 72.90625 
L 47.609375 72.90625 
L 47.609375 25.390625 
L 58.015625 25.390625 
L 58.015625 17.1875 
L 47.609375 17.1875 
L 47.609375 0 
L 37.796875 0 
L 37.796875 17.1875 
L 4.890625 17.1875 
L 4.890625 26.703125 
z
" id="DejaVuSans-52"/>
       </defs>
       <use xlink:href="#DejaVuSans-52"/>
       <use x="63.623047" xlink:href="#DejaVuSans-48"/>
       <use x="127.246094" xlink:href="#DejaVuSans-48"/>
       <use x="190.869141" xlink:href="#DejaVuSans-48"/>
      </g>
     </g>
    </g>
   </g>
   <g id="line2d_17">
    <path clip-path="url(#pefc4c0d677)" d="M 77.217273 86.460189 
L 82.421111 90.165263 
L 87.624949 100.95504 
L 92.828788 99.427949 
L 98.032626 82.279463 
L 103.236465 95.247223 
L 108.440303 106.800546 
L 113.644141 129.556711 
L 118.84798 149.05842 
L 124.051818 160.161126 
L 129.255657 171.902206 
L 134.459495 183.042463 
L 139.663333 187.360877 
L 144.867172 192.380251 
L 150.07101 198.801546 
L 155.274848 202.256277 
L 160.478687 204.52188 
L 165.682525 206.812517 
L 170.886364 208.339609 
L 176.090202 211.331206 
L 181.29404 213.333949 
L 186.497879 219.041766 
L 191.701717 225.2002 
L 196.905556 230.332229 
L 202.109394 233.78696 
L 207.313232 237.191623 
L 212.517071 238.180477 
L 217.720909 238.105374 
L 222.924747 242.210997 
L 228.128586 244.56422 
L 233.332424 246.329137 
L 238.536263 250.534897 
L 243.740101 253.776837 
L 248.943939 255.4291 
L 254.147778 256.242714 
L 259.351616 261.437329 
L 264.555455 265.230023 
L 269.759293 271.138114 
L 274.963131 274.53026 
L 280.16697 279.224189 
L 285.370808 281.339586 
L 290.574646 283.717843 
L 295.778485 289.237903 
L 300.982323 291.853986 
L 306.186162 292.379706 
L 311.39 294.457551 
L 316.593838 294.908169 
L 321.797677 295.233614 
L 327.001515 294.707894 
L 332.205354 293.406111 
L 337.409192 291.87902 
L 342.61303 293.618903 
L 347.816869 292.179431 
L 353.020707 292.342154 
L 358.224545 291.954123 
L 363.428384 291.678746 
L 368.632222 291.566091 
L 373.836061 291.941606 
L 379.039899 289.888794 
L 384.243737 290.614789 
L 389.447576 288.173946 
L 394.651414 287.635709 
L 399.855253 287.210126 
L 405.059091 283.667774 
L 410.262929 281.702583 
L 415.466768 279.850046 
L 420.670606 276.395314 
L 425.874444 275.594217 
L 431.078283 273.65406 
L 436.282121 272.114451 
L 441.48596 269.373197 
L 446.689798 266.081189 
L 451.893636 260.59868 
L 457.097475 256.768434 
L 462.301313 254.227454 
L 467.505152 251.874231 
L 472.70899 250.835309 
L 477.912828 246.566963 
L 483.116667 242.273583 
L 488.320505 241.021869 
L 493.524343 234.8384 
L 498.728182 229.180651 
L 503.93202 227.941454 
L 509.135859 225.325371 
L 514.339697 221.983294 
L 519.543535 220.73158 
L 524.747374 218.165566 
L 529.951212 220.230894 
L 535.155051 230.307194 
L 540.358889 228.96786 
L 545.562727 228.755069 
" style="fill:none;stroke:#67916e;stroke-linecap:square;stroke-width:4;"/>
   </g>
   <g id="line2d_18">
    <path clip-path="url(#pefc4c0d677)" d="M 77.217273 377.809206 
L 82.421111 375.869049 
L 87.624949 375.869049 
L 92.828788 375.193123 
L 98.032626 373.703583 
L 103.236465 372.026286 
L 108.440303 371.125051 
L 113.644141 369.622994 
L 118.84798 371.412946 
L 124.051818 371.17512 
L 129.255657 371.012397 
L 134.459495 370.12368 
L 139.663333 371.463014 
L 144.867172 371.663289 
L 150.07101 373.290517 
L 155.274848 372.13894 
L 160.478687 370.711986 
L 165.682525 369.94844 
L 170.886364 370.6494 
L 176.090202 369.059723 
L 181.29404 368.784346 
L 186.497879 366.043091 
L 191.701717 364.853963 
L 196.905556 363.827557 
L 202.109394 361.086303 
L 207.313232 358.795666 
L 212.517071 358.720563 
L 217.720909 358.482737 
L 222.924747 355.115626 
L 228.128586 353.47588 
L 233.332424 350.396663 
L 238.536263 352.299269 
L 243.740101 349.895977 
L 248.943939 350.171354 
L 254.147778 348.3063 
L 259.351616 349.457877 
L 264.555455 349.107397 
L 269.759293 347.818131 
L 274.963131 344.150609 
L 280.16697 344.250746 
L 285.370808 342.385691 
L 290.574646 343.83768 
L 295.778485 343.762577 
L 300.982323 343.186789 
L 306.186162 343.950334 
L 311.39 346.46628 
L 316.593838 345.978111 
L 321.797677 344.676329 
L 327.001515 340.921186 
L 332.205354 335.100714 
L 337.409192 331.295503 
L 342.61303 328.904729 
L 347.816869 324.99938 
L 353.020707 325.17462 
L 358.224545 325.650271 
L 363.428384 324.361006 
L 368.632222 324.048077 
L 373.836061 321.857577 
L 379.039899 318.215089 
L 384.243737 315.674109 
L 389.447576 309.966291 
L 394.651414 307.525449 
L 399.855253 307.099866 
L 405.059091 301.241843 
L 410.262929 297.987386 
L 415.466768 297.599354 
L 420.670606 294.795514 
L 425.874444 293.268423 
L 431.078283 289.938863 
L 436.282121 289.563349 
L 441.48596 285.808206 
L 446.689798 282.215786 
L 451.893636 274.455157 
L 457.097475 268.897546 
" style="fill:none;stroke:#0d4a70;stroke-linecap:square;stroke-width:4;"/>
   </g>
   <g id="patch_3">
    <path d="M 53.8 382.04 
L 53.8 31.56 
" style="fill:none;stroke:#000000;stroke-linecap:square;stroke-linejoin:miter;stroke-width:0.8;"/>
   </g>
   <g id="patch_4">
    <path d="M 568.98 382.04 
L 568.98 31.56 
" style="fill:none;stroke:#000000;stroke-linecap:square;stroke-linejoin:miter;stroke-width:0.8;"/>
   </g>
   <g id="patch_5">
    <path d="M 53.8 382.04 
L 568.98 382.04 
" style="fill:none;stroke:#000000;stroke-linecap:square;stroke-linejoin:miter;stroke-width:0.8;"/>
   </g>
   <g id="patch_6">
    <path d="M 53.8 31.56 
L 568.98 31.56 
" style="fill:none;stroke:#000000;stroke-linecap:square;stroke-linejoin:miter;stroke-width:0.8;"/>
   </g>
   <g id="text_18">
    <!-- Switzerland - data from Viollier -->
    <g transform="translate(190.839781 25.56)scale(0.156 -0.156)">
     <defs>
      <path d="M 53.515625 70.515625 
L 53.515625 60.890625 
Q 47.90625 63.578125 42.921875 64.890625 
Q 37.9375 66.21875 33.296875 66.21875 
Q 25.25 66.21875 20.875 63.09375 
Q 16.5 59.96875 16.5 54.203125 
Q 16.5 49.359375 19.40625 46.890625 
Q 22.3125 44.4375 30.421875 42.921875 
L 36.375 41.703125 
Q 47.40625 39.59375 52.65625 34.296875 
Q 57.90625 29 57.90625 20.125 
Q 57.90625 9.515625 50.796875 4.046875 
Q 43.703125 -1.421875 29.984375 -1.421875 
Q 24.8125 -1.421875 18.96875 -0.25 
Q 13.140625 0.921875 6.890625 3.21875 
L 6.890625 13.375 
Q 12.890625 10.015625 18.65625 8.296875 
Q 24.421875 6.59375 29.984375 6.59375 
Q 38.421875 6.59375 43.015625 9.90625 
Q 47.609375 13.234375 47.609375 19.390625 
Q 47.609375 24.75 44.3125 27.78125 
Q 41.015625 30.8125 33.5 32.328125 
L 27.484375 33.5 
Q 16.453125 35.6875 11.515625 40.375 
Q 6.59375 45.0625 6.59375 53.421875 
Q 6.59375 63.09375 13.40625 68.65625 
Q 20.21875 74.21875 32.171875 74.21875 
Q 37.3125 74.21875 42.625 73.28125 
Q 47.953125 72.359375 53.515625 70.515625 
z
" id="DejaVuSans-83"/>
      <path d="M 4.203125 54.6875 
L 13.1875 54.6875 
L 24.421875 12.015625 
L 35.59375 54.6875 
L 46.1875 54.6875 
L 57.421875 12.015625 
L 68.609375 54.6875 
L 77.59375 54.6875 
L 63.28125 0 
L 52.6875 0 
L 40.921875 44.828125 
L 29.109375 0 
L 18.5 0 
z
" id="DejaVuSans-119"/>
      <path d="M 9.421875 54.6875 
L 18.40625 54.6875 
L 18.40625 0 
L 9.421875 0 
z
M 9.421875 75.984375 
L 18.40625 75.984375 
L 18.40625 64.59375 
L 9.421875 64.59375 
z
" id="DejaVuSans-105"/>
      <path d="M 18.3125 70.21875 
L 18.3125 54.6875 
L 36.8125 54.6875 
L 36.8125 47.703125 
L 18.3125 47.703125 
L 18.3125 18.015625 
Q 18.3125 11.328125 20.140625 9.421875 
Q 21.96875 7.515625 27.59375 7.515625 
L 36.8125 7.515625 
L 36.8125 0 
L 27.59375 0 
Q 17.1875 0 13.234375 3.875 
Q 9.28125 7.765625 9.28125 18.015625 
L 9.28125 47.703125 
L 2.6875 47.703125 
L 2.6875 54.6875 
L 9.28125 54.6875 
L 9.28125 70.21875 
z
" id="DejaVuSans-116"/>
      <path d="M 5.515625 54.6875 
L 48.1875 54.6875 
L 48.1875 46.484375 
L 14.40625 7.171875 
L 48.1875 7.171875 
L 48.1875 0 
L 4.296875 0 
L 4.296875 8.203125 
L 38.09375 47.515625 
L 5.515625 47.515625 
z
" id="DejaVuSans-122"/>
      <path d="M 9.421875 75.984375 
L 18.40625 75.984375 
L 18.40625 0 
L 9.421875 0 
z
" id="DejaVuSans-108"/>
      <path d="M 45.40625 46.390625 
L 45.40625 75.984375 
L 54.390625 75.984375 
L 54.390625 0 
L 45.40625 0 
L 45.40625 8.203125 
Q 42.578125 3.328125 38.25 0.953125 
Q 33.9375 -1.421875 27.875 -1.421875 
Q 17.96875 -1.421875 11.734375 6.484375 
Q 5.515625 14.40625 5.515625 27.296875 
Q 5.515625 40.1875 11.734375 48.09375 
Q 17.96875 56 27.875 56 
Q 33.9375 56 38.25 53.625 
Q 42.578125 51.265625 45.40625 46.390625 
z
M 14.796875 27.296875 
Q 14.796875 17.390625 18.875 11.75 
Q 22.953125 6.109375 30.078125 6.109375 
Q 37.203125 6.109375 41.296875 11.75 
Q 45.40625 17.390625 45.40625 27.296875 
Q 45.40625 37.203125 41.296875 42.84375 
Q 37.203125 48.484375 30.078125 48.484375 
Q 22.953125 48.484375 18.875 42.84375 
Q 14.796875 37.203125 14.796875 27.296875 
z
" id="DejaVuSans-100"/>
      <path id="DejaVuSans-32"/>
      <path d="M 37.109375 75.984375 
L 37.109375 68.5 
L 28.515625 68.5 
Q 23.6875 68.5 21.796875 66.546875 
Q 19.921875 64.59375 19.921875 59.515625 
L 19.921875 54.6875 
L 34.71875 54.6875 
L 34.71875 47.703125 
L 19.921875 47.703125 
L 19.921875 0 
L 10.890625 0 
L 10.890625 47.703125 
L 2.296875 47.703125 
L 2.296875 54.6875 
L 10.890625 54.6875 
L 10.890625 58.5 
Q 10.890625 67.625 15.140625 71.796875 
Q 19.390625 75.984375 28.609375 75.984375 
z
" id="DejaVuSans-102"/>
      <path d="M 30.609375 48.390625 
Q 23.390625 48.390625 19.1875 42.75 
Q 14.984375 37.109375 14.984375 27.296875 
Q 14.984375 17.484375 19.15625 11.84375 
Q 23.34375 6.203125 30.609375 6.203125 
Q 37.796875 6.203125 41.984375 11.859375 
Q 46.1875 17.53125 46.1875 27.296875 
Q 46.1875 37.015625 41.984375 42.703125 
Q 37.796875 48.390625 30.609375 48.390625 
z
M 30.609375 56 
Q 42.328125 56 49.015625 48.375 
Q 55.71875 40.765625 55.71875 27.296875 
Q 55.71875 13.875 49.015625 6.21875 
Q 42.328125 -1.421875 30.609375 -1.421875 
Q 18.84375 -1.421875 12.171875 6.21875 
Q 5.515625 13.875 5.515625 27.296875 
Q 5.515625 40.765625 12.171875 48.375 
Q 18.84375 56 30.609375 56 
z
" id="DejaVuSans-111"/>
      <path d="M 52 44.1875 
Q 55.375 50.25 60.0625 53.125 
Q 64.75 56 71.09375 56 
Q 79.640625 56 84.28125 50.015625 
Q 88.921875 44.046875 88.921875 33.015625 
L 88.921875 0 
L 79.890625 0 
L 79.890625 32.71875 
Q 79.890625 40.578125 77.09375 44.375 
Q 74.3125 48.1875 68.609375 48.1875 
Q 61.625 48.1875 57.5625 43.546875 
Q 53.515625 38.921875 53.515625 30.90625 
L 53.515625 0 
L 44.484375 0 
L 44.484375 32.71875 
Q 44.484375 40.625 41.703125 44.40625 
Q 38.921875 48.1875 33.109375 48.1875 
Q 26.21875 48.1875 22.15625 43.53125 
Q 18.109375 38.875 18.109375 30.90625 
L 18.109375 0 
L 9.078125 0 
L 9.078125 54.6875 
L 18.109375 54.6875 
L 18.109375 46.1875 
Q 21.1875 51.21875 25.484375 53.609375 
Q 29.78125 56 35.6875 56 
Q 41.65625 56 45.828125 52.96875 
Q 50 49.953125 52 44.1875 
z
" id="DejaVuSans-109"/>
      <path d="M 28.609375 0 
L 0.78125 72.90625 
L 11.078125 72.90625 
L 34.1875 11.53125 
L 57.328125 72.90625 
L 67.578125 72.90625 
L 39.796875 0 
z
" id="DejaVuSans-86"/>
     </defs>
     <use xlink:href="#DejaVuSans-83"/>
     <use x="63.476562" xlink:href="#DejaVuSans-119"/>
     <use x="145.263672" xlink:href="#DejaVuSans-105"/>
     <use x="173.046875" xlink:href="#DejaVuSans-116"/>
     <use x="212.255859" xlink:href="#DejaVuSans-122"/>
     <use x="264.746094" xlink:href="#DejaVuSans-101"/>
     <use x="326.269531" xlink:href="#DejaVuSans-114"/>
     <use x="367.382812" xlink:href="#DejaVuSans-108"/>
     <use x="395.166016" xlink:href="#DejaVuSans-97"/>
     <use x="456.445312" xlink:href="#DejaVuSans-110"/>
     <use x="519.824219" xlink:href="#DejaVuSans-100"/>
     <use x="583.300781" xlink:href="#DejaVuSans-32"/>
     <use x="615.087891" xlink:href="#DejaVuSans-45"/>
     <use x="651.171875" xlink:href="#DejaVuSans-32"/>
     <use x="682.958984" xlink:href="#DejaVuSans-100"/>
     <use x="746.435547" xlink:href="#DejaVuSans-97"/>
     <use x="807.714844" xlink:href="#DejaVuSans-116"/>
     <use x="846.923828" xlink:href="#DejaVuSans-97"/>
     <use x="908.203125" xlink:href="#DejaVuSans-32"/>
     <use x="939.990234" xlink:href="#DejaVuSans-102"/>
     <use x="975.195312" xlink:href="#DejaVuSans-114"/>
     <use x="1014.058594" xlink:href="#DejaVuSans-111"/>
     <use x="1075.240234" xlink:href="#DejaVuSans-109"/>
     <use x="1172.652344" xlink:href="#DejaVuSans-32"/>
     <use x="1204.439453" xlink:href="#DejaVuSans-86"/>
     <use x="1270.597656" xlink:href="#DejaVuSans-105"/>
     <use x="1298.380859" xlink:href="#DejaVuSans-111"/>
     <use x="1359.5625" xlink:href="#DejaVuSans-108"/>
     <use x="1387.345703" xlink:href="#DejaVuSans-108"/>
     <use x="1415.128906" xlink:href="#DejaVuSans-105"/>
     <use x="1442.912109" xlink:href="#DejaVuSans-101"/>
     <use x="1504.435547" xlink:href="#DejaVuSans-114"/>
    </g>
   </g>
   <g id="legend_1">
    <g id="patch_7">
     <path d="M 141.972656 80.123125 
L 559.88 80.123125 
Q 562.48 80.123125 562.48 77.523125 
L 562.48 40.66 
Q 562.48 38.06 559.88 38.06 
L 141.972656 38.06 
Q 139.372656 38.06 139.372656 40.66 
L 139.372656 77.523125 
Q 139.372656 80.123125 141.972656 80.123125 
z
" style="fill:#ffffff;opacity:0.8;stroke:#cccccc;stroke-linejoin:miter;"/>
    </g>
    <g id="line2d_19">
     <path d="M 144.572656 48.587969 
L 170.572656 48.587969 
" style="fill:none;stroke:#67916e;stroke-linecap:square;stroke-width:4;"/>
    </g>
    <g id="line2d_20"/>
    <g id="text_19">
     <!-- Data: Total number of confirmed cases (7-day average) -->
     <g transform="translate(180.972656 53.137969)scale(0.13 -0.13)">
      <defs>
       <path d="M 19.671875 64.796875 
L 19.671875 8.109375 
L 31.59375 8.109375 
Q 46.6875 8.109375 53.6875 14.9375 
Q 60.6875 21.78125 60.6875 36.53125 
Q 60.6875 51.171875 53.6875 57.984375 
Q 46.6875 64.796875 31.59375 64.796875 
z
M 9.8125 72.90625 
L 30.078125 72.90625 
Q 51.265625 72.90625 61.171875 64.09375 
Q 71.09375 55.28125 71.09375 36.53125 
Q 71.09375 17.671875 61.125 8.828125 
Q 51.171875 0 30.078125 0 
L 9.8125 0 
z
" id="DejaVuSans-68"/>
       <path d="M 11.71875 12.40625 
L 22.015625 12.40625 
L 22.015625 0 
L 11.71875 0 
z
M 11.71875 51.703125 
L 22.015625 51.703125 
L 22.015625 39.3125 
L 11.71875 39.3125 
z
" id="DejaVuSans-58"/>
       <path d="M -0.296875 72.90625 
L 61.375 72.90625 
L 61.375 64.59375 
L 35.5 64.59375 
L 35.5 0 
L 25.59375 0 
L 25.59375 64.59375 
L -0.296875 64.59375 
z
" id="DejaVuSans-84"/>
       <path d="M 8.5 21.578125 
L 8.5 54.6875 
L 17.484375 54.6875 
L 17.484375 21.921875 
Q 17.484375 14.15625 20.5 10.265625 
Q 23.53125 6.390625 29.59375 6.390625 
Q 36.859375 6.390625 41.078125 11.03125 
Q 45.3125 15.671875 45.3125 23.6875 
L 45.3125 54.6875 
L 54.296875 54.6875 
L 54.296875 0 
L 45.3125 0 
L 45.3125 8.40625 
Q 42.046875 3.421875 37.71875 1 
Q 33.40625 -1.421875 27.6875 -1.421875 
Q 18.265625 -1.421875 13.375 4.4375 
Q 8.5 10.296875 8.5 21.578125 
z
M 31.109375 56 
z
" id="DejaVuSans-117"/>
       <path d="M 48.78125 52.59375 
L 48.78125 44.1875 
Q 44.96875 46.296875 41.140625 47.34375 
Q 37.3125 48.390625 33.40625 48.390625 
Q 24.65625 48.390625 19.8125 42.84375 
Q 14.984375 37.3125 14.984375 27.296875 
Q 14.984375 17.28125 19.8125 11.734375 
Q 24.65625 6.203125 33.40625 6.203125 
Q 37.3125 6.203125 41.140625 7.25 
Q 44.96875 8.296875 48.78125 10.40625 
L 48.78125 2.09375 
Q 45.015625 0.34375 40.984375 -0.53125 
Q 36.96875 -1.421875 32.421875 -1.421875 
Q 20.0625 -1.421875 12.78125 6.34375 
Q 5.515625 14.109375 5.515625 27.296875 
Q 5.515625 40.671875 12.859375 48.328125 
Q 20.21875 56 33.015625 56 
Q 37.15625 56 41.109375 55.140625 
Q 45.0625 54.296875 48.78125 52.59375 
z
" id="DejaVuSans-99"/>
       <path d="M 44.28125 53.078125 
L 44.28125 44.578125 
Q 40.484375 46.53125 36.375 47.5 
Q 32.28125 48.484375 27.875 48.484375 
Q 21.1875 48.484375 17.84375 46.4375 
Q 14.5 44.390625 14.5 40.28125 
Q 14.5 37.15625 16.890625 35.375 
Q 19.28125 33.59375 26.515625 31.984375 
L 29.59375 31.296875 
Q 39.15625 29.25 43.1875 25.515625 
Q 47.21875 21.78125 47.21875 15.09375 
Q 47.21875 7.46875 41.1875 3.015625 
Q 35.15625 -1.421875 24.609375 -1.421875 
Q 20.21875 -1.421875 15.453125 -0.5625 
Q 10.6875 0.296875 5.421875 2 
L 5.421875 11.28125 
Q 10.40625 8.6875 15.234375 7.390625 
Q 20.0625 6.109375 24.8125 6.109375 
Q 31.15625 6.109375 34.5625 8.28125 
Q 37.984375 10.453125 37.984375 14.40625 
Q 37.984375 18.0625 35.515625 20.015625 
Q 33.0625 21.96875 24.703125 23.78125 
L 21.578125 24.515625 
Q 13.234375 26.265625 9.515625 29.90625 
Q 5.8125 33.546875 5.8125 39.890625 
Q 5.8125 47.609375 11.28125 51.796875 
Q 16.75 56 26.8125 56 
Q 31.78125 56 36.171875 55.265625 
Q 40.578125 54.546875 44.28125 53.078125 
z
" id="DejaVuSans-115"/>
       <path d="M 31 75.875 
Q 24.46875 64.65625 21.28125 53.65625 
Q 18.109375 42.671875 18.109375 31.390625 
Q 18.109375 20.125 21.3125 9.0625 
Q 24.515625 -2 31 -13.1875 
L 23.1875 -13.1875 
Q 15.875 -1.703125 12.234375 9.375 
Q 8.59375 20.453125 8.59375 31.390625 
Q 8.59375 42.28125 12.203125 53.3125 
Q 15.828125 64.359375 23.1875 75.875 
z
" id="DejaVuSans-40"/>
       <path d="M 8.203125 72.90625 
L 55.078125 72.90625 
L 55.078125 68.703125 
L 28.609375 0 
L 18.3125 0 
L 43.21875 64.59375 
L 8.203125 64.59375 
z
" id="DejaVuSans-55"/>
       <path d="M 32.171875 -5.078125 
Q 28.375 -14.84375 24.75 -17.8125 
Q 21.140625 -20.796875 15.09375 -20.796875 
L 7.90625 -20.796875 
L 7.90625 -13.28125 
L 13.1875 -13.28125 
Q 16.890625 -13.28125 18.9375 -11.515625 
Q 21 -9.765625 23.484375 -3.21875 
L 25.09375 0.875 
L 2.984375 54.6875 
L 12.5 54.6875 
L 29.59375 11.921875 
L 46.6875 54.6875 
L 56.203125 54.6875 
z
" id="DejaVuSans-121"/>
       <path d="M 2.984375 54.6875 
L 12.5 54.6875 
L 29.59375 8.796875 
L 46.6875 54.6875 
L 56.203125 54.6875 
L 35.6875 0 
L 23.484375 0 
z
" id="DejaVuSans-118"/>
       <path d="M 45.40625 27.984375 
Q 45.40625 37.75 41.375 43.109375 
Q 37.359375 48.484375 30.078125 48.484375 
Q 22.859375 48.484375 18.828125 43.109375 
Q 14.796875 37.75 14.796875 27.984375 
Q 14.796875 18.265625 18.828125 12.890625 
Q 22.859375 7.515625 30.078125 7.515625 
Q 37.359375 7.515625 41.375 12.890625 
Q 45.40625 18.265625 45.40625 27.984375 
z
M 54.390625 6.78125 
Q 54.390625 -7.171875 48.1875 -13.984375 
Q 42 -20.796875 29.203125 -20.796875 
Q 24.46875 -20.796875 20.265625 -20.09375 
Q 16.0625 -19.390625 12.109375 -17.921875 
L 12.109375 -9.1875 
Q 16.0625 -11.328125 19.921875 -12.34375 
Q 23.78125 -13.375 27.78125 -13.375 
Q 36.625 -13.375 41.015625 -8.765625 
Q 45.40625 -4.15625 45.40625 5.171875 
L 45.40625 9.625 
Q 42.625 4.78125 38.28125 2.390625 
Q 33.9375 0 27.875 0 
Q 17.828125 0 11.671875 7.65625 
Q 5.515625 15.328125 5.515625 27.984375 
Q 5.515625 40.671875 11.671875 48.328125 
Q 17.828125 56 27.875 56 
Q 33.9375 56 38.28125 53.609375 
Q 42.625 51.21875 45.40625 46.390625 
L 45.40625 54.6875 
L 54.390625 54.6875 
z
" id="DejaVuSans-103"/>
       <path d="M 8.015625 75.875 
L 15.828125 75.875 
Q 23.140625 64.359375 26.78125 53.3125 
Q 30.421875 42.28125 30.421875 31.390625 
Q 30.421875 20.453125 26.78125 9.375 
Q 23.140625 -1.703125 15.828125 -13.1875 
L 8.015625 -13.1875 
Q 14.5 -2 17.703125 9.0625 
Q 20.90625 20.125 20.90625 31.390625 
Q 20.90625 42.671875 17.703125 53.65625 
Q 14.5 64.65625 8.015625 75.875 
z
" id="DejaVuSans-41"/>
      </defs>
      <use xlink:href="#DejaVuSans-68"/>
      <use x="77.001953" xlink:href="#DejaVuSans-97"/>
      <use x="138.28125" xlink:href="#DejaVuSans-116"/>
      <use x="177.490234" xlink:href="#DejaVuSans-97"/>
      <use x="238.769531" xlink:href="#DejaVuSans-58"/>
      <use x="272.460938" xlink:href="#DejaVuSans-32"/>
      <use x="304.248047" xlink:href="#DejaVuSans-84"/>
      <use x="348.332031" xlink:href="#DejaVuSans-111"/>
      <use x="409.513672" xlink:href="#DejaVuSans-116"/>
      <use x="448.722656" xlink:href="#DejaVuSans-97"/>
      <use x="510.001953" xlink:href="#DejaVuSans-108"/>
      <use x="537.785156" xlink:href="#DejaVuSans-32"/>
      <use x="569.572266" xlink:href="#DejaVuSans-110"/>
      <use x="632.951172" xlink:href="#DejaVuSans-117"/>
      <use x="696.330078" xlink:href="#DejaVuSans-109"/>
      <use x="793.742188" xlink:href="#DejaVuSans-98"/>
      <use x="857.21875" xlink:href="#DejaVuSans-101"/>
      <use x="918.742188" xlink:href="#DejaVuSans-114"/>
      <use x="959.855469" xlink:href="#DejaVuSans-32"/>
      <use x="991.642578" xlink:href="#DejaVuSans-111"/>
      <use x="1052.824219" xlink:href="#DejaVuSans-102"/>
      <use x="1088.029297" xlink:href="#DejaVuSans-32"/>
      <use x="1119.816406" xlink:href="#DejaVuSans-99"/>
      <use x="1174.796875" xlink:href="#DejaVuSans-111"/>
      <use x="1235.978516" xlink:href="#DejaVuSans-110"/>
      <use x="1299.357422" xlink:href="#DejaVuSans-102"/>
      <use x="1334.5625" xlink:href="#DejaVuSans-105"/>
      <use x="1362.345703" xlink:href="#DejaVuSans-114"/>
      <use x="1401.708984" xlink:href="#DejaVuSans-109"/>
      <use x="1499.121094" xlink:href="#DejaVuSans-101"/>
      <use x="1560.644531" xlink:href="#DejaVuSans-100"/>
      <use x="1624.121094" xlink:href="#DejaVuSans-32"/>
      <use x="1655.908203" xlink:href="#DejaVuSans-99"/>
      <use x="1710.888672" xlink:href="#DejaVuSans-97"/>
      <use x="1772.167969" xlink:href="#DejaVuSans-115"/>
      <use x="1824.267578" xlink:href="#DejaVuSans-101"/>
      <use x="1885.791016" xlink:href="#DejaVuSans-115"/>
      <use x="1937.890625" xlink:href="#DejaVuSans-32"/>
      <use x="1969.677734" xlink:href="#DejaVuSans-40"/>
      <use x="2008.691406" xlink:href="#DejaVuSans-55"/>
      <use x="2072.314453" xlink:href="#DejaVuSans-45"/>
      <use x="2108.398438" xlink:href="#DejaVuSans-100"/>
      <use x="2171.875" xlink:href="#DejaVuSans-97"/>
      <use x="2233.154297" xlink:href="#DejaVuSans-121"/>
      <use x="2292.333984" xlink:href="#DejaVuSans-32"/>
      <use x="2324.121094" xlink:href="#DejaVuSans-97"/>
      <use x="2385.400391" xlink:href="#DejaVuSans-118"/>
      <use x="2444.580078" xlink:href="#DejaVuSans-101"/>
      <use x="2506.103516" xlink:href="#DejaVuSans-114"/>
      <use x="2547.216797" xlink:href="#DejaVuSans-97"/>
      <use x="2608.496094" xlink:href="#DejaVuSans-103"/>
      <use x="2671.972656" xlink:href="#DejaVuSans-101"/>
      <use x="2733.496094" xlink:href="#DejaVuSans-41"/>
     </g>
    </g>
    <g id="line2d_21">
     <path d="M 144.572656 67.669531 
L 170.572656 67.669531 
" style="fill:none;stroke:#0d4a70;stroke-linecap:square;stroke-width:4;"/>
    </g>
    <g id="line2d_22"/>
    <g id="text_20">
     <!-- Data: Estimated number of B.1.1.7 cases (7-day average) -->
     <g transform="translate(180.972656 72.219531)scale(0.13 -0.13)">
      <defs>
       <path d="M 9.8125 72.90625 
L 55.90625 72.90625 
L 55.90625 64.59375 
L 19.671875 64.59375 
L 19.671875 43.015625 
L 54.390625 43.015625 
L 54.390625 34.71875 
L 19.671875 34.71875 
L 19.671875 8.296875 
L 56.78125 8.296875 
L 56.78125 0 
L 9.8125 0 
z
" id="DejaVuSans-69"/>
       <path d="M 19.671875 34.8125 
L 19.671875 8.109375 
L 35.5 8.109375 
Q 43.453125 8.109375 47.28125 11.40625 
Q 51.125 14.703125 51.125 21.484375 
Q 51.125 28.328125 47.28125 31.5625 
Q 43.453125 34.8125 35.5 34.8125 
z
M 19.671875 64.796875 
L 19.671875 42.828125 
L 34.28125 42.828125 
Q 41.5 42.828125 45.03125 45.53125 
Q 48.578125 48.25 48.578125 53.8125 
Q 48.578125 59.328125 45.03125 62.0625 
Q 41.5 64.796875 34.28125 64.796875 
z
M 9.8125 72.90625 
L 35.015625 72.90625 
Q 46.296875 72.90625 52.390625 68.21875 
Q 58.5 63.53125 58.5 54.890625 
Q 58.5 48.1875 55.375 44.234375 
Q 52.25 40.28125 46.1875 39.3125 
Q 53.46875 37.75 57.5 32.78125 
Q 61.53125 27.828125 61.53125 20.40625 
Q 61.53125 10.640625 54.890625 5.3125 
Q 48.25 0 35.984375 0 
L 9.8125 0 
z
" id="DejaVuSans-66"/>
       <path d="M 10.6875 12.40625 
L 21 12.40625 
L 21 0 
L 10.6875 0 
z
" id="DejaVuSans-46"/>
      </defs>
      <use xlink:href="#DejaVuSans-68"/>
      <use x="77.001953" xlink:href="#DejaVuSans-97"/>
      <use x="138.28125" xlink:href="#DejaVuSans-116"/>
      <use x="177.490234" xlink:href="#DejaVuSans-97"/>
      <use x="238.769531" xlink:href="#DejaVuSans-58"/>
      <use x="272.460938" xlink:href="#DejaVuSans-32"/>
      <use x="304.248047" xlink:href="#DejaVuSans-69"/>
      <use x="367.431641" xlink:href="#DejaVuSans-115"/>
      <use x="419.53125" xlink:href="#DejaVuSans-116"/>
      <use x="458.740234" xlink:href="#DejaVuSans-105"/>
      <use x="486.523438" xlink:href="#DejaVuSans-109"/>
      <use x="583.935547" xlink:href="#DejaVuSans-97"/>
      <use x="645.214844" xlink:href="#DejaVuSans-116"/>
      <use x="684.423828" xlink:href="#DejaVuSans-101"/>
      <use x="745.947266" xlink:href="#DejaVuSans-100"/>
      <use x="809.423828" xlink:href="#DejaVuSans-32"/>
      <use x="841.210938" xlink:href="#DejaVuSans-110"/>
      <use x="904.589844" xlink:href="#DejaVuSans-117"/>
      <use x="967.96875" xlink:href="#DejaVuSans-109"/>
      <use x="1065.380859" xlink:href="#DejaVuSans-98"/>
      <use x="1128.857422" xlink:href="#DejaVuSans-101"/>
      <use x="1190.380859" xlink:href="#DejaVuSans-114"/>
      <use x="1231.494141" xlink:href="#DejaVuSans-32"/>
      <use x="1263.28125" xlink:href="#DejaVuSans-111"/>
      <use x="1324.462891" xlink:href="#DejaVuSans-102"/>
      <use x="1359.667969" xlink:href="#DejaVuSans-32"/>
      <use x="1391.455078" xlink:href="#DejaVuSans-66"/>
      <use x="1460.058594" xlink:href="#DejaVuSans-46"/>
      <use x="1491.845703" xlink:href="#DejaVuSans-49"/>
      <use x="1555.46875" xlink:href="#DejaVuSans-46"/>
      <use x="1587.255859" xlink:href="#DejaVuSans-49"/>
      <use x="1650.878906" xlink:href="#DejaVuSans-46"/>
      <use x="1682.666016" xlink:href="#DejaVuSans-55"/>
      <use x="1746.289062" xlink:href="#DejaVuSans-32"/>
      <use x="1778.076172" xlink:href="#DejaVuSans-99"/>
      <use x="1833.056641" xlink:href="#DejaVuSans-97"/>
      <use x="1894.335938" xlink:href="#DejaVuSans-115"/>
      <use x="1946.435547" xlink:href="#DejaVuSans-101"/>
      <use x="2007.958984" xlink:href="#DejaVuSans-115"/>
      <use x="2060.058594" xlink:href="#DejaVuSans-32"/>
      <use x="2091.845703" xlink:href="#DejaVuSans-40"/>
      <use x="2130.859375" xlink:href="#DejaVuSans-55"/>
      <use x="2194.482422" xlink:href="#DejaVuSans-45"/>
      <use x="2230.566406" xlink:href="#DejaVuSans-100"/>
      <use x="2294.042969" xlink:href="#DejaVuSans-97"/>
      <use x="2355.322266" xlink:href="#DejaVuSans-121"/>
      <use x="2414.501953" xlink:href="#DejaVuSans-32"/>
      <use x="2446.289062" xlink:href="#DejaVuSans-97"/>
      <use x="2507.568359" xlink:href="#DejaVuSans-118"/>
      <use x="2566.748047" xlink:href="#DejaVuSans-101"/>
      <use x="2628.271484" xlink:href="#DejaVuSans-114"/>
      <use x="2669.384766" xlink:href="#DejaVuSans-97"/>
      <use x="2730.664062" xlink:href="#DejaVuSans-103"/>
      <use x="2794.140625" xlink:href="#DejaVuSans-101"/>
      <use x="2855.664062" xlink:href="#DejaVuSans-41"/>
     </g>
    </g>
   </g>
  </g>
  <g id="axes_2">
   <g id="patch_8">
    <path d="M 622.78 382.04 
L 1137.96 382.04 
L 1137.96 31.56 
L 622.78 31.56 
z
" style="fill:#ffffff;"/>
   </g>
   <g id="matplotlib.axis_3">
    <g id="xtick_8">
     <g id="line2d_23">
      <g>
       <use style="stroke:#000000;stroke-width:0.8;" x="646.197273" xlink:href="#m8dfaef55dd" y="382.04"/>
      </g>
     </g>
     <g id="text_21">
      <!-- Jan -->
      <g transform="translate(636.177116 398.917969)scale(0.13 -0.13)">
       <use xlink:href="#DejaVuSans-74"/>
       <use x="29.492188" xlink:href="#DejaVuSans-97"/>
       <use x="90.771484" xlink:href="#DejaVuSans-110"/>
      </g>
     </g>
    </g>
    <g id="xtick_9">
     <g id="line2d_24">
      <g>
       <use style="stroke:#000000;stroke-width:0.8;" x="719.05101" xlink:href="#m8dfaef55dd" y="382.04"/>
      </g>
     </g>
     <g id="text_22">
      <!-- 15 -->
      <g transform="translate(710.77976 398.917969)scale(0.13 -0.13)">
       <use xlink:href="#DejaVuSans-49"/>
       <use x="63.623047" xlink:href="#DejaVuSans-53"/>
      </g>
     </g>
    </g>
    <g id="xtick_10">
     <g id="line2d_25">
      <g>
       <use style="stroke:#000000;stroke-width:0.8;" x="807.516263" xlink:href="#m8dfaef55dd" y="382.04"/>
      </g>
     </g>
     <g id="text_23">
      <!-- Feb -->
      <g transform="translate(796.009231 398.917969)scale(0.13 -0.13)">
       <use xlink:href="#DejaVuSans-70"/>
       <use x="52.019531" xlink:href="#DejaVuSans-101"/>
       <use x="113.542969" xlink:href="#DejaVuSans-98"/>
      </g>
     </g>
    </g>
    <g id="xtick_11">
     <g id="line2d_26">
      <g>
       <use style="stroke:#000000;stroke-width:0.8;" x="880.37" xlink:href="#m8dfaef55dd" y="382.04"/>
      </g>
     </g>
     <g id="text_24">
      <!-- 15 -->
      <g transform="translate(872.09875 398.917969)scale(0.13 -0.13)">
       <use xlink:href="#DejaVuSans-49"/>
       <use x="63.623047" xlink:href="#DejaVuSans-53"/>
      </g>
     </g>
    </g>
    <g id="xtick_12">
     <g id="line2d_27">
      <g>
       <use style="stroke:#000000;stroke-width:0.8;" x="953.223737" xlink:href="#m8dfaef55dd" y="382.04"/>
      </g>
     </g>
     <g id="text_25">
      <!-- Mar -->
      <g transform="translate(940.960065 398.917969)scale(0.13 -0.13)">
       <use xlink:href="#DejaVuSans-77"/>
       <use x="86.279297" xlink:href="#DejaVuSans-97"/>
       <use x="147.558594" xlink:href="#DejaVuSans-114"/>
      </g>
     </g>
    </g>
    <g id="xtick_13">
     <g id="line2d_28">
      <g>
       <use style="stroke:#000000;stroke-width:0.8;" x="1026.077475" xlink:href="#m8dfaef55dd" y="382.04"/>
      </g>
     </g>
     <g id="text_26">
      <!-- 15 -->
      <g transform="translate(1017.806225 398.917969)scale(0.13 -0.13)">
       <use xlink:href="#DejaVuSans-49"/>
       <use x="63.623047" xlink:href="#DejaVuSans-53"/>
      </g>
     </g>
    </g>
    <g id="xtick_14">
     <g id="line2d_29">
      <g>
       <use style="stroke:#000000;stroke-width:0.8;" x="1114.542727" xlink:href="#m8dfaef55dd" y="382.04"/>
      </g>
     </g>
     <g id="text_27">
      <!-- Apr -->
      <g transform="translate(1103.297727 398.917969)scale(0.13 -0.13)">
       <use xlink:href="#DejaVuSans-65"/>
       <use x="68.408203" xlink:href="#DejaVuSans-112"/>
       <use x="131.884766" xlink:href="#DejaVuSans-114"/>
      </g>
     </g>
    </g>
    <g id="text_28">
     <!-- 2021-Apr -->
     <g transform="translate(1077.987344 414.499531)scale(0.13 -0.13)">
      <use xlink:href="#DejaVuSans-50"/>
      <use x="63.623047" xlink:href="#DejaVuSans-48"/>
      <use x="127.246094" xlink:href="#DejaVuSans-50"/>
      <use x="190.869141" xlink:href="#DejaVuSans-49"/>
      <use x="254.492188" xlink:href="#DejaVuSans-45"/>
      <use x="288.326172" xlink:href="#DejaVuSans-65"/>
      <use x="356.734375" xlink:href="#DejaVuSans-112"/>
      <use x="420.210938" xlink:href="#DejaVuSans-114"/>
     </g>
    </g>
   </g>
   <g id="matplotlib.axis_4">
    <g id="ytick_10">
     <g id="line2d_30">
      <g>
       <use style="stroke:#000000;stroke-width:0.8;" x="622.78" xlink:href="#m12df4c6c64" y="382.04"/>
      </g>
     </g>
     <g id="text_29">
      <!-- 0 -->
      <g transform="translate(607.50875 386.978984)scale(0.13 -0.13)">
       <use xlink:href="#DejaVuSans-48"/>
      </g>
     </g>
    </g>
    <g id="ytick_11">
     <g id="line2d_31">
      <g>
       <use style="stroke:#000000;stroke-width:0.8;" x="622.78" xlink:href="#m12df4c6c64" y="338.23"/>
      </g>
     </g>
     <g id="text_30">
      <!-- 500 -->
      <g transform="translate(590.96625 343.168984)scale(0.13 -0.13)">
       <use xlink:href="#DejaVuSans-53"/>
       <use x="63.623047" xlink:href="#DejaVuSans-48"/>
       <use x="127.246094" xlink:href="#DejaVuSans-48"/>
      </g>
     </g>
    </g>
    <g id="ytick_12">
     <g id="line2d_32">
      <g>
       <use style="stroke:#000000;stroke-width:0.8;" x="622.78" xlink:href="#m12df4c6c64" y="294.42"/>
      </g>
     </g>
     <g id="text_31">
      <!-- 1000 -->
      <g transform="translate(582.695 299.358984)scale(0.13 -0.13)">
       <use xlink:href="#DejaVuSans-49"/>
       <use x="63.623047" xlink:href="#DejaVuSans-48"/>
       <use x="127.246094" xlink:href="#DejaVuSans-48"/>
       <use x="190.869141" xlink:href="#DejaVuSans-48"/>
      </g>
     </g>
    </g>
    <g id="ytick_13">
     <g id="line2d_33">
      <g>
       <use style="stroke:#000000;stroke-width:0.8;" x="622.78" xlink:href="#m12df4c6c64" y="250.61"/>
      </g>
     </g>
     <g id="text_32">
      <!-- 1500 -->
      <g transform="translate(582.695 255.548984)scale(0.13 -0.13)">
       <use xlink:href="#DejaVuSans-49"/>
       <use x="63.623047" xlink:href="#DejaVuSans-53"/>
       <use x="127.246094" xlink:href="#DejaVuSans-48"/>
       <use x="190.869141" xlink:href="#DejaVuSans-48"/>
      </g>
     </g>
    </g>
    <g id="ytick_14">
     <g id="line2d_34">
      <g>
       <use style="stroke:#000000;stroke-width:0.8;" x="622.78" xlink:href="#m12df4c6c64" y="206.8"/>
      </g>
     </g>
     <g id="text_33">
      <!-- 2000 -->
      <g transform="translate(582.695 211.738984)scale(0.13 -0.13)">
       <use xlink:href="#DejaVuSans-50"/>
       <use x="63.623047" xlink:href="#DejaVuSans-48"/>
       <use x="127.246094" xlink:href="#DejaVuSans-48"/>
       <use x="190.869141" xlink:href="#DejaVuSans-48"/>
      </g>
     </g>
    </g>
    <g id="ytick_15">
     <g id="line2d_35">
      <g>
       <use style="stroke:#000000;stroke-width:0.8;" x="622.78" xlink:href="#m12df4c6c64" y="162.99"/>
      </g>
     </g>
     <g id="text_34">
      <!-- 2500 -->
      <g transform="translate(582.695 167.928984)scale(0.13 -0.13)">
       <use xlink:href="#DejaVuSans-50"/>
       <use x="63.623047" xlink:href="#DejaVuSans-53"/>
       <use x="127.246094" xlink:href="#DejaVuSans-48"/>
       <use x="190.869141" xlink:href="#DejaVuSans-48"/>
      </g>
     </g>
    </g>
    <g id="ytick_16">
     <g id="line2d_36">
      <g>
       <use style="stroke:#000000;stroke-width:0.8;" x="622.78" xlink:href="#m12df4c6c64" y="119.18"/>
      </g>
     </g>
     <g id="text_35">
      <!-- 3000 -->
      <g transform="translate(582.695 124.118984)scale(0.13 -0.13)">
       <use xlink:href="#DejaVuSans-51"/>
       <use x="63.623047" xlink:href="#DejaVuSans-48"/>
       <use x="127.246094" xlink:href="#DejaVuSans-48"/>
       <use x="190.869141" xlink:href="#DejaVuSans-48"/>
      </g>
     </g>
    </g>
    <g id="ytick_17">
     <g id="line2d_37">
      <g>
       <use style="stroke:#000000;stroke-width:0.8;" x="622.78" xlink:href="#m12df4c6c64" y="75.37"/>
      </g>
     </g>
     <g id="text_36">
      <!-- 3500 -->
      <g transform="translate(582.695 80.308984)scale(0.13 -0.13)">
       <use xlink:href="#DejaVuSans-51"/>
       <use x="63.623047" xlink:href="#DejaVuSans-53"/>
       <use x="127.246094" xlink:href="#DejaVuSans-48"/>
       <use x="190.869141" xlink:href="#DejaVuSans-48"/>
      </g>
     </g>
    </g>
    <g id="ytick_18">
     <g id="line2d_38">
      <g>
       <use style="stroke:#000000;stroke-width:0.8;" x="622.78" xlink:href="#m12df4c6c64" y="31.56"/>
      </g>
     </g>
     <g id="text_37">
      <!-- 4000 -->
      <g transform="translate(582.695 36.498984)scale(0.13 -0.13)">
       <use xlink:href="#DejaVuSans-52"/>
       <use x="63.623047" xlink:href="#DejaVuSans-48"/>
       <use x="127.246094" xlink:href="#DejaVuSans-48"/>
       <use x="190.869141" xlink:href="#DejaVuSans-48"/>
      </g>
     </g>
    </g>
   </g>
   <g id="line2d_39">
    <path clip-path="url(#pf37ece5449)" d="M 646.197273 86.460189 
L 651.401111 90.165263 
L 656.604949 100.95504 
L 661.808788 99.427949 
L 667.012626 82.279463 
L 672.216465 95.247223 
L 677.420303 106.800546 
L 682.624141 129.556711 
L 687.82798 149.05842 
L 693.031818 160.161126 
L 698.235657 171.902206 
L 703.439495 183.042463 
L 708.643333 187.360877 
L 713.847172 192.380251 
L 719.05101 198.801546 
L 724.254848 202.256277 
L 729.458687 204.52188 
L 734.662525 206.812517 
L 739.866364 208.339609 
L 745.070202 211.331206 
L 750.27404 213.333949 
L 755.477879 219.041766 
L 760.681717 225.2002 
L 765.885556 230.332229 
L 771.089394 233.78696 
L 776.293232 237.191623 
L 781.497071 238.180477 
L 786.700909 238.105374 
L 791.904747 242.210997 
L 797.108586 244.56422 
L 802.312424 246.329137 
L 807.516263 250.534897 
L 812.720101 253.776837 
L 817.923939 255.4291 
L 823.127778 256.242714 
L 828.331616 261.437329 
L 833.535455 265.230023 
L 838.739293 271.138114 
L 843.943131 274.53026 
L 849.14697 279.224189 
L 854.350808 281.339586 
L 859.554646 283.717843 
L 864.758485 289.237903 
L 869.962323 291.853986 
L 875.166162 292.379706 
L 880.37 294.457551 
L 885.573838 294.908169 
L 890.777677 295.233614 
L 895.981515 294.707894 
L 901.185354 293.406111 
L 906.389192 291.87902 
L 911.59303 293.618903 
L 916.796869 292.179431 
L 922.000707 292.342154 
L 927.204545 291.954123 
L 932.408384 291.678746 
L 937.612222 291.566091 
L 942.816061 291.941606 
L 948.019899 289.888794 
L 953.223737 290.614789 
L 958.427576 288.173946 
L 963.631414 287.635709 
L 968.835253 287.210126 
L 974.039091 283.667774 
L 979.242929 281.702583 
L 984.446768 279.850046 
L 989.650606 276.395314 
L 994.854444 275.594217 
L 1000.058283 273.65406 
L 1005.262121 272.114451 
L 1010.46596 269.373197 
L 1015.669798 266.081189 
L 1020.873636 260.59868 
L 1026.077475 256.768434 
L 1031.281313 254.227454 
L 1036.485152 251.874231 
L 1041.68899 250.835309 
L 1046.892828 246.566963 
L 1052.096667 242.273583 
L 1057.300505 241.021869 
L 1062.504343 234.8384 
L 1067.708182 229.180651 
L 1072.91202 227.941454 
L 1078.115859 225.325371 
L 1083.319697 221.983294 
L 1088.523535 220.73158 
L 1093.727374 218.165566 
L 1098.931212 220.230894 
L 1104.135051 230.307194 
L 1109.338889 228.96786 
L 1114.542727 228.755069 
" style="fill:none;stroke:#67916e;stroke-linecap:square;stroke-width:4;"/>
   </g>
   <g id="line2d_40">
    <path clip-path="url(#pf37ece5449)" d="M 646.197273 379.386366 
L 651.401111 379.4114 
L 656.604949 379.198609 
L 661.808788 378.998334 
L 667.012626 378.410029 
L 672.216465 378.284857 
L 677.420303 378.71044 
L 682.624141 378.322409 
L 687.82798 377.39614 
L 693.031818 376.357217 
L 698.235657 375.4685 
L 703.439495 374.529714 
L 708.643333 374.454611 
L 713.847172 372.864934 
L 719.05101 371.275257 
L 724.254848 370.599331 
L 729.458687 368.609106 
L 734.662525 366.819154 
L 739.866364 365.091789 
L 745.070202 364.102934 
L 750.27404 363.890143 
L 755.477879 362.788634 
L 760.681717 361.36168 
L 765.885556 361.036234 
L 771.089394 357.906949 
L 776.293232 356.392374 
L 781.497071 356.730337 
L 786.700909 357.093334 
L 791.904747 355.40352 
L 797.108586 355.378486 
L 802.312424 354.990454 
L 807.516263 355.766517 
L 812.720101 354.952903 
L 817.923939 352.51206 
L 823.127778 349.745771 
L 828.331616 349.132431 
L 833.535455 348.781951 
L 838.739293 349.345223 
L 843.943131 351.035037 
L 849.14697 352.59968 
L 854.350808 353.525949 
L 859.554646 355.365969 
L 864.758485 355.591277 
L 869.962323 354.114254 
L 875.166162 350.959934 
L 880.37 349.6206 
L 885.573838 345.289669 
L 890.777677 342.197934 
L 895.981515 340.458051 
L 901.185354 337.466454 
L 906.389192 335.063163 
L 911.59303 334.074309 
L 916.796869 332.947766 
L 922.000707 332.872663 
L 927.204545 333.385866 
L 932.408384 331.270469 
L 937.612222 327.552877 
L 942.816061 325.975717 
L 948.019899 323.609977 
L 953.223737 322.28316 
L 958.427576 321.281789 
L 963.631414 319.967489 
L 968.835253 319.8298 
L 974.039091 319.754697 
L 979.242929 315.248526 
L 984.446768 313.108094 
L 989.650606 309.941257 
L 994.854444 308.70206 
L 1000.058283 307.512931 
" style="fill:none;stroke:#0d4a70;stroke-linecap:square;stroke-width:4;"/>
   </g>
   <g id="patch_9">
    <path d="M 622.78 382.04 
L 622.78 31.56 
" style="fill:none;stroke:#000000;stroke-linecap:square;stroke-linejoin:miter;stroke-width:0.8;"/>
   </g>
   <g id="patch_10">
    <path d="M 1137.96 382.04 
L 1137.96 31.56 
" style="fill:none;stroke:#000000;stroke-linecap:square;stroke-linejoin:miter;stroke-width:0.8;"/>
   </g>
   <g id="patch_11">
    <path d="M 622.78 382.04 
L 1137.96 382.04 
" style="fill:none;stroke:#000000;stroke-linecap:square;stroke-linejoin:miter;stroke-width:0.8;"/>
   </g>
   <g id="patch_12">
    <path d="M 622.78 31.56 
L 1137.96 31.56 
" style="fill:none;stroke:#000000;stroke-linecap:square;stroke-linejoin:miter;stroke-width:0.8;"/>
   </g>
   <g id="text_38">
    <!-- Switzerland - data from Risch -->
    <g transform="translate(765.54425 25.56)scale(0.156 -0.156)">
     <defs>
      <path d="M 44.390625 34.1875 
Q 47.5625 33.109375 50.5625 29.59375 
Q 53.5625 26.078125 56.59375 19.921875 
L 66.609375 0 
L 56 0 
L 46.6875 18.703125 
Q 43.0625 26.03125 39.671875 28.421875 
Q 36.28125 30.8125 30.421875 30.8125 
L 19.671875 30.8125 
L 19.671875 0 
L 9.8125 0 
L 9.8125 72.90625 
L 32.078125 72.90625 
Q 44.578125 72.90625 50.734375 67.671875 
Q 56.890625 62.453125 56.890625 51.90625 
Q 56.890625 45.015625 53.6875 40.46875 
Q 50.484375 35.9375 44.390625 34.1875 
z
M 19.671875 64.796875 
L 19.671875 38.921875 
L 32.078125 38.921875 
Q 39.203125 38.921875 42.84375 42.21875 
Q 46.484375 45.515625 46.484375 51.90625 
Q 46.484375 58.296875 42.84375 61.546875 
Q 39.203125 64.796875 32.078125 64.796875 
z
" id="DejaVuSans-82"/>
      <path d="M 54.890625 33.015625 
L 54.890625 0 
L 45.90625 0 
L 45.90625 32.71875 
Q 45.90625 40.484375 42.875 44.328125 
Q 39.84375 48.1875 33.796875 48.1875 
Q 26.515625 48.1875 22.3125 43.546875 
Q 18.109375 38.921875 18.109375 30.90625 
L 18.109375 0 
L 9.078125 0 
L 9.078125 75.984375 
L 18.109375 75.984375 
L 18.109375 46.1875 
Q 21.34375 51.125 25.703125 53.5625 
Q 30.078125 56 35.796875 56 
Q 45.21875 56 50.046875 50.171875 
Q 54.890625 44.34375 54.890625 33.015625 
z
" id="DejaVuSans-104"/>
     </defs>
     <use xlink:href="#DejaVuSans-83"/>
     <use x="63.476562" xlink:href="#DejaVuSans-119"/>
     <use x="145.263672" xlink:href="#DejaVuSans-105"/>
     <use x="173.046875" xlink:href="#DejaVuSans-116"/>
     <use x="212.255859" xlink:href="#DejaVuSans-122"/>
     <use x="264.746094" xlink:href="#DejaVuSans-101"/>
     <use x="326.269531" xlink:href="#DejaVuSans-114"/>
     <use x="367.382812" xlink:href="#DejaVuSans-108"/>
     <use x="395.166016" xlink:href="#DejaVuSans-97"/>
     <use x="456.445312" xlink:href="#DejaVuSans-110"/>
     <use x="519.824219" xlink:href="#DejaVuSans-100"/>
     <use x="583.300781" xlink:href="#DejaVuSans-32"/>
     <use x="615.087891" xlink:href="#DejaVuSans-45"/>
     <use x="651.171875" xlink:href="#DejaVuSans-32"/>
     <use x="682.958984" xlink:href="#DejaVuSans-100"/>
     <use x="746.435547" xlink:href="#DejaVuSans-97"/>
     <use x="807.714844" xlink:href="#DejaVuSans-116"/>
     <use x="846.923828" xlink:href="#DejaVuSans-97"/>
     <use x="908.203125" xlink:href="#DejaVuSans-32"/>
     <use x="939.990234" xlink:href="#DejaVuSans-102"/>
     <use x="975.195312" xlink:href="#DejaVuSans-114"/>
     <use x="1014.058594" xlink:href="#DejaVuSans-111"/>
     <use x="1075.240234" xlink:href="#DejaVuSans-109"/>
     <use x="1172.652344" xlink:href="#DejaVuSans-32"/>
     <use x="1204.439453" xlink:href="#DejaVuSans-82"/>
     <use x="1273.921875" xlink:href="#DejaVuSans-105"/>
     <use x="1301.705078" xlink:href="#DejaVuSans-115"/>
     <use x="1353.804688" xlink:href="#DejaVuSans-99"/>
     <use x="1408.785156" xlink:href="#DejaVuSans-104"/>
    </g>
   </g>
  </g>
 </g>
 <defs>
  <clipPath id="pefc4c0d677">
   <rect height="350.48" width="515.18" x="53.8" y="31.56"/>
  </clipPath>
  <clipPath id="pf37ece5449">
   <rect height="350.48" width="515.18" x="622.78" y="31.56"/>
  </clipPath>
 </defs>
</svg>
