<?xml version="1.0" encoding="utf-8" standalone="no"?>
<!DOCTYPE svg PUBLIC "-//W3C//DTD SVG 1.1//EN"
  "http://www.w3.org/Graphics/SVG/1.1/DTD/svg11.dtd">
<!-- Created with matplotlib (https://matplotlib.org/) -->
<svg height="216pt" version="1.1" viewBox="0 0 576 216" width="576pt" xmlns="http://www.w3.org/2000/svg" xmlns:xlink="http://www.w3.org/1999/xlink">
 <metadata>
  <rdf:RDF xmlns:cc="http://creativecommons.org/ns#" xmlns:dc="http://purl.org/dc/elements/1.1/" xmlns:rdf="http://www.w3.org/1999/02/22-rdf-syntax-ns#">
   <cc:Work>
    <dc:type rdf:resource="http://purl.org/dc/dcmitype/StillImage"/>
    <dc:date>2021-04-14T00:34:30.077656</dc:date>
    <dc:format>image/svg+xml</dc:format>
    <dc:creator>
     <cc:Agent>
      <dc:title>Matplotlib v3.3.4, https://matplotlib.org/</dc:title>
     </cc:Agent>
    </dc:creator>
   </cc:Work>
  </rdf:RDF>
 </metadata>
 <defs>
  <style type="text/css">*{stroke-linecap:butt;stroke-linejoin:round;}</style>
 </defs>
 <g id="figure_1">
  <g id="patch_1">
   <path d="M 0 216 
L 576 216 
L 576 0 
L 0 0 
z
" style="fill:#ffffff;"/>
  </g>
  <g id="axes_1">
   <g id="patch_2">
    <path d="M 41.56 166.04 
L 561.96 166.04 
L 561.96 31.56 
L 41.56 31.56 
z
" style="fill:#ffffff;"/>
   </g>
   <g id="PolyCollection_1">
    <defs>
     <path d="M 41.56 -53.493299 
L 41.56 -52.496394 
L 45.933109 -52.69643 
L 50.306218 -52.911712 
L 54.679328 -53.143332 
L 59.052437 -53.392448 
L 63.425546 -53.660288 
L 67.798655 -53.948154 
L 72.171765 -54.25742 
L 76.544874 -54.58954 
L 80.917983 -54.946043 
L 85.291092 -55.328536 
L 89.664202 -55.738709 
L 94.037311 -56.178327 
L 98.41042 -56.649234 
L 102.783529 -57.153349 
L 107.156639 -57.692663 
L 111.529748 -58.269235 
L 115.902857 -58.885186 
L 120.275966 -59.542691 
L 124.649076 -60.243968 
L 129.022185 -60.991273 
L 133.395294 -61.786879 
L 137.768403 -62.633064 
L 142.141513 -63.532097 
L 146.514622 -64.486209 
L 150.887731 -65.497578 
L 155.26084 -66.568299 
L 159.63395 -67.700359 
L 164.007059 -68.895605 
L 168.380168 -70.15571 
L 172.753277 -71.482141 
L 177.126387 -72.876122 
L 181.499496 -74.338597 
L 185.872605 -75.870192 
L 190.245714 -77.471178 
L 194.618824 -79.141435 
L 198.991933 -80.880418 
L 203.365042 -82.687128 
L 207.738151 -84.560083 
L 212.111261 -86.497301 
L 216.48437 -88.496286 
L 220.857479 -90.554021 
L 225.230588 -92.666976 
L 229.603697 -94.831119 
L 233.976807 -97.041944 
L 238.349916 -99.29451 
L 242.723025 -101.583485 
L 247.096134 -103.903208 
L 251.469244 -106.247757 
L 255.842353 -108.61102 
L 260.215462 -110.986779 
L 264.588571 -113.368791 
L 268.961681 -115.750861 
L 273.33479 -118.126924 
L 277.707899 -120.491105 
L 282.081008 -122.83778 
L 286.454118 -125.161619 
L 290.827227 -127.457623 
L 295.200336 -129.721147 
L 299.573445 -131.947916 
L 303.946555 -134.134033 
L 308.319664 -136.275982 
L 312.692773 -138.370621 
L 317.065882 -140.41518 
L 321.438992 -142.407253 
L 325.812101 -144.344787 
L 330.18521 -146.226068 
L 334.558319 -148.049715 
L 338.931429 -149.81466 
L 343.304538 -151.520139 
L 347.677647 -153.165673 
L 352.050756 -154.751052 
L 356.423866 -156.276319 
L 360.796975 -157.741753 
L 365.170084 -159.147846 
L 369.543193 -160.49529 
L 373.916303 -161.784952 
L 378.289412 -163.017862 
L 382.662521 -164.195187 
L 387.03563 -165.318217 
L 391.408739 -166.388346 
L 395.781849 -167.407055 
L 400.154958 -168.375896 
L 404.528067 -169.296478 
L 408.901176 -170.170451 
L 413.274286 -170.999493 
L 417.647395 -171.7853 
L 422.020504 -172.529573 
L 426.393613 -173.23401 
L 430.766723 -173.900298 
L 435.139832 -174.530102 
L 439.512941 -175.125061 
L 443.88605 -175.686784 
L 448.25916 -176.21684 
L 452.632269 -176.716761 
L 457.005378 -177.188031 
L 461.378487 -177.632091 
L 465.751597 -178.050331 
L 470.124706 -178.444093 
L 474.497815 -178.814668 
L 478.870924 -179.163294 
L 483.244034 -179.491159 
L 487.617143 -179.799402 
L 491.990252 -180.089108 
L 496.363361 -180.361314 
L 500.736471 -180.61701 
L 505.10958 -180.857134 
L 509.482689 -181.082583 
L 513.855798 -181.294205 
L 518.228908 -181.492805 
L 522.602017 -181.679149 
L 526.975126 -181.85396 
L 531.348235 -182.017922 
L 535.721345 -182.171684 
L 540.094454 -182.315857 
L 544.467563 -182.451019 
L 548.840672 -182.577716 
L 553.213782 -182.696462 
L 557.586891 -182.807743 
L 561.96 -182.912015 
L 561.96 -183.311465 
L 561.96 -183.311465 
L 557.586891 -183.229822 
L 553.213782 -183.142331 
L 548.840672 -183.048581 
L 544.467563 -182.948133 
L 540.094454 -182.840521 
L 535.721345 -182.725247 
L 531.348235 -182.60178 
L 526.975126 -182.469555 
L 522.602017 -182.32797 
L 518.228908 -182.176386 
L 513.855798 -182.014122 
L 509.482689 -181.840454 
L 505.10958 -181.654616 
L 500.736471 -181.455794 
L 496.363361 -181.243124 
L 491.990252 -181.015692 
L 487.617143 -180.772533 
L 483.244034 -180.512624 
L 478.870924 -180.234888 
L 474.497815 -179.938189 
L 470.124706 -179.621329 
L 465.751597 -179.283053 
L 461.378487 -178.922039 
L 457.005378 -178.536906 
L 452.632269 -178.126209 
L 448.25916 -177.688438 
L 443.88605 -177.222024 
L 439.512941 -176.725334 
L 435.139832 -176.19668 
L 430.766723 -175.634316 
L 426.393613 -175.036446 
L 422.020504 -174.401224 
L 417.647395 -173.726768 
L 413.274286 -173.01116 
L 408.901176 -172.252459 
L 404.528067 -171.448709 
L 400.154958 -170.597953 
L 395.781849 -169.698244 
L 391.408739 -168.747663 
L 387.03563 -167.744332 
L 382.662521 -166.686439 
L 378.289412 -165.572252 
L 373.916303 -164.400144 
L 369.543193 -163.16862 
L 365.170084 -161.876336 
L 360.796975 -160.52213 
L 356.423866 -159.105046 
L 352.050756 -157.624367 
L 347.677647 -156.079637 
L 343.304538 -154.470691 
L 338.931429 -152.797684 
L 334.558319 -151.061111 
L 330.18521 -149.261834 
L 325.812101 -147.4011 
L 321.438992 -145.480559 
L 317.065882 -143.502271 
L 312.692773 -141.46872 
L 308.319664 -139.38281 
L 303.946555 -137.247865 
L 299.573445 -135.067612 
L 295.200336 -132.846169 
L 290.827227 -130.58802 
L 286.454118 -128.297981 
L 282.081008 -125.981166 
L 277.707899 -123.642943 
L 273.33479 -121.288886 
L 268.961681 -118.924726 
L 264.588571 -116.556291 
L 260.215462 -114.189453 
L 255.842353 -111.830066 
L 251.469244 -109.483913 
L 247.096134 -107.156645 
L 242.723025 -104.853732 
L 238.349916 -102.580409 
L 233.976807 -100.341633 
L 229.603697 -98.142043 
L 225.230588 -95.985928 
L 220.857479 -93.877197 
L 216.48437 -91.819358 
L 212.111261 -89.815509 
L 207.738151 -87.868325 
L 203.365042 -85.98006 
L 198.991933 -84.152549 
L 194.618824 -82.387222 
L 190.245714 -80.685114 
L 185.872605 -79.046885 
L 181.499496 -77.472842 
L 177.126387 -75.962963 
L 172.753277 -74.516922 
L 168.380168 -73.134117 
L 164.007059 -71.813698 
L 159.63395 -70.554593 
L 155.26084 -69.355539 
L 150.887731 -68.215105 
L 146.514622 -67.131723 
L 142.141513 -66.103705 
L 137.768403 -65.129273 
L 133.395294 -64.206576 
L 129.022185 -63.333713 
L 124.649076 -62.508747 
L 120.275966 -61.729725 
L 115.902857 -60.994687 
L 111.529748 -60.301684 
L 107.156639 -59.648788 
L 102.783529 -59.034098 
L 98.41042 -58.455751 
L 94.037311 -57.911928 
L 89.664202 -57.40086 
L 85.291092 -56.920831 
L 80.917983 -56.470183 
L 76.544874 -56.047317 
L 72.171765 -55.650697 
L 67.798655 -55.278848 
L 63.425546 -54.93036 
L 59.052437 -54.603883 
L 54.679328 -54.298132 
L 50.306218 -54.011884 
L 45.933109 -53.743975 
L 41.56 -53.493299 
z
" id="m92e4182a65" style="stroke:#bfbfbf;"/>
    </defs>
    <g clip-path="url(#p52cbf20386)">
     <use style="fill:#bfbfbf;stroke:#bfbfbf;" x="0" xlink:href="#m92e4182a65" y="216"/>
    </g>
   </g>
   <g id="PolyCollection_2">
    <defs>
     <path d="M 41.56 -53.493299 
L 41.56 -54.490205 
L 45.933109 -54.791519 
L 50.306218 -55.112056 
L 54.679328 -55.452933 
L 59.052437 -55.815318 
L 63.425546 -56.200431 
L 67.798655 -56.609543 
L 72.171765 -57.043974 
L 76.544874 -57.505094 
L 80.917983 -57.994322 
L 85.291092 -58.513125 
L 89.664202 -59.06301 
L 94.037311 -59.645528 
L 98.41042 -60.262267 
L 102.783529 -60.914847 
L 107.156639 -61.604913 
L 111.529748 -62.334133 
L 115.902857 -63.104187 
L 120.275966 -63.916759 
L 124.649076 -64.773527 
L 129.022185 -65.676153 
L 133.395294 -66.626274 
L 137.768403 -67.625481 
L 142.141513 -68.675313 
L 146.514622 -69.777237 
L 150.887731 -70.932633 
L 155.26084 -72.142778 
L 159.63395 -73.408826 
L 164.007059 -74.73179 
L 168.380168 -76.112524 
L 172.753277 -77.551703 
L 177.126387 -79.049804 
L 181.499496 -80.607087 
L 185.872605 -82.223577 
L 190.245714 -83.89905 
L 194.618824 -85.633009 
L 198.991933 -87.42468 
L 203.365042 -89.272992 
L 207.738151 -91.176567 
L 212.111261 -93.133717 
L 216.48437 -95.14243 
L 220.857479 -97.200372 
L 225.230588 -99.30488 
L 229.603697 -101.452968 
L 233.976807 -103.641321 
L 238.349916 -105.866307 
L 242.723025 -108.123979 
L 247.096134 -110.410082 
L 251.469244 -112.720069 
L 255.842353 -115.049112 
L 260.215462 -117.392126 
L 264.588571 -119.743792 
L 268.961681 -122.098591 
L 273.33479 -124.450849 
L 277.707899 -126.79478 
L 282.081008 -129.124552 
L 286.454118 -131.434343 
L 290.827227 -133.718418 
L 295.200336 -135.971192 
L 299.573445 -138.187307 
L 303.946555 -140.361696 
L 308.319664 -142.489639 
L 312.692773 -144.566819 
L 317.065882 -146.589362 
L 321.438992 -148.553864 
L 325.812101 -150.457414 
L 330.18521 -152.2976 
L 334.558319 -154.072507 
L 338.931429 -155.780708 
L 343.304538 -157.421243 
L 347.677647 -158.993601 
L 352.050756 -160.497683 
L 356.423866 -161.933773 
L 360.796975 -163.302507 
L 365.170084 -164.604826 
L 369.543193 -165.841951 
L 373.916303 -167.015336 
L 378.289412 -168.126641 
L 382.662521 -169.177691 
L 387.03563 -170.170448 
L 391.408739 -171.10698 
L 395.781849 -171.989434 
L 400.154958 -172.82001 
L 404.528067 -173.600941 
L 408.901176 -174.334467 
L 413.274286 -175.022827 
L 417.647395 -175.668236 
L 422.020504 -176.272875 
L 426.393613 -176.838881 
L 430.766723 -177.368335 
L 435.139832 -177.863259 
L 439.512941 -178.325608 
L 443.88605 -178.757264 
L 448.25916 -179.160036 
L 452.632269 -179.535657 
L 457.005378 -179.885781 
L 461.378487 -180.211987 
L 465.751597 -180.515774 
L 470.124706 -180.798565 
L 474.497815 -181.06171 
L 478.870924 -181.306483 
L 483.244034 -181.534089 
L 487.617143 -181.745664 
L 491.990252 -181.942276 
L 496.363361 -182.124933 
L 500.736471 -182.294578 
L 505.10958 -182.452098 
L 509.482689 -182.598326 
L 513.855798 -182.734039 
L 518.228908 -182.859967 
L 522.602017 -182.976791 
L 526.975126 -183.08515 
L 531.348235 -183.185637 
L 535.721345 -183.27881 
L 540.094454 -183.365185 
L 544.467563 -183.445247 
L 548.840672 -183.519446 
L 553.213782 -183.5882 
L 557.586891 -183.651902 
L 561.96 -183.710914 
L 561.96 -183.311465 
L 561.96 -183.311465 
L 557.586891 -183.229822 
L 553.213782 -183.142331 
L 548.840672 -183.048581 
L 544.467563 -182.948133 
L 540.094454 -182.840521 
L 535.721345 -182.725247 
L 531.348235 -182.60178 
L 526.975126 -182.469555 
L 522.602017 -182.32797 
L 518.228908 -182.176386 
L 513.855798 -182.014122 
L 509.482689 -181.840454 
L 505.10958 -181.654616 
L 500.736471 -181.455794 
L 496.363361 -181.243124 
L 491.990252 -181.015692 
L 487.617143 -180.772533 
L 483.244034 -180.512624 
L 478.870924 -180.234888 
L 474.497815 -179.938189 
L 470.124706 -179.621329 
L 465.751597 -179.283053 
L 461.378487 -178.922039 
L 457.005378 -178.536906 
L 452.632269 -178.126209 
L 448.25916 -177.688438 
L 443.88605 -177.222024 
L 439.512941 -176.725334 
L 435.139832 -176.19668 
L 430.766723 -175.634316 
L 426.393613 -175.036446 
L 422.020504 -174.401224 
L 417.647395 -173.726768 
L 413.274286 -173.01116 
L 408.901176 -172.252459 
L 404.528067 -171.448709 
L 400.154958 -170.597953 
L 395.781849 -169.698244 
L 391.408739 -168.747663 
L 387.03563 -167.744332 
L 382.662521 -166.686439 
L 378.289412 -165.572252 
L 373.916303 -164.400144 
L 369.543193 -163.16862 
L 365.170084 -161.876336 
L 360.796975 -160.52213 
L 356.423866 -159.105046 
L 352.050756 -157.624367 
L 347.677647 -156.079637 
L 343.304538 -154.470691 
L 338.931429 -152.797684 
L 334.558319 -151.061111 
L 330.18521 -149.261834 
L 325.812101 -147.4011 
L 321.438992 -145.480559 
L 317.065882 -143.502271 
L 312.692773 -141.46872 
L 308.319664 -139.38281 
L 303.946555 -137.247865 
L 299.573445 -135.067612 
L 295.200336 -132.846169 
L 290.827227 -130.58802 
L 286.454118 -128.297981 
L 282.081008 -125.981166 
L 277.707899 -123.642943 
L 273.33479 -121.288886 
L 268.961681 -118.924726 
L 264.588571 -116.556291 
L 260.215462 -114.189453 
L 255.842353 -111.830066 
L 251.469244 -109.483913 
L 247.096134 -107.156645 
L 242.723025 -104.853732 
L 238.349916 -102.580409 
L 233.976807 -100.341633 
L 229.603697 -98.142043 
L 225.230588 -95.985928 
L 220.857479 -93.877197 
L 216.48437 -91.819358 
L 212.111261 -89.815509 
L 207.738151 -87.868325 
L 203.365042 -85.98006 
L 198.991933 -84.152549 
L 194.618824 -82.387222 
L 190.245714 -80.685114 
L 185.872605 -79.046885 
L 181.499496 -77.472842 
L 177.126387 -75.962963 
L 172.753277 -74.516922 
L 168.380168 -73.134117 
L 164.007059 -71.813698 
L 159.63395 -70.554593 
L 155.26084 -69.355539 
L 150.887731 -68.215105 
L 146.514622 -67.131723 
L 142.141513 -66.103705 
L 137.768403 -65.129273 
L 133.395294 -64.206576 
L 129.022185 -63.333713 
L 124.649076 -62.508747 
L 120.275966 -61.729725 
L 115.902857 -60.994687 
L 111.529748 -60.301684 
L 107.156639 -59.648788 
L 102.783529 -59.034098 
L 98.41042 -58.455751 
L 94.037311 -57.911928 
L 89.664202 -57.40086 
L 85.291092 -56.920831 
L 80.917983 -56.470183 
L 76.544874 -56.047317 
L 72.171765 -55.650697 
L 67.798655 -55.278848 
L 63.425546 -54.93036 
L 59.052437 -54.603883 
L 54.679328 -54.298132 
L 50.306218 -54.011884 
L 45.933109 -53.743975 
L 41.56 -53.493299 
z
" id="m2c07f6aa95" style="stroke:#bfbfbf;"/>
    </defs>
    <g clip-path="url(#p52cbf20386)">
     <use style="fill:#bfbfbf;stroke:#bfbfbf;" x="0" xlink:href="#m2c07f6aa95" y="216"/>
    </g>
   </g>
   <g id="matplotlib.axis_1">
    <g id="xtick_1">
     <g id="line2d_1">
      <defs>
       <path d="M 0 0 
L 0 3.5 
" id="me1b543302c" style="stroke:#000000;stroke-width:0.8;"/>
      </defs>
      <g>
       <use style="stroke:#000000;stroke-width:0.8;" x="45.933109" xlink:href="#me1b543302c" y="166.04"/>
      </g>
     </g>
     <g id="text_1">
      <!-- 15 -->
      <g transform="translate(37.661859 182.917969)scale(0.13 -0.13)">
       <defs>
        <path d="M 12.40625 8.296875 
L 28.515625 8.296875 
L 28.515625 63.921875 
L 10.984375 60.40625 
L 10.984375 69.390625 
L 28.421875 72.90625 
L 38.28125 72.90625 
L 38.28125 8.296875 
L 54.390625 8.296875 
L 54.390625 0 
L 12.40625 0 
z
" id="DejaVuSans-49"/>
        <path d="M 10.796875 72.90625 
L 49.515625 72.90625 
L 49.515625 64.59375 
L 19.828125 64.59375 
L 19.828125 46.734375 
Q 21.96875 47.46875 24.109375 47.828125 
Q 26.265625 48.1875 28.421875 48.1875 
Q 40.625 48.1875 47.75 41.5 
Q 54.890625 34.8125 54.890625 23.390625 
Q 54.890625 11.625 47.5625 5.09375 
Q 40.234375 -1.421875 26.90625 -1.421875 
Q 22.3125 -1.421875 17.546875 -0.640625 
Q 12.796875 0.140625 7.71875 1.703125 
L 7.71875 11.625 
Q 12.109375 9.234375 16.796875 8.0625 
Q 21.484375 6.890625 26.703125 6.890625 
Q 35.15625 6.890625 40.078125 11.328125 
Q 45.015625 15.765625 45.015625 23.390625 
Q 45.015625 31 40.078125 35.4375 
Q 35.15625 39.890625 26.703125 39.890625 
Q 22.75 39.890625 18.8125 39.015625 
Q 14.890625 38.140625 10.796875 36.28125 
z
" id="DejaVuSans-53"/>
       </defs>
       <use xlink:href="#DejaVuSans-49"/>
       <use x="63.623047" xlink:href="#DejaVuSans-53"/>
      </g>
     </g>
    </g>
    <g id="xtick_2">
     <g id="line2d_2">
      <g>
       <use style="stroke:#000000;stroke-width:0.8;" x="120.275966" xlink:href="#me1b543302c" y="166.04"/>
      </g>
     </g>
     <g id="text_2">
      <!-- Jan -->
      <g transform="translate(110.25581 182.917969)scale(0.13 -0.13)">
       <defs>
        <path d="M 9.8125 72.90625 
L 19.671875 72.90625 
L 19.671875 5.078125 
Q 19.671875 -8.109375 14.671875 -14.0625 
Q 9.671875 -20.015625 -1.421875 -20.015625 
L -5.171875 -20.015625 
L -5.171875 -11.71875 
L -2.09375 -11.71875 
Q 4.4375 -11.71875 7.125 -8.046875 
Q 9.8125 -4.390625 9.8125 5.078125 
z
" id="DejaVuSans-74"/>
        <path d="M 34.28125 27.484375 
Q 23.390625 27.484375 19.1875 25 
Q 14.984375 22.515625 14.984375 16.5 
Q 14.984375 11.71875 18.140625 8.90625 
Q 21.296875 6.109375 26.703125 6.109375 
Q 34.1875 6.109375 38.703125 11.40625 
Q 43.21875 16.703125 43.21875 25.484375 
L 43.21875 27.484375 
z
M 52.203125 31.203125 
L 52.203125 0 
L 43.21875 0 
L 43.21875 8.296875 
Q 40.140625 3.328125 35.546875 0.953125 
Q 30.953125 -1.421875 24.3125 -1.421875 
Q 15.921875 -1.421875 10.953125 3.296875 
Q 6 8.015625 6 15.921875 
Q 6 25.140625 12.171875 29.828125 
Q 18.359375 34.515625 30.609375 34.515625 
L 43.21875 34.515625 
L 43.21875 35.40625 
Q 43.21875 41.609375 39.140625 45 
Q 35.0625 48.390625 27.6875 48.390625 
Q 23 48.390625 18.546875 47.265625 
Q 14.109375 46.140625 10.015625 43.890625 
L 10.015625 52.203125 
Q 14.9375 54.109375 19.578125 55.046875 
Q 24.21875 56 28.609375 56 
Q 40.484375 56 46.34375 49.84375 
Q 52.203125 43.703125 52.203125 31.203125 
z
" id="DejaVuSans-97"/>
        <path d="M 54.890625 33.015625 
L 54.890625 0 
L 45.90625 0 
L 45.90625 32.71875 
Q 45.90625 40.484375 42.875 44.328125 
Q 39.84375 48.1875 33.796875 48.1875 
Q 26.515625 48.1875 22.3125 43.546875 
Q 18.109375 38.921875 18.109375 30.90625 
L 18.109375 0 
L 9.078125 0 
L 9.078125 54.6875 
L 18.109375 54.6875 
L 18.109375 46.1875 
Q 21.34375 51.125 25.703125 53.5625 
Q 30.078125 56 35.796875 56 
Q 45.21875 56 50.046875 50.171875 
Q 54.890625 44.34375 54.890625 33.015625 
z
" id="DejaVuSans-110"/>
       </defs>
       <use xlink:href="#DejaVuSans-74"/>
       <use x="29.492188" xlink:href="#DejaVuSans-97"/>
       <use x="90.771484" xlink:href="#DejaVuSans-110"/>
      </g>
     </g>
    </g>
    <g id="xtick_3">
     <g id="line2d_3">
      <g>
       <use style="stroke:#000000;stroke-width:0.8;" x="181.499496" xlink:href="#me1b543302c" y="166.04"/>
      </g>
     </g>
     <g id="text_3">
      <!-- 15 -->
      <g transform="translate(173.228246 182.917969)scale(0.13 -0.13)">
       <use xlink:href="#DejaVuSans-49"/>
       <use x="63.623047" xlink:href="#DejaVuSans-53"/>
      </g>
     </g>
    </g>
    <g id="xtick_4">
     <g id="line2d_4">
      <g>
       <use style="stroke:#000000;stroke-width:0.8;" x="255.842353" xlink:href="#me1b543302c" y="166.04"/>
      </g>
     </g>
     <g id="text_4">
      <!-- Feb -->
      <g transform="translate(244.335322 182.917969)scale(0.13 -0.13)">
       <defs>
        <path d="M 9.8125 72.90625 
L 51.703125 72.90625 
L 51.703125 64.59375 
L 19.671875 64.59375 
L 19.671875 43.109375 
L 48.578125 43.109375 
L 48.578125 34.8125 
L 19.671875 34.8125 
L 19.671875 0 
L 9.8125 0 
z
" id="DejaVuSans-70"/>
        <path d="M 56.203125 29.59375 
L 56.203125 25.203125 
L 14.890625 25.203125 
Q 15.484375 15.921875 20.484375 11.0625 
Q 25.484375 6.203125 34.421875 6.203125 
Q 39.59375 6.203125 44.453125 7.46875 
Q 49.3125 8.734375 54.109375 11.28125 
L 54.109375 2.78125 
Q 49.265625 0.734375 44.1875 -0.34375 
Q 39.109375 -1.421875 33.890625 -1.421875 
Q 20.796875 -1.421875 13.15625 6.1875 
Q 5.515625 13.8125 5.515625 26.8125 
Q 5.515625 40.234375 12.765625 48.109375 
Q 20.015625 56 32.328125 56 
Q 43.359375 56 49.78125 48.890625 
Q 56.203125 41.796875 56.203125 29.59375 
z
M 47.21875 32.234375 
Q 47.125 39.59375 43.09375 43.984375 
Q 39.0625 48.390625 32.421875 48.390625 
Q 24.90625 48.390625 20.390625 44.140625 
Q 15.875 39.890625 15.1875 32.171875 
z
" id="DejaVuSans-101"/>
        <path d="M 48.6875 27.296875 
Q 48.6875 37.203125 44.609375 42.84375 
Q 40.53125 48.484375 33.40625 48.484375 
Q 26.265625 48.484375 22.1875 42.84375 
Q 18.109375 37.203125 18.109375 27.296875 
Q 18.109375 17.390625 22.1875 11.75 
Q 26.265625 6.109375 33.40625 6.109375 
Q 40.53125 6.109375 44.609375 11.75 
Q 48.6875 17.390625 48.6875 27.296875 
z
M 18.109375 46.390625 
Q 20.953125 51.265625 25.265625 53.625 
Q 29.59375 56 35.59375 56 
Q 45.5625 56 51.78125 48.09375 
Q 58.015625 40.1875 58.015625 27.296875 
Q 58.015625 14.40625 51.78125 6.484375 
Q 45.5625 -1.421875 35.59375 -1.421875 
Q 29.59375 -1.421875 25.265625 0.953125 
Q 20.953125 3.328125 18.109375 8.203125 
L 18.109375 0 
L 9.078125 0 
L 9.078125 75.984375 
L 18.109375 75.984375 
z
" id="DejaVuSans-98"/>
       </defs>
       <use xlink:href="#DejaVuSans-70"/>
       <use x="52.019531" xlink:href="#DejaVuSans-101"/>
       <use x="113.542969" xlink:href="#DejaVuSans-98"/>
      </g>
     </g>
    </g>
    <g id="xtick_5">
     <g id="line2d_5">
      <g>
       <use style="stroke:#000000;stroke-width:0.8;" x="317.065882" xlink:href="#me1b543302c" y="166.04"/>
      </g>
     </g>
     <g id="text_5">
      <!-- 15 -->
      <g transform="translate(308.794632 182.917969)scale(0.13 -0.13)">
       <use xlink:href="#DejaVuSans-49"/>
       <use x="63.623047" xlink:href="#DejaVuSans-53"/>
      </g>
     </g>
    </g>
    <g id="xtick_6">
     <g id="line2d_6">
      <g>
       <use style="stroke:#000000;stroke-width:0.8;" x="378.289412" xlink:href="#me1b543302c" y="166.04"/>
      </g>
     </g>
     <g id="text_6">
      <!-- Mar -->
      <g transform="translate(366.02574 182.917969)scale(0.13 -0.13)">
       <defs>
        <path d="M 9.8125 72.90625 
L 24.515625 72.90625 
L 43.109375 23.296875 
L 61.8125 72.90625 
L 76.515625 72.90625 
L 76.515625 0 
L 66.890625 0 
L 66.890625 64.015625 
L 48.09375 14.015625 
L 38.1875 14.015625 
L 19.390625 64.015625 
L 19.390625 0 
L 9.8125 0 
z
" id="DejaVuSans-77"/>
        <path d="M 41.109375 46.296875 
Q 39.59375 47.171875 37.8125 47.578125 
Q 36.03125 48 33.890625 48 
Q 26.265625 48 22.1875 43.046875 
Q 18.109375 38.09375 18.109375 28.8125 
L 18.109375 0 
L 9.078125 0 
L 9.078125 54.6875 
L 18.109375 54.6875 
L 18.109375 46.1875 
Q 20.953125 51.171875 25.484375 53.578125 
Q 30.03125 56 36.53125 56 
Q 37.453125 56 38.578125 55.875 
Q 39.703125 55.765625 41.0625 55.515625 
z
" id="DejaVuSans-114"/>
       </defs>
       <use xlink:href="#DejaVuSans-77"/>
       <use x="86.279297" xlink:href="#DejaVuSans-97"/>
       <use x="147.558594" xlink:href="#DejaVuSans-114"/>
      </g>
     </g>
    </g>
    <g id="xtick_7">
     <g id="line2d_7">
      <g>
       <use style="stroke:#000000;stroke-width:0.8;" x="439.512941" xlink:href="#me1b543302c" y="166.04"/>
      </g>
     </g>
     <g id="text_7">
      <!-- 15 -->
      <g transform="translate(431.241691 182.917969)scale(0.13 -0.13)">
       <use xlink:href="#DejaVuSans-49"/>
       <use x="63.623047" xlink:href="#DejaVuSans-53"/>
      </g>
     </g>
    </g>
    <g id="xtick_8">
     <g id="line2d_8">
      <g>
       <use style="stroke:#000000;stroke-width:0.8;" x="513.855798" xlink:href="#me1b543302c" y="166.04"/>
      </g>
     </g>
     <g id="text_8">
      <!-- Apr -->
      <g transform="translate(502.610798 182.917969)scale(0.13 -0.13)">
       <defs>
        <path d="M 34.1875 63.1875 
L 20.796875 26.90625 
L 47.609375 26.90625 
z
M 28.609375 72.90625 
L 39.796875 72.90625 
L 67.578125 0 
L 57.328125 0 
L 50.6875 18.703125 
L 17.828125 18.703125 
L 11.1875 0 
L 0.78125 0 
z
" id="DejaVuSans-65"/>
        <path d="M 18.109375 8.203125 
L 18.109375 -20.796875 
L 9.078125 -20.796875 
L 9.078125 54.6875 
L 18.109375 54.6875 
L 18.109375 46.390625 
Q 20.953125 51.265625 25.265625 53.625 
Q 29.59375 56 35.59375 56 
Q 45.5625 56 51.78125 48.09375 
Q 58.015625 40.1875 58.015625 27.296875 
Q 58.015625 14.40625 51.78125 6.484375 
Q 45.5625 -1.421875 35.59375 -1.421875 
Q 29.59375 -1.421875 25.265625 0.953125 
Q 20.953125 3.328125 18.109375 8.203125 
z
M 48.6875 27.296875 
Q 48.6875 37.203125 44.609375 42.84375 
Q 40.53125 48.484375 33.40625 48.484375 
Q 26.265625 48.484375 22.1875 42.84375 
Q 18.109375 37.203125 18.109375 27.296875 
Q 18.109375 17.390625 22.1875 11.75 
Q 26.265625 6.109375 33.40625 6.109375 
Q 40.53125 6.109375 44.609375 11.75 
Q 48.6875 17.390625 48.6875 27.296875 
z
" id="DejaVuSans-112"/>
       </defs>
       <use xlink:href="#DejaVuSans-65"/>
       <use x="68.408203" xlink:href="#DejaVuSans-112"/>
       <use x="131.884766" xlink:href="#DejaVuSans-114"/>
      </g>
     </g>
    </g>
    <g id="text_9">
     <!-- 2021-Apr -->
     <g transform="translate(501.987344 198.499531)scale(0.13 -0.13)">
      <defs>
       <path d="M 19.1875 8.296875 
L 53.609375 8.296875 
L 53.609375 0 
L 7.328125 0 
L 7.328125 8.296875 
Q 12.9375 14.109375 22.625 23.890625 
Q 32.328125 33.6875 34.8125 36.53125 
Q 39.546875 41.84375 41.421875 45.53125 
Q 43.3125 49.21875 43.3125 52.78125 
Q 43.3125 58.59375 39.234375 62.25 
Q 35.15625 65.921875 28.609375 65.921875 
Q 23.96875 65.921875 18.8125 64.3125 
Q 13.671875 62.703125 7.8125 59.421875 
L 7.8125 69.390625 
Q 13.765625 71.78125 18.9375 73 
Q 24.125 74.21875 28.421875 74.21875 
Q 39.75 74.21875 46.484375 68.546875 
Q 53.21875 62.890625 53.21875 53.421875 
Q 53.21875 48.921875 51.53125 44.890625 
Q 49.859375 40.875 45.40625 35.40625 
Q 44.1875 33.984375 37.640625 27.21875 
Q 31.109375 20.453125 19.1875 8.296875 
z
" id="DejaVuSans-50"/>
       <path d="M 31.78125 66.40625 
Q 24.171875 66.40625 20.328125 58.90625 
Q 16.5 51.421875 16.5 36.375 
Q 16.5 21.390625 20.328125 13.890625 
Q 24.171875 6.390625 31.78125 6.390625 
Q 39.453125 6.390625 43.28125 13.890625 
Q 47.125 21.390625 47.125 36.375 
Q 47.125 51.421875 43.28125 58.90625 
Q 39.453125 66.40625 31.78125 66.40625 
z
M 31.78125 74.21875 
Q 44.046875 74.21875 50.515625 64.515625 
Q 56.984375 54.828125 56.984375 36.375 
Q 56.984375 17.96875 50.515625 8.265625 
Q 44.046875 -1.421875 31.78125 -1.421875 
Q 19.53125 -1.421875 13.0625 8.265625 
Q 6.59375 17.96875 6.59375 36.375 
Q 6.59375 54.828125 13.0625 64.515625 
Q 19.53125 74.21875 31.78125 74.21875 
z
" id="DejaVuSans-48"/>
       <path d="M 4.890625 31.390625 
L 31.203125 31.390625 
L 31.203125 23.390625 
L 4.890625 23.390625 
z
" id="DejaVuSans-45"/>
      </defs>
      <use xlink:href="#DejaVuSans-50"/>
      <use x="63.623047" xlink:href="#DejaVuSans-48"/>
      <use x="127.246094" xlink:href="#DejaVuSans-50"/>
      <use x="190.869141" xlink:href="#DejaVuSans-49"/>
      <use x="254.492188" xlink:href="#DejaVuSans-45"/>
      <use x="288.326172" xlink:href="#DejaVuSans-65"/>
      <use x="356.734375" xlink:href="#DejaVuSans-112"/>
      <use x="420.210938" xlink:href="#DejaVuSans-114"/>
     </g>
    </g>
   </g>
   <g id="matplotlib.axis_2">
    <g id="ytick_1">
     <g id="line2d_9">
      <defs>
       <path d="M 0 0 
L -3.5 0 
" id="m181c56cae5" style="stroke:#000000;stroke-width:0.8;"/>
      </defs>
      <g>
       <use style="stroke:#000000;stroke-width:0.8;" x="41.56" xlink:href="#m181c56cae5" y="166.04"/>
      </g>
     </g>
     <g id="text_10">
      <!-- 0.0 -->
      <g transform="translate(13.885938 170.978984)scale(0.13 -0.13)">
       <defs>
        <path d="M 10.6875 12.40625 
L 21 12.40625 
L 21 0 
L 10.6875 0 
z
" id="DejaVuSans-46"/>
       </defs>
       <use xlink:href="#DejaVuSans-48"/>
       <use x="63.623047" xlink:href="#DejaVuSans-46"/>
       <use x="95.410156" xlink:href="#DejaVuSans-48"/>
      </g>
     </g>
    </g>
    <g id="ytick_2">
     <g id="line2d_10">
      <g>
       <use style="stroke:#000000;stroke-width:0.8;" x="41.56" xlink:href="#m181c56cae5" y="139.144"/>
      </g>
     </g>
     <g id="text_11">
      <!-- 0.2 -->
      <g transform="translate(13.885938 144.082984)scale(0.13 -0.13)">
       <use xlink:href="#DejaVuSans-48"/>
       <use x="63.623047" xlink:href="#DejaVuSans-46"/>
       <use x="95.410156" xlink:href="#DejaVuSans-50"/>
      </g>
     </g>
    </g>
    <g id="ytick_3">
     <g id="line2d_11">
      <g>
       <use style="stroke:#000000;stroke-width:0.8;" x="41.56" xlink:href="#m181c56cae5" y="112.248"/>
      </g>
     </g>
     <g id="text_12">
      <!-- 0.4 -->
      <g transform="translate(13.885938 117.186984)scale(0.13 -0.13)">
       <defs>
        <path d="M 37.796875 64.3125 
L 12.890625 25.390625 
L 37.796875 25.390625 
z
M 35.203125 72.90625 
L 47.609375 72.90625 
L 47.609375 25.390625 
L 58.015625 25.390625 
L 58.015625 17.1875 
L 47.609375 17.1875 
L 47.609375 0 
L 37.796875 0 
L 37.796875 17.1875 
L 4.890625 17.1875 
L 4.890625 26.703125 
z
" id="DejaVuSans-52"/>
       </defs>
       <use xlink:href="#DejaVuSans-48"/>
       <use x="63.623047" xlink:href="#DejaVuSans-46"/>
       <use x="95.410156" xlink:href="#DejaVuSans-52"/>
      </g>
     </g>
    </g>
    <g id="ytick_4">
     <g id="line2d_12">
      <g>
       <use style="stroke:#000000;stroke-width:0.8;" x="41.56" xlink:href="#m181c56cae5" y="85.352"/>
      </g>
     </g>
     <g id="text_13">
      <!-- 0.6 -->
      <g transform="translate(13.885938 90.290984)scale(0.13 -0.13)">
       <defs>
        <path d="M 33.015625 40.375 
Q 26.375 40.375 22.484375 35.828125 
Q 18.609375 31.296875 18.609375 23.390625 
Q 18.609375 15.53125 22.484375 10.953125 
Q 26.375 6.390625 33.015625 6.390625 
Q 39.65625 6.390625 43.53125 10.953125 
Q 47.40625 15.53125 47.40625 23.390625 
Q 47.40625 31.296875 43.53125 35.828125 
Q 39.65625 40.375 33.015625 40.375 
z
M 52.59375 71.296875 
L 52.59375 62.3125 
Q 48.875 64.0625 45.09375 64.984375 
Q 41.3125 65.921875 37.59375 65.921875 
Q 27.828125 65.921875 22.671875 59.328125 
Q 17.53125 52.734375 16.796875 39.40625 
Q 19.671875 43.65625 24.015625 45.921875 
Q 28.375 48.1875 33.59375 48.1875 
Q 44.578125 48.1875 50.953125 41.515625 
Q 57.328125 34.859375 57.328125 23.390625 
Q 57.328125 12.15625 50.6875 5.359375 
Q 44.046875 -1.421875 33.015625 -1.421875 
Q 20.359375 -1.421875 13.671875 8.265625 
Q 6.984375 17.96875 6.984375 36.375 
Q 6.984375 53.65625 15.1875 63.9375 
Q 23.390625 74.21875 37.203125 74.21875 
Q 40.921875 74.21875 44.703125 73.484375 
Q 48.484375 72.75 52.59375 71.296875 
z
" id="DejaVuSans-54"/>
       </defs>
       <use xlink:href="#DejaVuSans-48"/>
       <use x="63.623047" xlink:href="#DejaVuSans-46"/>
       <use x="95.410156" xlink:href="#DejaVuSans-54"/>
      </g>
     </g>
    </g>
    <g id="ytick_5">
     <g id="line2d_13">
      <g>
       <use style="stroke:#000000;stroke-width:0.8;" x="41.56" xlink:href="#m181c56cae5" y="58.456"/>
      </g>
     </g>
     <g id="text_14">
      <!-- 0.8 -->
      <g transform="translate(13.885938 63.394984)scale(0.13 -0.13)">
       <defs>
        <path d="M 31.78125 34.625 
Q 24.75 34.625 20.71875 30.859375 
Q 16.703125 27.09375 16.703125 20.515625 
Q 16.703125 13.921875 20.71875 10.15625 
Q 24.75 6.390625 31.78125 6.390625 
Q 38.8125 6.390625 42.859375 10.171875 
Q 46.921875 13.96875 46.921875 20.515625 
Q 46.921875 27.09375 42.890625 30.859375 
Q 38.875 34.625 31.78125 34.625 
z
M 21.921875 38.8125 
Q 15.578125 40.375 12.03125 44.71875 
Q 8.5 49.078125 8.5 55.328125 
Q 8.5 64.0625 14.71875 69.140625 
Q 20.953125 74.21875 31.78125 74.21875 
Q 42.671875 74.21875 48.875 69.140625 
Q 55.078125 64.0625 55.078125 55.328125 
Q 55.078125 49.078125 51.53125 44.71875 
Q 48 40.375 41.703125 38.8125 
Q 48.828125 37.15625 52.796875 32.3125 
Q 56.78125 27.484375 56.78125 20.515625 
Q 56.78125 9.90625 50.3125 4.234375 
Q 43.84375 -1.421875 31.78125 -1.421875 
Q 19.734375 -1.421875 13.25 4.234375 
Q 6.78125 9.90625 6.78125 20.515625 
Q 6.78125 27.484375 10.78125 32.3125 
Q 14.796875 37.15625 21.921875 38.8125 
z
M 18.3125 54.390625 
Q 18.3125 48.734375 21.84375 45.5625 
Q 25.390625 42.390625 31.78125 42.390625 
Q 38.140625 42.390625 41.71875 45.5625 
Q 45.3125 48.734375 45.3125 54.390625 
Q 45.3125 60.0625 41.71875 63.234375 
Q 38.140625 66.40625 31.78125 66.40625 
Q 25.390625 66.40625 21.84375 63.234375 
Q 18.3125 60.0625 18.3125 54.390625 
z
" id="DejaVuSans-56"/>
       </defs>
       <use xlink:href="#DejaVuSans-48"/>
       <use x="63.623047" xlink:href="#DejaVuSans-46"/>
       <use x="95.410156" xlink:href="#DejaVuSans-56"/>
      </g>
     </g>
    </g>
    <g id="ytick_6">
     <g id="line2d_14">
      <g>
       <use style="stroke:#000000;stroke-width:0.8;" x="41.56" xlink:href="#m181c56cae5" y="31.56"/>
      </g>
     </g>
     <g id="text_15">
      <!-- 1.0 -->
      <g transform="translate(13.885938 36.498984)scale(0.13 -0.13)">
       <use xlink:href="#DejaVuSans-49"/>
       <use x="63.623047" xlink:href="#DejaVuSans-46"/>
       <use x="95.410156" xlink:href="#DejaVuSans-48"/>
      </g>
     </g>
    </g>
   </g>
   <g id="LineCollection_1">
    <path clip-path="url(#p52cbf20386)" d="M 80.917983 166.04 
L 80.917983 59.336752 
" style="fill:none;stroke:#0d4a70;stroke-width:1.5;"/>
    <path clip-path="url(#p52cbf20386)" d="M 85.291092 166.04 
L 85.291092 135.365734 
" style="fill:none;stroke:#0d4a70;stroke-width:1.5;"/>
    <path clip-path="url(#p52cbf20386)" d="M 89.664202 166.04 
L 89.664202 128.717389 
" style="fill:none;stroke:#0d4a70;stroke-width:1.5;"/>
    <path clip-path="url(#p52cbf20386)" d="M 94.037311 147.63718 
L 94.037311 72.676237 
" style="fill:none;stroke:#0d4a70;stroke-width:1.5;"/>
    <path clip-path="url(#p52cbf20386)" d="M 98.41042 166.04 
L 98.41042 77.603293 
" style="fill:none;stroke:#0d4a70;stroke-width:1.5;"/>
    <path clip-path="url(#p52cbf20386)" d="M 102.783529 164.711984 
L 102.783529 131.401582 
" style="fill:none;stroke:#0d4a70;stroke-width:1.5;"/>
    <path clip-path="url(#p52cbf20386)" d="M 107.156639 166.04 
L 107.156639 107.610798 
" style="fill:none;stroke:#0d4a70;stroke-width:1.5;"/>
    <path clip-path="url(#p52cbf20386)" d="M 111.529748 166.04 
L 111.529748 59.336752 
" style="fill:none;stroke:#0d4a70;stroke-width:1.5;"/>
    <path clip-path="url(#p52cbf20386)" d="M 115.902857 162.788273 
L 115.902857 130.004765 
" style="fill:none;stroke:#0d4a70;stroke-width:1.5;"/>
    <path clip-path="url(#p52cbf20386)" d="M 120.275966 165.002263 
L 120.275966 137.811095 
" style="fill:none;stroke:#0d4a70;stroke-width:1.5;"/>
    <path clip-path="url(#p52cbf20386)" d="M 124.649076 166.04 
L 124.649076 143.423258 
" style="fill:none;stroke:#0d4a70;stroke-width:1.5;"/>
    <path clip-path="url(#p52cbf20386)" d="M 142.141513 138.263248 
L 142.141513 31.56 
" style="fill:none;stroke:#0d4a70;stroke-width:1.5;"/>
    <path clip-path="url(#p52cbf20386)" d="M 150.887731 153.026181 
L 150.887731 71.903101 
" style="fill:none;stroke:#0d4a70;stroke-width:1.5;"/>
    <path clip-path="url(#p52cbf20386)" d="M 155.26084 163.636199 
L 155.26084 138.177577 
" style="fill:none;stroke:#0d4a70;stroke-width:1.5;"/>
    <path clip-path="url(#p52cbf20386)" d="M 159.63395 154.279168 
L 159.63395 123.073653 
" style="fill:none;stroke:#0d4a70;stroke-width:1.5;"/>
    <path clip-path="url(#p52cbf20386)" d="M 164.007059 155.750657 
L 164.007059 124.167657 
" style="fill:none;stroke:#0d4a70;stroke-width:1.5;"/>
    <path clip-path="url(#p52cbf20386)" d="M 168.380168 142.90246 
L 168.380168 96.66213 
" style="fill:none;stroke:#0d4a70;stroke-width:1.5;"/>
    <path clip-path="url(#p52cbf20386)" d="M 172.753277 159.812933 
L 172.753277 135.655227 
" style="fill:none;stroke:#0d4a70;stroke-width:1.5;"/>
    <path clip-path="url(#p52cbf20386)" d="M 177.126387 161.881583 
L 177.126387 141.161272 
" style="fill:none;stroke:#0d4a70;stroke-width:1.5;"/>
    <path clip-path="url(#p52cbf20386)" d="M 181.499496 155.333821 
L 181.499496 131.447393 
" style="fill:none;stroke:#0d4a70;stroke-width:1.5;"/>
    <path clip-path="url(#p52cbf20386)" d="M 185.872605 149.916241 
L 185.872605 119.101065 
" style="fill:none;stroke:#0d4a70;stroke-width:1.5;"/>
    <path clip-path="url(#p52cbf20386)" d="M 190.245714 145.108752 
L 190.245714 105.02036 
" style="fill:none;stroke:#0d4a70;stroke-width:1.5;"/>
    <path clip-path="url(#p52cbf20386)" d="M 194.618824 144.248236 
L 194.618824 118.10535 
" style="fill:none;stroke:#0d4a70;stroke-width:1.5;"/>
    <path clip-path="url(#p52cbf20386)" d="M 198.991933 148.294804 
L 198.991933 119.054474 
" style="fill:none;stroke:#0d4a70;stroke-width:1.5;"/>
    <path clip-path="url(#p52cbf20386)" d="M 203.365042 156.240071 
L 203.365042 131.98366 
" style="fill:none;stroke:#0d4a70;stroke-width:1.5;"/>
    <path clip-path="url(#p52cbf20386)" d="M 207.738151 160.849464 
L 207.738151 135.717878 
" style="fill:none;stroke:#0d4a70;stroke-width:1.5;"/>
    <path clip-path="url(#p52cbf20386)" d="M 212.111261 132.676137 
L 212.111261 72.061315 
" style="fill:none;stroke:#0d4a70;stroke-width:1.5;"/>
    <path clip-path="url(#p52cbf20386)" d="M 216.48437 149.813805 
L 216.48437 113.569512 
" style="fill:none;stroke:#0d4a70;stroke-width:1.5;"/>
    <path clip-path="url(#p52cbf20386)" d="M 220.857479 139.777805 
L 220.857479 104.629969 
" style="fill:none;stroke:#0d4a70;stroke-width:1.5;"/>
    <path clip-path="url(#p52cbf20386)" d="M 225.230588 147.448136 
L 225.230588 113.131081 
" style="fill:none;stroke:#0d4a70;stroke-width:1.5;"/>
    <path clip-path="url(#p52cbf20386)" d="M 229.603697 129.41357 
L 229.603697 86.437608 
" style="fill:none;stroke:#0d4a70;stroke-width:1.5;"/>
    <path clip-path="url(#p52cbf20386)" d="M 233.976807 123.550968 
L 233.976807 88.498512 
" style="fill:none;stroke:#0d4a70;stroke-width:1.5;"/>
    <path clip-path="url(#p52cbf20386)" d="M 238.349916 127.082889 
L 238.349916 89.790901 
" style="fill:none;stroke:#0d4a70;stroke-width:1.5;"/>
    <path clip-path="url(#p52cbf20386)" d="M 242.723025 126.921068 
L 242.723025 94.218806 
" style="fill:none;stroke:#0d4a70;stroke-width:1.5;"/>
    <path clip-path="url(#p52cbf20386)" d="M 247.096134 123.003086 
L 247.096134 88.546769 
" style="fill:none;stroke:#0d4a70;stroke-width:1.5;"/>
    <path clip-path="url(#p52cbf20386)" d="M 251.469244 120.498112 
L 251.469244 80.240903 
" style="fill:none;stroke:#0d4a70;stroke-width:1.5;"/>
    <path clip-path="url(#p52cbf20386)" d="M 255.842353 130.180049 
L 255.842353 81.408148 
" style="fill:none;stroke:#0d4a70;stroke-width:1.5;"/>
    <path clip-path="url(#p52cbf20386)" d="M 260.215462 111.066386 
L 260.215462 59.46596 
" style="fill:none;stroke:#0d4a70;stroke-width:1.5;"/>
    <path clip-path="url(#p52cbf20386)" d="M 264.588571 94.052863 
L 264.588571 48.435379 
" style="fill:none;stroke:#0d4a70;stroke-width:1.5;"/>
    <path clip-path="url(#p52cbf20386)" d="M 268.961681 107.809099 
L 268.961681 70.517111 
" style="fill:none;stroke:#0d4a70;stroke-width:1.5;"/>
    <path clip-path="url(#p52cbf20386)" d="M 273.33479 100.110893 
L 273.33479 65.611035 
" style="fill:none;stroke:#0d4a70;stroke-width:1.5;"/>
    <path clip-path="url(#p52cbf20386)" d="M 277.707899 93.793966 
L 277.707899 61.80967 
" style="fill:none;stroke:#0d4a70;stroke-width:1.5;"/>
    <path clip-path="url(#p52cbf20386)" d="M 282.081008 144.059605 
L 282.081008 83.690396 
" style="fill:none;stroke:#0d4a70;stroke-width:1.5;"/>
    <path clip-path="url(#p52cbf20386)" d="M 286.454118 101.351465 
L 286.454118 51.12378 
" style="fill:none;stroke:#0d4a70;stroke-width:1.5;"/>
    <path clip-path="url(#p52cbf20386)" d="M 290.827227 88.184901 
L 290.827227 49.381829 
" style="fill:none;stroke:#0d4a70;stroke-width:1.5;"/>
    <path clip-path="url(#p52cbf20386)" d="M 295.200336 89.978049 
L 295.200336 45.173464 
" style="fill:none;stroke:#0d4a70;stroke-width:1.5;"/>
    <path clip-path="url(#p52cbf20386)" d="M 299.573445 89.164449 
L 299.573445 53.22206 
" style="fill:none;stroke:#0d4a70;stroke-width:1.5;"/>
    <path clip-path="url(#p52cbf20386)" d="M 303.946555 89.964238 
L 303.946555 47.020243 
" style="fill:none;stroke:#0d4a70;stroke-width:1.5;"/>
    <path clip-path="url(#p52cbf20386)" d="M 308.319664 97.4856 
L 308.319664 59.307199 
" style="fill:none;stroke:#0d4a70;stroke-width:1.5;"/>
    <path clip-path="url(#p52cbf20386)" d="M 312.692773 122.15497 
L 312.692773 75.44503 
" style="fill:none;stroke:#0d4a70;stroke-width:1.5;"/>
    <path clip-path="url(#p52cbf20386)" d="M 317.065882 85.984666 
L 317.065882 43.992441 
" style="fill:none;stroke:#0d4a70;stroke-width:1.5;"/>
    <path clip-path="url(#p52cbf20386)" d="M 321.438992 104.044141 
L 321.438992 63.921266 
" style="fill:none;stroke:#0d4a70;stroke-width:1.5;"/>
    <path clip-path="url(#p52cbf20386)" d="M 325.812101 103.229345 
L 325.812101 55.729002 
" style="fill:none;stroke:#0d4a70;stroke-width:1.5;"/>
    <path clip-path="url(#p52cbf20386)" d="M 330.18521 114.105113 
L 330.18521 58.866496 
" style="fill:none;stroke:#0d4a70;stroke-width:1.5;"/>
    <path clip-path="url(#p52cbf20386)" d="M 334.558319 96.314452 
L 334.558319 49.245142 
" style="fill:none;stroke:#0d4a70;stroke-width:1.5;"/>
    <path clip-path="url(#p52cbf20386)" d="M 338.931429 93.0404 
L 338.931429 51.326886 
" style="fill:none;stroke:#0d4a70;stroke-width:1.5;"/>
    <path clip-path="url(#p52cbf20386)" d="M 343.304538 72.974533 
L 343.304538 44.698955 
" style="fill:none;stroke:#0d4a70;stroke-width:1.5;"/>
    <path clip-path="url(#p52cbf20386)" d="M 347.677647 83.186994 
L 347.677647 44.800995 
" style="fill:none;stroke:#0d4a70;stroke-width:1.5;"/>
    <path clip-path="url(#p52cbf20386)" d="M 352.050756 86.369918 
L 352.050756 45.824616 
" style="fill:none;stroke:#0d4a70;stroke-width:1.5;"/>
    <path clip-path="url(#p52cbf20386)" d="M 356.423866 86.729909 
L 356.423866 48.816088 
" style="fill:none;stroke:#0d4a70;stroke-width:1.5;"/>
    <path clip-path="url(#p52cbf20386)" d="M 360.796975 91.643743 
L 360.796975 49.27152 
" style="fill:none;stroke:#0d4a70;stroke-width:1.5;"/>
    <path clip-path="url(#p52cbf20386)" d="M 365.170084 89.989202 
L 365.170084 31.56 
" style="fill:none;stroke:#0d4a70;stroke-width:1.5;"/>
    <path clip-path="url(#p52cbf20386)" d="M 369.543193 60.912534 
L 369.543193 35.426113 
" style="fill:none;stroke:#0d4a70;stroke-width:1.5;"/>
    <path clip-path="url(#p52cbf20386)" d="M 373.916303 61.655648 
L 373.916303 35.538237 
" style="fill:none;stroke:#0d4a70;stroke-width:1.5;"/>
    <path clip-path="url(#p52cbf20386)" d="M 378.289412 58.653851 
L 378.289412 33.887925 
" style="fill:none;stroke:#0d4a70;stroke-width:1.5;"/>
    <path clip-path="url(#p52cbf20386)" d="M 382.662521 72.043005 
L 382.662521 35.307484 
" style="fill:none;stroke:#0d4a70;stroke-width:1.5;"/>
    <path clip-path="url(#p52cbf20386)" d="M 387.03563 71.844552 
L 387.03563 37.163536 
" style="fill:none;stroke:#0d4a70;stroke-width:1.5;"/>
    <path clip-path="url(#p52cbf20386)" d="M 391.408739 62.013484 
L 391.408739 34.224326 
" style="fill:none;stroke:#0d4a70;stroke-width:1.5;"/>
    <path clip-path="url(#p52cbf20386)" d="M 395.781849 56.147605 
L 395.781849 32.443284 
" style="fill:none;stroke:#0d4a70;stroke-width:1.5;"/>
    <path clip-path="url(#p52cbf20386)" d="M 400.154958 57.123877 
L 400.154958 34.866918 
" style="fill:none;stroke:#0d4a70;stroke-width:1.5;"/>
    <path clip-path="url(#p52cbf20386)" d="M 404.528067 64.010726 
L 404.528067 37.168162 
" style="fill:none;stroke:#0d4a70;stroke-width:1.5;"/>
    <path clip-path="url(#p52cbf20386)" d="M 408.901176 47.784112 
L 408.901176 31.56 
" style="fill:none;stroke:#0d4a70;stroke-width:1.5;"/>
    <path clip-path="url(#p52cbf20386)" d="M 413.274286 59.422423 
L 413.274286 33.963801 
" style="fill:none;stroke:#0d4a70;stroke-width:1.5;"/>
    <path clip-path="url(#p52cbf20386)" d="M 417.647395 64.128574 
L 417.647395 35.917361 
" style="fill:none;stroke:#0d4a70;stroke-width:1.5;"/>
    <path clip-path="url(#p52cbf20386)" d="M 422.020504 70.526795 
L 422.020504 36.943563 
" style="fill:none;stroke:#0d4a70;stroke-width:1.5;"/>
    <path clip-path="url(#p52cbf20386)" d="M 426.393613 64.025562 
L 426.393613 34.431832 
" style="fill:none;stroke:#0d4a70;stroke-width:1.5;"/>
    <path clip-path="url(#p52cbf20386)" d="M 430.766723 72.876766 
L 430.766723 43.778573 
" style="fill:none;stroke:#0d4a70;stroke-width:1.5;"/>
    <path clip-path="url(#p52cbf20386)" d="M 435.139832 51.913546 
L 435.139832 33.248411 
" style="fill:none;stroke:#0d4a70;stroke-width:1.5;"/>
    <path clip-path="url(#p52cbf20386)" d="M 439.512941 45.211677 
L 439.512941 31.56 
" style="fill:none;stroke:#0d4a70;stroke-width:1.5;"/>
    <path clip-path="url(#p52cbf20386)" d="M 443.88605 67.473884 
L 443.88605 39.094669 
" style="fill:none;stroke:#0d4a70;stroke-width:1.5;"/>
    <path clip-path="url(#p52cbf20386)" d="M 448.25916 60.014945 
L 448.25916 36.390817 
" style="fill:none;stroke:#0d4a70;stroke-width:1.5;"/>
    <path clip-path="url(#p52cbf20386)" d="M 452.632269 64.694166 
L 452.632269 32.817656 
" style="fill:none;stroke:#0d4a70;stroke-width:1.5;"/>
    <path clip-path="url(#p52cbf20386)" d="M 457.005378 70.526795 
L 457.005378 36.943563 
" style="fill:none;stroke:#0d4a70;stroke-width:1.5;"/>
    <path clip-path="url(#p52cbf20386)" d="M 461.378487 63.268843 
L 461.378487 37.021678 
" style="fill:none;stroke:#0d4a70;stroke-width:1.5;"/>
    <path clip-path="url(#p52cbf20386)" d="M 465.751597 67.042657 
L 465.751597 36.376387 
" style="fill:none;stroke:#0d4a70;stroke-width:1.5;"/>
    <path clip-path="url(#p52cbf20386)" d="M 470.124706 57.237083 
L 470.124706 33.749691 
" style="fill:none;stroke:#0d4a70;stroke-width:1.5;"/>
    <path clip-path="url(#p52cbf20386)" d="M 474.497815 72.655735 
L 474.497815 38.952957 
" style="fill:none;stroke:#0d4a70;stroke-width:1.5;"/>
    <path clip-path="url(#p52cbf20386)" d="M 478.870924 55.369219 
L 478.870924 33.570607 
" style="fill:none;stroke:#0d4a70;stroke-width:1.5;"/>
    <path clip-path="url(#p52cbf20386)" d="M 483.244034 45.211677 
L 483.244034 31.56 
" style="fill:none;stroke:#0d4a70;stroke-width:1.5;"/>
   </g>
   <g id="line2d_15">
    <path clip-path="url(#p52cbf20386)" d="M 41.56 162.506701 
L 45.933109 162.256025 
L 50.306218 161.988116 
L 54.679328 161.701868 
L 59.052437 161.396117 
L 63.425546 161.06964 
L 67.798655 160.721152 
L 72.171765 160.349303 
L 76.544874 159.952683 
L 80.917983 159.529817 
L 85.291092 159.079169 
L 89.664202 158.59914 
L 94.037311 158.088072 
L 98.41042 157.544249 
L 102.783529 156.965902 
L 107.156639 156.351212 
L 111.529748 155.698316 
L 115.902857 155.005313 
L 120.275966 154.270275 
L 124.649076 153.491253 
L 129.022185 152.666287 
L 133.395294 151.793424 
L 137.768403 150.870727 
L 142.141513 149.896295 
L 146.514622 148.868277 
L 150.887731 147.784895 
L 155.26084 146.644461 
L 159.63395 145.445407 
L 164.007059 144.186302 
L 168.380168 142.865883 
L 172.753277 141.483078 
L 177.126387 140.037037 
L 181.499496 138.527158 
L 185.872605 136.953115 
L 190.245714 135.314886 
L 194.618824 133.612778 
L 198.991933 131.847451 
L 203.365042 130.01994 
L 207.738151 128.131675 
L 212.111261 126.184491 
L 216.48437 124.180642 
L 220.857479 122.122803 
L 225.230588 120.014072 
L 229.603697 117.857957 
L 233.976807 115.658367 
L 238.349916 113.419591 
L 242.723025 111.146268 
L 247.096134 108.843355 
L 251.469244 106.516087 
L 255.842353 104.169934 
L 260.215462 101.810547 
L 264.588571 99.443709 
L 268.961681 97.075274 
L 273.33479 94.711114 
L 277.707899 92.357057 
L 282.081008 90.018834 
L 286.454118 87.702019 
L 290.827227 85.41198 
L 295.200336 83.153831 
L 299.573445 80.932388 
L 303.946555 78.752135 
L 308.319664 76.61719 
L 312.692773 74.53128 
L 317.065882 72.497729 
L 321.438992 70.519441 
L 325.812101 68.5989 
L 330.18521 66.738166 
L 334.558319 64.938889 
L 338.931429 63.202316 
L 343.304538 61.529309 
L 347.677647 59.920363 
L 352.050756 58.375633 
L 356.423866 56.894954 
L 360.796975 55.47787 
L 365.170084 54.123664 
L 369.543193 52.83138 
L 373.916303 51.599856 
L 378.289412 50.427748 
L 382.662521 49.313561 
L 387.03563 48.255668 
L 391.408739 47.252337 
L 395.781849 46.301756 
L 400.154958 45.402047 
L 404.528067 44.551291 
L 408.901176 43.747541 
L 413.274286 42.98884 
L 417.647395 42.273232 
L 422.020504 41.598776 
L 426.393613 40.963554 
L 430.766723 40.365684 
L 435.139832 39.80332 
L 439.512941 39.274666 
L 443.88605 38.777976 
L 448.25916 38.311562 
L 452.632269 37.873791 
L 457.005378 37.463094 
L 461.378487 37.077961 
L 465.751597 36.716947 
L 470.124706 36.378671 
L 474.497815 36.061811 
L 478.870924 35.765112 
L 483.244034 35.487376 
L 487.617143 35.227467 
L 491.990252 34.984308 
L 496.363361 34.756876 
L 500.736471 34.544206 
L 505.10958 34.345384 
L 509.482689 34.159546 
L 513.855798 33.985878 
L 518.228908 33.823614 
L 522.602017 33.67203 
L 526.975126 33.530445 
L 531.348235 33.39822 
L 535.721345 33.274753 
L 540.094454 33.159479 
L 544.467563 33.051867 
L 548.840672 32.951419 
L 553.213782 32.857669 
L 557.586891 32.770178 
L 561.96 32.688535 
" style="fill:none;stroke:#151624;stroke-linecap:square;stroke-width:1.5;"/>
   </g>
   <g id="patch_3">
    <path d="M 41.56 166.04 
L 41.56 31.56 
" style="fill:none;stroke:#000000;stroke-linecap:square;stroke-linejoin:miter;stroke-width:0.8;"/>
   </g>
   <g id="patch_4">
    <path d="M 561.96 166.04 
L 561.96 31.56 
" style="fill:none;stroke:#000000;stroke-linecap:square;stroke-linejoin:miter;stroke-width:0.8;"/>
   </g>
   <g id="patch_5">
    <path d="M 41.56 166.04 
L 561.96 166.04 
" style="fill:none;stroke:#000000;stroke-linecap:square;stroke-linejoin:miter;stroke-width:0.8;"/>
   </g>
   <g id="patch_6">
    <path d="M 41.56 31.56 
L 561.96 31.56 
" style="fill:none;stroke:#000000;stroke-linecap:square;stroke-linejoin:miter;stroke-width:0.8;"/>
   </g>
   <g id="text_16">
    <!-- Geneva - from HUG data -->
    <g transform="translate(205.71275 25.56)scale(0.156 -0.156)">
     <defs>
      <path d="M 59.515625 10.40625 
L 59.515625 29.984375 
L 43.40625 29.984375 
L 43.40625 38.09375 
L 69.28125 38.09375 
L 69.28125 6.78125 
Q 63.578125 2.734375 56.6875 0.65625 
Q 49.8125 -1.421875 42 -1.421875 
Q 24.90625 -1.421875 15.25 8.5625 
Q 5.609375 18.5625 5.609375 36.375 
Q 5.609375 54.25 15.25 64.234375 
Q 24.90625 74.21875 42 74.21875 
Q 49.125 74.21875 55.546875 72.453125 
Q 61.96875 70.703125 67.390625 67.28125 
L 67.390625 56.78125 
Q 61.921875 61.421875 55.765625 63.765625 
Q 49.609375 66.109375 42.828125 66.109375 
Q 29.4375 66.109375 22.71875 58.640625 
Q 16.015625 51.171875 16.015625 36.375 
Q 16.015625 21.625 22.71875 14.15625 
Q 29.4375 6.6875 42.828125 6.6875 
Q 48.046875 6.6875 52.140625 7.59375 
Q 56.25 8.5 59.515625 10.40625 
z
" id="DejaVuSans-71"/>
      <path d="M 2.984375 54.6875 
L 12.5 54.6875 
L 29.59375 8.796875 
L 46.6875 54.6875 
L 56.203125 54.6875 
L 35.6875 0 
L 23.484375 0 
z
" id="DejaVuSans-118"/>
      <path id="DejaVuSans-32"/>
      <path d="M 37.109375 75.984375 
L 37.109375 68.5 
L 28.515625 68.5 
Q 23.6875 68.5 21.796875 66.546875 
Q 19.921875 64.59375 19.921875 59.515625 
L 19.921875 54.6875 
L 34.71875 54.6875 
L 34.71875 47.703125 
L 19.921875 47.703125 
L 19.921875 0 
L 10.890625 0 
L 10.890625 47.703125 
L 2.296875 47.703125 
L 2.296875 54.6875 
L 10.890625 54.6875 
L 10.890625 58.5 
Q 10.890625 67.625 15.140625 71.796875 
Q 19.390625 75.984375 28.609375 75.984375 
z
" id="DejaVuSans-102"/>
      <path d="M 30.609375 48.390625 
Q 23.390625 48.390625 19.1875 42.75 
Q 14.984375 37.109375 14.984375 27.296875 
Q 14.984375 17.484375 19.15625 11.84375 
Q 23.34375 6.203125 30.609375 6.203125 
Q 37.796875 6.203125 41.984375 11.859375 
Q 46.1875 17.53125 46.1875 27.296875 
Q 46.1875 37.015625 41.984375 42.703125 
Q 37.796875 48.390625 30.609375 48.390625 
z
M 30.609375 56 
Q 42.328125 56 49.015625 48.375 
Q 55.71875 40.765625 55.71875 27.296875 
Q 55.71875 13.875 49.015625 6.21875 
Q 42.328125 -1.421875 30.609375 -1.421875 
Q 18.84375 -1.421875 12.171875 6.21875 
Q 5.515625 13.875 5.515625 27.296875 
Q 5.515625 40.765625 12.171875 48.375 
Q 18.84375 56 30.609375 56 
z
" id="DejaVuSans-111"/>
      <path d="M 52 44.1875 
Q 55.375 50.25 60.0625 53.125 
Q 64.75 56 71.09375 56 
Q 79.640625 56 84.28125 50.015625 
Q 88.921875 44.046875 88.921875 33.015625 
L 88.921875 0 
L 79.890625 0 
L 79.890625 32.71875 
Q 79.890625 40.578125 77.09375 44.375 
Q 74.3125 48.1875 68.609375 48.1875 
Q 61.625 48.1875 57.5625 43.546875 
Q 53.515625 38.921875 53.515625 30.90625 
L 53.515625 0 
L 44.484375 0 
L 44.484375 32.71875 
Q 44.484375 40.625 41.703125 44.40625 
Q 38.921875 48.1875 33.109375 48.1875 
Q 26.21875 48.1875 22.15625 43.53125 
Q 18.109375 38.875 18.109375 30.90625 
L 18.109375 0 
L 9.078125 0 
L 9.078125 54.6875 
L 18.109375 54.6875 
L 18.109375 46.1875 
Q 21.1875 51.21875 25.484375 53.609375 
Q 29.78125 56 35.6875 56 
Q 41.65625 56 45.828125 52.96875 
Q 50 49.953125 52 44.1875 
z
" id="DejaVuSans-109"/>
      <path d="M 9.8125 72.90625 
L 19.671875 72.90625 
L 19.671875 43.015625 
L 55.515625 43.015625 
L 55.515625 72.90625 
L 65.375 72.90625 
L 65.375 0 
L 55.515625 0 
L 55.515625 34.71875 
L 19.671875 34.71875 
L 19.671875 0 
L 9.8125 0 
z
" id="DejaVuSans-72"/>
      <path d="M 8.6875 72.90625 
L 18.609375 72.90625 
L 18.609375 28.609375 
Q 18.609375 16.890625 22.84375 11.734375 
Q 27.09375 6.59375 36.625 6.59375 
Q 46.09375 6.59375 50.34375 11.734375 
Q 54.59375 16.890625 54.59375 28.609375 
L 54.59375 72.90625 
L 64.5 72.90625 
L 64.5 27.390625 
Q 64.5 13.140625 57.4375 5.859375 
Q 50.390625 -1.421875 36.625 -1.421875 
Q 22.796875 -1.421875 15.734375 5.859375 
Q 8.6875 13.140625 8.6875 27.390625 
z
" id="DejaVuSans-85"/>
      <path d="M 45.40625 46.390625 
L 45.40625 75.984375 
L 54.390625 75.984375 
L 54.390625 0 
L 45.40625 0 
L 45.40625 8.203125 
Q 42.578125 3.328125 38.25 0.953125 
Q 33.9375 -1.421875 27.875 -1.421875 
Q 17.96875 -1.421875 11.734375 6.484375 
Q 5.515625 14.40625 5.515625 27.296875 
Q 5.515625 40.1875 11.734375 48.09375 
Q 17.96875 56 27.875 56 
Q 33.9375 56 38.25 53.625 
Q 42.578125 51.265625 45.40625 46.390625 
z
M 14.796875 27.296875 
Q 14.796875 17.390625 18.875 11.75 
Q 22.953125 6.109375 30.078125 6.109375 
Q 37.203125 6.109375 41.296875 11.75 
Q 45.40625 17.390625 45.40625 27.296875 
Q 45.40625 37.203125 41.296875 42.84375 
Q 37.203125 48.484375 30.078125 48.484375 
Q 22.953125 48.484375 18.875 42.84375 
Q 14.796875 37.203125 14.796875 27.296875 
z
" id="DejaVuSans-100"/>
      <path d="M 18.3125 70.21875 
L 18.3125 54.6875 
L 36.8125 54.6875 
L 36.8125 47.703125 
L 18.3125 47.703125 
L 18.3125 18.015625 
Q 18.3125 11.328125 20.140625 9.421875 
Q 21.96875 7.515625 27.59375 7.515625 
L 36.8125 7.515625 
L 36.8125 0 
L 27.59375 0 
Q 17.1875 0 13.234375 3.875 
Q 9.28125 7.765625 9.28125 18.015625 
L 9.28125 47.703125 
L 2.6875 47.703125 
L 2.6875 54.6875 
L 9.28125 54.6875 
L 9.28125 70.21875 
z
" id="DejaVuSans-116"/>
     </defs>
     <use xlink:href="#DejaVuSans-71"/>
     <use x="77.490234" xlink:href="#DejaVuSans-101"/>
     <use x="139.013672" xlink:href="#DejaVuSans-110"/>
     <use x="202.392578" xlink:href="#DejaVuSans-101"/>
     <use x="263.916016" xlink:href="#DejaVuSans-118"/>
     <use x="323.095703" xlink:href="#DejaVuSans-97"/>
     <use x="384.375" xlink:href="#DejaVuSans-32"/>
     <use x="416.162109" xlink:href="#DejaVuSans-45"/>
     <use x="452.246094" xlink:href="#DejaVuSans-32"/>
     <use x="484.033203" xlink:href="#DejaVuSans-102"/>
     <use x="519.238281" xlink:href="#DejaVuSans-114"/>
     <use x="558.101562" xlink:href="#DejaVuSans-111"/>
     <use x="619.283203" xlink:href="#DejaVuSans-109"/>
     <use x="716.695312" xlink:href="#DejaVuSans-32"/>
     <use x="748.482422" xlink:href="#DejaVuSans-72"/>
     <use x="823.677734" xlink:href="#DejaVuSans-85"/>
     <use x="896.871094" xlink:href="#DejaVuSans-71"/>
     <use x="974.361328" xlink:href="#DejaVuSans-32"/>
     <use x="1006.148438" xlink:href="#DejaVuSans-100"/>
     <use x="1069.625" xlink:href="#DejaVuSans-97"/>
     <use x="1130.904297" xlink:href="#DejaVuSans-116"/>
     <use x="1170.113281" xlink:href="#DejaVuSans-97"/>
    </g>
   </g>
   <g id="legend_1">
    <g id="patch_7">
     <path d="M 271.554219 159.54 
L 552.86 159.54 
Q 555.46 159.54 555.46 156.94 
L 555.46 100.995312 
Q 555.46 98.395312 552.86 98.395312 
L 271.554219 98.395312 
Q 268.954219 98.395312 268.954219 100.995312 
L 268.954219 156.94 
Q 268.954219 159.54 271.554219 159.54 
z
" style="fill:#ffffff;opacity:0.8;stroke:#cccccc;stroke-linejoin:miter;"/>
    </g>
    <g id="line2d_16">
     <path d="M 274.154219 108.923281 
L 300.154219 108.923281 
" style="fill:none;stroke:#151624;stroke-linecap:square;stroke-width:1.5;"/>
    </g>
    <g id="line2d_17"/>
    <g id="text_17">
     <!-- Logistic fit -->
     <g transform="translate(310.554219 113.473281)scale(0.13 -0.13)">
      <defs>
       <path d="M 9.8125 72.90625 
L 19.671875 72.90625 
L 19.671875 8.296875 
L 55.171875 8.296875 
L 55.171875 0 
L 9.8125 0 
z
" id="DejaVuSans-76"/>
       <path d="M 45.40625 27.984375 
Q 45.40625 37.75 41.375 43.109375 
Q 37.359375 48.484375 30.078125 48.484375 
Q 22.859375 48.484375 18.828125 43.109375 
Q 14.796875 37.75 14.796875 27.984375 
Q 14.796875 18.265625 18.828125 12.890625 
Q 22.859375 7.515625 30.078125 7.515625 
Q 37.359375 7.515625 41.375 12.890625 
Q 45.40625 18.265625 45.40625 27.984375 
z
M 54.390625 6.78125 
Q 54.390625 -7.171875 48.1875 -13.984375 
Q 42 -20.796875 29.203125 -20.796875 
Q 24.46875 -20.796875 20.265625 -20.09375 
Q 16.0625 -19.390625 12.109375 -17.921875 
L 12.109375 -9.1875 
Q 16.0625 -11.328125 19.921875 -12.34375 
Q 23.78125 -13.375 27.78125 -13.375 
Q 36.625 -13.375 41.015625 -8.765625 
Q 45.40625 -4.15625 45.40625 5.171875 
L 45.40625 9.625 
Q 42.625 4.78125 38.28125 2.390625 
Q 33.9375 0 27.875 0 
Q 17.828125 0 11.671875 7.65625 
Q 5.515625 15.328125 5.515625 27.984375 
Q 5.515625 40.671875 11.671875 48.328125 
Q 17.828125 56 27.875 56 
Q 33.9375 56 38.28125 53.609375 
Q 42.625 51.21875 45.40625 46.390625 
L 45.40625 54.6875 
L 54.390625 54.6875 
z
" id="DejaVuSans-103"/>
       <path d="M 9.421875 54.6875 
L 18.40625 54.6875 
L 18.40625 0 
L 9.421875 0 
z
M 9.421875 75.984375 
L 18.40625 75.984375 
L 18.40625 64.59375 
L 9.421875 64.59375 
z
" id="DejaVuSans-105"/>
       <path d="M 44.28125 53.078125 
L 44.28125 44.578125 
Q 40.484375 46.53125 36.375 47.5 
Q 32.28125 48.484375 27.875 48.484375 
Q 21.1875 48.484375 17.84375 46.4375 
Q 14.5 44.390625 14.5 40.28125 
Q 14.5 37.15625 16.890625 35.375 
Q 19.28125 33.59375 26.515625 31.984375 
L 29.59375 31.296875 
Q 39.15625 29.25 43.1875 25.515625 
Q 47.21875 21.78125 47.21875 15.09375 
Q 47.21875 7.46875 41.1875 3.015625 
Q 35.15625 -1.421875 24.609375 -1.421875 
Q 20.21875 -1.421875 15.453125 -0.5625 
Q 10.6875 0.296875 5.421875 2 
L 5.421875 11.28125 
Q 10.40625 8.6875 15.234375 7.390625 
Q 20.0625 6.109375 24.8125 6.109375 
Q 31.15625 6.109375 34.5625 8.28125 
Q 37.984375 10.453125 37.984375 14.40625 
Q 37.984375 18.0625 35.515625 20.015625 
Q 33.0625 21.96875 24.703125 23.78125 
L 21.578125 24.515625 
Q 13.234375 26.265625 9.515625 29.90625 
Q 5.8125 33.546875 5.8125 39.890625 
Q 5.8125 47.609375 11.28125 51.796875 
Q 16.75 56 26.8125 56 
Q 31.78125 56 36.171875 55.265625 
Q 40.578125 54.546875 44.28125 53.078125 
z
" id="DejaVuSans-115"/>
       <path d="M 48.78125 52.59375 
L 48.78125 44.1875 
Q 44.96875 46.296875 41.140625 47.34375 
Q 37.3125 48.390625 33.40625 48.390625 
Q 24.65625 48.390625 19.8125 42.84375 
Q 14.984375 37.3125 14.984375 27.296875 
Q 14.984375 17.28125 19.8125 11.734375 
Q 24.65625 6.203125 33.40625 6.203125 
Q 37.3125 6.203125 41.140625 7.25 
Q 44.96875 8.296875 48.78125 10.40625 
L 48.78125 2.09375 
Q 45.015625 0.34375 40.984375 -0.53125 
Q 36.96875 -1.421875 32.421875 -1.421875 
Q 20.0625 -1.421875 12.78125 6.34375 
Q 5.515625 14.109375 5.515625 27.296875 
Q 5.515625 40.671875 12.859375 48.328125 
Q 20.21875 56 33.015625 56 
Q 37.15625 56 41.109375 55.140625 
Q 45.0625 54.296875 48.78125 52.59375 
z
" id="DejaVuSans-99"/>
      </defs>
      <use xlink:href="#DejaVuSans-76"/>
      <use x="53.962891" xlink:href="#DejaVuSans-111"/>
      <use x="115.144531" xlink:href="#DejaVuSans-103"/>
      <use x="178.621094" xlink:href="#DejaVuSans-105"/>
      <use x="206.404297" xlink:href="#DejaVuSans-115"/>
      <use x="258.503906" xlink:href="#DejaVuSans-116"/>
      <use x="297.712891" xlink:href="#DejaVuSans-105"/>
      <use x="325.496094" xlink:href="#DejaVuSans-99"/>
      <use x="380.476562" xlink:href="#DejaVuSans-32"/>
      <use x="412.263672" xlink:href="#DejaVuSans-102"/>
      <use x="447.46875" xlink:href="#DejaVuSans-105"/>
      <use x="475.251953" xlink:href="#DejaVuSans-116"/>
     </g>
    </g>
    <g id="patch_8">
     <path d="M 274.154219 132.554844 
L 300.154219 132.554844 
L 300.154219 123.454844 
L 274.154219 123.454844 
z
" style="fill:#bfbfbf;stroke:#bfbfbf;stroke-linejoin:miter;"/>
    </g>
    <g id="text_18">
     <!-- Confidence interval -->
     <g transform="translate(310.554219 132.554844)scale(0.13 -0.13)">
      <defs>
       <path d="M 64.40625 67.28125 
L 64.40625 56.890625 
Q 59.421875 61.53125 53.78125 63.8125 
Q 48.140625 66.109375 41.796875 66.109375 
Q 29.296875 66.109375 22.65625 58.46875 
Q 16.015625 50.828125 16.015625 36.375 
Q 16.015625 21.96875 22.65625 14.328125 
Q 29.296875 6.6875 41.796875 6.6875 
Q 48.140625 6.6875 53.78125 8.984375 
Q 59.421875 11.28125 64.40625 15.921875 
L 64.40625 5.609375 
Q 59.234375 2.09375 53.4375 0.328125 
Q 47.65625 -1.421875 41.21875 -1.421875 
Q 24.65625 -1.421875 15.125 8.703125 
Q 5.609375 18.84375 5.609375 36.375 
Q 5.609375 53.953125 15.125 64.078125 
Q 24.65625 74.21875 41.21875 74.21875 
Q 47.75 74.21875 53.53125 72.484375 
Q 59.328125 70.75 64.40625 67.28125 
z
" id="DejaVuSans-67"/>
       <path d="M 9.421875 75.984375 
L 18.40625 75.984375 
L 18.40625 0 
L 9.421875 0 
z
" id="DejaVuSans-108"/>
      </defs>
      <use xlink:href="#DejaVuSans-67"/>
      <use x="69.824219" xlink:href="#DejaVuSans-111"/>
      <use x="131.005859" xlink:href="#DejaVuSans-110"/>
      <use x="194.384766" xlink:href="#DejaVuSans-102"/>
      <use x="229.589844" xlink:href="#DejaVuSans-105"/>
      <use x="257.373047" xlink:href="#DejaVuSans-100"/>
      <use x="320.849609" xlink:href="#DejaVuSans-101"/>
      <use x="382.373047" xlink:href="#DejaVuSans-110"/>
      <use x="445.751953" xlink:href="#DejaVuSans-99"/>
      <use x="500.732422" xlink:href="#DejaVuSans-101"/>
      <use x="562.255859" xlink:href="#DejaVuSans-32"/>
      <use x="594.042969" xlink:href="#DejaVuSans-105"/>
      <use x="621.826172" xlink:href="#DejaVuSans-110"/>
      <use x="685.205078" xlink:href="#DejaVuSans-116"/>
      <use x="724.414062" xlink:href="#DejaVuSans-101"/>
      <use x="785.9375" xlink:href="#DejaVuSans-114"/>
      <use x="827.050781" xlink:href="#DejaVuSans-118"/>
      <use x="886.230469" xlink:href="#DejaVuSans-97"/>
      <use x="947.509766" xlink:href="#DejaVuSans-108"/>
     </g>
    </g>
    <g id="PathCollection_1">
     <defs>
      <path d="M 0 1.870829 
C 0.49615 1.870829 0.972045 1.673706 1.322876 1.322876 
C 1.673706 0.972045 1.870829 0.49615 1.870829 0 
C 1.870829 -0.49615 1.673706 -0.972045 1.322876 -1.322876 
C 0.972045 -1.673706 0.49615 -1.870829 0 -1.870829 
C -0.49615 -1.870829 -0.972045 -1.673706 -1.322876 -1.322876 
C -1.673706 -0.972045 -1.870829 -0.49615 -1.870829 0 
C -1.870829 0.49615 -1.673706 0.972045 -1.322876 1.322876 
C -0.972045 1.673706 -0.49615 1.870829 0 1.870829 
z
" id="ma0175b3b56" style="stroke:#67916e;"/>
     </defs>
     <g>
      <use style="fill:#67916e;stroke:#67916e;" x="287.154219" xlink:href="#ma0175b3b56" y="148.223906"/>
     </g>
    </g>
    <g id="text_19">
     <!-- Estimated daily proportion of B.1.1.7 -->
     <g transform="translate(310.554219 151.636406)scale(0.13 -0.13)">
      <defs>
       <path d="M 9.8125 72.90625 
L 55.90625 72.90625 
L 55.90625 64.59375 
L 19.671875 64.59375 
L 19.671875 43.015625 
L 54.390625 43.015625 
L 54.390625 34.71875 
L 19.671875 34.71875 
L 19.671875 8.296875 
L 56.78125 8.296875 
L 56.78125 0 
L 9.8125 0 
z
" id="DejaVuSans-69"/>
       <path d="M 32.171875 -5.078125 
Q 28.375 -14.84375 24.75 -17.8125 
Q 21.140625 -20.796875 15.09375 -20.796875 
L 7.90625 -20.796875 
L 7.90625 -13.28125 
L 13.1875 -13.28125 
Q 16.890625 -13.28125 18.9375 -11.515625 
Q 21 -9.765625 23.484375 -3.21875 
L 25.09375 0.875 
L 2.984375 54.6875 
L 12.5 54.6875 
L 29.59375 11.921875 
L 46.6875 54.6875 
L 56.203125 54.6875 
z
" id="DejaVuSans-121"/>
       <path d="M 19.671875 34.8125 
L 19.671875 8.109375 
L 35.5 8.109375 
Q 43.453125 8.109375 47.28125 11.40625 
Q 51.125 14.703125 51.125 21.484375 
Q 51.125 28.328125 47.28125 31.5625 
Q 43.453125 34.8125 35.5 34.8125 
z
M 19.671875 64.796875 
L 19.671875 42.828125 
L 34.28125 42.828125 
Q 41.5 42.828125 45.03125 45.53125 
Q 48.578125 48.25 48.578125 53.8125 
Q 48.578125 59.328125 45.03125 62.0625 
Q 41.5 64.796875 34.28125 64.796875 
z
M 9.8125 72.90625 
L 35.015625 72.90625 
Q 46.296875 72.90625 52.390625 68.21875 
Q 58.5 63.53125 58.5 54.890625 
Q 58.5 48.1875 55.375 44.234375 
Q 52.25 40.28125 46.1875 39.3125 
Q 53.46875 37.75 57.5 32.78125 
Q 61.53125 27.828125 61.53125 20.40625 
Q 61.53125 10.640625 54.890625 5.3125 
Q 48.25 0 35.984375 0 
L 9.8125 0 
z
" id="DejaVuSans-66"/>
       <path d="M 8.203125 72.90625 
L 55.078125 72.90625 
L 55.078125 68.703125 
L 28.609375 0 
L 18.3125 0 
L 43.21875 64.59375 
L 8.203125 64.59375 
z
" id="DejaVuSans-55"/>
      </defs>
      <use xlink:href="#DejaVuSans-69"/>
      <use x="63.183594" xlink:href="#DejaVuSans-115"/>
      <use x="115.283203" xlink:href="#DejaVuSans-116"/>
      <use x="154.492188" xlink:href="#DejaVuSans-105"/>
      <use x="182.275391" xlink:href="#DejaVuSans-109"/>
      <use x="279.6875" xlink:href="#DejaVuSans-97"/>
      <use x="340.966797" xlink:href="#DejaVuSans-116"/>
      <use x="380.175781" xlink:href="#DejaVuSans-101"/>
      <use x="441.699219" xlink:href="#DejaVuSans-100"/>
      <use x="505.175781" xlink:href="#DejaVuSans-32"/>
      <use x="536.962891" xlink:href="#DejaVuSans-100"/>
      <use x="600.439453" xlink:href="#DejaVuSans-97"/>
      <use x="661.71875" xlink:href="#DejaVuSans-105"/>
      <use x="689.501953" xlink:href="#DejaVuSans-108"/>
      <use x="717.285156" xlink:href="#DejaVuSans-121"/>
      <use x="776.464844" xlink:href="#DejaVuSans-32"/>
      <use x="808.251953" xlink:href="#DejaVuSans-112"/>
      <use x="871.728516" xlink:href="#DejaVuSans-114"/>
      <use x="910.591797" xlink:href="#DejaVuSans-111"/>
      <use x="971.773438" xlink:href="#DejaVuSans-112"/>
      <use x="1035.25" xlink:href="#DejaVuSans-111"/>
      <use x="1096.431641" xlink:href="#DejaVuSans-114"/>
      <use x="1137.544922" xlink:href="#DejaVuSans-116"/>
      <use x="1176.753906" xlink:href="#DejaVuSans-105"/>
      <use x="1204.537109" xlink:href="#DejaVuSans-111"/>
      <use x="1265.71875" xlink:href="#DejaVuSans-110"/>
      <use x="1329.097656" xlink:href="#DejaVuSans-32"/>
      <use x="1360.884766" xlink:href="#DejaVuSans-111"/>
      <use x="1422.066406" xlink:href="#DejaVuSans-102"/>
      <use x="1457.271484" xlink:href="#DejaVuSans-32"/>
      <use x="1489.058594" xlink:href="#DejaVuSans-66"/>
      <use x="1557.662109" xlink:href="#DejaVuSans-46"/>
      <use x="1589.449219" xlink:href="#DejaVuSans-49"/>
      <use x="1653.072266" xlink:href="#DejaVuSans-46"/>
      <use x="1684.859375" xlink:href="#DejaVuSans-49"/>
      <use x="1748.482422" xlink:href="#DejaVuSans-46"/>
      <use x="1780.269531" xlink:href="#DejaVuSans-55"/>
     </g>
    </g>
   </g>
   <g id="PathCollection_2">
    <g clip-path="url(#p52cbf20386)">
     <use style="fill:#67916e;stroke:#67916e;" x="80.917983" xlink:href="#ma0175b3b56" y="166.04"/>
     <use style="fill:#67916e;stroke:#67916e;" x="85.291092" xlink:href="#ma0175b3b56" y="166.04"/>
     <use style="fill:#67916e;stroke:#67916e;" x="89.664202" xlink:href="#ma0175b3b56" y="166.04"/>
     <use style="fill:#67916e;stroke:#67916e;" x="94.037311" xlink:href="#ma0175b3b56" y="115.61"/>
     <use style="fill:#67916e;stroke:#67916e;" x="98.41042" xlink:href="#ma0175b3b56" y="166.04"/>
     <use style="fill:#67916e;stroke:#67916e;" x="102.783529" xlink:href="#ma0175b3b56" y="158.568889"/>
     <use style="fill:#67916e;stroke:#67916e;" x="107.156639" xlink:href="#ma0175b3b56" y="166.04"/>
     <use style="fill:#67916e;stroke:#67916e;" x="111.529748" xlink:href="#ma0175b3b56" y="166.04"/>
     <use style="fill:#67916e;stroke:#67916e;" x="115.902857" xlink:href="#ma0175b3b56" y="154.346087"/>
     <use style="fill:#67916e;stroke:#67916e;" x="120.275966" xlink:href="#ma0175b3b56" y="160.193043"/>
     <use style="fill:#67916e;stroke:#67916e;" x="124.649076" xlink:href="#ma0175b3b56" y="166.04"/>
     <use style="fill:#67916e;stroke:#67916e;" x="142.141513" xlink:href="#ma0175b3b56" y="31.56"/>
     <use style="fill:#67916e;stroke:#67916e;" x="150.887731" xlink:href="#ma0175b3b56" y="121.213333"/>
     <use style="fill:#67916e;stroke:#67916e;" x="155.26084" xlink:href="#ma0175b3b56" y="157.363871"/>
     <use style="fill:#67916e;stroke:#67916e;" x="159.63395" xlink:href="#ma0175b3b56" y="142.506"/>
     <use style="fill:#67916e;stroke:#67916e;" x="164.007059" xlink:href="#ma0175b3b56" y="144.232432"/>
     <use style="fill:#67916e;stroke:#67916e;" x="168.380168" xlink:href="#ma0175b3b56" y="123.0064"/>
     <use style="fill:#67916e;stroke:#67916e;" x="172.753277" xlink:href="#ma0175b3b56" y="151.733617"/>
     <use style="fill:#67916e;stroke:#67916e;" x="177.126387" xlink:href="#ma0175b3b56" y="155.492549"/>
     <use style="fill:#67916e;stroke:#67916e;" x="181.499496" xlink:href="#ma0175b3b56" y="146.198689"/>
     <use style="fill:#67916e;stroke:#67916e;" x="185.872605" xlink:href="#ma0175b3b56" y="137.427234"/>
     <use style="fill:#67916e;stroke:#67916e;" x="190.245714" xlink:href="#ma0175b3b56" y="128.2175"/>
     <use style="fill:#67916e;stroke:#67916e;" x="194.618824" xlink:href="#ma0175b3b56" y="132.880548"/>
     <use style="fill:#67916e;stroke:#67916e;" x="198.991933" xlink:href="#ma0175b3b56" y="136.155556"/>
     <use style="fill:#67916e;stroke:#67916e;" x="203.365042" xlink:href="#ma0175b3b56" y="147.165614"/>
     <use style="fill:#67916e;stroke:#67916e;" x="207.738151" xlink:href="#ma0175b3b56" y="152.92"/>
     <use style="fill:#67916e;stroke:#67916e;" x="212.111261" xlink:href="#ma0175b3b56" y="103.282667"/>
     <use style="fill:#67916e;stroke:#67916e;" x="216.48437" xlink:href="#ma0175b3b56" y="135.301714"/>
     <use style="fill:#67916e;stroke:#67916e;" x="220.857479" xlink:href="#ma0175b3b56" y="124.201778"/>
     <use style="fill:#67916e;stroke:#67916e;" x="225.230588" xlink:href="#ma0175b3b56" y="133.24"/>
     <use style="fill:#67916e;stroke:#67916e;" x="229.603697" xlink:href="#ma0175b3b56" y="108.987879"/>
     <use style="fill:#67916e;stroke:#67916e;" x="233.976807" xlink:href="#ma0175b3b56" y="106.558462"/>
     <use style="fill:#67916e;stroke:#67916e;" x="238.349916" xlink:href="#ma0175b3b56" y="109.259556"/>
     <use style="fill:#67916e;stroke:#67916e;" x="242.723025" xlink:href="#ma0175b3b56" y="111.336271"/>
     <use style="fill:#67916e;stroke:#67916e;" x="247.096134" xlink:href="#ma0175b3b56" y="106.271111"/>
     <use style="fill:#67916e;stroke:#67916e;" x="251.469244" xlink:href="#ma0175b3b56" y="100.524103"/>
     <use style="fill:#67916e;stroke:#67916e;" x="255.842353" xlink:href="#ma0175b3b56" y="106.8688"/>
     <use style="fill:#67916e;stroke:#67916e;" x="260.215462" xlink:href="#ma0175b3b56" y="82.790476"/>
     <use style="fill:#67916e;stroke:#67916e;" x="264.588571" xlink:href="#ma0175b3b56" y="66.641739"/>
     <use style="fill:#67916e;stroke:#67916e;" x="268.961681" xlink:href="#ma0175b3b56" y="88.340444"/>
     <use style="fill:#67916e;stroke:#67916e;" x="273.33479" xlink:href="#ma0175b3b56" y="81.660392"/>
     <use style="fill:#67916e;stroke:#67916e;" x="277.707899" xlink:href="#ma0175b3b56" y="76.386667"/>
     <use style="fill:#67916e;stroke:#67916e;" x="282.081008" xlink:href="#ma0175b3b56" y="118.011429"/>
     <use style="fill:#67916e;stroke:#67916e;" x="286.454118" xlink:href="#ma0175b3b56" y="71.904"/>
     <use style="fill:#67916e;stroke:#67916e;" x="290.827227" xlink:href="#ma0175b3b56" y="65.18"/>
     <use style="fill:#67916e;stroke:#67916e;" x="295.200336" xlink:href="#ma0175b3b56" y="62.123636"/>
     <use style="fill:#67916e;stroke:#67916e;" x="299.573445" xlink:href="#ma0175b3b56" y="68.542"/>
     <use style="fill:#67916e;stroke:#67916e;" x="303.946555" xlink:href="#ma0175b3b56" y="63.8352"/>
     <use style="fill:#67916e;stroke:#67916e;" x="308.319664" xlink:href="#ma0175b3b56" y="76.386667"/>
     <use style="fill:#67916e;stroke:#67916e;" x="312.692773" xlink:href="#ma0175b3b56" y="98.8"/>
     <use style="fill:#67916e;stroke:#67916e;" x="317.065882" xlink:href="#ma0175b3b56" y="59.576667"/>
     <use style="fill:#67916e;stroke:#67916e;" x="321.438992" xlink:href="#ma0175b3b56" y="82.444324"/>
     <use style="fill:#67916e;stroke:#67916e;" x="325.812101" xlink:href="#ma0175b3b56" y="76.386667"/>
     <use style="fill:#67916e;stroke:#67916e;" x="330.18521" xlink:href="#ma0175b3b56" y="83.857778"/>
     <use style="fill:#67916e;stroke:#67916e;" x="334.558319" xlink:href="#ma0175b3b56" y="68.236364"/>
     <use style="fill:#67916e;stroke:#67916e;" x="338.931429" xlink:href="#ma0175b3b56" y="68.657931"/>
     <use style="fill:#67916e;stroke:#67916e;" x="343.304538" xlink:href="#ma0175b3b56" y="55.7664"/>
     <use style="fill:#67916e;stroke:#67916e;" x="347.677647" xlink:href="#ma0175b3b56" y="59.383448"/>
     <use style="fill:#67916e;stroke:#67916e;" x="352.050756" xlink:href="#ma0175b3b56" y="61.444444"/>
     <use style="fill:#67916e;stroke:#67916e;" x="356.423866" xlink:href="#ma0175b3b56" y="64.161212"/>
     <use style="fill:#67916e;stroke:#67916e;" x="360.796975" xlink:href="#ma0175b3b56" y="66.425185"/>
     <use style="fill:#67916e;stroke:#67916e;" x="365.170084" xlink:href="#ma0175b3b56" y="31.56"/>
     <use style="fill:#67916e;stroke:#67916e;" x="369.543193" xlink:href="#ma0175b3b56" y="42.766667"/>
     <use style="fill:#67916e;stroke:#67916e;" x="373.916303" xlink:href="#ma0175b3b56" y="43.086857"/>
     <use style="fill:#67916e;stroke:#67916e;" x="378.289412" xlink:href="#ma0175b3b56" y="39.965"/>
     <use style="fill:#67916e;stroke:#67916e;" x="382.662521" xlink:href="#ma0175b3b56" y="45.008"/>
     <use style="fill:#67916e;stroke:#67916e;" x="387.03563" xlink:href="#ma0175b3b56" y="47.6976"/>
     <use style="fill:#67916e;stroke:#67916e;" x="391.408739" xlink:href="#ma0175b3b56" y="41.165714"/>
     <use style="fill:#67916e;stroke:#67916e;" x="395.781849" xlink:href="#ma0175b3b56" y="36.540741"/>
     <use style="fill:#67916e;stroke:#67916e;" x="400.154958" xlink:href="#ma0175b3b56" y="41.165714"/>
     <use style="fill:#67916e;stroke:#67916e;" x="404.528067" xlink:href="#ma0175b3b56" y="45.715789"/>
     <use style="fill:#67916e;stroke:#67916e;" x="408.901176" xlink:href="#ma0175b3b56" y="31.56"/>
     <use style="fill:#67916e;stroke:#67916e;" x="413.274286" xlink:href="#ma0175b3b56" y="40.236129"/>
     <use style="fill:#67916e;stroke:#67916e;" x="417.647395" xlink:href="#ma0175b3b56" y="44.1675"/>
     <use style="fill:#67916e;stroke:#67916e;" x="422.020504" xlink:href="#ma0175b3b56" y="47.076923"/>
     <use style="fill:#67916e;stroke:#67916e;" x="426.393613" xlink:href="#ma0175b3b56" y="41.904615"/>
     <use style="fill:#67916e;stroke:#67916e;" x="430.766723" xlink:href="#ma0175b3b56" y="54.947826"/>
     <use style="fill:#67916e;stroke:#67916e;" x="435.139832" xlink:href="#ma0175b3b56" y="37.672727"/>
     <use style="fill:#67916e;stroke:#67916e;" x="439.512941" xlink:href="#ma0175b3b56" y="31.56"/>
     <use style="fill:#67916e;stroke:#67916e;" x="443.88605" xlink:href="#ma0175b3b56" y="48.801026"/>
     <use style="fill:#67916e;stroke:#67916e;" x="448.25916" xlink:href="#ma0175b3b56" y="43.785455"/>
     <use style="fill:#67916e;stroke:#67916e;" x="452.632269" xlink:href="#ma0175b3b56" y="38.637895"/>
     <use style="fill:#67916e;stroke:#67916e;" x="457.005378" xlink:href="#ma0175b3b56" y="47.076923"/>
     <use style="fill:#67916e;stroke:#67916e;" x="461.378487" xlink:href="#ma0175b3b56" y="45.352821"/>
     <use style="fill:#67916e;stroke:#67916e;" x="465.751597" xlink:href="#ma0175b3b56" y="45.471724"/>
     <use style="fill:#67916e;stroke:#67916e;" x="470.124706" xlink:href="#ma0175b3b56" y="39.470588"/>
     <use style="fill:#67916e;stroke:#67916e;" x="474.497815" xlink:href="#ma0175b3b56" y="50.108966"/>
     <use style="fill:#67916e;stroke:#67916e;" x="478.870924" xlink:href="#ma0175b3b56" y="38.829189"/>
     <use style="fill:#67916e;stroke:#67916e;" x="483.244034" xlink:href="#ma0175b3b56" y="31.56"/>
    </g>
   </g>
  </g>
 </g>
 <defs>
  <clipPath id="p52cbf20386">
   <rect height="134.48" width="520.4" x="41.56" y="31.56"/>
  </clipPath>
 </defs>
</svg>
