<?xml version="1.0" encoding="utf-8" standalone="no"?>
<!DOCTYPE svg PUBLIC "-//W3C//DTD SVG 1.1//EN"
  "http://www.w3.org/Graphics/SVG/1.1/DTD/svg11.dtd">
<!-- Created with matplotlib (https://matplotlib.org/) -->
<svg height="432pt" version="1.1" viewBox="0 0 1152 432" width="1152pt" xmlns="http://www.w3.org/2000/svg" xmlns:xlink="http://www.w3.org/1999/xlink">
 <metadata>
  <rdf:RDF xmlns:cc="http://creativecommons.org/ns#" xmlns:dc="http://purl.org/dc/elements/1.1/" xmlns:rdf="http://www.w3.org/1999/02/22-rdf-syntax-ns#">
   <cc:Work>
    <dc:type rdf:resource="http://purl.org/dc/dcmitype/StillImage"/>
    <dc:date>2021-03-30T16:51:15.984591</dc:date>
    <dc:format>image/svg+xml</dc:format>
    <dc:creator>
     <cc:Agent>
      <dc:title>Matplotlib v3.3.4, https://matplotlib.org/</dc:title>
     </cc:Agent>
    </dc:creator>
   </cc:Work>
  </rdf:RDF>
 </metadata>
 <defs>
  <style type="text/css">*{stroke-linecap:butt;stroke-linejoin:round;}</style>
 </defs>
 <g id="figure_1">
  <g id="patch_1">
   <path d="M 0 432 
L 1152 432 
L 1152 0 
L 0 0 
z
" style="fill:#ffffff;"/>
  </g>
  <g id="axes_1">
   <g id="patch_2">
    <path d="M 53.8 382.04 
L 568.98 382.04 
L 568.98 31.56 
L 53.8 31.56 
z
" style="fill:#ffffff;"/>
   </g>
   <g id="matplotlib.axis_1">
    <g id="xtick_1">
     <g id="line2d_1">
      <defs>
       <path d="M 0 0 
L 0 3.5 
" id="m4d5ad4b6af" style="stroke:#000000;stroke-width:0.8;"/>
      </defs>
      <g>
       <use style="stroke:#000000;stroke-width:0.8;" x="77.217273" xlink:href="#m4d5ad4b6af" y="382.04"/>
      </g>
     </g>
     <g id="text_1">
      <!-- Jan -->
      <g transform="translate(67.197116 398.917969)scale(0.13 -0.13)">
       <defs>
        <path d="M 9.8125 72.90625 
L 19.671875 72.90625 
L 19.671875 5.078125 
Q 19.671875 -8.109375 14.671875 -14.0625 
Q 9.671875 -20.015625 -1.421875 -20.015625 
L -5.171875 -20.015625 
L -5.171875 -11.71875 
L -2.09375 -11.71875 
Q 4.4375 -11.71875 7.125 -8.046875 
Q 9.8125 -4.390625 9.8125 5.078125 
z
" id="DejaVuSans-74"/>
        <path d="M 34.28125 27.484375 
Q 23.390625 27.484375 19.1875 25 
Q 14.984375 22.515625 14.984375 16.5 
Q 14.984375 11.71875 18.140625 8.90625 
Q 21.296875 6.109375 26.703125 6.109375 
Q 34.1875 6.109375 38.703125 11.40625 
Q 43.21875 16.703125 43.21875 25.484375 
L 43.21875 27.484375 
z
M 52.203125 31.203125 
L 52.203125 0 
L 43.21875 0 
L 43.21875 8.296875 
Q 40.140625 3.328125 35.546875 0.953125 
Q 30.953125 -1.421875 24.3125 -1.421875 
Q 15.921875 -1.421875 10.953125 3.296875 
Q 6 8.015625 6 15.921875 
Q 6 25.140625 12.171875 29.828125 
Q 18.359375 34.515625 30.609375 34.515625 
L 43.21875 34.515625 
L 43.21875 35.40625 
Q 43.21875 41.609375 39.140625 45 
Q 35.0625 48.390625 27.6875 48.390625 
Q 23 48.390625 18.546875 47.265625 
Q 14.109375 46.140625 10.015625 43.890625 
L 10.015625 52.203125 
Q 14.9375 54.109375 19.578125 55.046875 
Q 24.21875 56 28.609375 56 
Q 40.484375 56 46.34375 49.84375 
Q 52.203125 43.703125 52.203125 31.203125 
z
" id="DejaVuSans-97"/>
        <path d="M 54.890625 33.015625 
L 54.890625 0 
L 45.90625 0 
L 45.90625 32.71875 
Q 45.90625 40.484375 42.875 44.328125 
Q 39.84375 48.1875 33.796875 48.1875 
Q 26.515625 48.1875 22.3125 43.546875 
Q 18.109375 38.921875 18.109375 30.90625 
L 18.109375 0 
L 9.078125 0 
L 9.078125 54.6875 
L 18.109375 54.6875 
L 18.109375 46.1875 
Q 21.34375 51.125 25.703125 53.5625 
Q 30.078125 56 35.796875 56 
Q 45.21875 56 50.046875 50.171875 
Q 54.890625 44.34375 54.890625 33.015625 
z
" id="DejaVuSans-110"/>
       </defs>
       <use xlink:href="#DejaVuSans-74"/>
       <use x="29.492188" xlink:href="#DejaVuSans-97"/>
       <use x="90.771484" xlink:href="#DejaVuSans-110"/>
      </g>
     </g>
    </g>
    <g id="xtick_2">
     <g id="line2d_2">
      <g>
       <use style="stroke:#000000;stroke-width:0.8;" x="157.178692" xlink:href="#m4d5ad4b6af" y="382.04"/>
      </g>
     </g>
     <g id="text_2">
      <!-- 15 -->
      <g transform="translate(148.907442 398.917969)scale(0.13 -0.13)">
       <defs>
        <path d="M 12.40625 8.296875 
L 28.515625 8.296875 
L 28.515625 63.921875 
L 10.984375 60.40625 
L 10.984375 69.390625 
L 28.421875 72.90625 
L 38.28125 72.90625 
L 38.28125 8.296875 
L 54.390625 8.296875 
L 54.390625 0 
L 12.40625 0 
z
" id="DejaVuSans-49"/>
        <path d="M 10.796875 72.90625 
L 49.515625 72.90625 
L 49.515625 64.59375 
L 19.828125 64.59375 
L 19.828125 46.734375 
Q 21.96875 47.46875 24.109375 47.828125 
Q 26.265625 48.1875 28.421875 48.1875 
Q 40.625 48.1875 47.75 41.5 
Q 54.890625 34.8125 54.890625 23.390625 
Q 54.890625 11.625 47.5625 5.09375 
Q 40.234375 -1.421875 26.90625 -1.421875 
Q 22.3125 -1.421875 17.546875 -0.640625 
Q 12.796875 0.140625 7.71875 1.703125 
L 7.71875 11.625 
Q 12.109375 9.234375 16.796875 8.0625 
Q 21.484375 6.890625 26.703125 6.890625 
Q 35.15625 6.890625 40.078125 11.328125 
Q 45.015625 15.765625 45.015625 23.390625 
Q 45.015625 31 40.078125 35.4375 
Q 35.15625 39.890625 26.703125 39.890625 
Q 22.75 39.890625 18.8125 39.015625 
Q 14.890625 38.140625 10.796875 36.28125 
z
" id="DejaVuSans-53"/>
       </defs>
       <use xlink:href="#DejaVuSans-49"/>
       <use x="63.623047" xlink:href="#DejaVuSans-53"/>
      </g>
     </g>
    </g>
    <g id="xtick_3">
     <g id="line2d_3">
      <g>
       <use style="stroke:#000000;stroke-width:0.8;" x="254.274701" xlink:href="#m4d5ad4b6af" y="382.04"/>
      </g>
     </g>
     <g id="text_3">
      <!-- Feb -->
      <g transform="translate(242.767669 398.917969)scale(0.13 -0.13)">
       <defs>
        <path d="M 9.8125 72.90625 
L 51.703125 72.90625 
L 51.703125 64.59375 
L 19.671875 64.59375 
L 19.671875 43.109375 
L 48.578125 43.109375 
L 48.578125 34.8125 
L 19.671875 34.8125 
L 19.671875 0 
L 9.8125 0 
z
" id="DejaVuSans-70"/>
        <path d="M 56.203125 29.59375 
L 56.203125 25.203125 
L 14.890625 25.203125 
Q 15.484375 15.921875 20.484375 11.0625 
Q 25.484375 6.203125 34.421875 6.203125 
Q 39.59375 6.203125 44.453125 7.46875 
Q 49.3125 8.734375 54.109375 11.28125 
L 54.109375 2.78125 
Q 49.265625 0.734375 44.1875 -0.34375 
Q 39.109375 -1.421875 33.890625 -1.421875 
Q 20.796875 -1.421875 13.15625 6.1875 
Q 5.515625 13.8125 5.515625 26.8125 
Q 5.515625 40.234375 12.765625 48.109375 
Q 20.015625 56 32.328125 56 
Q 43.359375 56 49.78125 48.890625 
Q 56.203125 41.796875 56.203125 29.59375 
z
M 47.21875 32.234375 
Q 47.125 39.59375 43.09375 43.984375 
Q 39.0625 48.390625 32.421875 48.390625 
Q 24.90625 48.390625 20.390625 44.140625 
Q 15.875 39.890625 15.1875 32.171875 
z
" id="DejaVuSans-101"/>
        <path d="M 48.6875 27.296875 
Q 48.6875 37.203125 44.609375 42.84375 
Q 40.53125 48.484375 33.40625 48.484375 
Q 26.265625 48.484375 22.1875 42.84375 
Q 18.109375 37.203125 18.109375 27.296875 
Q 18.109375 17.390625 22.1875 11.75 
Q 26.265625 6.109375 33.40625 6.109375 
Q 40.53125 6.109375 44.609375 11.75 
Q 48.6875 17.390625 48.6875 27.296875 
z
M 18.109375 46.390625 
Q 20.953125 51.265625 25.265625 53.625 
Q 29.59375 56 35.59375 56 
Q 45.5625 56 51.78125 48.09375 
Q 58.015625 40.1875 58.015625 27.296875 
Q 58.015625 14.40625 51.78125 6.484375 
Q 45.5625 -1.421875 35.59375 -1.421875 
Q 29.59375 -1.421875 25.265625 0.953125 
Q 20.953125 3.328125 18.109375 8.203125 
L 18.109375 0 
L 9.078125 0 
L 9.078125 75.984375 
L 18.109375 75.984375 
z
" id="DejaVuSans-98"/>
       </defs>
       <use xlink:href="#DejaVuSans-70"/>
       <use x="52.019531" xlink:href="#DejaVuSans-101"/>
       <use x="113.542969" xlink:href="#DejaVuSans-98"/>
      </g>
     </g>
    </g>
    <g id="xtick_4">
     <g id="line2d_4">
      <g>
       <use style="stroke:#000000;stroke-width:0.8;" x="334.23612" xlink:href="#m4d5ad4b6af" y="382.04"/>
      </g>
     </g>
     <g id="text_4">
      <!-- 15 -->
      <g transform="translate(325.96487 398.917969)scale(0.13 -0.13)">
       <use xlink:href="#DejaVuSans-49"/>
       <use x="63.623047" xlink:href="#DejaVuSans-53"/>
      </g>
     </g>
    </g>
    <g id="xtick_5">
     <g id="line2d_5">
      <g>
       <use style="stroke:#000000;stroke-width:0.8;" x="414.197539" xlink:href="#m4d5ad4b6af" y="382.04"/>
      </g>
     </g>
     <g id="text_5">
      <!-- Mar -->
      <g transform="translate(401.933867 398.917969)scale(0.13 -0.13)">
       <defs>
        <path d="M 9.8125 72.90625 
L 24.515625 72.90625 
L 43.109375 23.296875 
L 61.8125 72.90625 
L 76.515625 72.90625 
L 76.515625 0 
L 66.890625 0 
L 66.890625 64.015625 
L 48.09375 14.015625 
L 38.1875 14.015625 
L 19.390625 64.015625 
L 19.390625 0 
L 9.8125 0 
z
" id="DejaVuSans-77"/>
        <path d="M 41.109375 46.296875 
Q 39.59375 47.171875 37.8125 47.578125 
Q 36.03125 48 33.890625 48 
Q 26.265625 48 22.1875 43.046875 
Q 18.109375 38.09375 18.109375 28.8125 
L 18.109375 0 
L 9.078125 0 
L 9.078125 54.6875 
L 18.109375 54.6875 
L 18.109375 46.1875 
Q 20.953125 51.171875 25.484375 53.578125 
Q 30.03125 56 36.53125 56 
Q 37.453125 56 38.578125 55.875 
Q 39.703125 55.765625 41.0625 55.515625 
z
" id="DejaVuSans-114"/>
       </defs>
       <use xlink:href="#DejaVuSans-77"/>
       <use x="86.279297" xlink:href="#DejaVuSans-97"/>
       <use x="147.558594" xlink:href="#DejaVuSans-114"/>
      </g>
     </g>
    </g>
    <g id="xtick_6">
     <g id="line2d_6">
      <g>
       <use style="stroke:#000000;stroke-width:0.8;" x="494.158958" xlink:href="#m4d5ad4b6af" y="382.04"/>
      </g>
     </g>
     <g id="text_6">
      <!-- 15 -->
      <g transform="translate(485.887708 398.917969)scale(0.13 -0.13)">
       <use xlink:href="#DejaVuSans-49"/>
       <use x="63.623047" xlink:href="#DejaVuSans-53"/>
      </g>
     </g>
    </g>
    <g id="text_7">
     <!-- 2021-Mar -->
     <g transform="translate(506.6775 414.499531)scale(0.13 -0.13)">
      <defs>
       <path d="M 19.1875 8.296875 
L 53.609375 8.296875 
L 53.609375 0 
L 7.328125 0 
L 7.328125 8.296875 
Q 12.9375 14.109375 22.625 23.890625 
Q 32.328125 33.6875 34.8125 36.53125 
Q 39.546875 41.84375 41.421875 45.53125 
Q 43.3125 49.21875 43.3125 52.78125 
Q 43.3125 58.59375 39.234375 62.25 
Q 35.15625 65.921875 28.609375 65.921875 
Q 23.96875 65.921875 18.8125 64.3125 
Q 13.671875 62.703125 7.8125 59.421875 
L 7.8125 69.390625 
Q 13.765625 71.78125 18.9375 73 
Q 24.125 74.21875 28.421875 74.21875 
Q 39.75 74.21875 46.484375 68.546875 
Q 53.21875 62.890625 53.21875 53.421875 
Q 53.21875 48.921875 51.53125 44.890625 
Q 49.859375 40.875 45.40625 35.40625 
Q 44.1875 33.984375 37.640625 27.21875 
Q 31.109375 20.453125 19.1875 8.296875 
z
" id="DejaVuSans-50"/>
       <path d="M 31.78125 66.40625 
Q 24.171875 66.40625 20.328125 58.90625 
Q 16.5 51.421875 16.5 36.375 
Q 16.5 21.390625 20.328125 13.890625 
Q 24.171875 6.390625 31.78125 6.390625 
Q 39.453125 6.390625 43.28125 13.890625 
Q 47.125 21.390625 47.125 36.375 
Q 47.125 51.421875 43.28125 58.90625 
Q 39.453125 66.40625 31.78125 66.40625 
z
M 31.78125 74.21875 
Q 44.046875 74.21875 50.515625 64.515625 
Q 56.984375 54.828125 56.984375 36.375 
Q 56.984375 17.96875 50.515625 8.265625 
Q 44.046875 -1.421875 31.78125 -1.421875 
Q 19.53125 -1.421875 13.0625 8.265625 
Q 6.59375 17.96875 6.59375 36.375 
Q 6.59375 54.828125 13.0625 64.515625 
Q 19.53125 74.21875 31.78125 74.21875 
z
" id="DejaVuSans-48"/>
       <path d="M 4.890625 31.390625 
L 31.203125 31.390625 
L 31.203125 23.390625 
L 4.890625 23.390625 
z
" id="DejaVuSans-45"/>
      </defs>
      <use xlink:href="#DejaVuSans-50"/>
      <use x="63.623047" xlink:href="#DejaVuSans-48"/>
      <use x="127.246094" xlink:href="#DejaVuSans-50"/>
      <use x="190.869141" xlink:href="#DejaVuSans-49"/>
      <use x="254.492188" xlink:href="#DejaVuSans-45"/>
      <use x="290.576172" xlink:href="#DejaVuSans-77"/>
      <use x="376.855469" xlink:href="#DejaVuSans-97"/>
      <use x="438.134766" xlink:href="#DejaVuSans-114"/>
     </g>
    </g>
   </g>
   <g id="matplotlib.axis_2">
    <g id="ytick_1">
     <g id="line2d_7">
      <defs>
       <path d="M 0 0 
L -3.5 0 
" id="m24c81cf2c7" style="stroke:#000000;stroke-width:0.8;"/>
      </defs>
      <g>
       <use style="stroke:#000000;stroke-width:0.8;" x="53.8" xlink:href="#m24c81cf2c7" y="382.04"/>
      </g>
     </g>
     <g id="text_8">
      <!-- 0 -->
      <g transform="translate(38.52875 386.978984)scale(0.13 -0.13)">
       <use xlink:href="#DejaVuSans-48"/>
      </g>
     </g>
    </g>
    <g id="ytick_2">
     <g id="line2d_8">
      <g>
       <use style="stroke:#000000;stroke-width:0.8;" x="53.8" xlink:href="#m24c81cf2c7" y="338.23"/>
      </g>
     </g>
     <g id="text_9">
      <!-- 500 -->
      <g transform="translate(21.98625 343.168984)scale(0.13 -0.13)">
       <use xlink:href="#DejaVuSans-53"/>
       <use x="63.623047" xlink:href="#DejaVuSans-48"/>
       <use x="127.246094" xlink:href="#DejaVuSans-48"/>
      </g>
     </g>
    </g>
    <g id="ytick_3">
     <g id="line2d_9">
      <g>
       <use style="stroke:#000000;stroke-width:0.8;" x="53.8" xlink:href="#m24c81cf2c7" y="294.42"/>
      </g>
     </g>
     <g id="text_10">
      <!-- 1000 -->
      <g transform="translate(13.715 299.358984)scale(0.13 -0.13)">
       <use xlink:href="#DejaVuSans-49"/>
       <use x="63.623047" xlink:href="#DejaVuSans-48"/>
       <use x="127.246094" xlink:href="#DejaVuSans-48"/>
       <use x="190.869141" xlink:href="#DejaVuSans-48"/>
      </g>
     </g>
    </g>
    <g id="ytick_4">
     <g id="line2d_10">
      <g>
       <use style="stroke:#000000;stroke-width:0.8;" x="53.8" xlink:href="#m24c81cf2c7" y="250.61"/>
      </g>
     </g>
     <g id="text_11">
      <!-- 1500 -->
      <g transform="translate(13.715 255.548984)scale(0.13 -0.13)">
       <use xlink:href="#DejaVuSans-49"/>
       <use x="63.623047" xlink:href="#DejaVuSans-53"/>
       <use x="127.246094" xlink:href="#DejaVuSans-48"/>
       <use x="190.869141" xlink:href="#DejaVuSans-48"/>
      </g>
     </g>
    </g>
    <g id="ytick_5">
     <g id="line2d_11">
      <g>
       <use style="stroke:#000000;stroke-width:0.8;" x="53.8" xlink:href="#m24c81cf2c7" y="206.8"/>
      </g>
     </g>
     <g id="text_12">
      <!-- 2000 -->
      <g transform="translate(13.715 211.738984)scale(0.13 -0.13)">
       <use xlink:href="#DejaVuSans-50"/>
       <use x="63.623047" xlink:href="#DejaVuSans-48"/>
       <use x="127.246094" xlink:href="#DejaVuSans-48"/>
       <use x="190.869141" xlink:href="#DejaVuSans-48"/>
      </g>
     </g>
    </g>
    <g id="ytick_6">
     <g id="line2d_12">
      <g>
       <use style="stroke:#000000;stroke-width:0.8;" x="53.8" xlink:href="#m24c81cf2c7" y="162.99"/>
      </g>
     </g>
     <g id="text_13">
      <!-- 2500 -->
      <g transform="translate(13.715 167.928984)scale(0.13 -0.13)">
       <use xlink:href="#DejaVuSans-50"/>
       <use x="63.623047" xlink:href="#DejaVuSans-53"/>
       <use x="127.246094" xlink:href="#DejaVuSans-48"/>
       <use x="190.869141" xlink:href="#DejaVuSans-48"/>
      </g>
     </g>
    </g>
    <g id="ytick_7">
     <g id="line2d_13">
      <g>
       <use style="stroke:#000000;stroke-width:0.8;" x="53.8" xlink:href="#m24c81cf2c7" y="119.18"/>
      </g>
     </g>
     <g id="text_14">
      <!-- 3000 -->
      <g transform="translate(13.715 124.118984)scale(0.13 -0.13)">
       <defs>
        <path d="M 40.578125 39.3125 
Q 47.65625 37.796875 51.625 33 
Q 55.609375 28.21875 55.609375 21.1875 
Q 55.609375 10.40625 48.1875 4.484375 
Q 40.765625 -1.421875 27.09375 -1.421875 
Q 22.515625 -1.421875 17.65625 -0.515625 
Q 12.796875 0.390625 7.625 2.203125 
L 7.625 11.71875 
Q 11.71875 9.328125 16.59375 8.109375 
Q 21.484375 6.890625 26.8125 6.890625 
Q 36.078125 6.890625 40.9375 10.546875 
Q 45.796875 14.203125 45.796875 21.1875 
Q 45.796875 27.640625 41.28125 31.265625 
Q 36.765625 34.90625 28.71875 34.90625 
L 20.21875 34.90625 
L 20.21875 43.015625 
L 29.109375 43.015625 
Q 36.375 43.015625 40.234375 45.921875 
Q 44.09375 48.828125 44.09375 54.296875 
Q 44.09375 59.90625 40.109375 62.90625 
Q 36.140625 65.921875 28.71875 65.921875 
Q 24.65625 65.921875 20.015625 65.03125 
Q 15.375 64.15625 9.8125 62.3125 
L 9.8125 71.09375 
Q 15.4375 72.65625 20.34375 73.4375 
Q 25.25 74.21875 29.59375 74.21875 
Q 40.828125 74.21875 47.359375 69.109375 
Q 53.90625 64.015625 53.90625 55.328125 
Q 53.90625 49.265625 50.4375 45.09375 
Q 46.96875 40.921875 40.578125 39.3125 
z
" id="DejaVuSans-51"/>
       </defs>
       <use xlink:href="#DejaVuSans-51"/>
       <use x="63.623047" xlink:href="#DejaVuSans-48"/>
       <use x="127.246094" xlink:href="#DejaVuSans-48"/>
       <use x="190.869141" xlink:href="#DejaVuSans-48"/>
      </g>
     </g>
    </g>
    <g id="ytick_8">
     <g id="line2d_14">
      <g>
       <use style="stroke:#000000;stroke-width:0.8;" x="53.8" xlink:href="#m24c81cf2c7" y="75.37"/>
      </g>
     </g>
     <g id="text_15">
      <!-- 3500 -->
      <g transform="translate(13.715 80.308984)scale(0.13 -0.13)">
       <use xlink:href="#DejaVuSans-51"/>
       <use x="63.623047" xlink:href="#DejaVuSans-53"/>
       <use x="127.246094" xlink:href="#DejaVuSans-48"/>
       <use x="190.869141" xlink:href="#DejaVuSans-48"/>
      </g>
     </g>
    </g>
    <g id="ytick_9">
     <g id="line2d_15">
      <g>
       <use style="stroke:#000000;stroke-width:0.8;" x="53.8" xlink:href="#m24c81cf2c7" y="31.56"/>
      </g>
     </g>
     <g id="text_16">
      <!-- 4000 -->
      <g transform="translate(13.715 36.498984)scale(0.13 -0.13)">
       <defs>
        <path d="M 37.796875 64.3125 
L 12.890625 25.390625 
L 37.796875 25.390625 
z
M 35.203125 72.90625 
L 47.609375 72.90625 
L 47.609375 25.390625 
L 58.015625 25.390625 
L 58.015625 17.1875 
L 47.609375 17.1875 
L 47.609375 0 
L 37.796875 0 
L 37.796875 17.1875 
L 4.890625 17.1875 
L 4.890625 26.703125 
z
" id="DejaVuSans-52"/>
       </defs>
       <use xlink:href="#DejaVuSans-52"/>
       <use x="63.623047" xlink:href="#DejaVuSans-48"/>
       <use x="127.246094" xlink:href="#DejaVuSans-48"/>
       <use x="190.869141" xlink:href="#DejaVuSans-48"/>
      </g>
     </g>
    </g>
   </g>
   <g id="line2d_16">
    <path clip-path="url(#p3d24f93cca)" d="M 77.217273 86.460189 
L 82.928803 90.165263 
L 88.640333 100.95504 
L 94.351863 99.427949 
L 100.063392 82.279463 
L 105.774922 95.247223 
L 111.486452 106.800546 
L 117.197982 129.556711 
L 122.909512 149.05842 
L 128.621042 160.161126 
L 134.332572 171.902206 
L 140.044102 183.042463 
L 145.755632 187.360877 
L 151.467162 192.380251 
L 157.178692 198.801546 
L 162.890222 202.256277 
L 168.601752 204.52188 
L 174.313282 206.812517 
L 180.024812 208.339609 
L 185.736341 211.331206 
L 191.447871 213.333949 
L 197.159401 219.041766 
L 202.870931 225.2002 
L 208.582461 230.332229 
L 214.293991 233.78696 
L 220.005521 237.191623 
L 225.717051 238.180477 
L 231.428581 238.105374 
L 237.140111 242.210997 
L 242.851641 244.56422 
L 248.563171 246.329137 
L 254.274701 250.534897 
L 259.986231 253.776837 
L 265.697761 255.4291 
L 271.40929 256.242714 
L 277.12082 261.437329 
L 282.83235 265.230023 
L 288.54388 271.138114 
L 294.25541 274.53026 
L 299.96694 279.224189 
L 305.67847 281.339586 
L 311.39 283.717843 
L 317.10153 289.237903 
L 322.81306 291.853986 
L 328.52459 292.379706 
L 334.23612 294.457551 
L 339.94765 294.908169 
L 345.65918 295.233614 
L 351.37071 294.707894 
L 357.082239 293.406111 
L 362.793769 291.741331 
L 368.505299 293.481214 
L 374.216829 292.041743 
L 379.928359 292.204466 
L 385.639889 291.816434 
L 391.351419 291.541057 
L 397.062949 291.428403 
L 402.774479 291.941606 
L 408.486009 289.888794 
L 414.197539 290.614789 
L 419.909069 288.173946 
L 425.620599 287.635709 
L 431.332129 287.210126 
L 437.043659 283.667774 
L 442.755188 281.702583 
L 448.466718 279.850046 
L 454.178248 276.407831 
L 459.889778 275.606734 
L 465.601308 273.666577 
L 471.312838 272.114451 
L 477.024368 269.373197 
L 482.735898 266.168809 
L 488.447428 260.6863 
L 494.158958 256.881089 
L 499.870488 254.340109 
L 505.582018 251.986886 
L 511.293548 250.96048 
L 517.005078 246.704651 
L 522.716608 242.473857 
L 528.428137 241.259694 
L 534.139667 235.088743 
L 539.851197 229.506097 
L 545.562727 228.542277 
" style="fill:none;stroke:#67916e;stroke-linecap:square;stroke-width:4;"/>
   </g>
   <g id="line2d_17">
    <path clip-path="url(#p3d24f93cca)" d="M 77.217273 377.809206 
L 82.928803 375.81898 
L 88.640333 375.81898 
L 94.351863 375.067951 
L 100.063392 373.578411 
L 105.774922 371.901114 
L 111.486452 370.99988 
L 117.197982 369.497823 
L 122.909512 371.337843 
L 128.621042 371.100017 
L 134.332572 370.949811 
L 140.044102 370.061094 
L 145.755632 371.400429 
L 151.467162 371.600703 
L 157.178692 373.227931 
L 162.890222 372.076354 
L 168.601752 370.6494 
L 174.313282 369.94844 
L 180.024812 370.6494 
L 185.736341 369.059723 
L 191.447871 368.784346 
L 197.159401 366.043091 
L 202.870931 364.853963 
L 208.582461 363.827557 
L 214.293991 361.086303 
L 220.005521 358.795666 
L 225.717051 358.720563 
L 231.428581 358.482737 
L 237.140111 355.115626 
L 242.851641 353.47588 
L 248.563171 350.396663 
L 254.274701 352.299269 
L 259.986231 349.895977 
L 265.697761 350.171354 
L 271.40929 348.3063 
L 277.12082 349.457877 
L 282.83235 349.107397 
L 288.54388 347.818131 
L 294.25541 344.150609 
L 299.96694 344.250746 
L 305.67847 342.385691 
L 311.39 343.83768 
L 317.10153 343.762577 
L 322.81306 343.186789 
L 328.52459 343.950334 
L 334.23612 346.46628 
L 339.94765 345.978111 
L 345.65918 344.676329 
L 351.37071 340.921186 
L 357.082239 335.100714 
L 362.793769 331.2204 
L 368.505299 328.829626 
L 374.216829 324.924277 
L 379.928359 325.099517 
L 385.639889 325.575169 
L 391.351419 324.285903 
L 397.062949 323.972974 
L 402.774479 321.857577 
L 408.486009 318.215089 
L 414.197539 315.674109 
L 419.909069 309.966291 
L 425.620599 307.525449 
L 431.332129 307.099866 
L 437.043659 301.241843 
L 442.755188 297.987386 
L 448.466718 297.599354 
L 454.178248 295.12096 
L 459.889778 293.468697 
L 465.601308 290.139137 
L 471.312838 289.751106 
L 477.024368 285.995963 
L 482.735898 282.478646 
L 488.447428 274.718017 
L 494.158958 268.859994 
" style="fill:none;stroke:#0d4a70;stroke-linecap:square;stroke-width:4;"/>
   </g>
   <g id="patch_3">
    <path d="M 53.8 382.04 
L 53.8 31.56 
" style="fill:none;stroke:#000000;stroke-linecap:square;stroke-linejoin:miter;stroke-width:0.8;"/>
   </g>
   <g id="patch_4">
    <path d="M 568.98 382.04 
L 568.98 31.56 
" style="fill:none;stroke:#000000;stroke-linecap:square;stroke-linejoin:miter;stroke-width:0.8;"/>
   </g>
   <g id="patch_5">
    <path d="M 53.8 382.04 
L 568.98 382.04 
" style="fill:none;stroke:#000000;stroke-linecap:square;stroke-linejoin:miter;stroke-width:0.8;"/>
   </g>
   <g id="patch_6">
    <path d="M 53.8 31.56 
L 568.98 31.56 
" style="fill:none;stroke:#000000;stroke-linecap:square;stroke-linejoin:miter;stroke-width:0.8;"/>
   </g>
   <g id="text_17">
    <!-- Switzerland - data from Viollier -->
    <g transform="translate(190.839781 25.56)scale(0.156 -0.156)">
     <defs>
      <path d="M 53.515625 70.515625 
L 53.515625 60.890625 
Q 47.90625 63.578125 42.921875 64.890625 
Q 37.9375 66.21875 33.296875 66.21875 
Q 25.25 66.21875 20.875 63.09375 
Q 16.5 59.96875 16.5 54.203125 
Q 16.5 49.359375 19.40625 46.890625 
Q 22.3125 44.4375 30.421875 42.921875 
L 36.375 41.703125 
Q 47.40625 39.59375 52.65625 34.296875 
Q 57.90625 29 57.90625 20.125 
Q 57.90625 9.515625 50.796875 4.046875 
Q 43.703125 -1.421875 29.984375 -1.421875 
Q 24.8125 -1.421875 18.96875 -0.25 
Q 13.140625 0.921875 6.890625 3.21875 
L 6.890625 13.375 
Q 12.890625 10.015625 18.65625 8.296875 
Q 24.421875 6.59375 29.984375 6.59375 
Q 38.421875 6.59375 43.015625 9.90625 
Q 47.609375 13.234375 47.609375 19.390625 
Q 47.609375 24.75 44.3125 27.78125 
Q 41.015625 30.8125 33.5 32.328125 
L 27.484375 33.5 
Q 16.453125 35.6875 11.515625 40.375 
Q 6.59375 45.0625 6.59375 53.421875 
Q 6.59375 63.09375 13.40625 68.65625 
Q 20.21875 74.21875 32.171875 74.21875 
Q 37.3125 74.21875 42.625 73.28125 
Q 47.953125 72.359375 53.515625 70.515625 
z
" id="DejaVuSans-83"/>
      <path d="M 4.203125 54.6875 
L 13.1875 54.6875 
L 24.421875 12.015625 
L 35.59375 54.6875 
L 46.1875 54.6875 
L 57.421875 12.015625 
L 68.609375 54.6875 
L 77.59375 54.6875 
L 63.28125 0 
L 52.6875 0 
L 40.921875 44.828125 
L 29.109375 0 
L 18.5 0 
z
" id="DejaVuSans-119"/>
      <path d="M 9.421875 54.6875 
L 18.40625 54.6875 
L 18.40625 0 
L 9.421875 0 
z
M 9.421875 75.984375 
L 18.40625 75.984375 
L 18.40625 64.59375 
L 9.421875 64.59375 
z
" id="DejaVuSans-105"/>
      <path d="M 18.3125 70.21875 
L 18.3125 54.6875 
L 36.8125 54.6875 
L 36.8125 47.703125 
L 18.3125 47.703125 
L 18.3125 18.015625 
Q 18.3125 11.328125 20.140625 9.421875 
Q 21.96875 7.515625 27.59375 7.515625 
L 36.8125 7.515625 
L 36.8125 0 
L 27.59375 0 
Q 17.1875 0 13.234375 3.875 
Q 9.28125 7.765625 9.28125 18.015625 
L 9.28125 47.703125 
L 2.6875 47.703125 
L 2.6875 54.6875 
L 9.28125 54.6875 
L 9.28125 70.21875 
z
" id="DejaVuSans-116"/>
      <path d="M 5.515625 54.6875 
L 48.1875 54.6875 
L 48.1875 46.484375 
L 14.40625 7.171875 
L 48.1875 7.171875 
L 48.1875 0 
L 4.296875 0 
L 4.296875 8.203125 
L 38.09375 47.515625 
L 5.515625 47.515625 
z
" id="DejaVuSans-122"/>
      <path d="M 9.421875 75.984375 
L 18.40625 75.984375 
L 18.40625 0 
L 9.421875 0 
z
" id="DejaVuSans-108"/>
      <path d="M 45.40625 46.390625 
L 45.40625 75.984375 
L 54.390625 75.984375 
L 54.390625 0 
L 45.40625 0 
L 45.40625 8.203125 
Q 42.578125 3.328125 38.25 0.953125 
Q 33.9375 -1.421875 27.875 -1.421875 
Q 17.96875 -1.421875 11.734375 6.484375 
Q 5.515625 14.40625 5.515625 27.296875 
Q 5.515625 40.1875 11.734375 48.09375 
Q 17.96875 56 27.875 56 
Q 33.9375 56 38.25 53.625 
Q 42.578125 51.265625 45.40625 46.390625 
z
M 14.796875 27.296875 
Q 14.796875 17.390625 18.875 11.75 
Q 22.953125 6.109375 30.078125 6.109375 
Q 37.203125 6.109375 41.296875 11.75 
Q 45.40625 17.390625 45.40625 27.296875 
Q 45.40625 37.203125 41.296875 42.84375 
Q 37.203125 48.484375 30.078125 48.484375 
Q 22.953125 48.484375 18.875 42.84375 
Q 14.796875 37.203125 14.796875 27.296875 
z
" id="DejaVuSans-100"/>
      <path id="DejaVuSans-32"/>
      <path d="M 37.109375 75.984375 
L 37.109375 68.5 
L 28.515625 68.5 
Q 23.6875 68.5 21.796875 66.546875 
Q 19.921875 64.59375 19.921875 59.515625 
L 19.921875 54.6875 
L 34.71875 54.6875 
L 34.71875 47.703125 
L 19.921875 47.703125 
L 19.921875 0 
L 10.890625 0 
L 10.890625 47.703125 
L 2.296875 47.703125 
L 2.296875 54.6875 
L 10.890625 54.6875 
L 10.890625 58.5 
Q 10.890625 67.625 15.140625 71.796875 
Q 19.390625 75.984375 28.609375 75.984375 
z
" id="DejaVuSans-102"/>
      <path d="M 30.609375 48.390625 
Q 23.390625 48.390625 19.1875 42.75 
Q 14.984375 37.109375 14.984375 27.296875 
Q 14.984375 17.484375 19.15625 11.84375 
Q 23.34375 6.203125 30.609375 6.203125 
Q 37.796875 6.203125 41.984375 11.859375 
Q 46.1875 17.53125 46.1875 27.296875 
Q 46.1875 37.015625 41.984375 42.703125 
Q 37.796875 48.390625 30.609375 48.390625 
z
M 30.609375 56 
Q 42.328125 56 49.015625 48.375 
Q 55.71875 40.765625 55.71875 27.296875 
Q 55.71875 13.875 49.015625 6.21875 
Q 42.328125 -1.421875 30.609375 -1.421875 
Q 18.84375 -1.421875 12.171875 6.21875 
Q 5.515625 13.875 5.515625 27.296875 
Q 5.515625 40.765625 12.171875 48.375 
Q 18.84375 56 30.609375 56 
z
" id="DejaVuSans-111"/>
      <path d="M 52 44.1875 
Q 55.375 50.25 60.0625 53.125 
Q 64.75 56 71.09375 56 
Q 79.640625 56 84.28125 50.015625 
Q 88.921875 44.046875 88.921875 33.015625 
L 88.921875 0 
L 79.890625 0 
L 79.890625 32.71875 
Q 79.890625 40.578125 77.09375 44.375 
Q 74.3125 48.1875 68.609375 48.1875 
Q 61.625 48.1875 57.5625 43.546875 
Q 53.515625 38.921875 53.515625 30.90625 
L 53.515625 0 
L 44.484375 0 
L 44.484375 32.71875 
Q 44.484375 40.625 41.703125 44.40625 
Q 38.921875 48.1875 33.109375 48.1875 
Q 26.21875 48.1875 22.15625 43.53125 
Q 18.109375 38.875 18.109375 30.90625 
L 18.109375 0 
L 9.078125 0 
L 9.078125 54.6875 
L 18.109375 54.6875 
L 18.109375 46.1875 
Q 21.1875 51.21875 25.484375 53.609375 
Q 29.78125 56 35.6875 56 
Q 41.65625 56 45.828125 52.96875 
Q 50 49.953125 52 44.1875 
z
" id="DejaVuSans-109"/>
      <path d="M 28.609375 0 
L 0.78125 72.90625 
L 11.078125 72.90625 
L 34.1875 11.53125 
L 57.328125 72.90625 
L 67.578125 72.90625 
L 39.796875 0 
z
" id="DejaVuSans-86"/>
     </defs>
     <use xlink:href="#DejaVuSans-83"/>
     <use x="63.476562" xlink:href="#DejaVuSans-119"/>
     <use x="145.263672" xlink:href="#DejaVuSans-105"/>
     <use x="173.046875" xlink:href="#DejaVuSans-116"/>
     <use x="212.255859" xlink:href="#DejaVuSans-122"/>
     <use x="264.746094" xlink:href="#DejaVuSans-101"/>
     <use x="326.269531" xlink:href="#DejaVuSans-114"/>
     <use x="367.382812" xlink:href="#DejaVuSans-108"/>
     <use x="395.166016" xlink:href="#DejaVuSans-97"/>
     <use x="456.445312" xlink:href="#DejaVuSans-110"/>
     <use x="519.824219" xlink:href="#DejaVuSans-100"/>
     <use x="583.300781" xlink:href="#DejaVuSans-32"/>
     <use x="615.087891" xlink:href="#DejaVuSans-45"/>
     <use x="651.171875" xlink:href="#DejaVuSans-32"/>
     <use x="682.958984" xlink:href="#DejaVuSans-100"/>
     <use x="746.435547" xlink:href="#DejaVuSans-97"/>
     <use x="807.714844" xlink:href="#DejaVuSans-116"/>
     <use x="846.923828" xlink:href="#DejaVuSans-97"/>
     <use x="908.203125" xlink:href="#DejaVuSans-32"/>
     <use x="939.990234" xlink:href="#DejaVuSans-102"/>
     <use x="975.195312" xlink:href="#DejaVuSans-114"/>
     <use x="1014.058594" xlink:href="#DejaVuSans-111"/>
     <use x="1075.240234" xlink:href="#DejaVuSans-109"/>
     <use x="1172.652344" xlink:href="#DejaVuSans-32"/>
     <use x="1204.439453" xlink:href="#DejaVuSans-86"/>
     <use x="1270.597656" xlink:href="#DejaVuSans-105"/>
     <use x="1298.380859" xlink:href="#DejaVuSans-111"/>
     <use x="1359.5625" xlink:href="#DejaVuSans-108"/>
     <use x="1387.345703" xlink:href="#DejaVuSans-108"/>
     <use x="1415.128906" xlink:href="#DejaVuSans-105"/>
     <use x="1442.912109" xlink:href="#DejaVuSans-101"/>
     <use x="1504.435547" xlink:href="#DejaVuSans-114"/>
    </g>
   </g>
   <g id="legend_1">
    <g id="patch_7">
     <path d="M 141.972656 80.123125 
L 559.88 80.123125 
Q 562.48 80.123125 562.48 77.523125 
L 562.48 40.66 
Q 562.48 38.06 559.88 38.06 
L 141.972656 38.06 
Q 139.372656 38.06 139.372656 40.66 
L 139.372656 77.523125 
Q 139.372656 80.123125 141.972656 80.123125 
z
" style="fill:#ffffff;opacity:0.8;stroke:#cccccc;stroke-linejoin:miter;"/>
    </g>
    <g id="line2d_18">
     <path d="M 144.572656 48.587969 
L 170.572656 48.587969 
" style="fill:none;stroke:#67916e;stroke-linecap:square;stroke-width:4;"/>
    </g>
    <g id="line2d_19"/>
    <g id="text_18">
     <!-- Data: Total number of confirmed cases (7-day average) -->
     <g transform="translate(180.972656 53.137969)scale(0.13 -0.13)">
      <defs>
       <path d="M 19.671875 64.796875 
L 19.671875 8.109375 
L 31.59375 8.109375 
Q 46.6875 8.109375 53.6875 14.9375 
Q 60.6875 21.78125 60.6875 36.53125 
Q 60.6875 51.171875 53.6875 57.984375 
Q 46.6875 64.796875 31.59375 64.796875 
z
M 9.8125 72.90625 
L 30.078125 72.90625 
Q 51.265625 72.90625 61.171875 64.09375 
Q 71.09375 55.28125 71.09375 36.53125 
Q 71.09375 17.671875 61.125 8.828125 
Q 51.171875 0 30.078125 0 
L 9.8125 0 
z
" id="DejaVuSans-68"/>
       <path d="M 11.71875 12.40625 
L 22.015625 12.40625 
L 22.015625 0 
L 11.71875 0 
z
M 11.71875 51.703125 
L 22.015625 51.703125 
L 22.015625 39.3125 
L 11.71875 39.3125 
z
" id="DejaVuSans-58"/>
       <path d="M -0.296875 72.90625 
L 61.375 72.90625 
L 61.375 64.59375 
L 35.5 64.59375 
L 35.5 0 
L 25.59375 0 
L 25.59375 64.59375 
L -0.296875 64.59375 
z
" id="DejaVuSans-84"/>
       <path d="M 8.5 21.578125 
L 8.5 54.6875 
L 17.484375 54.6875 
L 17.484375 21.921875 
Q 17.484375 14.15625 20.5 10.265625 
Q 23.53125 6.390625 29.59375 6.390625 
Q 36.859375 6.390625 41.078125 11.03125 
Q 45.3125 15.671875 45.3125 23.6875 
L 45.3125 54.6875 
L 54.296875 54.6875 
L 54.296875 0 
L 45.3125 0 
L 45.3125 8.40625 
Q 42.046875 3.421875 37.71875 1 
Q 33.40625 -1.421875 27.6875 -1.421875 
Q 18.265625 -1.421875 13.375 4.4375 
Q 8.5 10.296875 8.5 21.578125 
z
M 31.109375 56 
z
" id="DejaVuSans-117"/>
       <path d="M 48.78125 52.59375 
L 48.78125 44.1875 
Q 44.96875 46.296875 41.140625 47.34375 
Q 37.3125 48.390625 33.40625 48.390625 
Q 24.65625 48.390625 19.8125 42.84375 
Q 14.984375 37.3125 14.984375 27.296875 
Q 14.984375 17.28125 19.8125 11.734375 
Q 24.65625 6.203125 33.40625 6.203125 
Q 37.3125 6.203125 41.140625 7.25 
Q 44.96875 8.296875 48.78125 10.40625 
L 48.78125 2.09375 
Q 45.015625 0.34375 40.984375 -0.53125 
Q 36.96875 -1.421875 32.421875 -1.421875 
Q 20.0625 -1.421875 12.78125 6.34375 
Q 5.515625 14.109375 5.515625 27.296875 
Q 5.515625 40.671875 12.859375 48.328125 
Q 20.21875 56 33.015625 56 
Q 37.15625 56 41.109375 55.140625 
Q 45.0625 54.296875 48.78125 52.59375 
z
" id="DejaVuSans-99"/>
       <path d="M 44.28125 53.078125 
L 44.28125 44.578125 
Q 40.484375 46.53125 36.375 47.5 
Q 32.28125 48.484375 27.875 48.484375 
Q 21.1875 48.484375 17.84375 46.4375 
Q 14.5 44.390625 14.5 40.28125 
Q 14.5 37.15625 16.890625 35.375 
Q 19.28125 33.59375 26.515625 31.984375 
L 29.59375 31.296875 
Q 39.15625 29.25 43.1875 25.515625 
Q 47.21875 21.78125 47.21875 15.09375 
Q 47.21875 7.46875 41.1875 3.015625 
Q 35.15625 -1.421875 24.609375 -1.421875 
Q 20.21875 -1.421875 15.453125 -0.5625 
Q 10.6875 0.296875 5.421875 2 
L 5.421875 11.28125 
Q 10.40625 8.6875 15.234375 7.390625 
Q 20.0625 6.109375 24.8125 6.109375 
Q 31.15625 6.109375 34.5625 8.28125 
Q 37.984375 10.453125 37.984375 14.40625 
Q 37.984375 18.0625 35.515625 20.015625 
Q 33.0625 21.96875 24.703125 23.78125 
L 21.578125 24.515625 
Q 13.234375 26.265625 9.515625 29.90625 
Q 5.8125 33.546875 5.8125 39.890625 
Q 5.8125 47.609375 11.28125 51.796875 
Q 16.75 56 26.8125 56 
Q 31.78125 56 36.171875 55.265625 
Q 40.578125 54.546875 44.28125 53.078125 
z
" id="DejaVuSans-115"/>
       <path d="M 31 75.875 
Q 24.46875 64.65625 21.28125 53.65625 
Q 18.109375 42.671875 18.109375 31.390625 
Q 18.109375 20.125 21.3125 9.0625 
Q 24.515625 -2 31 -13.1875 
L 23.1875 -13.1875 
Q 15.875 -1.703125 12.234375 9.375 
Q 8.59375 20.453125 8.59375 31.390625 
Q 8.59375 42.28125 12.203125 53.3125 
Q 15.828125 64.359375 23.1875 75.875 
z
" id="DejaVuSans-40"/>
       <path d="M 8.203125 72.90625 
L 55.078125 72.90625 
L 55.078125 68.703125 
L 28.609375 0 
L 18.3125 0 
L 43.21875 64.59375 
L 8.203125 64.59375 
z
" id="DejaVuSans-55"/>
       <path d="M 32.171875 -5.078125 
Q 28.375 -14.84375 24.75 -17.8125 
Q 21.140625 -20.796875 15.09375 -20.796875 
L 7.90625 -20.796875 
L 7.90625 -13.28125 
L 13.1875 -13.28125 
Q 16.890625 -13.28125 18.9375 -11.515625 
Q 21 -9.765625 23.484375 -3.21875 
L 25.09375 0.875 
L 2.984375 54.6875 
L 12.5 54.6875 
L 29.59375 11.921875 
L 46.6875 54.6875 
L 56.203125 54.6875 
z
" id="DejaVuSans-121"/>
       <path d="M 2.984375 54.6875 
L 12.5 54.6875 
L 29.59375 8.796875 
L 46.6875 54.6875 
L 56.203125 54.6875 
L 35.6875 0 
L 23.484375 0 
z
" id="DejaVuSans-118"/>
       <path d="M 45.40625 27.984375 
Q 45.40625 37.75 41.375 43.109375 
Q 37.359375 48.484375 30.078125 48.484375 
Q 22.859375 48.484375 18.828125 43.109375 
Q 14.796875 37.75 14.796875 27.984375 
Q 14.796875 18.265625 18.828125 12.890625 
Q 22.859375 7.515625 30.078125 7.515625 
Q 37.359375 7.515625 41.375 12.890625 
Q 45.40625 18.265625 45.40625 27.984375 
z
M 54.390625 6.78125 
Q 54.390625 -7.171875 48.1875 -13.984375 
Q 42 -20.796875 29.203125 -20.796875 
Q 24.46875 -20.796875 20.265625 -20.09375 
Q 16.0625 -19.390625 12.109375 -17.921875 
L 12.109375 -9.1875 
Q 16.0625 -11.328125 19.921875 -12.34375 
Q 23.78125 -13.375 27.78125 -13.375 
Q 36.625 -13.375 41.015625 -8.765625 
Q 45.40625 -4.15625 45.40625 5.171875 
L 45.40625 9.625 
Q 42.625 4.78125 38.28125 2.390625 
Q 33.9375 0 27.875 0 
Q 17.828125 0 11.671875 7.65625 
Q 5.515625 15.328125 5.515625 27.984375 
Q 5.515625 40.671875 11.671875 48.328125 
Q 17.828125 56 27.875 56 
Q 33.9375 56 38.28125 53.609375 
Q 42.625 51.21875 45.40625 46.390625 
L 45.40625 54.6875 
L 54.390625 54.6875 
z
" id="DejaVuSans-103"/>
       <path d="M 8.015625 75.875 
L 15.828125 75.875 
Q 23.140625 64.359375 26.78125 53.3125 
Q 30.421875 42.28125 30.421875 31.390625 
Q 30.421875 20.453125 26.78125 9.375 
Q 23.140625 -1.703125 15.828125 -13.1875 
L 8.015625 -13.1875 
Q 14.5 -2 17.703125 9.0625 
Q 20.90625 20.125 20.90625 31.390625 
Q 20.90625 42.671875 17.703125 53.65625 
Q 14.5 64.65625 8.015625 75.875 
z
" id="DejaVuSans-41"/>
      </defs>
      <use xlink:href="#DejaVuSans-68"/>
      <use x="77.001953" xlink:href="#DejaVuSans-97"/>
      <use x="138.28125" xlink:href="#DejaVuSans-116"/>
      <use x="177.490234" xlink:href="#DejaVuSans-97"/>
      <use x="238.769531" xlink:href="#DejaVuSans-58"/>
      <use x="272.460938" xlink:href="#DejaVuSans-32"/>
      <use x="304.248047" xlink:href="#DejaVuSans-84"/>
      <use x="348.332031" xlink:href="#DejaVuSans-111"/>
      <use x="409.513672" xlink:href="#DejaVuSans-116"/>
      <use x="448.722656" xlink:href="#DejaVuSans-97"/>
      <use x="510.001953" xlink:href="#DejaVuSans-108"/>
      <use x="537.785156" xlink:href="#DejaVuSans-32"/>
      <use x="569.572266" xlink:href="#DejaVuSans-110"/>
      <use x="632.951172" xlink:href="#DejaVuSans-117"/>
      <use x="696.330078" xlink:href="#DejaVuSans-109"/>
      <use x="793.742188" xlink:href="#DejaVuSans-98"/>
      <use x="857.21875" xlink:href="#DejaVuSans-101"/>
      <use x="918.742188" xlink:href="#DejaVuSans-114"/>
      <use x="959.855469" xlink:href="#DejaVuSans-32"/>
      <use x="991.642578" xlink:href="#DejaVuSans-111"/>
      <use x="1052.824219" xlink:href="#DejaVuSans-102"/>
      <use x="1088.029297" xlink:href="#DejaVuSans-32"/>
      <use x="1119.816406" xlink:href="#DejaVuSans-99"/>
      <use x="1174.796875" xlink:href="#DejaVuSans-111"/>
      <use x="1235.978516" xlink:href="#DejaVuSans-110"/>
      <use x="1299.357422" xlink:href="#DejaVuSans-102"/>
      <use x="1334.5625" xlink:href="#DejaVuSans-105"/>
      <use x="1362.345703" xlink:href="#DejaVuSans-114"/>
      <use x="1401.708984" xlink:href="#DejaVuSans-109"/>
      <use x="1499.121094" xlink:href="#DejaVuSans-101"/>
      <use x="1560.644531" xlink:href="#DejaVuSans-100"/>
      <use x="1624.121094" xlink:href="#DejaVuSans-32"/>
      <use x="1655.908203" xlink:href="#DejaVuSans-99"/>
      <use x="1710.888672" xlink:href="#DejaVuSans-97"/>
      <use x="1772.167969" xlink:href="#DejaVuSans-115"/>
      <use x="1824.267578" xlink:href="#DejaVuSans-101"/>
      <use x="1885.791016" xlink:href="#DejaVuSans-115"/>
      <use x="1937.890625" xlink:href="#DejaVuSans-32"/>
      <use x="1969.677734" xlink:href="#DejaVuSans-40"/>
      <use x="2008.691406" xlink:href="#DejaVuSans-55"/>
      <use x="2072.314453" xlink:href="#DejaVuSans-45"/>
      <use x="2108.398438" xlink:href="#DejaVuSans-100"/>
      <use x="2171.875" xlink:href="#DejaVuSans-97"/>
      <use x="2233.154297" xlink:href="#DejaVuSans-121"/>
      <use x="2292.333984" xlink:href="#DejaVuSans-32"/>
      <use x="2324.121094" xlink:href="#DejaVuSans-97"/>
      <use x="2385.400391" xlink:href="#DejaVuSans-118"/>
      <use x="2444.580078" xlink:href="#DejaVuSans-101"/>
      <use x="2506.103516" xlink:href="#DejaVuSans-114"/>
      <use x="2547.216797" xlink:href="#DejaVuSans-97"/>
      <use x="2608.496094" xlink:href="#DejaVuSans-103"/>
      <use x="2671.972656" xlink:href="#DejaVuSans-101"/>
      <use x="2733.496094" xlink:href="#DejaVuSans-41"/>
     </g>
    </g>
    <g id="line2d_20">
     <path d="M 144.572656 67.669531 
L 170.572656 67.669531 
" style="fill:none;stroke:#0d4a70;stroke-linecap:square;stroke-width:4;"/>
    </g>
    <g id="line2d_21"/>
    <g id="text_19">
     <!-- Data: Estimated number of B.1.1.7 cases (7-day average) -->
     <g transform="translate(180.972656 72.219531)scale(0.13 -0.13)">
      <defs>
       <path d="M 9.8125 72.90625 
L 55.90625 72.90625 
L 55.90625 64.59375 
L 19.671875 64.59375 
L 19.671875 43.015625 
L 54.390625 43.015625 
L 54.390625 34.71875 
L 19.671875 34.71875 
L 19.671875 8.296875 
L 56.78125 8.296875 
L 56.78125 0 
L 9.8125 0 
z
" id="DejaVuSans-69"/>
       <path d="M 19.671875 34.8125 
L 19.671875 8.109375 
L 35.5 8.109375 
Q 43.453125 8.109375 47.28125 11.40625 
Q 51.125 14.703125 51.125 21.484375 
Q 51.125 28.328125 47.28125 31.5625 
Q 43.453125 34.8125 35.5 34.8125 
z
M 19.671875 64.796875 
L 19.671875 42.828125 
L 34.28125 42.828125 
Q 41.5 42.828125 45.03125 45.53125 
Q 48.578125 48.25 48.578125 53.8125 
Q 48.578125 59.328125 45.03125 62.0625 
Q 41.5 64.796875 34.28125 64.796875 
z
M 9.8125 72.90625 
L 35.015625 72.90625 
Q 46.296875 72.90625 52.390625 68.21875 
Q 58.5 63.53125 58.5 54.890625 
Q 58.5 48.1875 55.375 44.234375 
Q 52.25 40.28125 46.1875 39.3125 
Q 53.46875 37.75 57.5 32.78125 
Q 61.53125 27.828125 61.53125 20.40625 
Q 61.53125 10.640625 54.890625 5.3125 
Q 48.25 0 35.984375 0 
L 9.8125 0 
z
" id="DejaVuSans-66"/>
       <path d="M 10.6875 12.40625 
L 21 12.40625 
L 21 0 
L 10.6875 0 
z
" id="DejaVuSans-46"/>
      </defs>
      <use xlink:href="#DejaVuSans-68"/>
      <use x="77.001953" xlink:href="#DejaVuSans-97"/>
      <use x="138.28125" xlink:href="#DejaVuSans-116"/>
      <use x="177.490234" xlink:href="#DejaVuSans-97"/>
      <use x="238.769531" xlink:href="#DejaVuSans-58"/>
      <use x="272.460938" xlink:href="#DejaVuSans-32"/>
      <use x="304.248047" xlink:href="#DejaVuSans-69"/>
      <use x="367.431641" xlink:href="#DejaVuSans-115"/>
      <use x="419.53125" xlink:href="#DejaVuSans-116"/>
      <use x="458.740234" xlink:href="#DejaVuSans-105"/>
      <use x="486.523438" xlink:href="#DejaVuSans-109"/>
      <use x="583.935547" xlink:href="#DejaVuSans-97"/>
      <use x="645.214844" xlink:href="#DejaVuSans-116"/>
      <use x="684.423828" xlink:href="#DejaVuSans-101"/>
      <use x="745.947266" xlink:href="#DejaVuSans-100"/>
      <use x="809.423828" xlink:href="#DejaVuSans-32"/>
      <use x="841.210938" xlink:href="#DejaVuSans-110"/>
      <use x="904.589844" xlink:href="#DejaVuSans-117"/>
      <use x="967.96875" xlink:href="#DejaVuSans-109"/>
      <use x="1065.380859" xlink:href="#DejaVuSans-98"/>
      <use x="1128.857422" xlink:href="#DejaVuSans-101"/>
      <use x="1190.380859" xlink:href="#DejaVuSans-114"/>
      <use x="1231.494141" xlink:href="#DejaVuSans-32"/>
      <use x="1263.28125" xlink:href="#DejaVuSans-111"/>
      <use x="1324.462891" xlink:href="#DejaVuSans-102"/>
      <use x="1359.667969" xlink:href="#DejaVuSans-32"/>
      <use x="1391.455078" xlink:href="#DejaVuSans-66"/>
      <use x="1460.058594" xlink:href="#DejaVuSans-46"/>
      <use x="1491.845703" xlink:href="#DejaVuSans-49"/>
      <use x="1555.46875" xlink:href="#DejaVuSans-46"/>
      <use x="1587.255859" xlink:href="#DejaVuSans-49"/>
      <use x="1650.878906" xlink:href="#DejaVuSans-46"/>
      <use x="1682.666016" xlink:href="#DejaVuSans-55"/>
      <use x="1746.289062" xlink:href="#DejaVuSans-32"/>
      <use x="1778.076172" xlink:href="#DejaVuSans-99"/>
      <use x="1833.056641" xlink:href="#DejaVuSans-97"/>
      <use x="1894.335938" xlink:href="#DejaVuSans-115"/>
      <use x="1946.435547" xlink:href="#DejaVuSans-101"/>
      <use x="2007.958984" xlink:href="#DejaVuSans-115"/>
      <use x="2060.058594" xlink:href="#DejaVuSans-32"/>
      <use x="2091.845703" xlink:href="#DejaVuSans-40"/>
      <use x="2130.859375" xlink:href="#DejaVuSans-55"/>
      <use x="2194.482422" xlink:href="#DejaVuSans-45"/>
      <use x="2230.566406" xlink:href="#DejaVuSans-100"/>
      <use x="2294.042969" xlink:href="#DejaVuSans-97"/>
      <use x="2355.322266" xlink:href="#DejaVuSans-121"/>
      <use x="2414.501953" xlink:href="#DejaVuSans-32"/>
      <use x="2446.289062" xlink:href="#DejaVuSans-97"/>
      <use x="2507.568359" xlink:href="#DejaVuSans-118"/>
      <use x="2566.748047" xlink:href="#DejaVuSans-101"/>
      <use x="2628.271484" xlink:href="#DejaVuSans-114"/>
      <use x="2669.384766" xlink:href="#DejaVuSans-97"/>
      <use x="2730.664062" xlink:href="#DejaVuSans-103"/>
      <use x="2794.140625" xlink:href="#DejaVuSans-101"/>
      <use x="2855.664062" xlink:href="#DejaVuSans-41"/>
     </g>
    </g>
   </g>
  </g>
  <g id="axes_2">
   <g id="patch_8">
    <path d="M 622.78 382.04 
L 1137.96 382.04 
L 1137.96 31.56 
L 622.78 31.56 
z
" style="fill:#ffffff;"/>
   </g>
   <g id="matplotlib.axis_3">
    <g id="xtick_7">
     <g id="line2d_22">
      <g>
       <use style="stroke:#000000;stroke-width:0.8;" x="646.197273" xlink:href="#m4d5ad4b6af" y="382.04"/>
      </g>
     </g>
     <g id="text_20">
      <!-- Jan -->
      <g transform="translate(636.177116 398.917969)scale(0.13 -0.13)">
       <use xlink:href="#DejaVuSans-74"/>
       <use x="29.492188" xlink:href="#DejaVuSans-97"/>
       <use x="90.771484" xlink:href="#DejaVuSans-110"/>
      </g>
     </g>
    </g>
    <g id="xtick_8">
     <g id="line2d_23">
      <g>
       <use style="stroke:#000000;stroke-width:0.8;" x="726.158692" xlink:href="#m4d5ad4b6af" y="382.04"/>
      </g>
     </g>
     <g id="text_21">
      <!-- 15 -->
      <g transform="translate(717.887442 398.917969)scale(0.13 -0.13)">
       <use xlink:href="#DejaVuSans-49"/>
       <use x="63.623047" xlink:href="#DejaVuSans-53"/>
      </g>
     </g>
    </g>
    <g id="xtick_9">
     <g id="line2d_24">
      <g>
       <use style="stroke:#000000;stroke-width:0.8;" x="823.254701" xlink:href="#m4d5ad4b6af" y="382.04"/>
      </g>
     </g>
     <g id="text_22">
      <!-- Feb -->
      <g transform="translate(811.747669 398.917969)scale(0.13 -0.13)">
       <use xlink:href="#DejaVuSans-70"/>
       <use x="52.019531" xlink:href="#DejaVuSans-101"/>
       <use x="113.542969" xlink:href="#DejaVuSans-98"/>
      </g>
     </g>
    </g>
    <g id="xtick_10">
     <g id="line2d_25">
      <g>
       <use style="stroke:#000000;stroke-width:0.8;" x="903.21612" xlink:href="#m4d5ad4b6af" y="382.04"/>
      </g>
     </g>
     <g id="text_23">
      <!-- 15 -->
      <g transform="translate(894.94487 398.917969)scale(0.13 -0.13)">
       <use xlink:href="#DejaVuSans-49"/>
       <use x="63.623047" xlink:href="#DejaVuSans-53"/>
      </g>
     </g>
    </g>
    <g id="xtick_11">
     <g id="line2d_26">
      <g>
       <use style="stroke:#000000;stroke-width:0.8;" x="983.177539" xlink:href="#m4d5ad4b6af" y="382.04"/>
      </g>
     </g>
     <g id="text_24">
      <!-- Mar -->
      <g transform="translate(970.913867 398.917969)scale(0.13 -0.13)">
       <use xlink:href="#DejaVuSans-77"/>
       <use x="86.279297" xlink:href="#DejaVuSans-97"/>
       <use x="147.558594" xlink:href="#DejaVuSans-114"/>
      </g>
     </g>
    </g>
    <g id="xtick_12">
     <g id="line2d_27">
      <g>
       <use style="stroke:#000000;stroke-width:0.8;" x="1063.138958" xlink:href="#m4d5ad4b6af" y="382.04"/>
      </g>
     </g>
     <g id="text_25">
      <!-- 15 -->
      <g transform="translate(1054.867708 398.917969)scale(0.13 -0.13)">
       <use xlink:href="#DejaVuSans-49"/>
       <use x="63.623047" xlink:href="#DejaVuSans-53"/>
      </g>
     </g>
    </g>
    <g id="text_26">
     <!-- 2021-Mar -->
     <g transform="translate(1075.6575 414.499531)scale(0.13 -0.13)">
      <use xlink:href="#DejaVuSans-50"/>
      <use x="63.623047" xlink:href="#DejaVuSans-48"/>
      <use x="127.246094" xlink:href="#DejaVuSans-50"/>
      <use x="190.869141" xlink:href="#DejaVuSans-49"/>
      <use x="254.492188" xlink:href="#DejaVuSans-45"/>
      <use x="290.576172" xlink:href="#DejaVuSans-77"/>
      <use x="376.855469" xlink:href="#DejaVuSans-97"/>
      <use x="438.134766" xlink:href="#DejaVuSans-114"/>
     </g>
    </g>
   </g>
   <g id="matplotlib.axis_4">
    <g id="ytick_10">
     <g id="line2d_28">
      <g>
       <use style="stroke:#000000;stroke-width:0.8;" x="622.78" xlink:href="#m24c81cf2c7" y="382.04"/>
      </g>
     </g>
     <g id="text_27">
      <!-- 0 -->
      <g transform="translate(607.50875 386.978984)scale(0.13 -0.13)">
       <use xlink:href="#DejaVuSans-48"/>
      </g>
     </g>
    </g>
    <g id="ytick_11">
     <g id="line2d_29">
      <g>
       <use style="stroke:#000000;stroke-width:0.8;" x="622.78" xlink:href="#m24c81cf2c7" y="338.23"/>
      </g>
     </g>
     <g id="text_28">
      <!-- 500 -->
      <g transform="translate(590.96625 343.168984)scale(0.13 -0.13)">
       <use xlink:href="#DejaVuSans-53"/>
       <use x="63.623047" xlink:href="#DejaVuSans-48"/>
       <use x="127.246094" xlink:href="#DejaVuSans-48"/>
      </g>
     </g>
    </g>
    <g id="ytick_12">
     <g id="line2d_30">
      <g>
       <use style="stroke:#000000;stroke-width:0.8;" x="622.78" xlink:href="#m24c81cf2c7" y="294.42"/>
      </g>
     </g>
     <g id="text_29">
      <!-- 1000 -->
      <g transform="translate(582.695 299.358984)scale(0.13 -0.13)">
       <use xlink:href="#DejaVuSans-49"/>
       <use x="63.623047" xlink:href="#DejaVuSans-48"/>
       <use x="127.246094" xlink:href="#DejaVuSans-48"/>
       <use x="190.869141" xlink:href="#DejaVuSans-48"/>
      </g>
     </g>
    </g>
    <g id="ytick_13">
     <g id="line2d_31">
      <g>
       <use style="stroke:#000000;stroke-width:0.8;" x="622.78" xlink:href="#m24c81cf2c7" y="250.61"/>
      </g>
     </g>
     <g id="text_30">
      <!-- 1500 -->
      <g transform="translate(582.695 255.548984)scale(0.13 -0.13)">
       <use xlink:href="#DejaVuSans-49"/>
       <use x="63.623047" xlink:href="#DejaVuSans-53"/>
       <use x="127.246094" xlink:href="#DejaVuSans-48"/>
       <use x="190.869141" xlink:href="#DejaVuSans-48"/>
      </g>
     </g>
    </g>
    <g id="ytick_14">
     <g id="line2d_32">
      <g>
       <use style="stroke:#000000;stroke-width:0.8;" x="622.78" xlink:href="#m24c81cf2c7" y="206.8"/>
      </g>
     </g>
     <g id="text_31">
      <!-- 2000 -->
      <g transform="translate(582.695 211.738984)scale(0.13 -0.13)">
       <use xlink:href="#DejaVuSans-50"/>
       <use x="63.623047" xlink:href="#DejaVuSans-48"/>
       <use x="127.246094" xlink:href="#DejaVuSans-48"/>
       <use x="190.869141" xlink:href="#DejaVuSans-48"/>
      </g>
     </g>
    </g>
    <g id="ytick_15">
     <g id="line2d_33">
      <g>
       <use style="stroke:#000000;stroke-width:0.8;" x="622.78" xlink:href="#m24c81cf2c7" y="162.99"/>
      </g>
     </g>
     <g id="text_32">
      <!-- 2500 -->
      <g transform="translate(582.695 167.928984)scale(0.13 -0.13)">
       <use xlink:href="#DejaVuSans-50"/>
       <use x="63.623047" xlink:href="#DejaVuSans-53"/>
       <use x="127.246094" xlink:href="#DejaVuSans-48"/>
       <use x="190.869141" xlink:href="#DejaVuSans-48"/>
      </g>
     </g>
    </g>
    <g id="ytick_16">
     <g id="line2d_34">
      <g>
       <use style="stroke:#000000;stroke-width:0.8;" x="622.78" xlink:href="#m24c81cf2c7" y="119.18"/>
      </g>
     </g>
     <g id="text_33">
      <!-- 3000 -->
      <g transform="translate(582.695 124.118984)scale(0.13 -0.13)">
       <use xlink:href="#DejaVuSans-51"/>
       <use x="63.623047" xlink:href="#DejaVuSans-48"/>
       <use x="127.246094" xlink:href="#DejaVuSans-48"/>
       <use x="190.869141" xlink:href="#DejaVuSans-48"/>
      </g>
     </g>
    </g>
    <g id="ytick_17">
     <g id="line2d_35">
      <g>
       <use style="stroke:#000000;stroke-width:0.8;" x="622.78" xlink:href="#m24c81cf2c7" y="75.37"/>
      </g>
     </g>
     <g id="text_34">
      <!-- 3500 -->
      <g transform="translate(582.695 80.308984)scale(0.13 -0.13)">
       <use xlink:href="#DejaVuSans-51"/>
       <use x="63.623047" xlink:href="#DejaVuSans-53"/>
       <use x="127.246094" xlink:href="#DejaVuSans-48"/>
       <use x="190.869141" xlink:href="#DejaVuSans-48"/>
      </g>
     </g>
    </g>
    <g id="ytick_18">
     <g id="line2d_36">
      <g>
       <use style="stroke:#000000;stroke-width:0.8;" x="622.78" xlink:href="#m24c81cf2c7" y="31.56"/>
      </g>
     </g>
     <g id="text_35">
      <!-- 4000 -->
      <g transform="translate(582.695 36.498984)scale(0.13 -0.13)">
       <use xlink:href="#DejaVuSans-52"/>
       <use x="63.623047" xlink:href="#DejaVuSans-48"/>
       <use x="127.246094" xlink:href="#DejaVuSans-48"/>
       <use x="190.869141" xlink:href="#DejaVuSans-48"/>
      </g>
     </g>
    </g>
   </g>
   <g id="line2d_37">
    <path clip-path="url(#peec3779339)" d="M 646.197273 86.460189 
L 651.908803 90.165263 
L 657.620333 100.95504 
L 663.331863 99.427949 
L 669.043392 82.279463 
L 674.754922 95.247223 
L 680.466452 106.800546 
L 686.177982 129.556711 
L 691.889512 149.05842 
L 697.601042 160.161126 
L 703.312572 171.902206 
L 709.024102 183.042463 
L 714.735632 187.360877 
L 720.447162 192.380251 
L 726.158692 198.801546 
L 731.870222 202.256277 
L 737.581752 204.52188 
L 743.293282 206.812517 
L 749.004812 208.339609 
L 754.716341 211.331206 
L 760.427871 213.333949 
L 766.139401 219.041766 
L 771.850931 225.2002 
L 777.562461 230.332229 
L 783.273991 233.78696 
L 788.985521 237.191623 
L 794.697051 238.180477 
L 800.408581 238.105374 
L 806.120111 242.210997 
L 811.831641 244.56422 
L 817.543171 246.329137 
L 823.254701 250.534897 
L 828.966231 253.776837 
L 834.677761 255.4291 
L 840.38929 256.242714 
L 846.10082 261.437329 
L 851.81235 265.230023 
L 857.52388 271.138114 
L 863.23541 274.53026 
L 868.94694 279.224189 
L 874.65847 281.339586 
L 880.37 283.717843 
L 886.08153 289.237903 
L 891.79306 291.853986 
L 897.50459 292.379706 
L 903.21612 294.457551 
L 908.92765 294.908169 
L 914.63918 295.233614 
L 920.35071 294.707894 
L 926.062239 293.406111 
L 931.773769 291.741331 
L 937.485299 293.481214 
L 943.196829 292.041743 
L 948.908359 292.204466 
L 954.619889 291.816434 
L 960.331419 291.541057 
L 966.042949 291.428403 
L 971.754479 291.941606 
L 977.466009 289.888794 
L 983.177539 290.614789 
L 988.889069 288.173946 
L 994.600599 287.635709 
L 1000.312129 287.210126 
L 1006.023659 283.667774 
L 1011.735188 281.702583 
L 1017.446718 279.850046 
L 1023.158248 276.407831 
L 1028.869778 275.606734 
L 1034.581308 273.666577 
L 1040.292838 272.114451 
L 1046.004368 269.373197 
L 1051.715898 266.168809 
L 1057.427428 260.6863 
L 1063.138958 256.881089 
L 1068.850488 254.340109 
L 1074.562018 251.986886 
L 1080.273548 250.96048 
L 1085.985078 246.704651 
L 1091.696608 242.473857 
L 1097.408137 241.259694 
L 1103.119667 235.088743 
L 1108.831197 229.506097 
L 1114.542727 228.542277 
" style="fill:none;stroke:#67916e;stroke-linecap:square;stroke-width:4;"/>
   </g>
   <g id="line2d_38">
    <path clip-path="url(#peec3779339)" d="M 646.197273 379.386366 
L 651.908803 379.4114 
L 657.620333 379.198609 
L 663.331863 378.998334 
L 669.043392 378.410029 
L 674.754922 378.284857 
L 680.466452 378.71044 
L 686.177982 378.322409 
L 691.889512 377.39614 
L 697.601042 376.357217 
L 703.312572 375.4685 
L 709.024102 374.529714 
L 714.735632 374.454611 
L 720.447162 372.864934 
L 726.158692 371.275257 
L 731.870222 370.599331 
L 737.581752 368.609106 
L 743.293282 366.819154 
L 749.004812 365.091789 
L 754.716341 364.102934 
L 760.427871 363.890143 
L 766.139401 362.788634 
L 771.850931 361.36168 
L 777.562461 361.036234 
L 783.273991 357.906949 
L 788.985521 356.392374 
L 794.697051 356.730337 
L 800.408581 357.093334 
L 806.120111 355.40352 
L 811.831641 355.378486 
L 817.543171 354.990454 
L 823.254701 355.766517 
L 828.966231 354.952903 
L 834.677761 352.51206 
L 840.38929 349.745771 
L 846.10082 349.132431 
L 851.81235 348.781951 
L 857.52388 349.345223 
L 863.23541 351.035037 
L 868.94694 352.59968 
L 874.65847 353.525949 
L 880.37 355.365969 
L 886.08153 355.591277 
L 891.79306 354.114254 
L 897.50459 350.959934 
L 903.21612 349.6206 
L 908.92765 345.289669 
L 914.63918 342.197934 
L 920.35071 340.458051 
L 926.062239 337.466454 
L 931.773769 334.98806 
L 937.485299 333.999206 
L 943.196829 332.872663 
L 948.908359 332.79756 
L 954.619889 333.310763 
L 960.331419 331.195366 
L 966.042949 327.477774 
L 971.754479 325.975717 
L 977.466009 323.609977 
L 983.177539 322.28316 
L 988.889069 321.281789 
L 994.600599 319.967489 
L 1000.312129 319.8298 
L 1006.023659 319.754697 
L 1011.735188 315.248526 
L 1017.446718 313.108094 
L 1023.158248 309.953774 
L 1028.869778 308.714577 
L 1034.581308 307.525449 
" style="fill:none;stroke:#0d4a70;stroke-linecap:square;stroke-width:4;"/>
   </g>
   <g id="patch_9">
    <path d="M 622.78 382.04 
L 622.78 31.56 
" style="fill:none;stroke:#000000;stroke-linecap:square;stroke-linejoin:miter;stroke-width:0.8;"/>
   </g>
   <g id="patch_10">
    <path d="M 1137.96 382.04 
L 1137.96 31.56 
" style="fill:none;stroke:#000000;stroke-linecap:square;stroke-linejoin:miter;stroke-width:0.8;"/>
   </g>
   <g id="patch_11">
    <path d="M 622.78 382.04 
L 1137.96 382.04 
" style="fill:none;stroke:#000000;stroke-linecap:square;stroke-linejoin:miter;stroke-width:0.8;"/>
   </g>
   <g id="patch_12">
    <path d="M 622.78 31.56 
L 1137.96 31.56 
" style="fill:none;stroke:#000000;stroke-linecap:square;stroke-linejoin:miter;stroke-width:0.8;"/>
   </g>
   <g id="text_36">
    <!-- Switzerland - data from Risch -->
    <g transform="translate(765.54425 25.56)scale(0.156 -0.156)">
     <defs>
      <path d="M 44.390625 34.1875 
Q 47.5625 33.109375 50.5625 29.59375 
Q 53.5625 26.078125 56.59375 19.921875 
L 66.609375 0 
L 56 0 
L 46.6875 18.703125 
Q 43.0625 26.03125 39.671875 28.421875 
Q 36.28125 30.8125 30.421875 30.8125 
L 19.671875 30.8125 
L 19.671875 0 
L 9.8125 0 
L 9.8125 72.90625 
L 32.078125 72.90625 
Q 44.578125 72.90625 50.734375 67.671875 
Q 56.890625 62.453125 56.890625 51.90625 
Q 56.890625 45.015625 53.6875 40.46875 
Q 50.484375 35.9375 44.390625 34.1875 
z
M 19.671875 64.796875 
L 19.671875 38.921875 
L 32.078125 38.921875 
Q 39.203125 38.921875 42.84375 42.21875 
Q 46.484375 45.515625 46.484375 51.90625 
Q 46.484375 58.296875 42.84375 61.546875 
Q 39.203125 64.796875 32.078125 64.796875 
z
" id="DejaVuSans-82"/>
      <path d="M 54.890625 33.015625 
L 54.890625 0 
L 45.90625 0 
L 45.90625 32.71875 
Q 45.90625 40.484375 42.875 44.328125 
Q 39.84375 48.1875 33.796875 48.1875 
Q 26.515625 48.1875 22.3125 43.546875 
Q 18.109375 38.921875 18.109375 30.90625 
L 18.109375 0 
L 9.078125 0 
L 9.078125 75.984375 
L 18.109375 75.984375 
L 18.109375 46.1875 
Q 21.34375 51.125 25.703125 53.5625 
Q 30.078125 56 35.796875 56 
Q 45.21875 56 50.046875 50.171875 
Q 54.890625 44.34375 54.890625 33.015625 
z
" id="DejaVuSans-104"/>
     </defs>
     <use xlink:href="#DejaVuSans-83"/>
     <use x="63.476562" xlink:href="#DejaVuSans-119"/>
     <use x="145.263672" xlink:href="#DejaVuSans-105"/>
     <use x="173.046875" xlink:href="#DejaVuSans-116"/>
     <use x="212.255859" xlink:href="#DejaVuSans-122"/>
     <use x="264.746094" xlink:href="#DejaVuSans-101"/>
     <use x="326.269531" xlink:href="#DejaVuSans-114"/>
     <use x="367.382812" xlink:href="#DejaVuSans-108"/>
     <use x="395.166016" xlink:href="#DejaVuSans-97"/>
     <use x="456.445312" xlink:href="#DejaVuSans-110"/>
     <use x="519.824219" xlink:href="#DejaVuSans-100"/>
     <use x="583.300781" xlink:href="#DejaVuSans-32"/>
     <use x="615.087891" xlink:href="#DejaVuSans-45"/>
     <use x="651.171875" xlink:href="#DejaVuSans-32"/>
     <use x="682.958984" xlink:href="#DejaVuSans-100"/>
     <use x="746.435547" xlink:href="#DejaVuSans-97"/>
     <use x="807.714844" xlink:href="#DejaVuSans-116"/>
     <use x="846.923828" xlink:href="#DejaVuSans-97"/>
     <use x="908.203125" xlink:href="#DejaVuSans-32"/>
     <use x="939.990234" xlink:href="#DejaVuSans-102"/>
     <use x="975.195312" xlink:href="#DejaVuSans-114"/>
     <use x="1014.058594" xlink:href="#DejaVuSans-111"/>
     <use x="1075.240234" xlink:href="#DejaVuSans-109"/>
     <use x="1172.652344" xlink:href="#DejaVuSans-32"/>
     <use x="1204.439453" xlink:href="#DejaVuSans-82"/>
     <use x="1273.921875" xlink:href="#DejaVuSans-105"/>
     <use x="1301.705078" xlink:href="#DejaVuSans-115"/>
     <use x="1353.804688" xlink:href="#DejaVuSans-99"/>
     <use x="1408.785156" xlink:href="#DejaVuSans-104"/>
    </g>
   </g>
  </g>
 </g>
 <defs>
  <clipPath id="p3d24f93cca">
   <rect height="350.48" width="515.18" x="53.8" y="31.56"/>
  </clipPath>
  <clipPath id="peec3779339">
   <rect height="350.48" width="515.18" x="622.78" y="31.56"/>
  </clipPath>
 </defs>
</svg>
