<?xml version="1.0" encoding="utf-8" standalone="no"?>
<!DOCTYPE svg PUBLIC "-//W3C//DTD SVG 1.1//EN"
  "http://www.w3.org/Graphics/SVG/1.1/DTD/svg11.dtd">
<!-- Created with matplotlib (https://matplotlib.org/) -->
<svg height="288pt" version="1.1" viewBox="0 0 576 288" width="576pt" xmlns="http://www.w3.org/2000/svg" xmlns:xlink="http://www.w3.org/1999/xlink">
 <metadata>
  <rdf:RDF xmlns:cc="http://creativecommons.org/ns#" xmlns:dc="http://purl.org/dc/elements/1.1/" xmlns:rdf="http://www.w3.org/1999/02/22-rdf-syntax-ns#">
   <cc:Work>
    <dc:type rdf:resource="http://purl.org/dc/dcmitype/StillImage"/>
    <dc:date>2021-03-23T01:15:26.015612</dc:date>
    <dc:format>image/svg+xml</dc:format>
    <dc:creator>
     <cc:Agent>
      <dc:title>Matplotlib v3.3.4, https://matplotlib.org/</dc:title>
     </cc:Agent>
    </dc:creator>
   </cc:Work>
  </rdf:RDF>
 </metadata>
 <defs>
  <style type="text/css">*{stroke-linecap:butt;stroke-linejoin:round;}</style>
 </defs>
 <g id="figure_1">
  <g id="patch_1">
   <path d="M 0 288 
L 576 288 
L 576 0 
L 0 0 
z
" style="fill:#ffffff;"/>
  </g>
  <g id="axes_1">
   <g id="patch_2">
    <path d="M 41.56 238.04 
L 561.96 238.04 
L 561.96 31.56 
L 41.56 31.56 
z
" style="fill:#ffffff;"/>
   </g>
   <g id="PolyCollection_1">
    <defs>
     <path d="M 41.56 -51.536608 
L 41.56 -50.885726 
L 45.933109 -50.989153 
L 50.306218 -51.103855 
L 54.679328 -51.231028 
L 59.052437 -51.371989 
L 63.425546 -51.528186 
L 67.798655 -51.701214 
L 72.171765 -51.892825 
L 76.544874 -52.104942 
L 80.917983 -52.339674 
L 85.291092 -52.599335 
L 89.664202 -52.886454 
L 94.037311 -53.203797 
L 98.41042 -53.554382 
L 102.783529 -53.941498 
L 107.156639 -54.368719 
L 111.529748 -54.83993 
L 115.902857 -55.359332 
L 120.275966 -55.931468 
L 124.649076 -56.561231 
L 129.022185 -57.253876 
L 133.395294 -58.015027 
L 137.768403 -58.850682 
L 142.141513 -59.767205 
L 146.514622 -60.771323 
L 150.887731 -61.8701 
L 155.26084 -63.07091 
L 159.63395 -64.381395 
L 164.007059 -65.809405 
L 168.380168 -67.362932 
L 172.753277 -69.050011 
L 177.126387 -70.878613 
L 181.499496 -72.856512 
L 185.872605 -74.991131 
L 190.245714 -77.289364 
L 194.618824 -79.757382 
L 198.991933 -82.400417 
L 203.365042 -85.222532 
L 207.738151 -88.22639 
L 212.111261 -91.413008 
L 216.48437 -94.781547 
L 220.857479 -98.329101 
L 225.230588 -102.050549 
L 229.603697 -105.93845 
L 233.976807 -109.983017 
L 238.349916 -114.172183 
L 242.723025 -118.491754 
L 247.096134 -122.925667 
L 251.469244 -127.456334 
L 255.842353 -132.065039 
L 260.215462 -136.732376 
L 264.588571 -141.438672 
L 268.961681 -146.16437 
L 273.33479 -150.890354 
L 277.707899 -155.598189 
L 282.081008 -160.270303 
L 286.454118 -164.890113 
L 290.827227 -169.442115 
L 295.200336 -173.911946 
L 299.573445 -178.28645 
L 303.946555 -182.553722 
L 308.319664 -186.703159 
L 312.692773 -190.725494 
L 317.065882 -194.612823 
L 321.438992 -198.358615 
L 325.812101 -201.957702 
L 330.18521 -205.406251 
L 334.558319 -208.701722 
L 338.931429 -211.842797 
L 343.304538 -214.829306 
L 347.677647 -217.662132 
L 352.050756 -220.343108 
L 356.423866 -222.874913 
L 360.796975 -225.260962 
L 365.170084 -227.505293 
L 369.543193 -229.61246 
L 373.916303 -231.587435 
L 378.289412 -233.435505 
L 382.662521 -235.162189 
L 387.03563 -236.773154 
L 391.408739 -238.274144 
L 395.781849 -239.670919 
L 400.154958 -240.969199 
L 404.528067 -242.174616 
L 408.901176 -243.292679 
L 413.274286 -244.328744 
L 417.647395 -245.287984 
L 422.020504 -246.175374 
L 426.393613 -246.995678 
L 430.766723 -247.753438 
L 435.139832 -248.45297 
L 439.512941 -249.098362 
L 443.88605 -249.693474 
L 448.25916 -250.241942 
L 452.632269 -250.74718 
L 457.005378 -251.212393 
L 461.378487 -251.640578 
L 465.751597 -252.034533 
L 470.124706 -252.39687 
L 474.497815 -252.730018 
L 478.870924 -253.036239 
L 483.244034 -253.317631 
L 487.617143 -253.576142 
L 491.990252 -253.813576 
L 496.363361 -254.031604 
L 500.736471 -254.231773 
L 505.10958 -254.415509 
L 509.482689 -254.584133 
L 513.855798 -254.738864 
L 518.228908 -254.880823 
L 522.602017 -255.011048 
L 526.975126 -255.130493 
L 531.348235 -255.240036 
L 535.721345 -255.340488 
L 540.094454 -255.432593 
L 544.467563 -255.517036 
L 548.840672 -255.594448 
L 553.213782 -255.665407 
L 557.586891 -255.730448 
L 561.96 -255.790057 
L 561.96 -256.02529 
L 561.96 -256.02529 
L 557.586891 -255.984927 
L 553.213782 -255.940646 
L 548.840672 -255.892068 
L 544.467563 -255.838778 
L 540.094454 -255.780321 
L 535.721345 -255.7162 
L 531.348235 -255.645872 
L 526.975126 -255.568738 
L 522.602017 -255.484147 
L 518.228908 -255.391386 
L 513.855798 -255.289672 
L 509.482689 -255.178154 
L 505.10958 -255.055897 
L 500.736471 -254.921882 
L 496.363361 -254.774997 
L 491.990252 -254.614026 
L 487.617143 -254.437646 
L 483.244034 -254.24441 
L 478.870924 -254.032746 
L 474.497815 -253.80094 
L 470.124706 -253.54713 
L 465.751597 -253.269288 
L 461.378487 -252.965217 
L 457.005378 -252.632532 
L 452.632269 -252.26865 
L 448.25916 -251.870775 
L 443.88605 -251.435888 
L 439.512941 -250.960733 
L 435.139832 -250.441803 
L 430.766723 -249.875333 
L 426.393613 -249.257281 
L 422.020504 -248.583328 
L 417.647395 -247.848863 
L 413.274286 -247.048985 
L 408.901176 -246.178497 
L 404.528067 -245.231908 
L 400.154958 -244.203444 
L 395.781849 -243.087062 
L 391.408739 -241.876465 
L 387.03563 -240.565134 
L 382.662521 -239.146369 
L 378.289412 -237.61333 
L 373.916303 -235.959103 
L 369.543193 -234.17677 
L 365.170084 -232.259496 
L 360.796975 -230.200627 
L 356.423866 -227.993808 
L 352.050756 -225.633112 
L 347.677647 -223.113179 
L 343.304538 -220.429374 
L 338.931429 -217.577949 
L 334.558319 -214.556215 
L 330.18521 -211.362711 
L 325.812101 -207.997376 
L 321.438992 -204.461707 
L 317.065882 -200.758902 
L 312.692773 -196.89398 
L 308.319664 -192.873871 
L 303.946555 -188.707465 
L 299.573445 -184.405621 
L 295.200336 -179.981119 
L 290.827227 -175.448567 
L 286.454118 -170.82425 
L 282.081008 -166.125924 
L 277.707899 -161.372568 
L 273.33479 -156.584087 
L 268.961681 -151.780986 
L 264.588571 -146.98402 
L 260.215462 -142.213841 
L 255.842353 -137.490641 
L 251.469244 -132.833814 
L 247.096134 -128.26165 
L 242.723025 -123.791063 
L 238.349916 -119.43737 
L 233.976807 -115.214113 
L 229.603697 -111.132946 
L 225.230588 -107.203565 
L 220.857479 -103.433701 
L 216.48437 -99.829143 
L 212.111261 -96.393825 
L 207.738151 -93.129922 
L 203.365042 -90.037992 
L 198.991933 -87.117128 
L 194.618824 -84.365121 
L 190.245714 -81.778638 
L 185.872605 -79.353384 
L 181.499496 -77.084279 
L 177.126387 -74.965609 
L 172.753277 -72.991177 
L 168.380168 -71.154438 
L 164.007059 -69.448617 
L 159.63395 -67.86682 
L 155.26084 -66.402121 
L 150.887731 -65.047642 
L 146.514622 -63.796619 
L 142.141513 -62.642454 
L 137.768403 -61.578755 
L 133.395294 -60.599373 
L 129.022185 -59.69842 
L 124.649076 -58.87029 
L 120.275966 -58.109665 
L 115.902857 -57.411521 
L 111.529748 -56.77113 
L 107.156639 -56.184054 
L 102.783529 -55.646139 
L 98.41042 -55.153508 
L 94.037311 -54.702549 
L 89.664202 -54.289905 
L 85.291092 -53.912461 
L 80.917983 -53.567332 
L 76.544874 -53.251851 
L 72.171765 -52.963551 
L 67.798655 -52.70016 
L 63.425546 -52.459583 
L 59.052437 -52.239891 
L 54.679328 -52.039312 
L 50.306218 -51.856215 
L 45.933109 -51.689105 
L 41.56 -51.536608 
z
" id="m4a4d336b18" style="stroke:#bfbfbf;"/>
    </defs>
    <g clip-path="url(#p89e8aa969a)">
     <use style="fill:#bfbfbf;stroke:#bfbfbf;" x="0" xlink:href="#m4a4d336b18" y="288"/>
    </g>
   </g>
   <g id="PolyCollection_2">
    <defs>
     <path d="M 41.56 -51.536608 
L 41.56 -52.187491 
L 45.933109 -52.389057 
L 50.306218 -52.608576 
L 54.679328 -52.847596 
L 59.052437 -53.107794 
L 63.425546 -53.39098 
L 67.798655 -53.699106 
L 72.171765 -54.034277 
L 76.544874 -54.39876 
L 80.917983 -54.794991 
L 85.291092 -55.225587 
L 89.664202 -55.693355 
L 94.037311 -56.2013 
L 98.41042 -56.752633 
L 102.783529 -57.350781 
L 107.156639 -57.999389 
L 111.529748 -58.702331 
L 115.902857 -59.46371 
L 120.275966 -60.287861 
L 124.649076 -61.179348 
L 129.022185 -62.142964 
L 133.395294 -63.183719 
L 137.768403 -64.306829 
L 142.141513 -65.517702 
L 146.514622 -66.821915 
L 150.887731 -68.225184 
L 155.26084 -69.733332 
L 159.63395 -71.352246 
L 164.007059 -73.087829 
L 168.380168 -74.945943 
L 172.753277 -76.932342 
L 177.126387 -79.052604 
L 181.499496 -81.312046 
L 185.872605 -83.715638 
L 190.245714 -86.267912 
L 194.618824 -88.972861 
L 198.991933 -91.833839 
L 203.365042 -94.853451 
L 207.738151 -98.033454 
L 212.111261 -101.374641 
L 216.48437 -104.87674 
L 220.857479 -108.5383 
L 225.230588 -112.356582 
L 229.603697 -116.327442 
L 233.976807 -120.445209 
L 238.349916 -124.702557 
L 242.723025 -129.090373 
L 247.096134 -133.597632 
L 251.469244 -138.211293 
L 255.842353 -142.916243 
L 260.215462 -147.695307 
L 264.588571 -152.529368 
L 268.961681 -157.397601 
L 273.33479 -162.27782 
L 277.707899 -167.146948 
L 282.081008 -171.981545 
L 286.454118 -176.758386 
L 290.827227 -181.45502 
L 295.200336 -186.050292 
L 299.573445 -190.524793 
L 303.946555 -194.861209 
L 308.319664 -199.044583 
L 312.692773 -203.062465 
L 317.065882 -206.90498 
L 321.438992 -210.564799 
L 325.812101 -214.037051 
L 330.18521 -217.319171 
L 334.558319 -220.410708 
L 338.931429 -223.313101 
L 343.304538 -226.029441 
L 347.677647 -228.564225 
L 352.050756 -230.923116 
L 356.423866 -233.112703 
L 360.796975 -235.140291 
L 365.170084 -237.013699 
L 369.543193 -238.74108 
L 373.916303 -240.330771 
L 378.289412 -241.791155 
L 382.662521 -243.130549 
L 387.03563 -244.357115 
L 391.408739 -245.478785 
L 395.781849 -246.503205 
L 400.154958 -247.43769 
L 404.528067 -248.2892 
L 408.901176 -249.064314 
L 413.274286 -249.769227 
L 417.647395 -250.409743 
L 422.020504 -250.991281 
L 426.393613 -251.518884 
L 430.766723 -251.997227 
L 435.139832 -252.430636 
L 439.512941 -252.823103 
L 443.88605 -253.178301 
L 448.25916 -253.499608 
L 452.632269 -253.790119 
L 457.005378 -254.052671 
L 461.378487 -254.289857 
L 465.751597 -254.504043 
L 470.124706 -254.697389 
L 474.497815 -254.871862 
L 478.870924 -255.029253 
L 483.244034 -255.171189 
L 487.617143 -255.299149 
L 491.990252 -255.414476 
L 496.363361 -255.518389 
L 500.736471 -255.611991 
L 505.10958 -255.696284 
L 509.482689 -255.772174 
L 513.855798 -255.840481 
L 518.228908 -255.901948 
L 522.602017 -255.957247 
L 526.975126 -256.006983 
L 531.348235 -256.051707 
L 535.721345 -256.091913 
L 540.094454 -256.128049 
L 544.467563 -256.160519 
L 548.840672 -256.189688 
L 553.213782 -256.215885 
L 557.586891 -256.239407 
L 561.96 -256.260522 
L 561.96 -256.02529 
L 561.96 -256.02529 
L 557.586891 -255.984927 
L 553.213782 -255.940646 
L 548.840672 -255.892068 
L 544.467563 -255.838778 
L 540.094454 -255.780321 
L 535.721345 -255.7162 
L 531.348235 -255.645872 
L 526.975126 -255.568738 
L 522.602017 -255.484147 
L 518.228908 -255.391386 
L 513.855798 -255.289672 
L 509.482689 -255.178154 
L 505.10958 -255.055897 
L 500.736471 -254.921882 
L 496.363361 -254.774997 
L 491.990252 -254.614026 
L 487.617143 -254.437646 
L 483.244034 -254.24441 
L 478.870924 -254.032746 
L 474.497815 -253.80094 
L 470.124706 -253.54713 
L 465.751597 -253.269288 
L 461.378487 -252.965217 
L 457.005378 -252.632532 
L 452.632269 -252.26865 
L 448.25916 -251.870775 
L 443.88605 -251.435888 
L 439.512941 -250.960733 
L 435.139832 -250.441803 
L 430.766723 -249.875333 
L 426.393613 -249.257281 
L 422.020504 -248.583328 
L 417.647395 -247.848863 
L 413.274286 -247.048985 
L 408.901176 -246.178497 
L 404.528067 -245.231908 
L 400.154958 -244.203444 
L 395.781849 -243.087062 
L 391.408739 -241.876465 
L 387.03563 -240.565134 
L 382.662521 -239.146369 
L 378.289412 -237.61333 
L 373.916303 -235.959103 
L 369.543193 -234.17677 
L 365.170084 -232.259496 
L 360.796975 -230.200627 
L 356.423866 -227.993808 
L 352.050756 -225.633112 
L 347.677647 -223.113179 
L 343.304538 -220.429374 
L 338.931429 -217.577949 
L 334.558319 -214.556215 
L 330.18521 -211.362711 
L 325.812101 -207.997376 
L 321.438992 -204.461707 
L 317.065882 -200.758902 
L 312.692773 -196.89398 
L 308.319664 -192.873871 
L 303.946555 -188.707465 
L 299.573445 -184.405621 
L 295.200336 -179.981119 
L 290.827227 -175.448567 
L 286.454118 -170.82425 
L 282.081008 -166.125924 
L 277.707899 -161.372568 
L 273.33479 -156.584087 
L 268.961681 -151.780986 
L 264.588571 -146.98402 
L 260.215462 -142.213841 
L 255.842353 -137.490641 
L 251.469244 -132.833814 
L 247.096134 -128.26165 
L 242.723025 -123.791063 
L 238.349916 -119.43737 
L 233.976807 -115.214113 
L 229.603697 -111.132946 
L 225.230588 -107.203565 
L 220.857479 -103.433701 
L 216.48437 -99.829143 
L 212.111261 -96.393825 
L 207.738151 -93.129922 
L 203.365042 -90.037992 
L 198.991933 -87.117128 
L 194.618824 -84.365121 
L 190.245714 -81.778638 
L 185.872605 -79.353384 
L 181.499496 -77.084279 
L 177.126387 -74.965609 
L 172.753277 -72.991177 
L 168.380168 -71.154438 
L 164.007059 -69.448617 
L 159.63395 -67.86682 
L 155.26084 -66.402121 
L 150.887731 -65.047642 
L 146.514622 -63.796619 
L 142.141513 -62.642454 
L 137.768403 -61.578755 
L 133.395294 -60.599373 
L 129.022185 -59.69842 
L 124.649076 -58.87029 
L 120.275966 -58.109665 
L 115.902857 -57.411521 
L 111.529748 -56.77113 
L 107.156639 -56.184054 
L 102.783529 -55.646139 
L 98.41042 -55.153508 
L 94.037311 -54.702549 
L 89.664202 -54.289905 
L 85.291092 -53.912461 
L 80.917983 -53.567332 
L 76.544874 -53.251851 
L 72.171765 -52.963551 
L 67.798655 -52.70016 
L 63.425546 -52.459583 
L 59.052437 -52.239891 
L 54.679328 -52.039312 
L 50.306218 -51.856215 
L 45.933109 -51.689105 
L 41.56 -51.536608 
z
" id="m060da2bff0" style="stroke:#bfbfbf;"/>
    </defs>
    <g clip-path="url(#p89e8aa969a)">
     <use style="fill:#bfbfbf;stroke:#bfbfbf;" x="0" xlink:href="#m060da2bff0" y="288"/>
    </g>
   </g>
   <g id="matplotlib.axis_1">
    <g id="xtick_1">
     <g id="line2d_1">
      <defs>
       <path d="M 0 0 
L 0 3.5 
" id="meedfa9e4d6" style="stroke:#000000;stroke-width:0.8;"/>
      </defs>
      <g>
       <use style="stroke:#000000;stroke-width:0.8;" x="45.933109" xlink:href="#meedfa9e4d6" y="238.04"/>
      </g>
     </g>
     <g id="text_1">
      <!-- 15 -->
      <g transform="translate(37.661859 254.917969)scale(0.13 -0.13)">
       <defs>
        <path d="M 12.40625 8.296875 
L 28.515625 8.296875 
L 28.515625 63.921875 
L 10.984375 60.40625 
L 10.984375 69.390625 
L 28.421875 72.90625 
L 38.28125 72.90625 
L 38.28125 8.296875 
L 54.390625 8.296875 
L 54.390625 0 
L 12.40625 0 
z
" id="DejaVuSans-49"/>
        <path d="M 10.796875 72.90625 
L 49.515625 72.90625 
L 49.515625 64.59375 
L 19.828125 64.59375 
L 19.828125 46.734375 
Q 21.96875 47.46875 24.109375 47.828125 
Q 26.265625 48.1875 28.421875 48.1875 
Q 40.625 48.1875 47.75 41.5 
Q 54.890625 34.8125 54.890625 23.390625 
Q 54.890625 11.625 47.5625 5.09375 
Q 40.234375 -1.421875 26.90625 -1.421875 
Q 22.3125 -1.421875 17.546875 -0.640625 
Q 12.796875 0.140625 7.71875 1.703125 
L 7.71875 11.625 
Q 12.109375 9.234375 16.796875 8.0625 
Q 21.484375 6.890625 26.703125 6.890625 
Q 35.15625 6.890625 40.078125 11.328125 
Q 45.015625 15.765625 45.015625 23.390625 
Q 45.015625 31 40.078125 35.4375 
Q 35.15625 39.890625 26.703125 39.890625 
Q 22.75 39.890625 18.8125 39.015625 
Q 14.890625 38.140625 10.796875 36.28125 
z
" id="DejaVuSans-53"/>
       </defs>
       <use xlink:href="#DejaVuSans-49"/>
       <use x="63.623047" xlink:href="#DejaVuSans-53"/>
      </g>
     </g>
    </g>
    <g id="xtick_2">
     <g id="line2d_2">
      <g>
       <use style="stroke:#000000;stroke-width:0.8;" x="120.275966" xlink:href="#meedfa9e4d6" y="238.04"/>
      </g>
     </g>
     <g id="text_2">
      <!-- Jan -->
      <g transform="translate(110.25581 254.917969)scale(0.13 -0.13)">
       <defs>
        <path d="M 9.8125 72.90625 
L 19.671875 72.90625 
L 19.671875 5.078125 
Q 19.671875 -8.109375 14.671875 -14.0625 
Q 9.671875 -20.015625 -1.421875 -20.015625 
L -5.171875 -20.015625 
L -5.171875 -11.71875 
L -2.09375 -11.71875 
Q 4.4375 -11.71875 7.125 -8.046875 
Q 9.8125 -4.390625 9.8125 5.078125 
z
" id="DejaVuSans-74"/>
        <path d="M 34.28125 27.484375 
Q 23.390625 27.484375 19.1875 25 
Q 14.984375 22.515625 14.984375 16.5 
Q 14.984375 11.71875 18.140625 8.90625 
Q 21.296875 6.109375 26.703125 6.109375 
Q 34.1875 6.109375 38.703125 11.40625 
Q 43.21875 16.703125 43.21875 25.484375 
L 43.21875 27.484375 
z
M 52.203125 31.203125 
L 52.203125 0 
L 43.21875 0 
L 43.21875 8.296875 
Q 40.140625 3.328125 35.546875 0.953125 
Q 30.953125 -1.421875 24.3125 -1.421875 
Q 15.921875 -1.421875 10.953125 3.296875 
Q 6 8.015625 6 15.921875 
Q 6 25.140625 12.171875 29.828125 
Q 18.359375 34.515625 30.609375 34.515625 
L 43.21875 34.515625 
L 43.21875 35.40625 
Q 43.21875 41.609375 39.140625 45 
Q 35.0625 48.390625 27.6875 48.390625 
Q 23 48.390625 18.546875 47.265625 
Q 14.109375 46.140625 10.015625 43.890625 
L 10.015625 52.203125 
Q 14.9375 54.109375 19.578125 55.046875 
Q 24.21875 56 28.609375 56 
Q 40.484375 56 46.34375 49.84375 
Q 52.203125 43.703125 52.203125 31.203125 
z
" id="DejaVuSans-97"/>
        <path d="M 54.890625 33.015625 
L 54.890625 0 
L 45.90625 0 
L 45.90625 32.71875 
Q 45.90625 40.484375 42.875 44.328125 
Q 39.84375 48.1875 33.796875 48.1875 
Q 26.515625 48.1875 22.3125 43.546875 
Q 18.109375 38.921875 18.109375 30.90625 
L 18.109375 0 
L 9.078125 0 
L 9.078125 54.6875 
L 18.109375 54.6875 
L 18.109375 46.1875 
Q 21.34375 51.125 25.703125 53.5625 
Q 30.078125 56 35.796875 56 
Q 45.21875 56 50.046875 50.171875 
Q 54.890625 44.34375 54.890625 33.015625 
z
" id="DejaVuSans-110"/>
       </defs>
       <use xlink:href="#DejaVuSans-74"/>
       <use x="29.492188" xlink:href="#DejaVuSans-97"/>
       <use x="90.771484" xlink:href="#DejaVuSans-110"/>
      </g>
     </g>
    </g>
    <g id="xtick_3">
     <g id="line2d_3">
      <g>
       <use style="stroke:#000000;stroke-width:0.8;" x="181.499496" xlink:href="#meedfa9e4d6" y="238.04"/>
      </g>
     </g>
     <g id="text_3">
      <!-- 15 -->
      <g transform="translate(173.228246 254.917969)scale(0.13 -0.13)">
       <use xlink:href="#DejaVuSans-49"/>
       <use x="63.623047" xlink:href="#DejaVuSans-53"/>
      </g>
     </g>
    </g>
    <g id="xtick_4">
     <g id="line2d_4">
      <g>
       <use style="stroke:#000000;stroke-width:0.8;" x="255.842353" xlink:href="#meedfa9e4d6" y="238.04"/>
      </g>
     </g>
     <g id="text_4">
      <!-- Feb -->
      <g transform="translate(244.335322 254.917969)scale(0.13 -0.13)">
       <defs>
        <path d="M 9.8125 72.90625 
L 51.703125 72.90625 
L 51.703125 64.59375 
L 19.671875 64.59375 
L 19.671875 43.109375 
L 48.578125 43.109375 
L 48.578125 34.8125 
L 19.671875 34.8125 
L 19.671875 0 
L 9.8125 0 
z
" id="DejaVuSans-70"/>
        <path d="M 56.203125 29.59375 
L 56.203125 25.203125 
L 14.890625 25.203125 
Q 15.484375 15.921875 20.484375 11.0625 
Q 25.484375 6.203125 34.421875 6.203125 
Q 39.59375 6.203125 44.453125 7.46875 
Q 49.3125 8.734375 54.109375 11.28125 
L 54.109375 2.78125 
Q 49.265625 0.734375 44.1875 -0.34375 
Q 39.109375 -1.421875 33.890625 -1.421875 
Q 20.796875 -1.421875 13.15625 6.1875 
Q 5.515625 13.8125 5.515625 26.8125 
Q 5.515625 40.234375 12.765625 48.109375 
Q 20.015625 56 32.328125 56 
Q 43.359375 56 49.78125 48.890625 
Q 56.203125 41.796875 56.203125 29.59375 
z
M 47.21875 32.234375 
Q 47.125 39.59375 43.09375 43.984375 
Q 39.0625 48.390625 32.421875 48.390625 
Q 24.90625 48.390625 20.390625 44.140625 
Q 15.875 39.890625 15.1875 32.171875 
z
" id="DejaVuSans-101"/>
        <path d="M 48.6875 27.296875 
Q 48.6875 37.203125 44.609375 42.84375 
Q 40.53125 48.484375 33.40625 48.484375 
Q 26.265625 48.484375 22.1875 42.84375 
Q 18.109375 37.203125 18.109375 27.296875 
Q 18.109375 17.390625 22.1875 11.75 
Q 26.265625 6.109375 33.40625 6.109375 
Q 40.53125 6.109375 44.609375 11.75 
Q 48.6875 17.390625 48.6875 27.296875 
z
M 18.109375 46.390625 
Q 20.953125 51.265625 25.265625 53.625 
Q 29.59375 56 35.59375 56 
Q 45.5625 56 51.78125 48.09375 
Q 58.015625 40.1875 58.015625 27.296875 
Q 58.015625 14.40625 51.78125 6.484375 
Q 45.5625 -1.421875 35.59375 -1.421875 
Q 29.59375 -1.421875 25.265625 0.953125 
Q 20.953125 3.328125 18.109375 8.203125 
L 18.109375 0 
L 9.078125 0 
L 9.078125 75.984375 
L 18.109375 75.984375 
z
" id="DejaVuSans-98"/>
       </defs>
       <use xlink:href="#DejaVuSans-70"/>
       <use x="52.019531" xlink:href="#DejaVuSans-101"/>
       <use x="113.542969" xlink:href="#DejaVuSans-98"/>
      </g>
     </g>
    </g>
    <g id="xtick_5">
     <g id="line2d_5">
      <g>
       <use style="stroke:#000000;stroke-width:0.8;" x="317.065882" xlink:href="#meedfa9e4d6" y="238.04"/>
      </g>
     </g>
     <g id="text_5">
      <!-- 15 -->
      <g transform="translate(308.794632 254.917969)scale(0.13 -0.13)">
       <use xlink:href="#DejaVuSans-49"/>
       <use x="63.623047" xlink:href="#DejaVuSans-53"/>
      </g>
     </g>
    </g>
    <g id="xtick_6">
     <g id="line2d_6">
      <g>
       <use style="stroke:#000000;stroke-width:0.8;" x="378.289412" xlink:href="#meedfa9e4d6" y="238.04"/>
      </g>
     </g>
     <g id="text_6">
      <!-- Mar -->
      <g transform="translate(366.02574 254.917969)scale(0.13 -0.13)">
       <defs>
        <path d="M 9.8125 72.90625 
L 24.515625 72.90625 
L 43.109375 23.296875 
L 61.8125 72.90625 
L 76.515625 72.90625 
L 76.515625 0 
L 66.890625 0 
L 66.890625 64.015625 
L 48.09375 14.015625 
L 38.1875 14.015625 
L 19.390625 64.015625 
L 19.390625 0 
L 9.8125 0 
z
" id="DejaVuSans-77"/>
        <path d="M 41.109375 46.296875 
Q 39.59375 47.171875 37.8125 47.578125 
Q 36.03125 48 33.890625 48 
Q 26.265625 48 22.1875 43.046875 
Q 18.109375 38.09375 18.109375 28.8125 
L 18.109375 0 
L 9.078125 0 
L 9.078125 54.6875 
L 18.109375 54.6875 
L 18.109375 46.1875 
Q 20.953125 51.171875 25.484375 53.578125 
Q 30.03125 56 36.53125 56 
Q 37.453125 56 38.578125 55.875 
Q 39.703125 55.765625 41.0625 55.515625 
z
" id="DejaVuSans-114"/>
       </defs>
       <use xlink:href="#DejaVuSans-77"/>
       <use x="86.279297" xlink:href="#DejaVuSans-97"/>
       <use x="147.558594" xlink:href="#DejaVuSans-114"/>
      </g>
     </g>
    </g>
    <g id="xtick_7">
     <g id="line2d_7">
      <g>
       <use style="stroke:#000000;stroke-width:0.8;" x="439.512941" xlink:href="#meedfa9e4d6" y="238.04"/>
      </g>
     </g>
     <g id="text_7">
      <!-- 15 -->
      <g transform="translate(431.241691 254.917969)scale(0.13 -0.13)">
       <use xlink:href="#DejaVuSans-49"/>
       <use x="63.623047" xlink:href="#DejaVuSans-53"/>
      </g>
     </g>
    </g>
    <g id="xtick_8">
     <g id="line2d_8">
      <g>
       <use style="stroke:#000000;stroke-width:0.8;" x="513.855798" xlink:href="#meedfa9e4d6" y="238.04"/>
      </g>
     </g>
     <g id="text_8">
      <!-- Apr -->
      <g transform="translate(502.610798 254.917969)scale(0.13 -0.13)">
       <defs>
        <path d="M 34.1875 63.1875 
L 20.796875 26.90625 
L 47.609375 26.90625 
z
M 28.609375 72.90625 
L 39.796875 72.90625 
L 67.578125 0 
L 57.328125 0 
L 50.6875 18.703125 
L 17.828125 18.703125 
L 11.1875 0 
L 0.78125 0 
z
" id="DejaVuSans-65"/>
        <path d="M 18.109375 8.203125 
L 18.109375 -20.796875 
L 9.078125 -20.796875 
L 9.078125 54.6875 
L 18.109375 54.6875 
L 18.109375 46.390625 
Q 20.953125 51.265625 25.265625 53.625 
Q 29.59375 56 35.59375 56 
Q 45.5625 56 51.78125 48.09375 
Q 58.015625 40.1875 58.015625 27.296875 
Q 58.015625 14.40625 51.78125 6.484375 
Q 45.5625 -1.421875 35.59375 -1.421875 
Q 29.59375 -1.421875 25.265625 0.953125 
Q 20.953125 3.328125 18.109375 8.203125 
z
M 48.6875 27.296875 
Q 48.6875 37.203125 44.609375 42.84375 
Q 40.53125 48.484375 33.40625 48.484375 
Q 26.265625 48.484375 22.1875 42.84375 
Q 18.109375 37.203125 18.109375 27.296875 
Q 18.109375 17.390625 22.1875 11.75 
Q 26.265625 6.109375 33.40625 6.109375 
Q 40.53125 6.109375 44.609375 11.75 
Q 48.6875 17.390625 48.6875 27.296875 
z
" id="DejaVuSans-112"/>
       </defs>
       <use xlink:href="#DejaVuSans-65"/>
       <use x="68.408203" xlink:href="#DejaVuSans-112"/>
       <use x="131.884766" xlink:href="#DejaVuSans-114"/>
      </g>
     </g>
    </g>
    <g id="text_9">
     <!-- 2021-Apr -->
     <g transform="translate(501.987344 270.499531)scale(0.13 -0.13)">
      <defs>
       <path d="M 19.1875 8.296875 
L 53.609375 8.296875 
L 53.609375 0 
L 7.328125 0 
L 7.328125 8.296875 
Q 12.9375 14.109375 22.625 23.890625 
Q 32.328125 33.6875 34.8125 36.53125 
Q 39.546875 41.84375 41.421875 45.53125 
Q 43.3125 49.21875 43.3125 52.78125 
Q 43.3125 58.59375 39.234375 62.25 
Q 35.15625 65.921875 28.609375 65.921875 
Q 23.96875 65.921875 18.8125 64.3125 
Q 13.671875 62.703125 7.8125 59.421875 
L 7.8125 69.390625 
Q 13.765625 71.78125 18.9375 73 
Q 24.125 74.21875 28.421875 74.21875 
Q 39.75 74.21875 46.484375 68.546875 
Q 53.21875 62.890625 53.21875 53.421875 
Q 53.21875 48.921875 51.53125 44.890625 
Q 49.859375 40.875 45.40625 35.40625 
Q 44.1875 33.984375 37.640625 27.21875 
Q 31.109375 20.453125 19.1875 8.296875 
z
" id="DejaVuSans-50"/>
       <path d="M 31.78125 66.40625 
Q 24.171875 66.40625 20.328125 58.90625 
Q 16.5 51.421875 16.5 36.375 
Q 16.5 21.390625 20.328125 13.890625 
Q 24.171875 6.390625 31.78125 6.390625 
Q 39.453125 6.390625 43.28125 13.890625 
Q 47.125 21.390625 47.125 36.375 
Q 47.125 51.421875 43.28125 58.90625 
Q 39.453125 66.40625 31.78125 66.40625 
z
M 31.78125 74.21875 
Q 44.046875 74.21875 50.515625 64.515625 
Q 56.984375 54.828125 56.984375 36.375 
Q 56.984375 17.96875 50.515625 8.265625 
Q 44.046875 -1.421875 31.78125 -1.421875 
Q 19.53125 -1.421875 13.0625 8.265625 
Q 6.59375 17.96875 6.59375 36.375 
Q 6.59375 54.828125 13.0625 64.515625 
Q 19.53125 74.21875 31.78125 74.21875 
z
" id="DejaVuSans-48"/>
       <path d="M 4.890625 31.390625 
L 31.203125 31.390625 
L 31.203125 23.390625 
L 4.890625 23.390625 
z
" id="DejaVuSans-45"/>
      </defs>
      <use xlink:href="#DejaVuSans-50"/>
      <use x="63.623047" xlink:href="#DejaVuSans-48"/>
      <use x="127.246094" xlink:href="#DejaVuSans-50"/>
      <use x="190.869141" xlink:href="#DejaVuSans-49"/>
      <use x="254.492188" xlink:href="#DejaVuSans-45"/>
      <use x="288.326172" xlink:href="#DejaVuSans-65"/>
      <use x="356.734375" xlink:href="#DejaVuSans-112"/>
      <use x="420.210938" xlink:href="#DejaVuSans-114"/>
     </g>
    </g>
   </g>
   <g id="matplotlib.axis_2">
    <g id="ytick_1">
     <g id="line2d_9">
      <defs>
       <path d="M 0 0 
L -3.5 0 
" id="mceec30e042" style="stroke:#000000;stroke-width:0.8;"/>
      </defs>
      <g>
       <use style="stroke:#000000;stroke-width:0.8;" x="41.56" xlink:href="#mceec30e042" y="238.04"/>
      </g>
     </g>
     <g id="text_10">
      <!-- 0.0 -->
      <g transform="translate(13.885938 242.978984)scale(0.13 -0.13)">
       <defs>
        <path d="M 10.6875 12.40625 
L 21 12.40625 
L 21 0 
L 10.6875 0 
z
" id="DejaVuSans-46"/>
       </defs>
       <use xlink:href="#DejaVuSans-48"/>
       <use x="63.623047" xlink:href="#DejaVuSans-46"/>
       <use x="95.410156" xlink:href="#DejaVuSans-48"/>
      </g>
     </g>
    </g>
    <g id="ytick_2">
     <g id="line2d_10">
      <g>
       <use style="stroke:#000000;stroke-width:0.8;" x="41.56" xlink:href="#mceec30e042" y="196.744"/>
      </g>
     </g>
     <g id="text_11">
      <!-- 0.2 -->
      <g transform="translate(13.885938 201.682984)scale(0.13 -0.13)">
       <use xlink:href="#DejaVuSans-48"/>
       <use x="63.623047" xlink:href="#DejaVuSans-46"/>
       <use x="95.410156" xlink:href="#DejaVuSans-50"/>
      </g>
     </g>
    </g>
    <g id="ytick_3">
     <g id="line2d_11">
      <g>
       <use style="stroke:#000000;stroke-width:0.8;" x="41.56" xlink:href="#mceec30e042" y="155.448"/>
      </g>
     </g>
     <g id="text_12">
      <!-- 0.4 -->
      <g transform="translate(13.885938 160.386984)scale(0.13 -0.13)">
       <defs>
        <path d="M 37.796875 64.3125 
L 12.890625 25.390625 
L 37.796875 25.390625 
z
M 35.203125 72.90625 
L 47.609375 72.90625 
L 47.609375 25.390625 
L 58.015625 25.390625 
L 58.015625 17.1875 
L 47.609375 17.1875 
L 47.609375 0 
L 37.796875 0 
L 37.796875 17.1875 
L 4.890625 17.1875 
L 4.890625 26.703125 
z
" id="DejaVuSans-52"/>
       </defs>
       <use xlink:href="#DejaVuSans-48"/>
       <use x="63.623047" xlink:href="#DejaVuSans-46"/>
       <use x="95.410156" xlink:href="#DejaVuSans-52"/>
      </g>
     </g>
    </g>
    <g id="ytick_4">
     <g id="line2d_12">
      <g>
       <use style="stroke:#000000;stroke-width:0.8;" x="41.56" xlink:href="#mceec30e042" y="114.152"/>
      </g>
     </g>
     <g id="text_13">
      <!-- 0.6 -->
      <g transform="translate(13.885938 119.090984)scale(0.13 -0.13)">
       <defs>
        <path d="M 33.015625 40.375 
Q 26.375 40.375 22.484375 35.828125 
Q 18.609375 31.296875 18.609375 23.390625 
Q 18.609375 15.53125 22.484375 10.953125 
Q 26.375 6.390625 33.015625 6.390625 
Q 39.65625 6.390625 43.53125 10.953125 
Q 47.40625 15.53125 47.40625 23.390625 
Q 47.40625 31.296875 43.53125 35.828125 
Q 39.65625 40.375 33.015625 40.375 
z
M 52.59375 71.296875 
L 52.59375 62.3125 
Q 48.875 64.0625 45.09375 64.984375 
Q 41.3125 65.921875 37.59375 65.921875 
Q 27.828125 65.921875 22.671875 59.328125 
Q 17.53125 52.734375 16.796875 39.40625 
Q 19.671875 43.65625 24.015625 45.921875 
Q 28.375 48.1875 33.59375 48.1875 
Q 44.578125 48.1875 50.953125 41.515625 
Q 57.328125 34.859375 57.328125 23.390625 
Q 57.328125 12.15625 50.6875 5.359375 
Q 44.046875 -1.421875 33.015625 -1.421875 
Q 20.359375 -1.421875 13.671875 8.265625 
Q 6.984375 17.96875 6.984375 36.375 
Q 6.984375 53.65625 15.1875 63.9375 
Q 23.390625 74.21875 37.203125 74.21875 
Q 40.921875 74.21875 44.703125 73.484375 
Q 48.484375 72.75 52.59375 71.296875 
z
" id="DejaVuSans-54"/>
       </defs>
       <use xlink:href="#DejaVuSans-48"/>
       <use x="63.623047" xlink:href="#DejaVuSans-46"/>
       <use x="95.410156" xlink:href="#DejaVuSans-54"/>
      </g>
     </g>
    </g>
    <g id="ytick_5">
     <g id="line2d_13">
      <g>
       <use style="stroke:#000000;stroke-width:0.8;" x="41.56" xlink:href="#mceec30e042" y="72.856"/>
      </g>
     </g>
     <g id="text_14">
      <!-- 0.8 -->
      <g transform="translate(13.885938 77.794984)scale(0.13 -0.13)">
       <defs>
        <path d="M 31.78125 34.625 
Q 24.75 34.625 20.71875 30.859375 
Q 16.703125 27.09375 16.703125 20.515625 
Q 16.703125 13.921875 20.71875 10.15625 
Q 24.75 6.390625 31.78125 6.390625 
Q 38.8125 6.390625 42.859375 10.171875 
Q 46.921875 13.96875 46.921875 20.515625 
Q 46.921875 27.09375 42.890625 30.859375 
Q 38.875 34.625 31.78125 34.625 
z
M 21.921875 38.8125 
Q 15.578125 40.375 12.03125 44.71875 
Q 8.5 49.078125 8.5 55.328125 
Q 8.5 64.0625 14.71875 69.140625 
Q 20.953125 74.21875 31.78125 74.21875 
Q 42.671875 74.21875 48.875 69.140625 
Q 55.078125 64.0625 55.078125 55.328125 
Q 55.078125 49.078125 51.53125 44.71875 
Q 48 40.375 41.703125 38.8125 
Q 48.828125 37.15625 52.796875 32.3125 
Q 56.78125 27.484375 56.78125 20.515625 
Q 56.78125 9.90625 50.3125 4.234375 
Q 43.84375 -1.421875 31.78125 -1.421875 
Q 19.734375 -1.421875 13.25 4.234375 
Q 6.78125 9.90625 6.78125 20.515625 
Q 6.78125 27.484375 10.78125 32.3125 
Q 14.796875 37.15625 21.921875 38.8125 
z
M 18.3125 54.390625 
Q 18.3125 48.734375 21.84375 45.5625 
Q 25.390625 42.390625 31.78125 42.390625 
Q 38.140625 42.390625 41.71875 45.5625 
Q 45.3125 48.734375 45.3125 54.390625 
Q 45.3125 60.0625 41.71875 63.234375 
Q 38.140625 66.40625 31.78125 66.40625 
Q 25.390625 66.40625 21.84375 63.234375 
Q 18.3125 60.0625 18.3125 54.390625 
z
" id="DejaVuSans-56"/>
       </defs>
       <use xlink:href="#DejaVuSans-48"/>
       <use x="63.623047" xlink:href="#DejaVuSans-46"/>
       <use x="95.410156" xlink:href="#DejaVuSans-56"/>
      </g>
     </g>
    </g>
    <g id="ytick_6">
     <g id="line2d_14">
      <g>
       <use style="stroke:#000000;stroke-width:0.8;" x="41.56" xlink:href="#mceec30e042" y="31.56"/>
      </g>
     </g>
     <g id="text_15">
      <!-- 1.0 -->
      <g transform="translate(13.885938 36.498984)scale(0.13 -0.13)">
       <use xlink:href="#DejaVuSans-49"/>
       <use x="63.623047" xlink:href="#DejaVuSans-46"/>
       <use x="95.410156" xlink:href="#DejaVuSans-48"/>
      </g>
     </g>
    </g>
   </g>
   <g id="LineCollection_1">
    <path clip-path="url(#p89e8aa969a)" d="M 80.917983 238.04 
L 80.917983 74.208302 
" style="fill:none;stroke:#0d4a70;stroke-width:1.5;"/>
    <path clip-path="url(#p89e8aa969a)" d="M 85.291092 238.04 
L 85.291092 190.942868 
" style="fill:none;stroke:#0d4a70;stroke-width:1.5;"/>
    <path clip-path="url(#p89e8aa969a)" d="M 89.664202 238.04 
L 89.664202 180.735027 
" style="fill:none;stroke:#0d4a70;stroke-width:1.5;"/>
    <path clip-path="url(#p89e8aa969a)" d="M 94.037311 209.784392 
L 94.037311 94.68969 
" style="fill:none;stroke:#0d4a70;stroke-width:1.5;"/>
    <path clip-path="url(#p89e8aa969a)" d="M 98.41042 238.04 
L 98.41042 102.254669 
" style="fill:none;stroke:#0d4a70;stroke-width:1.5;"/>
    <path clip-path="url(#p89e8aa969a)" d="M 102.783529 236.000971 
L 102.783529 184.856325 
" style="fill:none;stroke:#0d4a70;stroke-width:1.5;"/>
    <path clip-path="url(#p89e8aa969a)" d="M 107.156639 238.04 
L 107.156639 148.328061 
" style="fill:none;stroke:#0d4a70;stroke-width:1.5;"/>
    <path clip-path="url(#p89e8aa969a)" d="M 111.529748 238.04 
L 111.529748 74.208302 
" style="fill:none;stroke:#0d4a70;stroke-width:1.5;"/>
    <path clip-path="url(#p89e8aa969a)" d="M 115.902857 233.047313 
L 115.902857 182.711658 
" style="fill:none;stroke:#0d4a70;stroke-width:1.5;"/>
    <path clip-path="url(#p89e8aa969a)" d="M 120.275966 236.446663 
L 120.275966 194.697463 
" style="fill:none;stroke:#0d4a70;stroke-width:1.5;"/>
    <path clip-path="url(#p89e8aa969a)" d="M 124.649076 238.04 
L 124.649076 203.314354 
" style="fill:none;stroke:#0d4a70;stroke-width:1.5;"/>
    <path clip-path="url(#p89e8aa969a)" d="M 142.141513 195.391698 
L 142.141513 31.56 
" style="fill:none;stroke:#0d4a70;stroke-width:1.5;"/>
    <path clip-path="url(#p89e8aa969a)" d="M 150.887731 218.058639 
L 150.887731 93.50262 
" style="fill:none;stroke:#0d4a70;stroke-width:1.5;"/>
    <path clip-path="url(#p89e8aa969a)" d="M 155.26084 236.859508 
L 155.26084 204.602412 
" style="fill:none;stroke:#0d4a70;stroke-width:1.5;"/>
    <path clip-path="url(#p89e8aa969a)" d="M 159.63395 219.98247 
L 159.63395 172.06966 
" style="fill:none;stroke:#0d4a70;stroke-width:1.5;"/>
    <path clip-path="url(#p89e8aa969a)" d="M 164.007059 225.83023 
L 164.007059 180.27224 
" style="fill:none;stroke:#0d4a70;stroke-width:1.5;"/>
    <path clip-path="url(#p89e8aa969a)" d="M 168.380168 214.302411 
L 168.380168 148.36639 
" style="fill:none;stroke:#0d4a70;stroke-width:1.5;"/>
    <path clip-path="url(#p89e8aa969a)" d="M 172.753277 238.04 
L 172.753277 222.438866 
" style="fill:none;stroke:#0d4a70;stroke-width:1.5;"/>
    <path clip-path="url(#p89e8aa969a)" d="M 177.126387 237.323578 
L 177.126387 216.763126 
" style="fill:none;stroke:#0d4a70;stroke-width:1.5;"/>
    <path clip-path="url(#p89e8aa969a)" d="M 181.499496 238.04 
L 181.499496 225.807326 
" style="fill:none;stroke:#0d4a70;stroke-width:1.5;"/>
    <path clip-path="url(#p89e8aa969a)" d="M 185.872605 238.04 
L 185.872605 222.438866 
" style="fill:none;stroke:#0d4a70;stroke-width:1.5;"/>
    <path clip-path="url(#p89e8aa969a)" d="M 190.245714 236.896543 
L 190.245714 205.531244 
" style="fill:none;stroke:#0d4a70;stroke-width:1.5;"/>
    <path clip-path="url(#p89e8aa969a)" d="M 194.618824 230.149625 
L 194.618824 203.362932 
" style="fill:none;stroke:#0d4a70;stroke-width:1.5;"/>
    <path clip-path="url(#p89e8aa969a)" d="M 198.991933 235.930524 
L 198.991933 212.157367 
" style="fill:none;stroke:#0d4a70;stroke-width:1.5;"/>
    <path clip-path="url(#p89e8aa969a)" d="M 203.365042 222.993232 
L 203.365042 185.750045 
" style="fill:none;stroke:#0d4a70;stroke-width:1.5;"/>
    <path clip-path="url(#p89e8aa969a)" d="M 207.738151 230.070474 
L 207.738151 191.483548 
" style="fill:none;stroke:#0d4a70;stroke-width:1.5;"/>
    <path clip-path="url(#p89e8aa969a)" d="M 212.111261 186.813271 
L 212.111261 93.74554 
" style="fill:none;stroke:#0d4a70;stroke-width:1.5;"/>
    <path clip-path="url(#p89e8aa969a)" d="M 216.48437 213.126371 
L 216.48437 157.477044 
" style="fill:none;stroke:#0d4a70;stroke-width:1.5;"/>
    <path clip-path="url(#p89e8aa969a)" d="M 220.857479 197.717142 
L 220.857479 143.751309 
" style="fill:none;stroke:#0d4a70;stroke-width:1.5;"/>
    <path clip-path="url(#p89e8aa969a)" d="M 225.230588 209.494134 
L 225.230588 156.803879 
" style="fill:none;stroke:#0d4a70;stroke-width:1.5;"/>
    <path clip-path="url(#p89e8aa969a)" d="M 229.603697 181.80394 
L 229.603697 115.818837 
" style="fill:none;stroke:#0d4a70;stroke-width:1.5;"/>
    <path clip-path="url(#p89e8aa969a)" d="M 233.976807 172.802527 
L 233.976807 118.98314 
" style="fill:none;stroke:#0d4a70;stroke-width:1.5;"/>
    <path clip-path="url(#p89e8aa969a)" d="M 238.349916 178.225423 
L 238.349916 120.967469 
" style="fill:none;stroke:#0d4a70;stroke-width:1.5;"/>
    <path clip-path="url(#p89e8aa969a)" d="M 242.723025 177.976963 
L 242.723025 127.766055 
" style="fill:none;stroke:#0d4a70;stroke-width:1.5;"/>
    <path clip-path="url(#p89e8aa969a)" d="M 247.096134 171.961312 
L 247.096134 119.057235 
" style="fill:none;stroke:#0d4a70;stroke-width:1.5;"/>
    <path clip-path="url(#p89e8aa969a)" d="M 251.469244 168.115186 
L 251.469244 106.304444 
" style="fill:none;stroke:#0d4a70;stroke-width:1.5;"/>
    <path clip-path="url(#p89e8aa969a)" d="M 255.842353 182.980789 
L 255.842353 108.096627 
" style="fill:none;stroke:#0d4a70;stroke-width:1.5;"/>
    <path clip-path="url(#p89e8aa969a)" d="M 260.215462 153.633756 
L 260.215462 74.406688 
" style="fill:none;stroke:#0d4a70;stroke-width:1.5;"/>
    <path clip-path="url(#p89e8aa969a)" d="M 264.588571 127.511266 
L 264.588571 57.470382 
" style="fill:none;stroke:#0d4a70;stroke-width:1.5;"/>
    <path clip-path="url(#p89e8aa969a)" d="M 268.961681 148.632531 
L 268.961681 91.374577 
" style="fill:none;stroke:#0d4a70;stroke-width:1.5;"/>
    <path clip-path="url(#p89e8aa969a)" d="M 273.33479 136.812739 
L 273.33479 83.841809 
" style="fill:none;stroke:#0d4a70;stroke-width:1.5;"/>
    <path clip-path="url(#p89e8aa969a)" d="M 277.707899 127.113758 
L 277.707899 78.005211 
" style="fill:none;stroke:#0d4a70;stroke-width:1.5;"/>
    <path clip-path="url(#p89e8aa969a)" d="M 282.081008 204.291398 
L 282.081008 111.600781 
" style="fill:none;stroke:#0d4a70;stroke-width:1.5;"/>
    <path clip-path="url(#p89e8aa969a)" d="M 286.454118 138.717508 
L 286.454118 61.598142 
" style="fill:none;stroke:#0d4a70;stroke-width:1.5;"/>
    <path clip-path="url(#p89e8aa969a)" d="M 290.827227 118.501623 
L 290.827227 58.923557 
" style="fill:none;stroke:#0d4a70;stroke-width:1.5;"/>
    <path clip-path="url(#p89e8aa969a)" d="M 295.200336 121.254815 
L 295.200336 52.462053 
" style="fill:none;stroke:#0d4a70;stroke-width:1.5;"/>
    <path clip-path="url(#p89e8aa969a)" d="M 299.573445 125.363903 
L 299.573445 68.88094 
" style="fill:none;stroke:#0d4a70;stroke-width:1.5;"/>
    <path clip-path="url(#p89e8aa969a)" d="M 303.946555 121.23361 
L 303.946555 55.297589 
" style="fill:none;stroke:#0d4a70;stroke-width:1.5;"/>
    <path clip-path="url(#p89e8aa969a)" d="M 308.319664 132.781876 
L 308.319664 74.162928 
" style="fill:none;stroke:#0d4a70;stroke-width:1.5;"/>
    <path clip-path="url(#p89e8aa969a)" d="M 312.692773 170.659118 
L 312.692773 98.940882 
" style="fill:none;stroke:#0d4a70;stroke-width:1.5;"/>
    <path clip-path="url(#p89e8aa969a)" d="M 317.065882 115.123392 
L 317.065882 50.648715 
" style="fill:none;stroke:#0d4a70;stroke-width:1.5;"/>
    <path clip-path="url(#p89e8aa969a)" d="M 321.438992 142.851831 
L 321.438992 81.247345 
" style="fill:none;stroke:#0d4a70;stroke-width:1.5;"/>
    <path clip-path="url(#p89e8aa969a)" d="M 325.812101 141.600797 
L 325.812101 68.668979 
" style="fill:none;stroke:#0d4a70;stroke-width:1.5;"/>
    <path clip-path="url(#p89e8aa969a)" d="M 330.18521 158.299403 
L 330.18521 73.486273 
" style="fill:none;stroke:#0d4a70;stroke-width:1.5;"/>
    <path clip-path="url(#p89e8aa969a)" d="M 334.558319 130.9837 
L 334.558319 58.71369 
" style="fill:none;stroke:#0d4a70;stroke-width:1.5;"/>
    <path clip-path="url(#p89e8aa969a)" d="M 338.931429 125.956735 
L 338.931429 61.90999 
" style="fill:none;stroke:#0d4a70;stroke-width:1.5;"/>
    <path clip-path="url(#p89e8aa969a)" d="M 343.304538 95.147692 
L 343.304538 51.733494 
" style="fill:none;stroke:#0d4a70;stroke-width:1.5;"/>
    <path clip-path="url(#p89e8aa969a)" d="M 347.677647 110.827859 
L 347.677647 51.890166 
" style="fill:none;stroke:#0d4a70;stroke-width:1.5;"/>
    <path clip-path="url(#p89e8aa969a)" d="M 352.050756 115.714907 
L 352.050756 53.461828 
" style="fill:none;stroke:#0d4a70;stroke-width:1.5;"/>
    <path clip-path="url(#p89e8aa969a)" d="M 356.423866 116.267635 
L 356.423866 58.054922 
" style="fill:none;stroke:#0d4a70;stroke-width:1.5;"/>
    <path clip-path="url(#p89e8aa969a)" d="M 360.796975 123.812314 
L 360.796975 58.754189 
" style="fill:none;stroke:#0d4a70;stroke-width:1.5;"/>
    <path clip-path="url(#p89e8aa969a)" d="M 365.170084 121.271939 
L 365.170084 31.56 
" style="fill:none;stroke:#0d4a70;stroke-width:1.5;"/>
    <path clip-path="url(#p89e8aa969a)" d="M 369.543193 76.627752 
L 369.543193 37.496013 
" style="fill:none;stroke:#0d4a70;stroke-width:1.5;"/>
    <path clip-path="url(#p89e8aa969a)" d="M 373.916303 77.768725 
L 373.916303 37.668167 
" style="fill:none;stroke:#0d4a70;stroke-width:1.5;"/>
    <path clip-path="url(#p89e8aa969a)" d="M 378.289412 73.15978 
L 378.289412 35.134286 
" style="fill:none;stroke:#0d4a70;stroke-width:1.5;"/>
    <path clip-path="url(#p89e8aa969a)" d="M 382.662521 93.717427 
L 382.662521 37.313871 
" style="fill:none;stroke:#0d4a70;stroke-width:1.5;"/>
    <path clip-path="url(#p89e8aa969a)" d="M 387.03563 103.076537 
L 387.03563 41.844795 
" style="fill:none;stroke:#0d4a70;stroke-width:1.5;"/>
    <path clip-path="url(#p89e8aa969a)" d="M 391.408739 82.434052 
L 391.408739 33.491 
" style="fill:none;stroke:#0d4a70;stroke-width:1.5;"/>
   </g>
   <g id="line2d_15">
    <path clip-path="url(#p89e8aa969a)" d="M 41.56 236.463392 
L 45.933109 236.310895 
L 50.306218 236.143785 
L 54.679328 235.960688 
L 59.052437 235.760109 
L 63.425546 235.540417 
L 67.798655 235.29984 
L 72.171765 235.036449 
L 76.544874 234.748149 
L 80.917983 234.432668 
L 85.291092 234.087539 
L 89.664202 233.710095 
L 94.037311 233.297451 
L 98.41042 232.846492 
L 102.783529 232.353861 
L 107.156639 231.815946 
L 111.529748 231.22887 
L 115.902857 230.588479 
L 120.275966 229.890335 
L 124.649076 229.12971 
L 129.022185 228.30158 
L 133.395294 227.400627 
L 137.768403 226.421245 
L 142.141513 225.357546 
L 146.514622 224.203381 
L 150.887731 222.952358 
L 155.26084 221.597879 
L 159.63395 220.13318 
L 164.007059 218.551383 
L 168.380168 216.845562 
L 172.753277 215.008823 
L 177.126387 213.034391 
L 181.499496 210.915721 
L 185.872605 208.646616 
L 190.245714 206.221362 
L 194.618824 203.634879 
L 198.991933 200.882872 
L 203.365042 197.962008 
L 207.738151 194.870078 
L 212.111261 191.606175 
L 216.48437 188.170857 
L 220.857479 184.566299 
L 225.230588 180.796435 
L 229.603697 176.867054 
L 233.976807 172.785887 
L 238.349916 168.56263 
L 242.723025 164.208937 
L 247.096134 159.73835 
L 251.469244 155.166186 
L 255.842353 150.509359 
L 260.215462 145.786159 
L 264.588571 141.01598 
L 268.961681 136.219014 
L 273.33479 131.415913 
L 277.707899 126.627432 
L 282.081008 121.874076 
L 286.454118 117.17575 
L 290.827227 112.551433 
L 295.200336 108.018881 
L 299.573445 103.594379 
L 303.946555 99.292535 
L 308.319664 95.126129 
L 312.692773 91.10602 
L 317.065882 87.241098 
L 321.438992 83.538293 
L 325.812101 80.002624 
L 330.18521 76.637289 
L 334.558319 73.443785 
L 338.931429 70.422051 
L 343.304538 67.570626 
L 347.677647 64.886821 
L 352.050756 62.366888 
L 356.423866 60.006192 
L 360.796975 57.799373 
L 365.170084 55.740504 
L 369.543193 53.82323 
L 373.916303 52.040897 
L 378.289412 50.38667 
L 382.662521 48.853631 
L 387.03563 47.434866 
L 391.408739 46.123535 
L 395.781849 44.912938 
L 400.154958 43.796556 
L 404.528067 42.768092 
L 408.901176 41.821503 
L 413.274286 40.951015 
L 417.647395 40.151137 
L 422.020504 39.416672 
L 426.393613 38.742719 
L 430.766723 38.124667 
L 435.139832 37.558197 
L 439.512941 37.039267 
L 443.88605 36.564112 
L 448.25916 36.129225 
L 452.632269 35.73135 
L 457.005378 35.367468 
L 461.378487 35.034783 
L 465.751597 34.730712 
L 470.124706 34.45287 
L 474.497815 34.19906 
L 478.870924 33.967254 
L 483.244034 33.75559 
L 487.617143 33.562354 
L 491.990252 33.385974 
L 496.363361 33.225003 
L 500.736471 33.078118 
L 505.10958 32.944103 
L 509.482689 32.821846 
L 513.855798 32.710328 
L 518.228908 32.608614 
L 522.602017 32.515853 
L 526.975126 32.431262 
L 531.348235 32.354128 
L 535.721345 32.2838 
L 540.094454 32.219679 
L 544.467563 32.161222 
L 548.840672 32.107932 
L 553.213782 32.059354 
L 557.586891 32.015073 
L 561.96 31.97471 
" style="fill:none;stroke:#151624;stroke-linecap:square;stroke-width:1.5;"/>
   </g>
   <g id="patch_3">
    <path d="M 41.56 238.04 
L 41.56 31.56 
" style="fill:none;stroke:#000000;stroke-linecap:square;stroke-linejoin:miter;stroke-width:0.8;"/>
   </g>
   <g id="patch_4">
    <path d="M 561.96 238.04 
L 561.96 31.56 
" style="fill:none;stroke:#000000;stroke-linecap:square;stroke-linejoin:miter;stroke-width:0.8;"/>
   </g>
   <g id="patch_5">
    <path d="M 41.56 238.04 
L 561.96 238.04 
" style="fill:none;stroke:#000000;stroke-linecap:square;stroke-linejoin:miter;stroke-width:0.8;"/>
   </g>
   <g id="patch_6">
    <path d="M 41.56 31.56 
L 561.96 31.56 
" style="fill:none;stroke:#000000;stroke-linecap:square;stroke-linejoin:miter;stroke-width:0.8;"/>
   </g>
   <g id="text_16">
    <!-- Geneva - from HUG data -->
    <g transform="translate(205.71275 25.56)scale(0.156 -0.156)">
     <defs>
      <path d="M 59.515625 10.40625 
L 59.515625 29.984375 
L 43.40625 29.984375 
L 43.40625 38.09375 
L 69.28125 38.09375 
L 69.28125 6.78125 
Q 63.578125 2.734375 56.6875 0.65625 
Q 49.8125 -1.421875 42 -1.421875 
Q 24.90625 -1.421875 15.25 8.5625 
Q 5.609375 18.5625 5.609375 36.375 
Q 5.609375 54.25 15.25 64.234375 
Q 24.90625 74.21875 42 74.21875 
Q 49.125 74.21875 55.546875 72.453125 
Q 61.96875 70.703125 67.390625 67.28125 
L 67.390625 56.78125 
Q 61.921875 61.421875 55.765625 63.765625 
Q 49.609375 66.109375 42.828125 66.109375 
Q 29.4375 66.109375 22.71875 58.640625 
Q 16.015625 51.171875 16.015625 36.375 
Q 16.015625 21.625 22.71875 14.15625 
Q 29.4375 6.6875 42.828125 6.6875 
Q 48.046875 6.6875 52.140625 7.59375 
Q 56.25 8.5 59.515625 10.40625 
z
" id="DejaVuSans-71"/>
      <path d="M 2.984375 54.6875 
L 12.5 54.6875 
L 29.59375 8.796875 
L 46.6875 54.6875 
L 56.203125 54.6875 
L 35.6875 0 
L 23.484375 0 
z
" id="DejaVuSans-118"/>
      <path id="DejaVuSans-32"/>
      <path d="M 37.109375 75.984375 
L 37.109375 68.5 
L 28.515625 68.5 
Q 23.6875 68.5 21.796875 66.546875 
Q 19.921875 64.59375 19.921875 59.515625 
L 19.921875 54.6875 
L 34.71875 54.6875 
L 34.71875 47.703125 
L 19.921875 47.703125 
L 19.921875 0 
L 10.890625 0 
L 10.890625 47.703125 
L 2.296875 47.703125 
L 2.296875 54.6875 
L 10.890625 54.6875 
L 10.890625 58.5 
Q 10.890625 67.625 15.140625 71.796875 
Q 19.390625 75.984375 28.609375 75.984375 
z
" id="DejaVuSans-102"/>
      <path d="M 30.609375 48.390625 
Q 23.390625 48.390625 19.1875 42.75 
Q 14.984375 37.109375 14.984375 27.296875 
Q 14.984375 17.484375 19.15625 11.84375 
Q 23.34375 6.203125 30.609375 6.203125 
Q 37.796875 6.203125 41.984375 11.859375 
Q 46.1875 17.53125 46.1875 27.296875 
Q 46.1875 37.015625 41.984375 42.703125 
Q 37.796875 48.390625 30.609375 48.390625 
z
M 30.609375 56 
Q 42.328125 56 49.015625 48.375 
Q 55.71875 40.765625 55.71875 27.296875 
Q 55.71875 13.875 49.015625 6.21875 
Q 42.328125 -1.421875 30.609375 -1.421875 
Q 18.84375 -1.421875 12.171875 6.21875 
Q 5.515625 13.875 5.515625 27.296875 
Q 5.515625 40.765625 12.171875 48.375 
Q 18.84375 56 30.609375 56 
z
" id="DejaVuSans-111"/>
      <path d="M 52 44.1875 
Q 55.375 50.25 60.0625 53.125 
Q 64.75 56 71.09375 56 
Q 79.640625 56 84.28125 50.015625 
Q 88.921875 44.046875 88.921875 33.015625 
L 88.921875 0 
L 79.890625 0 
L 79.890625 32.71875 
Q 79.890625 40.578125 77.09375 44.375 
Q 74.3125 48.1875 68.609375 48.1875 
Q 61.625 48.1875 57.5625 43.546875 
Q 53.515625 38.921875 53.515625 30.90625 
L 53.515625 0 
L 44.484375 0 
L 44.484375 32.71875 
Q 44.484375 40.625 41.703125 44.40625 
Q 38.921875 48.1875 33.109375 48.1875 
Q 26.21875 48.1875 22.15625 43.53125 
Q 18.109375 38.875 18.109375 30.90625 
L 18.109375 0 
L 9.078125 0 
L 9.078125 54.6875 
L 18.109375 54.6875 
L 18.109375 46.1875 
Q 21.1875 51.21875 25.484375 53.609375 
Q 29.78125 56 35.6875 56 
Q 41.65625 56 45.828125 52.96875 
Q 50 49.953125 52 44.1875 
z
" id="DejaVuSans-109"/>
      <path d="M 9.8125 72.90625 
L 19.671875 72.90625 
L 19.671875 43.015625 
L 55.515625 43.015625 
L 55.515625 72.90625 
L 65.375 72.90625 
L 65.375 0 
L 55.515625 0 
L 55.515625 34.71875 
L 19.671875 34.71875 
L 19.671875 0 
L 9.8125 0 
z
" id="DejaVuSans-72"/>
      <path d="M 8.6875 72.90625 
L 18.609375 72.90625 
L 18.609375 28.609375 
Q 18.609375 16.890625 22.84375 11.734375 
Q 27.09375 6.59375 36.625 6.59375 
Q 46.09375 6.59375 50.34375 11.734375 
Q 54.59375 16.890625 54.59375 28.609375 
L 54.59375 72.90625 
L 64.5 72.90625 
L 64.5 27.390625 
Q 64.5 13.140625 57.4375 5.859375 
Q 50.390625 -1.421875 36.625 -1.421875 
Q 22.796875 -1.421875 15.734375 5.859375 
Q 8.6875 13.140625 8.6875 27.390625 
z
" id="DejaVuSans-85"/>
      <path d="M 45.40625 46.390625 
L 45.40625 75.984375 
L 54.390625 75.984375 
L 54.390625 0 
L 45.40625 0 
L 45.40625 8.203125 
Q 42.578125 3.328125 38.25 0.953125 
Q 33.9375 -1.421875 27.875 -1.421875 
Q 17.96875 -1.421875 11.734375 6.484375 
Q 5.515625 14.40625 5.515625 27.296875 
Q 5.515625 40.1875 11.734375 48.09375 
Q 17.96875 56 27.875 56 
Q 33.9375 56 38.25 53.625 
Q 42.578125 51.265625 45.40625 46.390625 
z
M 14.796875 27.296875 
Q 14.796875 17.390625 18.875 11.75 
Q 22.953125 6.109375 30.078125 6.109375 
Q 37.203125 6.109375 41.296875 11.75 
Q 45.40625 17.390625 45.40625 27.296875 
Q 45.40625 37.203125 41.296875 42.84375 
Q 37.203125 48.484375 30.078125 48.484375 
Q 22.953125 48.484375 18.875 42.84375 
Q 14.796875 37.203125 14.796875 27.296875 
z
" id="DejaVuSans-100"/>
      <path d="M 18.3125 70.21875 
L 18.3125 54.6875 
L 36.8125 54.6875 
L 36.8125 47.703125 
L 18.3125 47.703125 
L 18.3125 18.015625 
Q 18.3125 11.328125 20.140625 9.421875 
Q 21.96875 7.515625 27.59375 7.515625 
L 36.8125 7.515625 
L 36.8125 0 
L 27.59375 0 
Q 17.1875 0 13.234375 3.875 
Q 9.28125 7.765625 9.28125 18.015625 
L 9.28125 47.703125 
L 2.6875 47.703125 
L 2.6875 54.6875 
L 9.28125 54.6875 
L 9.28125 70.21875 
z
" id="DejaVuSans-116"/>
     </defs>
     <use xlink:href="#DejaVuSans-71"/>
     <use x="77.490234" xlink:href="#DejaVuSans-101"/>
     <use x="139.013672" xlink:href="#DejaVuSans-110"/>
     <use x="202.392578" xlink:href="#DejaVuSans-101"/>
     <use x="263.916016" xlink:href="#DejaVuSans-118"/>
     <use x="323.095703" xlink:href="#DejaVuSans-97"/>
     <use x="384.375" xlink:href="#DejaVuSans-32"/>
     <use x="416.162109" xlink:href="#DejaVuSans-45"/>
     <use x="452.246094" xlink:href="#DejaVuSans-32"/>
     <use x="484.033203" xlink:href="#DejaVuSans-102"/>
     <use x="519.238281" xlink:href="#DejaVuSans-114"/>
     <use x="558.101562" xlink:href="#DejaVuSans-111"/>
     <use x="619.283203" xlink:href="#DejaVuSans-109"/>
     <use x="716.695312" xlink:href="#DejaVuSans-32"/>
     <use x="748.482422" xlink:href="#DejaVuSans-72"/>
     <use x="823.677734" xlink:href="#DejaVuSans-85"/>
     <use x="896.871094" xlink:href="#DejaVuSans-71"/>
     <use x="974.361328" xlink:href="#DejaVuSans-32"/>
     <use x="1006.148438" xlink:href="#DejaVuSans-100"/>
     <use x="1069.625" xlink:href="#DejaVuSans-97"/>
     <use x="1130.904297" xlink:href="#DejaVuSans-116"/>
     <use x="1170.113281" xlink:href="#DejaVuSans-97"/>
    </g>
   </g>
   <g id="legend_1">
    <g id="patch_7">
     <path d="M 271.554219 231.54 
L 552.86 231.54 
Q 555.46 231.54 555.46 228.94 
L 555.46 172.995312 
Q 555.46 170.395312 552.86 170.395312 
L 271.554219 170.395312 
Q 268.954219 170.395312 268.954219 172.995312 
L 268.954219 228.94 
Q 268.954219 231.54 271.554219 231.54 
z
" style="fill:#ffffff;opacity:0.8;stroke:#cccccc;stroke-linejoin:miter;"/>
    </g>
    <g id="line2d_16">
     <path d="M 274.154219 180.923281 
L 300.154219 180.923281 
" style="fill:none;stroke:#151624;stroke-linecap:square;stroke-width:1.5;"/>
    </g>
    <g id="line2d_17"/>
    <g id="text_17">
     <!-- Logistic fit -->
     <g transform="translate(310.554219 185.473281)scale(0.13 -0.13)">
      <defs>
       <path d="M 9.8125 72.90625 
L 19.671875 72.90625 
L 19.671875 8.296875 
L 55.171875 8.296875 
L 55.171875 0 
L 9.8125 0 
z
" id="DejaVuSans-76"/>
       <path d="M 45.40625 27.984375 
Q 45.40625 37.75 41.375 43.109375 
Q 37.359375 48.484375 30.078125 48.484375 
Q 22.859375 48.484375 18.828125 43.109375 
Q 14.796875 37.75 14.796875 27.984375 
Q 14.796875 18.265625 18.828125 12.890625 
Q 22.859375 7.515625 30.078125 7.515625 
Q 37.359375 7.515625 41.375 12.890625 
Q 45.40625 18.265625 45.40625 27.984375 
z
M 54.390625 6.78125 
Q 54.390625 -7.171875 48.1875 -13.984375 
Q 42 -20.796875 29.203125 -20.796875 
Q 24.46875 -20.796875 20.265625 -20.09375 
Q 16.0625 -19.390625 12.109375 -17.921875 
L 12.109375 -9.1875 
Q 16.0625 -11.328125 19.921875 -12.34375 
Q 23.78125 -13.375 27.78125 -13.375 
Q 36.625 -13.375 41.015625 -8.765625 
Q 45.40625 -4.15625 45.40625 5.171875 
L 45.40625 9.625 
Q 42.625 4.78125 38.28125 2.390625 
Q 33.9375 0 27.875 0 
Q 17.828125 0 11.671875 7.65625 
Q 5.515625 15.328125 5.515625 27.984375 
Q 5.515625 40.671875 11.671875 48.328125 
Q 17.828125 56 27.875 56 
Q 33.9375 56 38.28125 53.609375 
Q 42.625 51.21875 45.40625 46.390625 
L 45.40625 54.6875 
L 54.390625 54.6875 
z
" id="DejaVuSans-103"/>
       <path d="M 9.421875 54.6875 
L 18.40625 54.6875 
L 18.40625 0 
L 9.421875 0 
z
M 9.421875 75.984375 
L 18.40625 75.984375 
L 18.40625 64.59375 
L 9.421875 64.59375 
z
" id="DejaVuSans-105"/>
       <path d="M 44.28125 53.078125 
L 44.28125 44.578125 
Q 40.484375 46.53125 36.375 47.5 
Q 32.28125 48.484375 27.875 48.484375 
Q 21.1875 48.484375 17.84375 46.4375 
Q 14.5 44.390625 14.5 40.28125 
Q 14.5 37.15625 16.890625 35.375 
Q 19.28125 33.59375 26.515625 31.984375 
L 29.59375 31.296875 
Q 39.15625 29.25 43.1875 25.515625 
Q 47.21875 21.78125 47.21875 15.09375 
Q 47.21875 7.46875 41.1875 3.015625 
Q 35.15625 -1.421875 24.609375 -1.421875 
Q 20.21875 -1.421875 15.453125 -0.5625 
Q 10.6875 0.296875 5.421875 2 
L 5.421875 11.28125 
Q 10.40625 8.6875 15.234375 7.390625 
Q 20.0625 6.109375 24.8125 6.109375 
Q 31.15625 6.109375 34.5625 8.28125 
Q 37.984375 10.453125 37.984375 14.40625 
Q 37.984375 18.0625 35.515625 20.015625 
Q 33.0625 21.96875 24.703125 23.78125 
L 21.578125 24.515625 
Q 13.234375 26.265625 9.515625 29.90625 
Q 5.8125 33.546875 5.8125 39.890625 
Q 5.8125 47.609375 11.28125 51.796875 
Q 16.75 56 26.8125 56 
Q 31.78125 56 36.171875 55.265625 
Q 40.578125 54.546875 44.28125 53.078125 
z
" id="DejaVuSans-115"/>
       <path d="M 48.78125 52.59375 
L 48.78125 44.1875 
Q 44.96875 46.296875 41.140625 47.34375 
Q 37.3125 48.390625 33.40625 48.390625 
Q 24.65625 48.390625 19.8125 42.84375 
Q 14.984375 37.3125 14.984375 27.296875 
Q 14.984375 17.28125 19.8125 11.734375 
Q 24.65625 6.203125 33.40625 6.203125 
Q 37.3125 6.203125 41.140625 7.25 
Q 44.96875 8.296875 48.78125 10.40625 
L 48.78125 2.09375 
Q 45.015625 0.34375 40.984375 -0.53125 
Q 36.96875 -1.421875 32.421875 -1.421875 
Q 20.0625 -1.421875 12.78125 6.34375 
Q 5.515625 14.109375 5.515625 27.296875 
Q 5.515625 40.671875 12.859375 48.328125 
Q 20.21875 56 33.015625 56 
Q 37.15625 56 41.109375 55.140625 
Q 45.0625 54.296875 48.78125 52.59375 
z
" id="DejaVuSans-99"/>
      </defs>
      <use xlink:href="#DejaVuSans-76"/>
      <use x="53.962891" xlink:href="#DejaVuSans-111"/>
      <use x="115.144531" xlink:href="#DejaVuSans-103"/>
      <use x="178.621094" xlink:href="#DejaVuSans-105"/>
      <use x="206.404297" xlink:href="#DejaVuSans-115"/>
      <use x="258.503906" xlink:href="#DejaVuSans-116"/>
      <use x="297.712891" xlink:href="#DejaVuSans-105"/>
      <use x="325.496094" xlink:href="#DejaVuSans-99"/>
      <use x="380.476562" xlink:href="#DejaVuSans-32"/>
      <use x="412.263672" xlink:href="#DejaVuSans-102"/>
      <use x="447.46875" xlink:href="#DejaVuSans-105"/>
      <use x="475.251953" xlink:href="#DejaVuSans-116"/>
     </g>
    </g>
    <g id="patch_8">
     <path d="M 274.154219 204.554844 
L 300.154219 204.554844 
L 300.154219 195.454844 
L 274.154219 195.454844 
z
" style="fill:#bfbfbf;stroke:#bfbfbf;stroke-linejoin:miter;"/>
    </g>
    <g id="text_18">
     <!-- Confidence interval -->
     <g transform="translate(310.554219 204.554844)scale(0.13 -0.13)">
      <defs>
       <path d="M 64.40625 67.28125 
L 64.40625 56.890625 
Q 59.421875 61.53125 53.78125 63.8125 
Q 48.140625 66.109375 41.796875 66.109375 
Q 29.296875 66.109375 22.65625 58.46875 
Q 16.015625 50.828125 16.015625 36.375 
Q 16.015625 21.96875 22.65625 14.328125 
Q 29.296875 6.6875 41.796875 6.6875 
Q 48.140625 6.6875 53.78125 8.984375 
Q 59.421875 11.28125 64.40625 15.921875 
L 64.40625 5.609375 
Q 59.234375 2.09375 53.4375 0.328125 
Q 47.65625 -1.421875 41.21875 -1.421875 
Q 24.65625 -1.421875 15.125 8.703125 
Q 5.609375 18.84375 5.609375 36.375 
Q 5.609375 53.953125 15.125 64.078125 
Q 24.65625 74.21875 41.21875 74.21875 
Q 47.75 74.21875 53.53125 72.484375 
Q 59.328125 70.75 64.40625 67.28125 
z
" id="DejaVuSans-67"/>
       <path d="M 9.421875 75.984375 
L 18.40625 75.984375 
L 18.40625 0 
L 9.421875 0 
z
" id="DejaVuSans-108"/>
      </defs>
      <use xlink:href="#DejaVuSans-67"/>
      <use x="69.824219" xlink:href="#DejaVuSans-111"/>
      <use x="131.005859" xlink:href="#DejaVuSans-110"/>
      <use x="194.384766" xlink:href="#DejaVuSans-102"/>
      <use x="229.589844" xlink:href="#DejaVuSans-105"/>
      <use x="257.373047" xlink:href="#DejaVuSans-100"/>
      <use x="320.849609" xlink:href="#DejaVuSans-101"/>
      <use x="382.373047" xlink:href="#DejaVuSans-110"/>
      <use x="445.751953" xlink:href="#DejaVuSans-99"/>
      <use x="500.732422" xlink:href="#DejaVuSans-101"/>
      <use x="562.255859" xlink:href="#DejaVuSans-32"/>
      <use x="594.042969" xlink:href="#DejaVuSans-105"/>
      <use x="621.826172" xlink:href="#DejaVuSans-110"/>
      <use x="685.205078" xlink:href="#DejaVuSans-116"/>
      <use x="724.414062" xlink:href="#DejaVuSans-101"/>
      <use x="785.9375" xlink:href="#DejaVuSans-114"/>
      <use x="827.050781" xlink:href="#DejaVuSans-118"/>
      <use x="886.230469" xlink:href="#DejaVuSans-97"/>
      <use x="947.509766" xlink:href="#DejaVuSans-108"/>
     </g>
    </g>
    <g id="PathCollection_1">
     <defs>
      <path d="M 0 1.870829 
C 0.49615 1.870829 0.972045 1.673706 1.322876 1.322876 
C 1.673706 0.972045 1.870829 0.49615 1.870829 0 
C 1.870829 -0.49615 1.673706 -0.972045 1.322876 -1.322876 
C 0.972045 -1.673706 0.49615 -1.870829 0 -1.870829 
C -0.49615 -1.870829 -0.972045 -1.673706 -1.322876 -1.322876 
C -1.673706 -0.972045 -1.870829 -0.49615 -1.870829 0 
C -1.870829 0.49615 -1.673706 0.972045 -1.322876 1.322876 
C -0.972045 1.673706 -0.49615 1.870829 0 1.870829 
z
" id="m115de6ef3f" style="stroke:#67916e;"/>
     </defs>
     <g>
      <use style="fill:#67916e;stroke:#67916e;" x="287.154219" xlink:href="#m115de6ef3f" y="220.223906"/>
     </g>
    </g>
    <g id="text_19">
     <!-- Estimated daily proportion of B.1.1.7 -->
     <g transform="translate(310.554219 223.636406)scale(0.13 -0.13)">
      <defs>
       <path d="M 9.8125 72.90625 
L 55.90625 72.90625 
L 55.90625 64.59375 
L 19.671875 64.59375 
L 19.671875 43.015625 
L 54.390625 43.015625 
L 54.390625 34.71875 
L 19.671875 34.71875 
L 19.671875 8.296875 
L 56.78125 8.296875 
L 56.78125 0 
L 9.8125 0 
z
" id="DejaVuSans-69"/>
       <path d="M 32.171875 -5.078125 
Q 28.375 -14.84375 24.75 -17.8125 
Q 21.140625 -20.796875 15.09375 -20.796875 
L 7.90625 -20.796875 
L 7.90625 -13.28125 
L 13.1875 -13.28125 
Q 16.890625 -13.28125 18.9375 -11.515625 
Q 21 -9.765625 23.484375 -3.21875 
L 25.09375 0.875 
L 2.984375 54.6875 
L 12.5 54.6875 
L 29.59375 11.921875 
L 46.6875 54.6875 
L 56.203125 54.6875 
z
" id="DejaVuSans-121"/>
       <path d="M 19.671875 34.8125 
L 19.671875 8.109375 
L 35.5 8.109375 
Q 43.453125 8.109375 47.28125 11.40625 
Q 51.125 14.703125 51.125 21.484375 
Q 51.125 28.328125 47.28125 31.5625 
Q 43.453125 34.8125 35.5 34.8125 
z
M 19.671875 64.796875 
L 19.671875 42.828125 
L 34.28125 42.828125 
Q 41.5 42.828125 45.03125 45.53125 
Q 48.578125 48.25 48.578125 53.8125 
Q 48.578125 59.328125 45.03125 62.0625 
Q 41.5 64.796875 34.28125 64.796875 
z
M 9.8125 72.90625 
L 35.015625 72.90625 
Q 46.296875 72.90625 52.390625 68.21875 
Q 58.5 63.53125 58.5 54.890625 
Q 58.5 48.1875 55.375 44.234375 
Q 52.25 40.28125 46.1875 39.3125 
Q 53.46875 37.75 57.5 32.78125 
Q 61.53125 27.828125 61.53125 20.40625 
Q 61.53125 10.640625 54.890625 5.3125 
Q 48.25 0 35.984375 0 
L 9.8125 0 
z
" id="DejaVuSans-66"/>
       <path d="M 8.203125 72.90625 
L 55.078125 72.90625 
L 55.078125 68.703125 
L 28.609375 0 
L 18.3125 0 
L 43.21875 64.59375 
L 8.203125 64.59375 
z
" id="DejaVuSans-55"/>
      </defs>
      <use xlink:href="#DejaVuSans-69"/>
      <use x="63.183594" xlink:href="#DejaVuSans-115"/>
      <use x="115.283203" xlink:href="#DejaVuSans-116"/>
      <use x="154.492188" xlink:href="#DejaVuSans-105"/>
      <use x="182.275391" xlink:href="#DejaVuSans-109"/>
      <use x="279.6875" xlink:href="#DejaVuSans-97"/>
      <use x="340.966797" xlink:href="#DejaVuSans-116"/>
      <use x="380.175781" xlink:href="#DejaVuSans-101"/>
      <use x="441.699219" xlink:href="#DejaVuSans-100"/>
      <use x="505.175781" xlink:href="#DejaVuSans-32"/>
      <use x="536.962891" xlink:href="#DejaVuSans-100"/>
      <use x="600.439453" xlink:href="#DejaVuSans-97"/>
      <use x="661.71875" xlink:href="#DejaVuSans-105"/>
      <use x="689.501953" xlink:href="#DejaVuSans-108"/>
      <use x="717.285156" xlink:href="#DejaVuSans-121"/>
      <use x="776.464844" xlink:href="#DejaVuSans-32"/>
      <use x="808.251953" xlink:href="#DejaVuSans-112"/>
      <use x="871.728516" xlink:href="#DejaVuSans-114"/>
      <use x="910.591797" xlink:href="#DejaVuSans-111"/>
      <use x="971.773438" xlink:href="#DejaVuSans-112"/>
      <use x="1035.25" xlink:href="#DejaVuSans-111"/>
      <use x="1096.431641" xlink:href="#DejaVuSans-114"/>
      <use x="1137.544922" xlink:href="#DejaVuSans-116"/>
      <use x="1176.753906" xlink:href="#DejaVuSans-105"/>
      <use x="1204.537109" xlink:href="#DejaVuSans-111"/>
      <use x="1265.71875" xlink:href="#DejaVuSans-110"/>
      <use x="1329.097656" xlink:href="#DejaVuSans-32"/>
      <use x="1360.884766" xlink:href="#DejaVuSans-111"/>
      <use x="1422.066406" xlink:href="#DejaVuSans-102"/>
      <use x="1457.271484" xlink:href="#DejaVuSans-32"/>
      <use x="1489.058594" xlink:href="#DejaVuSans-66"/>
      <use x="1557.662109" xlink:href="#DejaVuSans-46"/>
      <use x="1589.449219" xlink:href="#DejaVuSans-49"/>
      <use x="1653.072266" xlink:href="#DejaVuSans-46"/>
      <use x="1684.859375" xlink:href="#DejaVuSans-49"/>
      <use x="1748.482422" xlink:href="#DejaVuSans-46"/>
      <use x="1780.269531" xlink:href="#DejaVuSans-55"/>
     </g>
    </g>
   </g>
   <g id="PathCollection_2">
    <g clip-path="url(#p89e8aa969a)">
     <use style="fill:#67916e;stroke:#67916e;" x="80.917983" xlink:href="#m115de6ef3f" y="238.04"/>
     <use style="fill:#67916e;stroke:#67916e;" x="85.291092" xlink:href="#m115de6ef3f" y="238.04"/>
     <use style="fill:#67916e;stroke:#67916e;" x="89.664202" xlink:href="#m115de6ef3f" y="238.04"/>
     <use style="fill:#67916e;stroke:#67916e;" x="94.037311" xlink:href="#m115de6ef3f" y="160.61"/>
     <use style="fill:#67916e;stroke:#67916e;" x="98.41042" xlink:href="#m115de6ef3f" y="238.04"/>
     <use style="fill:#67916e;stroke:#67916e;" x="102.783529" xlink:href="#m115de6ef3f" y="226.568889"/>
     <use style="fill:#67916e;stroke:#67916e;" x="107.156639" xlink:href="#m115de6ef3f" y="238.04"/>
     <use style="fill:#67916e;stroke:#67916e;" x="111.529748" xlink:href="#m115de6ef3f" y="238.04"/>
     <use style="fill:#67916e;stroke:#67916e;" x="115.902857" xlink:href="#m115de6ef3f" y="220.085217"/>
     <use style="fill:#67916e;stroke:#67916e;" x="120.275966" xlink:href="#m115de6ef3f" y="229.062609"/>
     <use style="fill:#67916e;stroke:#67916e;" x="124.649076" xlink:href="#m115de6ef3f" y="238.04"/>
     <use style="fill:#67916e;stroke:#67916e;" x="142.141513" xlink:href="#m115de6ef3f" y="31.56"/>
     <use style="fill:#67916e;stroke:#67916e;" x="150.887731" xlink:href="#m115de6ef3f" y="169.213333"/>
     <use style="fill:#67916e;stroke:#67916e;" x="155.26084" xlink:href="#m115de6ef3f" y="231.379355"/>
     <use style="fill:#67916e;stroke:#67916e;" x="159.63395" xlink:href="#m115de6ef3f" y="201.906"/>
     <use style="fill:#67916e;stroke:#67916e;" x="164.007059" xlink:href="#m115de6ef3f" y="210.137297"/>
     <use style="fill:#67916e;stroke:#67916e;" x="168.380168" xlink:href="#m115de6ef3f" y="188.4848"/>
     <use style="fill:#67916e;stroke:#67916e;" x="172.753277" xlink:href="#m115de6ef3f" y="238.04"/>
     <use style="fill:#67916e;stroke:#67916e;" x="177.126387" xlink:href="#m115de6ef3f" y="233.991373"/>
     <use style="fill:#67916e;stroke:#67916e;" x="181.499496" xlink:href="#m115de6ef3f" y="238.04"/>
     <use style="fill:#67916e;stroke:#67916e;" x="185.872605" xlink:href="#m115de6ef3f" y="238.04"/>
     <use style="fill:#67916e;stroke:#67916e;" x="190.245714" xlink:href="#m115de6ef3f" y="231.5875"/>
     <use style="fill:#67916e;stroke:#67916e;" x="194.618824" xlink:href="#m115de6ef3f" y="221.069041"/>
     <use style="fill:#67916e;stroke:#67916e;" x="198.991933" xlink:href="#m115de6ef3f" y="230.392593"/>
     <use style="fill:#67916e;stroke:#67916e;" x="203.365042" xlink:href="#m115de6ef3f" y="209.060351"/>
     <use style="fill:#67916e;stroke:#67916e;" x="207.738151" xlink:href="#m115de6ef3f" y="217.89561"/>
     <use style="fill:#67916e;stroke:#67916e;" x="212.111261" xlink:href="#m115de6ef3f" y="141.682667"/>
     <use style="fill:#67916e;stroke:#67916e;" x="216.48437" xlink:href="#m115de6ef3f" y="190.844571"/>
     <use style="fill:#67916e;stroke:#67916e;" x="220.857479" xlink:href="#m115de6ef3f" y="173.801778"/>
     <use style="fill:#67916e;stroke:#67916e;" x="225.230588" xlink:href="#m115de6ef3f" y="187.679024"/>
     <use style="fill:#67916e;stroke:#67916e;" x="229.603697" xlink:href="#m115de6ef3f" y="150.442424"/>
     <use style="fill:#67916e;stroke:#67916e;" x="233.976807" xlink:href="#m115de6ef3f" y="146.712308"/>
     <use style="fill:#67916e;stroke:#67916e;" x="238.349916" xlink:href="#m115de6ef3f" y="150.859556"/>
     <use style="fill:#67916e;stroke:#67916e;" x="242.723025" xlink:href="#m115de6ef3f" y="154.048136"/>
     <use style="fill:#67916e;stroke:#67916e;" x="247.096134" xlink:href="#m115de6ef3f" y="146.271111"/>
     <use style="fill:#67916e;stroke:#67916e;" x="251.469244" xlink:href="#m115de6ef3f" y="137.447179"/>
     <use style="fill:#67916e;stroke:#67916e;" x="255.842353" xlink:href="#m115de6ef3f" y="147.1888"/>
     <use style="fill:#67916e;stroke:#67916e;" x="260.215462" xlink:href="#m115de6ef3f" y="110.219048"/>
     <use style="fill:#67916e;stroke:#67916e;" x="264.588571" xlink:href="#m115de6ef3f" y="85.424348"/>
     <use style="fill:#67916e;stroke:#67916e;" x="268.961681" xlink:href="#m115de6ef3f" y="118.740444"/>
     <use style="fill:#67916e;stroke:#67916e;" x="273.33479" xlink:href="#m115de6ef3f" y="108.483922"/>
     <use style="fill:#67916e;stroke:#67916e;" x="277.707899" xlink:href="#m115de6ef3f" y="100.386667"/>
     <use style="fill:#67916e;stroke:#67916e;" x="282.081008" xlink:href="#m115de6ef3f" y="164.297143"/>
     <use style="fill:#67916e;stroke:#67916e;" x="286.454118" xlink:href="#m115de6ef3f" y="93.504"/>
     <use style="fill:#67916e;stroke:#67916e;" x="290.827227" xlink:href="#m115de6ef3f" y="83.18"/>
     <use style="fill:#67916e;stroke:#67916e;" x="295.200336" xlink:href="#m115de6ef3f" y="78.487273"/>
     <use style="fill:#67916e;stroke:#67916e;" x="299.573445" xlink:href="#m115de6ef3f" y="93.504"/>
     <use style="fill:#67916e;stroke:#67916e;" x="303.946555" xlink:href="#m115de6ef3f" y="81.1152"/>
     <use style="fill:#67916e;stroke:#67916e;" x="308.319664" xlink:href="#m115de6ef3f" y="100.386667"/>
     <use style="fill:#67916e;stroke:#67916e;" x="312.692773" xlink:href="#m115de6ef3f" y="134.8"/>
     <use style="fill:#67916e;stroke:#67916e;" x="317.065882" xlink:href="#m115de6ef3f" y="74.576667"/>
     <use style="fill:#67916e;stroke:#67916e;" x="321.438992" xlink:href="#m115de6ef3f" y="109.687568"/>
     <use style="fill:#67916e;stroke:#67916e;" x="325.812101" xlink:href="#m115de6ef3f" y="100.386667"/>
     <use style="fill:#67916e;stroke:#67916e;" x="330.18521" xlink:href="#m115de6ef3f" y="111.857778"/>
     <use style="fill:#67916e;stroke:#67916e;" x="334.558319" xlink:href="#m115de6ef3f" y="87.872727"/>
     <use style="fill:#67916e;stroke:#67916e;" x="338.931429" xlink:href="#m115de6ef3f" y="88.52"/>
     <use style="fill:#67916e;stroke:#67916e;" x="343.304538" xlink:href="#m115de6ef3f" y="68.7264"/>
     <use style="fill:#67916e;stroke:#67916e;" x="347.677647" xlink:href="#m115de6ef3f" y="74.28"/>
     <use style="fill:#67916e;stroke:#67916e;" x="352.050756" xlink:href="#m115de6ef3f" y="77.444444"/>
     <use style="fill:#67916e;stroke:#67916e;" x="356.423866" xlink:href="#m115de6ef3f" y="81.615758"/>
     <use style="fill:#67916e;stroke:#67916e;" x="360.796975" xlink:href="#m115de6ef3f" y="85.091852"/>
     <use style="fill:#67916e;stroke:#67916e;" x="365.170084" xlink:href="#m115de6ef3f" y="31.56"/>
     <use style="fill:#67916e;stroke:#67916e;" x="369.543193" xlink:href="#m115de6ef3f" y="48.766667"/>
     <use style="fill:#67916e;stroke:#67916e;" x="373.916303" xlink:href="#m115de6ef3f" y="49.258286"/>
     <use style="fill:#67916e;stroke:#67916e;" x="378.289412" xlink:href="#m115de6ef3f" y="44.465"/>
     <use style="fill:#67916e;stroke:#67916e;" x="382.662521" xlink:href="#m115de6ef3f" y="52.208"/>
     <use style="fill:#67916e;stroke:#67916e;" x="387.03563" xlink:href="#m115de6ef3f" y="61.057143"/>
     <use style="fill:#67916e;stroke:#67916e;" x="391.408739" xlink:href="#m115de6ef3f" y="42.427368"/>
    </g>
   </g>
  </g>
 </g>
 <defs>
  <clipPath id="p89e8aa969a">
   <rect height="206.48" width="520.4" x="41.56" y="31.56"/>
  </clipPath>
 </defs>
</svg>
