<?xml version="1.0" encoding="utf-8" standalone="no"?>
<!DOCTYPE svg PUBLIC "-//W3C//DTD SVG 1.1//EN"
  "http://www.w3.org/Graphics/SVG/1.1/DTD/svg11.dtd">
<!-- Created with matplotlib (https://matplotlib.org/) -->
<svg height="216pt" version="1.1" viewBox="0 0 576 216" width="576pt" xmlns="http://www.w3.org/2000/svg" xmlns:xlink="http://www.w3.org/1999/xlink">
 <metadata>
  <rdf:RDF xmlns:cc="http://creativecommons.org/ns#" xmlns:dc="http://purl.org/dc/elements/1.1/" xmlns:rdf="http://www.w3.org/1999/02/22-rdf-syntax-ns#">
   <cc:Work>
    <dc:type rdf:resource="http://purl.org/dc/dcmitype/StillImage"/>
    <dc:date>2021-04-07T17:46:55.219566</dc:date>
    <dc:format>image/svg+xml</dc:format>
    <dc:creator>
     <cc:Agent>
      <dc:title>Matplotlib v3.3.4, https://matplotlib.org/</dc:title>
     </cc:Agent>
    </dc:creator>
   </cc:Work>
  </rdf:RDF>
 </metadata>
 <defs>
  <style type="text/css">*{stroke-linecap:butt;stroke-linejoin:round;}</style>
 </defs>
 <g id="figure_1">
  <g id="patch_1">
   <path d="M 0 216 
L 576 216 
L 576 0 
L 0 0 
z
" style="fill:#ffffff;"/>
  </g>
  <g id="axes_1">
   <g id="patch_2">
    <path d="M 41.56 166.04 
L 561.96 166.04 
L 561.96 31.56 
L 41.56 31.56 
z
" style="fill:#ffffff;"/>
   </g>
   <g id="PolyCollection_1">
    <defs>
     <path d="M 41.56 -52.298421 
L 41.56 -51.505521 
L 45.933109 -51.648646 
L 50.306218 -51.804645 
L 54.679328 -51.974626 
L 59.052437 -52.159782 
L 63.425546 -52.3614 
L 67.798655 -52.580863 
L 72.171765 -52.819658 
L 76.544874 -53.079381 
L 80.917983 -53.361741 
L 85.291092 -53.668566 
L 89.664202 -54.001808 
L 94.037311 -54.363545 
L 98.41042 -54.755985 
L 102.783529 -55.18147 
L 107.156639 -55.642474 
L 111.529748 -56.141605 
L 115.902857 -56.681601 
L 120.275966 -57.265326 
L 124.649076 -57.895763 
L 129.022185 -58.576005 
L 133.395294 -59.309241 
L 137.768403 -60.098738 
L 142.141513 -60.947823 
L 146.514622 -61.859853 
L 150.887731 -62.838188 
L 155.26084 -63.886153 
L 159.63395 -65.006995 
L 164.007059 -66.20384 
L 168.380168 -67.479633 
L 172.753277 -68.837088 
L 177.126387 -70.278615 
L 181.499496 -71.80626 
L 185.872605 -73.421628 
L 190.245714 -75.125813 
L 194.618824 -76.919322 
L 198.991933 -78.802009 
L 203.365042 -80.773001 
L 207.738151 -82.830646 
L 212.111261 -84.972463 
L 216.48437 -87.195111 
L 220.857479 -89.49437 
L 225.230588 -91.865156 
L 229.603697 -94.301548 
L 233.976807 -96.796852 
L 238.349916 -99.343682 
L 242.723025 -101.93408 
L 247.096134 -104.55964 
L 251.469244 -107.21167 
L 255.842353 -109.881336 
L 260.215462 -112.559823 
L 264.588571 -115.238475 
L 268.961681 -117.908913 
L 273.33479 -120.563135 
L 277.707899 -123.193586 
L 282.081008 -125.793205 
L 286.454118 -128.355451 
L 290.827227 -130.874318 
L 295.200336 -133.344338 
L 299.573445 -135.760577 
L 303.946555 -138.118633 
L 308.319664 -140.414629 
L 312.692773 -142.645207 
L 317.065882 -144.807518 
L 321.438992 -146.899213 
L 325.812101 -148.91843 
L 330.18521 -150.86378 
L 334.558319 -152.734326 
L 338.931429 -154.529562 
L 343.304538 -156.24939 
L 347.677647 -157.894087 
L 352.050756 -159.464281 
L 356.423866 -160.960915 
L 360.796975 -162.385215 
L 365.170084 -163.738659 
L 369.543193 -165.022943 
L 373.916303 -166.239947 
L 378.289412 -167.391705 
L 382.662521 -168.480376 
L 387.03563 -169.508217 
L 391.408739 -170.477555 
L 395.781849 -171.390762 
L 400.154958 -172.250239 
L 404.528067 -173.058392 
L 408.901176 -173.817616 
L 413.274286 -174.530282 
L 417.647395 -175.198722 
L 422.020504 -175.82522 
L 426.393613 -176.412003 
L 430.766723 -176.961231 
L 435.139832 -177.474996 
L 439.512941 -177.955312 
L 443.88605 -178.404118 
L 448.25916 -178.823269 
L 452.632269 -179.214542 
L 457.005378 -179.579631 
L 461.378487 -179.920146 
L 465.751597 -180.237621 
L 470.124706 -180.533507 
L 474.497815 -180.809179 
L 478.870924 -181.065939 
L 483.244034 -181.305012 
L 487.617143 -181.527555 
L 491.990252 -181.734659 
L 496.363361 -181.927348 
L 500.736471 -182.106585 
L 505.10958 -182.273274 
L 509.482689 -182.428262 
L 513.855798 -182.572345 
L 518.228908 -182.706267 
L 522.602017 -182.830725 
L 526.975126 -182.946368 
L 531.348235 -183.053808 
L 535.721345 -183.153612 
L 540.094454 -183.246311 
L 544.467563 -183.332402 
L 548.840672 -183.412346 
L 553.213782 -183.486575 
L 557.586891 -183.555491 
L 561.96 -183.619468 
L 561.96 -183.880276 
L 561.96 -183.880276 
L 557.586891 -183.83391 
L 553.213782 -183.783721 
L 548.840672 -183.729398 
L 544.467563 -183.670604 
L 540.094454 -183.606976 
L 535.721345 -183.538122 
L 531.348235 -183.463618 
L 526.975126 -183.383008 
L 522.602017 -183.2958 
L 518.228908 -183.201464 
L 513.855798 -183.099428 
L 509.482689 -182.989078 
L 505.10958 -182.869751 
L 500.736471 -182.740735 
L 496.363361 -182.601266 
L 491.990252 -182.450522 
L 487.617143 -182.287619 
L 483.244034 -182.111613 
L 478.870924 -181.921487 
L 474.497815 -181.716157 
L 470.124706 -181.49446 
L 465.751597 -181.255155 
L 461.378487 -180.996918 
L 457.005378 -180.718335 
L 452.632269 -180.417903 
L 448.25916 -180.094025 
L 443.88605 -179.745006 
L 439.512941 -179.369049 
L 435.139832 -178.964258 
L 430.766723 -178.52863 
L 426.393613 -178.060059 
L 422.020504 -177.556335 
L 417.647395 -177.015145 
L 413.274286 -176.434076 
L 408.901176 -175.810622 
L 404.528067 -175.142186 
L 400.154958 -174.426092 
L 395.781849 -173.659597 
L 391.408739 -172.839899 
L 387.03563 -171.964161 
L 382.662521 -171.029525 
L 378.289412 -170.033139 
L 373.916303 -168.97218 
L 369.543193 -167.843888 
L 365.170084 -166.645599 
L 360.796975 -165.374783 
L 356.423866 -164.029086 
L 352.050756 -162.606372 
L 347.677647 -161.104777 
L 343.304538 -159.522754 
L 338.931429 -157.859128 
L 334.558319 -156.113145 
L 330.18521 -154.284529 
L 325.812101 -152.373526 
L 321.438992 -150.380957 
L 317.065882 -148.308255 
L 312.692773 -146.157502 
L 308.319664 -143.931456 
L 303.946555 -141.63357 
L 299.573445 -139.267992 
L 295.200336 -136.839566 
L 290.827227 -134.353806 
L 286.454118 -131.816861 
L 282.081008 -129.235472 
L 277.707899 -126.616905 
L 273.33479 -123.968874 
L 268.961681 -121.299462 
L 264.588571 -118.617016 
L 260.215462 -115.930049 
L 255.842353 -113.247134 
L 251.469244 -110.57679 
L 247.096134 -107.927377 
L 242.723025 -105.306993 
L 238.349916 -102.723377 
L 233.976807 -100.183819 
L 229.603697 -97.695092 
L 225.230588 -95.263378 
L 220.857479 -92.894229 
L 216.48437 -90.592522 
L 212.111261 -88.362448 
L 207.738151 -86.207495 
L 203.365042 -84.13046 
L 198.991933 -82.133461 
L 194.618824 -80.217966 
L 190.245714 -78.384828 
L 185.872605 -76.634324 
L 181.499496 -74.966204 
L 177.126387 -73.379741 
L 172.753277 -71.87378 
L 168.380168 -70.446793 
L 164.007059 -69.096932 
L 159.63395 -67.822075 
L 155.26084 -66.61988 
L 150.887731 -65.487824 
L 146.514622 -64.42325 
L 142.141513 -63.423401 
L 137.768403 -62.485458 
L 133.395294 -61.606569 
L 129.022185 -60.783877 
L 124.649076 -60.014542 
L 120.275966 -59.29576 
L 115.902857 -58.624785 
L 111.529748 -57.998936 
L 107.156639 -57.415613 
L 102.783529 -56.872303 
L 98.41042 -56.366588 
L 94.037311 -55.896151 
L 89.664202 -55.458775 
L 85.291092 -55.052348 
L 80.917983 -54.674863 
L 76.544874 -54.324416 
L 72.171765 -53.999207 
L 67.798655 -53.697534 
L 63.425546 -53.417794 
L 59.052437 -53.15848 
L 54.679328 -52.918174 
L 50.306218 -52.695546 
L 45.933109 -52.48935 
L 41.56 -52.298421 
z
" id="mb6b087e0bd" style="stroke:#bfbfbf;"/>
    </defs>
    <g clip-path="url(#p70f5bd9b81)">
     <use style="fill:#bfbfbf;stroke:#bfbfbf;" x="0" xlink:href="#mb6b087e0bd" y="216"/>
    </g>
   </g>
   <g id="PolyCollection_2">
    <defs>
     <path d="M 41.56 -52.298421 
L 41.56 -53.091322 
L 45.933109 -53.330055 
L 50.306218 -53.586447 
L 54.679328 -53.861722 
L 59.052437 -54.157178 
L 63.425546 -54.474189 
L 67.798655 -54.814205 
L 72.171765 -55.178756 
L 76.544874 -55.569452 
L 80.917983 -55.987985 
L 85.291092 -56.43613 
L 89.664202 -56.915742 
L 94.037311 -57.428758 
L 98.41042 -57.977192 
L 102.783529 -58.563136 
L 107.156639 -59.188751 
L 111.529748 -59.856267 
L 115.902857 -60.567969 
L 120.275966 -61.326195 
L 124.649076 -62.13332 
L 129.022185 -62.991749 
L 133.395294 -63.903897 
L 137.768403 -64.872177 
L 142.141513 -65.898978 
L 146.514622 -66.986646 
L 150.887731 -68.13746 
L 155.26084 -69.353607 
L 159.63395 -70.637156 
L 164.007059 -71.990024 
L 168.380168 -73.413953 
L 172.753277 -74.910471 
L 177.126387 -76.480866 
L 181.499496 -78.126148 
L 185.872605 -79.84702 
L 190.245714 -81.643843 
L 194.618824 -83.51661 
L 198.991933 -85.464913 
L 203.365042 -87.487919 
L 207.738151 -89.584344 
L 212.111261 -91.752433 
L 216.48437 -93.989934 
L 220.857479 -96.294088 
L 225.230588 -98.661601 
L 229.603697 -101.088636 
L 233.976807 -103.570787 
L 238.349916 -106.103071 
L 242.723025 -108.679907 
L 247.096134 -111.295114 
L 251.469244 -113.94191 
L 255.842353 -116.612933 
L 260.215462 -119.300275 
L 264.588571 -121.995556 
L 268.961681 -124.690011 
L 273.33479 -127.374614 
L 277.707899 -130.040223 
L 282.081008 -132.67774 
L 286.454118 -135.278271 
L 290.827227 -137.833293 
L 295.200336 -140.334795 
L 299.573445 -142.775408 
L 303.946555 -145.148507 
L 308.319664 -147.448284 
L 312.692773 -149.669797 
L 317.065882 -151.808992 
L 321.438992 -153.862702 
L 325.812101 -155.828623 
L 330.18521 -157.705278 
L 334.558319 -159.491965 
L 338.931429 -161.188694 
L 343.304538 -162.796119 
L 347.677647 -164.315467 
L 352.050756 -165.748463 
L 356.423866 -167.097257 
L 360.796975 -168.364352 
L 365.170084 -169.552539 
L 369.543193 -170.664833 
L 373.916303 -171.704413 
L 378.289412 -172.674573 
L 382.662521 -173.578674 
L 387.03563 -174.420105 
L 391.408739 -175.202244 
L 395.781849 -175.928432 
L 400.154958 -176.601946 
L 404.528067 -177.22598 
L 408.901176 -177.803628 
L 413.274286 -178.337871 
L 417.647395 -178.831568 
L 422.020504 -179.287449 
L 426.393613 -179.708115 
L 430.766723 -180.096028 
L 435.139832 -180.45352 
L 439.512941 -180.782786 
L 443.88605 -181.085894 
L 448.25916 -181.364781 
L 452.632269 -181.621264 
L 457.005378 -181.857038 
L 461.378487 -182.073689 
L 465.751597 -182.27269 
L 470.124706 -182.455413 
L 474.497815 -182.623134 
L 478.870924 -182.777036 
L 483.244034 -182.918214 
L 487.617143 -183.047684 
L 491.990252 -183.166384 
L 496.363361 -183.275185 
L 500.736471 -183.374886 
L 505.10958 -183.466228 
L 509.482689 -183.549893 
L 513.855798 -183.626511 
L 518.228908 -183.696661 
L 522.602017 -183.760876 
L 526.975126 -183.819648 
L 531.348235 -183.873429 
L 535.721345 -183.922632 
L 540.094454 -183.967641 
L 544.467563 -184.008806 
L 548.840672 -184.046449 
L 553.213782 -184.080866 
L 557.586891 -184.112329 
L 561.96 -184.141085 
L 561.96 -183.880276 
L 561.96 -183.880276 
L 557.586891 -183.83391 
L 553.213782 -183.783721 
L 548.840672 -183.729398 
L 544.467563 -183.670604 
L 540.094454 -183.606976 
L 535.721345 -183.538122 
L 531.348235 -183.463618 
L 526.975126 -183.383008 
L 522.602017 -183.2958 
L 518.228908 -183.201464 
L 513.855798 -183.099428 
L 509.482689 -182.989078 
L 505.10958 -182.869751 
L 500.736471 -182.740735 
L 496.363361 -182.601266 
L 491.990252 -182.450522 
L 487.617143 -182.287619 
L 483.244034 -182.111613 
L 478.870924 -181.921487 
L 474.497815 -181.716157 
L 470.124706 -181.49446 
L 465.751597 -181.255155 
L 461.378487 -180.996918 
L 457.005378 -180.718335 
L 452.632269 -180.417903 
L 448.25916 -180.094025 
L 443.88605 -179.745006 
L 439.512941 -179.369049 
L 435.139832 -178.964258 
L 430.766723 -178.52863 
L 426.393613 -178.060059 
L 422.020504 -177.556335 
L 417.647395 -177.015145 
L 413.274286 -176.434076 
L 408.901176 -175.810622 
L 404.528067 -175.142186 
L 400.154958 -174.426092 
L 395.781849 -173.659597 
L 391.408739 -172.839899 
L 387.03563 -171.964161 
L 382.662521 -171.029525 
L 378.289412 -170.033139 
L 373.916303 -168.97218 
L 369.543193 -167.843888 
L 365.170084 -166.645599 
L 360.796975 -165.374783 
L 356.423866 -164.029086 
L 352.050756 -162.606372 
L 347.677647 -161.104777 
L 343.304538 -159.522754 
L 338.931429 -157.859128 
L 334.558319 -156.113145 
L 330.18521 -154.284529 
L 325.812101 -152.373526 
L 321.438992 -150.380957 
L 317.065882 -148.308255 
L 312.692773 -146.157502 
L 308.319664 -143.931456 
L 303.946555 -141.63357 
L 299.573445 -139.267992 
L 295.200336 -136.839566 
L 290.827227 -134.353806 
L 286.454118 -131.816861 
L 282.081008 -129.235472 
L 277.707899 -126.616905 
L 273.33479 -123.968874 
L 268.961681 -121.299462 
L 264.588571 -118.617016 
L 260.215462 -115.930049 
L 255.842353 -113.247134 
L 251.469244 -110.57679 
L 247.096134 -107.927377 
L 242.723025 -105.306993 
L 238.349916 -102.723377 
L 233.976807 -100.183819 
L 229.603697 -97.695092 
L 225.230588 -95.263378 
L 220.857479 -92.894229 
L 216.48437 -90.592522 
L 212.111261 -88.362448 
L 207.738151 -86.207495 
L 203.365042 -84.13046 
L 198.991933 -82.133461 
L 194.618824 -80.217966 
L 190.245714 -78.384828 
L 185.872605 -76.634324 
L 181.499496 -74.966204 
L 177.126387 -73.379741 
L 172.753277 -71.87378 
L 168.380168 -70.446793 
L 164.007059 -69.096932 
L 159.63395 -67.822075 
L 155.26084 -66.61988 
L 150.887731 -65.487824 
L 146.514622 -64.42325 
L 142.141513 -63.423401 
L 137.768403 -62.485458 
L 133.395294 -61.606569 
L 129.022185 -60.783877 
L 124.649076 -60.014542 
L 120.275966 -59.29576 
L 115.902857 -58.624785 
L 111.529748 -57.998936 
L 107.156639 -57.415613 
L 102.783529 -56.872303 
L 98.41042 -56.366588 
L 94.037311 -55.896151 
L 89.664202 -55.458775 
L 85.291092 -55.052348 
L 80.917983 -54.674863 
L 76.544874 -54.324416 
L 72.171765 -53.999207 
L 67.798655 -53.697534 
L 63.425546 -53.417794 
L 59.052437 -53.15848 
L 54.679328 -52.918174 
L 50.306218 -52.695546 
L 45.933109 -52.48935 
L 41.56 -52.298421 
z
" id="m966eed7763" style="stroke:#bfbfbf;"/>
    </defs>
    <g clip-path="url(#p70f5bd9b81)">
     <use style="fill:#bfbfbf;stroke:#bfbfbf;" x="0" xlink:href="#m966eed7763" y="216"/>
    </g>
   </g>
   <g id="matplotlib.axis_1">
    <g id="xtick_1">
     <g id="line2d_1">
      <defs>
       <path d="M 0 0 
L 0 3.5 
" id="m092b80f9c8" style="stroke:#000000;stroke-width:0.8;"/>
      </defs>
      <g>
       <use style="stroke:#000000;stroke-width:0.8;" x="45.933109" xlink:href="#m092b80f9c8" y="166.04"/>
      </g>
     </g>
     <g id="text_1">
      <!-- 15 -->
      <g transform="translate(37.661859 182.917969)scale(0.13 -0.13)">
       <defs>
        <path d="M 12.40625 8.296875 
L 28.515625 8.296875 
L 28.515625 63.921875 
L 10.984375 60.40625 
L 10.984375 69.390625 
L 28.421875 72.90625 
L 38.28125 72.90625 
L 38.28125 8.296875 
L 54.390625 8.296875 
L 54.390625 0 
L 12.40625 0 
z
" id="DejaVuSans-49"/>
        <path d="M 10.796875 72.90625 
L 49.515625 72.90625 
L 49.515625 64.59375 
L 19.828125 64.59375 
L 19.828125 46.734375 
Q 21.96875 47.46875 24.109375 47.828125 
Q 26.265625 48.1875 28.421875 48.1875 
Q 40.625 48.1875 47.75 41.5 
Q 54.890625 34.8125 54.890625 23.390625 
Q 54.890625 11.625 47.5625 5.09375 
Q 40.234375 -1.421875 26.90625 -1.421875 
Q 22.3125 -1.421875 17.546875 -0.640625 
Q 12.796875 0.140625 7.71875 1.703125 
L 7.71875 11.625 
Q 12.109375 9.234375 16.796875 8.0625 
Q 21.484375 6.890625 26.703125 6.890625 
Q 35.15625 6.890625 40.078125 11.328125 
Q 45.015625 15.765625 45.015625 23.390625 
Q 45.015625 31 40.078125 35.4375 
Q 35.15625 39.890625 26.703125 39.890625 
Q 22.75 39.890625 18.8125 39.015625 
Q 14.890625 38.140625 10.796875 36.28125 
z
" id="DejaVuSans-53"/>
       </defs>
       <use xlink:href="#DejaVuSans-49"/>
       <use x="63.623047" xlink:href="#DejaVuSans-53"/>
      </g>
     </g>
    </g>
    <g id="xtick_2">
     <g id="line2d_2">
      <g>
       <use style="stroke:#000000;stroke-width:0.8;" x="120.275966" xlink:href="#m092b80f9c8" y="166.04"/>
      </g>
     </g>
     <g id="text_2">
      <!-- Jan -->
      <g transform="translate(110.25581 182.917969)scale(0.13 -0.13)">
       <defs>
        <path d="M 9.8125 72.90625 
L 19.671875 72.90625 
L 19.671875 5.078125 
Q 19.671875 -8.109375 14.671875 -14.0625 
Q 9.671875 -20.015625 -1.421875 -20.015625 
L -5.171875 -20.015625 
L -5.171875 -11.71875 
L -2.09375 -11.71875 
Q 4.4375 -11.71875 7.125 -8.046875 
Q 9.8125 -4.390625 9.8125 5.078125 
z
" id="DejaVuSans-74"/>
        <path d="M 34.28125 27.484375 
Q 23.390625 27.484375 19.1875 25 
Q 14.984375 22.515625 14.984375 16.5 
Q 14.984375 11.71875 18.140625 8.90625 
Q 21.296875 6.109375 26.703125 6.109375 
Q 34.1875 6.109375 38.703125 11.40625 
Q 43.21875 16.703125 43.21875 25.484375 
L 43.21875 27.484375 
z
M 52.203125 31.203125 
L 52.203125 0 
L 43.21875 0 
L 43.21875 8.296875 
Q 40.140625 3.328125 35.546875 0.953125 
Q 30.953125 -1.421875 24.3125 -1.421875 
Q 15.921875 -1.421875 10.953125 3.296875 
Q 6 8.015625 6 15.921875 
Q 6 25.140625 12.171875 29.828125 
Q 18.359375 34.515625 30.609375 34.515625 
L 43.21875 34.515625 
L 43.21875 35.40625 
Q 43.21875 41.609375 39.140625 45 
Q 35.0625 48.390625 27.6875 48.390625 
Q 23 48.390625 18.546875 47.265625 
Q 14.109375 46.140625 10.015625 43.890625 
L 10.015625 52.203125 
Q 14.9375 54.109375 19.578125 55.046875 
Q 24.21875 56 28.609375 56 
Q 40.484375 56 46.34375 49.84375 
Q 52.203125 43.703125 52.203125 31.203125 
z
" id="DejaVuSans-97"/>
        <path d="M 54.890625 33.015625 
L 54.890625 0 
L 45.90625 0 
L 45.90625 32.71875 
Q 45.90625 40.484375 42.875 44.328125 
Q 39.84375 48.1875 33.796875 48.1875 
Q 26.515625 48.1875 22.3125 43.546875 
Q 18.109375 38.921875 18.109375 30.90625 
L 18.109375 0 
L 9.078125 0 
L 9.078125 54.6875 
L 18.109375 54.6875 
L 18.109375 46.1875 
Q 21.34375 51.125 25.703125 53.5625 
Q 30.078125 56 35.796875 56 
Q 45.21875 56 50.046875 50.171875 
Q 54.890625 44.34375 54.890625 33.015625 
z
" id="DejaVuSans-110"/>
       </defs>
       <use xlink:href="#DejaVuSans-74"/>
       <use x="29.492188" xlink:href="#DejaVuSans-97"/>
       <use x="90.771484" xlink:href="#DejaVuSans-110"/>
      </g>
     </g>
    </g>
    <g id="xtick_3">
     <g id="line2d_3">
      <g>
       <use style="stroke:#000000;stroke-width:0.8;" x="181.499496" xlink:href="#m092b80f9c8" y="166.04"/>
      </g>
     </g>
     <g id="text_3">
      <!-- 15 -->
      <g transform="translate(173.228246 182.917969)scale(0.13 -0.13)">
       <use xlink:href="#DejaVuSans-49"/>
       <use x="63.623047" xlink:href="#DejaVuSans-53"/>
      </g>
     </g>
    </g>
    <g id="xtick_4">
     <g id="line2d_4">
      <g>
       <use style="stroke:#000000;stroke-width:0.8;" x="255.842353" xlink:href="#m092b80f9c8" y="166.04"/>
      </g>
     </g>
     <g id="text_4">
      <!-- Feb -->
      <g transform="translate(244.335322 182.917969)scale(0.13 -0.13)">
       <defs>
        <path d="M 9.8125 72.90625 
L 51.703125 72.90625 
L 51.703125 64.59375 
L 19.671875 64.59375 
L 19.671875 43.109375 
L 48.578125 43.109375 
L 48.578125 34.8125 
L 19.671875 34.8125 
L 19.671875 0 
L 9.8125 0 
z
" id="DejaVuSans-70"/>
        <path d="M 56.203125 29.59375 
L 56.203125 25.203125 
L 14.890625 25.203125 
Q 15.484375 15.921875 20.484375 11.0625 
Q 25.484375 6.203125 34.421875 6.203125 
Q 39.59375 6.203125 44.453125 7.46875 
Q 49.3125 8.734375 54.109375 11.28125 
L 54.109375 2.78125 
Q 49.265625 0.734375 44.1875 -0.34375 
Q 39.109375 -1.421875 33.890625 -1.421875 
Q 20.796875 -1.421875 13.15625 6.1875 
Q 5.515625 13.8125 5.515625 26.8125 
Q 5.515625 40.234375 12.765625 48.109375 
Q 20.015625 56 32.328125 56 
Q 43.359375 56 49.78125 48.890625 
Q 56.203125 41.796875 56.203125 29.59375 
z
M 47.21875 32.234375 
Q 47.125 39.59375 43.09375 43.984375 
Q 39.0625 48.390625 32.421875 48.390625 
Q 24.90625 48.390625 20.390625 44.140625 
Q 15.875 39.890625 15.1875 32.171875 
z
" id="DejaVuSans-101"/>
        <path d="M 48.6875 27.296875 
Q 48.6875 37.203125 44.609375 42.84375 
Q 40.53125 48.484375 33.40625 48.484375 
Q 26.265625 48.484375 22.1875 42.84375 
Q 18.109375 37.203125 18.109375 27.296875 
Q 18.109375 17.390625 22.1875 11.75 
Q 26.265625 6.109375 33.40625 6.109375 
Q 40.53125 6.109375 44.609375 11.75 
Q 48.6875 17.390625 48.6875 27.296875 
z
M 18.109375 46.390625 
Q 20.953125 51.265625 25.265625 53.625 
Q 29.59375 56 35.59375 56 
Q 45.5625 56 51.78125 48.09375 
Q 58.015625 40.1875 58.015625 27.296875 
Q 58.015625 14.40625 51.78125 6.484375 
Q 45.5625 -1.421875 35.59375 -1.421875 
Q 29.59375 -1.421875 25.265625 0.953125 
Q 20.953125 3.328125 18.109375 8.203125 
L 18.109375 0 
L 9.078125 0 
L 9.078125 75.984375 
L 18.109375 75.984375 
z
" id="DejaVuSans-98"/>
       </defs>
       <use xlink:href="#DejaVuSans-70"/>
       <use x="52.019531" xlink:href="#DejaVuSans-101"/>
       <use x="113.542969" xlink:href="#DejaVuSans-98"/>
      </g>
     </g>
    </g>
    <g id="xtick_5">
     <g id="line2d_5">
      <g>
       <use style="stroke:#000000;stroke-width:0.8;" x="317.065882" xlink:href="#m092b80f9c8" y="166.04"/>
      </g>
     </g>
     <g id="text_5">
      <!-- 15 -->
      <g transform="translate(308.794632 182.917969)scale(0.13 -0.13)">
       <use xlink:href="#DejaVuSans-49"/>
       <use x="63.623047" xlink:href="#DejaVuSans-53"/>
      </g>
     </g>
    </g>
    <g id="xtick_6">
     <g id="line2d_6">
      <g>
       <use style="stroke:#000000;stroke-width:0.8;" x="378.289412" xlink:href="#m092b80f9c8" y="166.04"/>
      </g>
     </g>
     <g id="text_6">
      <!-- Mar -->
      <g transform="translate(366.02574 182.917969)scale(0.13 -0.13)">
       <defs>
        <path d="M 9.8125 72.90625 
L 24.515625 72.90625 
L 43.109375 23.296875 
L 61.8125 72.90625 
L 76.515625 72.90625 
L 76.515625 0 
L 66.890625 0 
L 66.890625 64.015625 
L 48.09375 14.015625 
L 38.1875 14.015625 
L 19.390625 64.015625 
L 19.390625 0 
L 9.8125 0 
z
" id="DejaVuSans-77"/>
        <path d="M 41.109375 46.296875 
Q 39.59375 47.171875 37.8125 47.578125 
Q 36.03125 48 33.890625 48 
Q 26.265625 48 22.1875 43.046875 
Q 18.109375 38.09375 18.109375 28.8125 
L 18.109375 0 
L 9.078125 0 
L 9.078125 54.6875 
L 18.109375 54.6875 
L 18.109375 46.1875 
Q 20.953125 51.171875 25.484375 53.578125 
Q 30.03125 56 36.53125 56 
Q 37.453125 56 38.578125 55.875 
Q 39.703125 55.765625 41.0625 55.515625 
z
" id="DejaVuSans-114"/>
       </defs>
       <use xlink:href="#DejaVuSans-77"/>
       <use x="86.279297" xlink:href="#DejaVuSans-97"/>
       <use x="147.558594" xlink:href="#DejaVuSans-114"/>
      </g>
     </g>
    </g>
    <g id="xtick_7">
     <g id="line2d_7">
      <g>
       <use style="stroke:#000000;stroke-width:0.8;" x="439.512941" xlink:href="#m092b80f9c8" y="166.04"/>
      </g>
     </g>
     <g id="text_7">
      <!-- 15 -->
      <g transform="translate(431.241691 182.917969)scale(0.13 -0.13)">
       <use xlink:href="#DejaVuSans-49"/>
       <use x="63.623047" xlink:href="#DejaVuSans-53"/>
      </g>
     </g>
    </g>
    <g id="xtick_8">
     <g id="line2d_8">
      <g>
       <use style="stroke:#000000;stroke-width:0.8;" x="513.855798" xlink:href="#m092b80f9c8" y="166.04"/>
      </g>
     </g>
     <g id="text_8">
      <!-- Apr -->
      <g transform="translate(502.610798 182.917969)scale(0.13 -0.13)">
       <defs>
        <path d="M 34.1875 63.1875 
L 20.796875 26.90625 
L 47.609375 26.90625 
z
M 28.609375 72.90625 
L 39.796875 72.90625 
L 67.578125 0 
L 57.328125 0 
L 50.6875 18.703125 
L 17.828125 18.703125 
L 11.1875 0 
L 0.78125 0 
z
" id="DejaVuSans-65"/>
        <path d="M 18.109375 8.203125 
L 18.109375 -20.796875 
L 9.078125 -20.796875 
L 9.078125 54.6875 
L 18.109375 54.6875 
L 18.109375 46.390625 
Q 20.953125 51.265625 25.265625 53.625 
Q 29.59375 56 35.59375 56 
Q 45.5625 56 51.78125 48.09375 
Q 58.015625 40.1875 58.015625 27.296875 
Q 58.015625 14.40625 51.78125 6.484375 
Q 45.5625 -1.421875 35.59375 -1.421875 
Q 29.59375 -1.421875 25.265625 0.953125 
Q 20.953125 3.328125 18.109375 8.203125 
z
M 48.6875 27.296875 
Q 48.6875 37.203125 44.609375 42.84375 
Q 40.53125 48.484375 33.40625 48.484375 
Q 26.265625 48.484375 22.1875 42.84375 
Q 18.109375 37.203125 18.109375 27.296875 
Q 18.109375 17.390625 22.1875 11.75 
Q 26.265625 6.109375 33.40625 6.109375 
Q 40.53125 6.109375 44.609375 11.75 
Q 48.6875 17.390625 48.6875 27.296875 
z
" id="DejaVuSans-112"/>
       </defs>
       <use xlink:href="#DejaVuSans-65"/>
       <use x="68.408203" xlink:href="#DejaVuSans-112"/>
       <use x="131.884766" xlink:href="#DejaVuSans-114"/>
      </g>
     </g>
    </g>
    <g id="text_9">
     <!-- 2021-Apr -->
     <g transform="translate(501.987344 198.499531)scale(0.13 -0.13)">
      <defs>
       <path d="M 19.1875 8.296875 
L 53.609375 8.296875 
L 53.609375 0 
L 7.328125 0 
L 7.328125 8.296875 
Q 12.9375 14.109375 22.625 23.890625 
Q 32.328125 33.6875 34.8125 36.53125 
Q 39.546875 41.84375 41.421875 45.53125 
Q 43.3125 49.21875 43.3125 52.78125 
Q 43.3125 58.59375 39.234375 62.25 
Q 35.15625 65.921875 28.609375 65.921875 
Q 23.96875 65.921875 18.8125 64.3125 
Q 13.671875 62.703125 7.8125 59.421875 
L 7.8125 69.390625 
Q 13.765625 71.78125 18.9375 73 
Q 24.125 74.21875 28.421875 74.21875 
Q 39.75 74.21875 46.484375 68.546875 
Q 53.21875 62.890625 53.21875 53.421875 
Q 53.21875 48.921875 51.53125 44.890625 
Q 49.859375 40.875 45.40625 35.40625 
Q 44.1875 33.984375 37.640625 27.21875 
Q 31.109375 20.453125 19.1875 8.296875 
z
" id="DejaVuSans-50"/>
       <path d="M 31.78125 66.40625 
Q 24.171875 66.40625 20.328125 58.90625 
Q 16.5 51.421875 16.5 36.375 
Q 16.5 21.390625 20.328125 13.890625 
Q 24.171875 6.390625 31.78125 6.390625 
Q 39.453125 6.390625 43.28125 13.890625 
Q 47.125 21.390625 47.125 36.375 
Q 47.125 51.421875 43.28125 58.90625 
Q 39.453125 66.40625 31.78125 66.40625 
z
M 31.78125 74.21875 
Q 44.046875 74.21875 50.515625 64.515625 
Q 56.984375 54.828125 56.984375 36.375 
Q 56.984375 17.96875 50.515625 8.265625 
Q 44.046875 -1.421875 31.78125 -1.421875 
Q 19.53125 -1.421875 13.0625 8.265625 
Q 6.59375 17.96875 6.59375 36.375 
Q 6.59375 54.828125 13.0625 64.515625 
Q 19.53125 74.21875 31.78125 74.21875 
z
" id="DejaVuSans-48"/>
       <path d="M 4.890625 31.390625 
L 31.203125 31.390625 
L 31.203125 23.390625 
L 4.890625 23.390625 
z
" id="DejaVuSans-45"/>
      </defs>
      <use xlink:href="#DejaVuSans-50"/>
      <use x="63.623047" xlink:href="#DejaVuSans-48"/>
      <use x="127.246094" xlink:href="#DejaVuSans-50"/>
      <use x="190.869141" xlink:href="#DejaVuSans-49"/>
      <use x="254.492188" xlink:href="#DejaVuSans-45"/>
      <use x="288.326172" xlink:href="#DejaVuSans-65"/>
      <use x="356.734375" xlink:href="#DejaVuSans-112"/>
      <use x="420.210938" xlink:href="#DejaVuSans-114"/>
     </g>
    </g>
   </g>
   <g id="matplotlib.axis_2">
    <g id="ytick_1">
     <g id="line2d_9">
      <defs>
       <path d="M 0 0 
L -3.5 0 
" id="m6aefca9b7c" style="stroke:#000000;stroke-width:0.8;"/>
      </defs>
      <g>
       <use style="stroke:#000000;stroke-width:0.8;" x="41.56" xlink:href="#m6aefca9b7c" y="166.04"/>
      </g>
     </g>
     <g id="text_10">
      <!-- 0.0 -->
      <g transform="translate(13.885938 170.978984)scale(0.13 -0.13)">
       <defs>
        <path d="M 10.6875 12.40625 
L 21 12.40625 
L 21 0 
L 10.6875 0 
z
" id="DejaVuSans-46"/>
       </defs>
       <use xlink:href="#DejaVuSans-48"/>
       <use x="63.623047" xlink:href="#DejaVuSans-46"/>
       <use x="95.410156" xlink:href="#DejaVuSans-48"/>
      </g>
     </g>
    </g>
    <g id="ytick_2">
     <g id="line2d_10">
      <g>
       <use style="stroke:#000000;stroke-width:0.8;" x="41.56" xlink:href="#m6aefca9b7c" y="139.144"/>
      </g>
     </g>
     <g id="text_11">
      <!-- 0.2 -->
      <g transform="translate(13.885938 144.082984)scale(0.13 -0.13)">
       <use xlink:href="#DejaVuSans-48"/>
       <use x="63.623047" xlink:href="#DejaVuSans-46"/>
       <use x="95.410156" xlink:href="#DejaVuSans-50"/>
      </g>
     </g>
    </g>
    <g id="ytick_3">
     <g id="line2d_11">
      <g>
       <use style="stroke:#000000;stroke-width:0.8;" x="41.56" xlink:href="#m6aefca9b7c" y="112.248"/>
      </g>
     </g>
     <g id="text_12">
      <!-- 0.4 -->
      <g transform="translate(13.885938 117.186984)scale(0.13 -0.13)">
       <defs>
        <path d="M 37.796875 64.3125 
L 12.890625 25.390625 
L 37.796875 25.390625 
z
M 35.203125 72.90625 
L 47.609375 72.90625 
L 47.609375 25.390625 
L 58.015625 25.390625 
L 58.015625 17.1875 
L 47.609375 17.1875 
L 47.609375 0 
L 37.796875 0 
L 37.796875 17.1875 
L 4.890625 17.1875 
L 4.890625 26.703125 
z
" id="DejaVuSans-52"/>
       </defs>
       <use xlink:href="#DejaVuSans-48"/>
       <use x="63.623047" xlink:href="#DejaVuSans-46"/>
       <use x="95.410156" xlink:href="#DejaVuSans-52"/>
      </g>
     </g>
    </g>
    <g id="ytick_4">
     <g id="line2d_12">
      <g>
       <use style="stroke:#000000;stroke-width:0.8;" x="41.56" xlink:href="#m6aefca9b7c" y="85.352"/>
      </g>
     </g>
     <g id="text_13">
      <!-- 0.6 -->
      <g transform="translate(13.885938 90.290984)scale(0.13 -0.13)">
       <defs>
        <path d="M 33.015625 40.375 
Q 26.375 40.375 22.484375 35.828125 
Q 18.609375 31.296875 18.609375 23.390625 
Q 18.609375 15.53125 22.484375 10.953125 
Q 26.375 6.390625 33.015625 6.390625 
Q 39.65625 6.390625 43.53125 10.953125 
Q 47.40625 15.53125 47.40625 23.390625 
Q 47.40625 31.296875 43.53125 35.828125 
Q 39.65625 40.375 33.015625 40.375 
z
M 52.59375 71.296875 
L 52.59375 62.3125 
Q 48.875 64.0625 45.09375 64.984375 
Q 41.3125 65.921875 37.59375 65.921875 
Q 27.828125 65.921875 22.671875 59.328125 
Q 17.53125 52.734375 16.796875 39.40625 
Q 19.671875 43.65625 24.015625 45.921875 
Q 28.375 48.1875 33.59375 48.1875 
Q 44.578125 48.1875 50.953125 41.515625 
Q 57.328125 34.859375 57.328125 23.390625 
Q 57.328125 12.15625 50.6875 5.359375 
Q 44.046875 -1.421875 33.015625 -1.421875 
Q 20.359375 -1.421875 13.671875 8.265625 
Q 6.984375 17.96875 6.984375 36.375 
Q 6.984375 53.65625 15.1875 63.9375 
Q 23.390625 74.21875 37.203125 74.21875 
Q 40.921875 74.21875 44.703125 73.484375 
Q 48.484375 72.75 52.59375 71.296875 
z
" id="DejaVuSans-54"/>
       </defs>
       <use xlink:href="#DejaVuSans-48"/>
       <use x="63.623047" xlink:href="#DejaVuSans-46"/>
       <use x="95.410156" xlink:href="#DejaVuSans-54"/>
      </g>
     </g>
    </g>
    <g id="ytick_5">
     <g id="line2d_13">
      <g>
       <use style="stroke:#000000;stroke-width:0.8;" x="41.56" xlink:href="#m6aefca9b7c" y="58.456"/>
      </g>
     </g>
     <g id="text_14">
      <!-- 0.8 -->
      <g transform="translate(13.885938 63.394984)scale(0.13 -0.13)">
       <defs>
        <path d="M 31.78125 34.625 
Q 24.75 34.625 20.71875 30.859375 
Q 16.703125 27.09375 16.703125 20.515625 
Q 16.703125 13.921875 20.71875 10.15625 
Q 24.75 6.390625 31.78125 6.390625 
Q 38.8125 6.390625 42.859375 10.171875 
Q 46.921875 13.96875 46.921875 20.515625 
Q 46.921875 27.09375 42.890625 30.859375 
Q 38.875 34.625 31.78125 34.625 
z
M 21.921875 38.8125 
Q 15.578125 40.375 12.03125 44.71875 
Q 8.5 49.078125 8.5 55.328125 
Q 8.5 64.0625 14.71875 69.140625 
Q 20.953125 74.21875 31.78125 74.21875 
Q 42.671875 74.21875 48.875 69.140625 
Q 55.078125 64.0625 55.078125 55.328125 
Q 55.078125 49.078125 51.53125 44.71875 
Q 48 40.375 41.703125 38.8125 
Q 48.828125 37.15625 52.796875 32.3125 
Q 56.78125 27.484375 56.78125 20.515625 
Q 56.78125 9.90625 50.3125 4.234375 
Q 43.84375 -1.421875 31.78125 -1.421875 
Q 19.734375 -1.421875 13.25 4.234375 
Q 6.78125 9.90625 6.78125 20.515625 
Q 6.78125 27.484375 10.78125 32.3125 
Q 14.796875 37.15625 21.921875 38.8125 
z
M 18.3125 54.390625 
Q 18.3125 48.734375 21.84375 45.5625 
Q 25.390625 42.390625 31.78125 42.390625 
Q 38.140625 42.390625 41.71875 45.5625 
Q 45.3125 48.734375 45.3125 54.390625 
Q 45.3125 60.0625 41.71875 63.234375 
Q 38.140625 66.40625 31.78125 66.40625 
Q 25.390625 66.40625 21.84375 63.234375 
Q 18.3125 60.0625 18.3125 54.390625 
z
" id="DejaVuSans-56"/>
       </defs>
       <use xlink:href="#DejaVuSans-48"/>
       <use x="63.623047" xlink:href="#DejaVuSans-46"/>
       <use x="95.410156" xlink:href="#DejaVuSans-56"/>
      </g>
     </g>
    </g>
    <g id="ytick_6">
     <g id="line2d_14">
      <g>
       <use style="stroke:#000000;stroke-width:0.8;" x="41.56" xlink:href="#m6aefca9b7c" y="31.56"/>
      </g>
     </g>
     <g id="text_15">
      <!-- 1.0 -->
      <g transform="translate(13.885938 36.498984)scale(0.13 -0.13)">
       <use xlink:href="#DejaVuSans-49"/>
       <use x="63.623047" xlink:href="#DejaVuSans-46"/>
       <use x="95.410156" xlink:href="#DejaVuSans-48"/>
      </g>
     </g>
    </g>
   </g>
   <g id="LineCollection_1">
    <path clip-path="url(#p70f5bd9b81)" d="M 80.917983 166.04 
L 80.917983 59.336752 
" style="fill:none;stroke:#0d4a70;stroke-width:1.5;"/>
    <path clip-path="url(#p70f5bd9b81)" d="M 85.291092 166.04 
L 85.291092 135.365734 
" style="fill:none;stroke:#0d4a70;stroke-width:1.5;"/>
    <path clip-path="url(#p70f5bd9b81)" d="M 89.664202 166.04 
L 89.664202 128.717389 
" style="fill:none;stroke:#0d4a70;stroke-width:1.5;"/>
    <path clip-path="url(#p70f5bd9b81)" d="M 94.037311 147.63718 
L 94.037311 72.676237 
" style="fill:none;stroke:#0d4a70;stroke-width:1.5;"/>
    <path clip-path="url(#p70f5bd9b81)" d="M 98.41042 166.04 
L 98.41042 77.603293 
" style="fill:none;stroke:#0d4a70;stroke-width:1.5;"/>
    <path clip-path="url(#p70f5bd9b81)" d="M 102.783529 164.711984 
L 102.783529 131.401582 
" style="fill:none;stroke:#0d4a70;stroke-width:1.5;"/>
    <path clip-path="url(#p70f5bd9b81)" d="M 107.156639 166.04 
L 107.156639 107.610798 
" style="fill:none;stroke:#0d4a70;stroke-width:1.5;"/>
    <path clip-path="url(#p70f5bd9b81)" d="M 111.529748 166.04 
L 111.529748 59.336752 
" style="fill:none;stroke:#0d4a70;stroke-width:1.5;"/>
    <path clip-path="url(#p70f5bd9b81)" d="M 115.902857 162.788273 
L 115.902857 130.004765 
" style="fill:none;stroke:#0d4a70;stroke-width:1.5;"/>
    <path clip-path="url(#p70f5bd9b81)" d="M 120.275966 165.002263 
L 120.275966 137.811095 
" style="fill:none;stroke:#0d4a70;stroke-width:1.5;"/>
    <path clip-path="url(#p70f5bd9b81)" d="M 124.649076 166.04 
L 124.649076 143.423258 
" style="fill:none;stroke:#0d4a70;stroke-width:1.5;"/>
    <path clip-path="url(#p70f5bd9b81)" d="M 142.141513 138.263248 
L 142.141513 31.56 
" style="fill:none;stroke:#0d4a70;stroke-width:1.5;"/>
    <path clip-path="url(#p70f5bd9b81)" d="M 150.887731 153.026181 
L 150.887731 71.903101 
" style="fill:none;stroke:#0d4a70;stroke-width:1.5;"/>
    <path clip-path="url(#p70f5bd9b81)" d="M 155.26084 163.636199 
L 155.26084 138.177577 
" style="fill:none;stroke:#0d4a70;stroke-width:1.5;"/>
    <path clip-path="url(#p70f5bd9b81)" d="M 159.63395 154.279168 
L 159.63395 123.073653 
" style="fill:none;stroke:#0d4a70;stroke-width:1.5;"/>
    <path clip-path="url(#p70f5bd9b81)" d="M 164.007059 155.750657 
L 164.007059 124.167657 
" style="fill:none;stroke:#0d4a70;stroke-width:1.5;"/>
    <path clip-path="url(#p70f5bd9b81)" d="M 168.380168 142.90246 
L 168.380168 96.66213 
" style="fill:none;stroke:#0d4a70;stroke-width:1.5;"/>
    <path clip-path="url(#p70f5bd9b81)" d="M 172.753277 159.812933 
L 172.753277 135.655227 
" style="fill:none;stroke:#0d4a70;stroke-width:1.5;"/>
    <path clip-path="url(#p70f5bd9b81)" d="M 177.126387 161.881583 
L 177.126387 141.161272 
" style="fill:none;stroke:#0d4a70;stroke-width:1.5;"/>
    <path clip-path="url(#p70f5bd9b81)" d="M 181.499496 155.333821 
L 181.499496 131.447393 
" style="fill:none;stroke:#0d4a70;stroke-width:1.5;"/>
    <path clip-path="url(#p70f5bd9b81)" d="M 185.872605 149.916241 
L 185.872605 119.101065 
" style="fill:none;stroke:#0d4a70;stroke-width:1.5;"/>
    <path clip-path="url(#p70f5bd9b81)" d="M 190.245714 145.108752 
L 190.245714 105.02036 
" style="fill:none;stroke:#0d4a70;stroke-width:1.5;"/>
    <path clip-path="url(#p70f5bd9b81)" d="M 194.618824 144.248236 
L 194.618824 118.10535 
" style="fill:none;stroke:#0d4a70;stroke-width:1.5;"/>
    <path clip-path="url(#p70f5bd9b81)" d="M 198.991933 148.294804 
L 198.991933 119.054474 
" style="fill:none;stroke:#0d4a70;stroke-width:1.5;"/>
    <path clip-path="url(#p70f5bd9b81)" d="M 203.365042 156.240071 
L 203.365042 131.98366 
" style="fill:none;stroke:#0d4a70;stroke-width:1.5;"/>
    <path clip-path="url(#p70f5bd9b81)" d="M 207.738151 160.849464 
L 207.738151 135.717878 
" style="fill:none;stroke:#0d4a70;stroke-width:1.5;"/>
    <path clip-path="url(#p70f5bd9b81)" d="M 212.111261 132.676137 
L 212.111261 72.061315 
" style="fill:none;stroke:#0d4a70;stroke-width:1.5;"/>
    <path clip-path="url(#p70f5bd9b81)" d="M 216.48437 149.813805 
L 216.48437 113.569512 
" style="fill:none;stroke:#0d4a70;stroke-width:1.5;"/>
    <path clip-path="url(#p70f5bd9b81)" d="M 220.857479 139.777805 
L 220.857479 104.629969 
" style="fill:none;stroke:#0d4a70;stroke-width:1.5;"/>
    <path clip-path="url(#p70f5bd9b81)" d="M 225.230588 147.448136 
L 225.230588 113.131081 
" style="fill:none;stroke:#0d4a70;stroke-width:1.5;"/>
    <path clip-path="url(#p70f5bd9b81)" d="M 229.603697 129.41357 
L 229.603697 86.437608 
" style="fill:none;stroke:#0d4a70;stroke-width:1.5;"/>
    <path clip-path="url(#p70f5bd9b81)" d="M 233.976807 123.550968 
L 233.976807 88.498512 
" style="fill:none;stroke:#0d4a70;stroke-width:1.5;"/>
    <path clip-path="url(#p70f5bd9b81)" d="M 238.349916 127.082889 
L 238.349916 89.790901 
" style="fill:none;stroke:#0d4a70;stroke-width:1.5;"/>
    <path clip-path="url(#p70f5bd9b81)" d="M 242.723025 126.921068 
L 242.723025 94.218806 
" style="fill:none;stroke:#0d4a70;stroke-width:1.5;"/>
    <path clip-path="url(#p70f5bd9b81)" d="M 247.096134 123.003086 
L 247.096134 88.546769 
" style="fill:none;stroke:#0d4a70;stroke-width:1.5;"/>
    <path clip-path="url(#p70f5bd9b81)" d="M 251.469244 120.498112 
L 251.469244 80.240903 
" style="fill:none;stroke:#0d4a70;stroke-width:1.5;"/>
    <path clip-path="url(#p70f5bd9b81)" d="M 255.842353 130.180049 
L 255.842353 81.408148 
" style="fill:none;stroke:#0d4a70;stroke-width:1.5;"/>
    <path clip-path="url(#p70f5bd9b81)" d="M 260.215462 111.066386 
L 260.215462 59.46596 
" style="fill:none;stroke:#0d4a70;stroke-width:1.5;"/>
    <path clip-path="url(#p70f5bd9b81)" d="M 264.588571 94.052863 
L 264.588571 48.435379 
" style="fill:none;stroke:#0d4a70;stroke-width:1.5;"/>
    <path clip-path="url(#p70f5bd9b81)" d="M 268.961681 107.809099 
L 268.961681 70.517111 
" style="fill:none;stroke:#0d4a70;stroke-width:1.5;"/>
    <path clip-path="url(#p70f5bd9b81)" d="M 273.33479 100.110893 
L 273.33479 65.611035 
" style="fill:none;stroke:#0d4a70;stroke-width:1.5;"/>
    <path clip-path="url(#p70f5bd9b81)" d="M 277.707899 93.793966 
L 277.707899 61.80967 
" style="fill:none;stroke:#0d4a70;stroke-width:1.5;"/>
    <path clip-path="url(#p70f5bd9b81)" d="M 282.081008 144.059605 
L 282.081008 83.690396 
" style="fill:none;stroke:#0d4a70;stroke-width:1.5;"/>
    <path clip-path="url(#p70f5bd9b81)" d="M 286.454118 101.351465 
L 286.454118 51.12378 
" style="fill:none;stroke:#0d4a70;stroke-width:1.5;"/>
    <path clip-path="url(#p70f5bd9b81)" d="M 290.827227 88.184901 
L 290.827227 49.381829 
" style="fill:none;stroke:#0d4a70;stroke-width:1.5;"/>
    <path clip-path="url(#p70f5bd9b81)" d="M 295.200336 89.978049 
L 295.200336 45.173464 
" style="fill:none;stroke:#0d4a70;stroke-width:1.5;"/>
    <path clip-path="url(#p70f5bd9b81)" d="M 299.573445 89.164449 
L 299.573445 53.22206 
" style="fill:none;stroke:#0d4a70;stroke-width:1.5;"/>
    <path clip-path="url(#p70f5bd9b81)" d="M 303.946555 89.964238 
L 303.946555 47.020243 
" style="fill:none;stroke:#0d4a70;stroke-width:1.5;"/>
    <path clip-path="url(#p70f5bd9b81)" d="M 308.319664 97.4856 
L 308.319664 59.307199 
" style="fill:none;stroke:#0d4a70;stroke-width:1.5;"/>
    <path clip-path="url(#p70f5bd9b81)" d="M 312.692773 122.15497 
L 312.692773 75.44503 
" style="fill:none;stroke:#0d4a70;stroke-width:1.5;"/>
    <path clip-path="url(#p70f5bd9b81)" d="M 317.065882 85.984666 
L 317.065882 43.992441 
" style="fill:none;stroke:#0d4a70;stroke-width:1.5;"/>
    <path clip-path="url(#p70f5bd9b81)" d="M 321.438992 104.044141 
L 321.438992 63.921266 
" style="fill:none;stroke:#0d4a70;stroke-width:1.5;"/>
    <path clip-path="url(#p70f5bd9b81)" d="M 325.812101 103.229345 
L 325.812101 55.729002 
" style="fill:none;stroke:#0d4a70;stroke-width:1.5;"/>
    <path clip-path="url(#p70f5bd9b81)" d="M 330.18521 114.105113 
L 330.18521 58.866496 
" style="fill:none;stroke:#0d4a70;stroke-width:1.5;"/>
    <path clip-path="url(#p70f5bd9b81)" d="M 334.558319 96.314452 
L 334.558319 49.245142 
" style="fill:none;stroke:#0d4a70;stroke-width:1.5;"/>
    <path clip-path="url(#p70f5bd9b81)" d="M 338.931429 93.0404 
L 338.931429 51.326886 
" style="fill:none;stroke:#0d4a70;stroke-width:1.5;"/>
    <path clip-path="url(#p70f5bd9b81)" d="M 343.304538 72.974533 
L 343.304538 44.698955 
" style="fill:none;stroke:#0d4a70;stroke-width:1.5;"/>
    <path clip-path="url(#p70f5bd9b81)" d="M 347.677647 83.186994 
L 347.677647 44.800995 
" style="fill:none;stroke:#0d4a70;stroke-width:1.5;"/>
    <path clip-path="url(#p70f5bd9b81)" d="M 352.050756 86.369918 
L 352.050756 45.824616 
" style="fill:none;stroke:#0d4a70;stroke-width:1.5;"/>
    <path clip-path="url(#p70f5bd9b81)" d="M 356.423866 86.729909 
L 356.423866 48.816088 
" style="fill:none;stroke:#0d4a70;stroke-width:1.5;"/>
    <path clip-path="url(#p70f5bd9b81)" d="M 360.796975 91.643743 
L 360.796975 49.27152 
" style="fill:none;stroke:#0d4a70;stroke-width:1.5;"/>
    <path clip-path="url(#p70f5bd9b81)" d="M 365.170084 89.989202 
L 365.170084 31.56 
" style="fill:none;stroke:#0d4a70;stroke-width:1.5;"/>
    <path clip-path="url(#p70f5bd9b81)" d="M 369.543193 60.912534 
L 369.543193 35.426113 
" style="fill:none;stroke:#0d4a70;stroke-width:1.5;"/>
    <path clip-path="url(#p70f5bd9b81)" d="M 373.916303 61.655648 
L 373.916303 35.538237 
" style="fill:none;stroke:#0d4a70;stroke-width:1.5;"/>
    <path clip-path="url(#p70f5bd9b81)" d="M 378.289412 58.653851 
L 378.289412 33.887925 
" style="fill:none;stroke:#0d4a70;stroke-width:1.5;"/>
    <path clip-path="url(#p70f5bd9b81)" d="M 382.662521 72.043005 
L 382.662521 35.307484 
" style="fill:none;stroke:#0d4a70;stroke-width:1.5;"/>
    <path clip-path="url(#p70f5bd9b81)" d="M 387.03563 71.844552 
L 387.03563 37.163536 
" style="fill:none;stroke:#0d4a70;stroke-width:1.5;"/>
    <path clip-path="url(#p70f5bd9b81)" d="M 391.408739 62.013484 
L 391.408739 34.224326 
" style="fill:none;stroke:#0d4a70;stroke-width:1.5;"/>
    <path clip-path="url(#p70f5bd9b81)" d="M 395.781849 56.147605 
L 395.781849 32.443284 
" style="fill:none;stroke:#0d4a70;stroke-width:1.5;"/>
    <path clip-path="url(#p70f5bd9b81)" d="M 400.154958 57.123877 
L 400.154958 34.866918 
" style="fill:none;stroke:#0d4a70;stroke-width:1.5;"/>
    <path clip-path="url(#p70f5bd9b81)" d="M 404.528067 64.010726 
L 404.528067 37.168162 
" style="fill:none;stroke:#0d4a70;stroke-width:1.5;"/>
    <path clip-path="url(#p70f5bd9b81)" d="M 408.901176 47.784112 
L 408.901176 31.56 
" style="fill:none;stroke:#0d4a70;stroke-width:1.5;"/>
    <path clip-path="url(#p70f5bd9b81)" d="M 413.274286 53.978342 
L 413.274286 32.354587 
" style="fill:none;stroke:#0d4a70;stroke-width:1.5;"/>
    <path clip-path="url(#p70f5bd9b81)" d="M 417.647395 59.422423 
L 417.647395 33.963801 
" style="fill:none;stroke:#0d4a70;stroke-width:1.5;"/>
    <path clip-path="url(#p70f5bd9b81)" d="M 422.020504 57.596361 
L 422.020504 31.56 
" style="fill:none;stroke:#0d4a70;stroke-width:1.5;"/>
    <path clip-path="url(#p70f5bd9b81)" d="M 426.393613 138.263248 
L 426.393613 31.56 
" style="fill:none;stroke:#0d4a70;stroke-width:1.5;"/>
   </g>
   <g id="line2d_15">
    <path clip-path="url(#p70f5bd9b81)" d="M 41.56 163.701579 
L 45.933109 163.51065 
L 50.306218 163.304454 
L 54.679328 163.081826 
L 59.052437 162.84152 
L 63.425546 162.582206 
L 67.798655 162.302466 
L 72.171765 162.000793 
L 76.544874 161.675584 
L 80.917983 161.325137 
L 85.291092 160.947652 
L 89.664202 160.541225 
L 94.037311 160.103849 
L 98.41042 159.633412 
L 102.783529 159.127697 
L 107.156639 158.584387 
L 111.529748 158.001064 
L 115.902857 157.375215 
L 120.275966 156.70424 
L 124.649076 155.985458 
L 129.022185 155.216123 
L 133.395294 154.393431 
L 137.768403 153.514542 
L 142.141513 152.576599 
L 146.514622 151.57675 
L 150.887731 150.512176 
L 155.26084 149.38012 
L 159.63395 148.177925 
L 164.007059 146.903068 
L 168.380168 145.553207 
L 172.753277 144.12622 
L 177.126387 142.620259 
L 181.499496 141.033796 
L 185.872605 139.365676 
L 190.245714 137.615172 
L 194.618824 135.782034 
L 198.991933 133.866539 
L 203.365042 131.86954 
L 207.738151 129.792505 
L 212.111261 127.637552 
L 216.48437 125.407478 
L 220.857479 123.105771 
L 225.230588 120.736622 
L 229.603697 118.304908 
L 233.976807 115.816181 
L 238.349916 113.276623 
L 242.723025 110.693007 
L 247.096134 108.072623 
L 251.469244 105.42321 
L 255.842353 102.752866 
L 260.215462 100.069951 
L 264.588571 97.382984 
L 268.961681 94.700538 
L 273.33479 92.031126 
L 277.707899 89.383095 
L 282.081008 86.764528 
L 286.454118 84.183139 
L 290.827227 81.646194 
L 295.200336 79.160434 
L 299.573445 76.732008 
L 303.946555 74.36643 
L 308.319664 72.068544 
L 312.692773 69.842498 
L 317.065882 67.691745 
L 321.438992 65.619043 
L 325.812101 63.626474 
L 330.18521 61.715471 
L 334.558319 59.886855 
L 338.931429 58.140872 
L 343.304538 56.477246 
L 347.677647 54.895223 
L 352.050756 53.393628 
L 356.423866 51.970914 
L 360.796975 50.625217 
L 365.170084 49.354401 
L 369.543193 48.156112 
L 373.916303 47.02782 
L 378.289412 45.966861 
L 382.662521 44.970475 
L 387.03563 44.035839 
L 391.408739 43.160101 
L 395.781849 42.340403 
L 400.154958 41.573908 
L 404.528067 40.857814 
L 408.901176 40.189378 
L 413.274286 39.565924 
L 417.647395 38.984855 
L 422.020504 38.443665 
L 426.393613 37.939941 
L 430.766723 37.47137 
L 435.139832 37.035742 
L 439.512941 36.630951 
L 443.88605 36.254994 
L 448.25916 35.905975 
L 452.632269 35.582097 
L 457.005378 35.281665 
L 461.378487 35.003082 
L 465.751597 34.744845 
L 470.124706 34.50554 
L 474.497815 34.283843 
L 478.870924 34.078513 
L 483.244034 33.888387 
L 487.617143 33.712381 
L 491.990252 33.549478 
L 496.363361 33.398734 
L 500.736471 33.259265 
L 505.10958 33.130249 
L 509.482689 33.010922 
L 513.855798 32.900572 
L 518.228908 32.798536 
L 522.602017 32.7042 
L 526.975126 32.616992 
L 531.348235 32.536382 
L 535.721345 32.461878 
L 540.094454 32.393024 
L 544.467563 32.329396 
L 548.840672 32.270602 
L 553.213782 32.216279 
L 557.586891 32.16609 
L 561.96 32.119724 
" style="fill:none;stroke:#151624;stroke-linecap:square;stroke-width:1.5;"/>
   </g>
   <g id="patch_3">
    <path d="M 41.56 166.04 
L 41.56 31.56 
" style="fill:none;stroke:#000000;stroke-linecap:square;stroke-linejoin:miter;stroke-width:0.8;"/>
   </g>
   <g id="patch_4">
    <path d="M 561.96 166.04 
L 561.96 31.56 
" style="fill:none;stroke:#000000;stroke-linecap:square;stroke-linejoin:miter;stroke-width:0.8;"/>
   </g>
   <g id="patch_5">
    <path d="M 41.56 166.04 
L 561.96 166.04 
" style="fill:none;stroke:#000000;stroke-linecap:square;stroke-linejoin:miter;stroke-width:0.8;"/>
   </g>
   <g id="patch_6">
    <path d="M 41.56 31.56 
L 561.96 31.56 
" style="fill:none;stroke:#000000;stroke-linecap:square;stroke-linejoin:miter;stroke-width:0.8;"/>
   </g>
   <g id="text_16">
    <!-- Geneva - from HUG data -->
    <g transform="translate(205.71275 25.56)scale(0.156 -0.156)">
     <defs>
      <path d="M 59.515625 10.40625 
L 59.515625 29.984375 
L 43.40625 29.984375 
L 43.40625 38.09375 
L 69.28125 38.09375 
L 69.28125 6.78125 
Q 63.578125 2.734375 56.6875 0.65625 
Q 49.8125 -1.421875 42 -1.421875 
Q 24.90625 -1.421875 15.25 8.5625 
Q 5.609375 18.5625 5.609375 36.375 
Q 5.609375 54.25 15.25 64.234375 
Q 24.90625 74.21875 42 74.21875 
Q 49.125 74.21875 55.546875 72.453125 
Q 61.96875 70.703125 67.390625 67.28125 
L 67.390625 56.78125 
Q 61.921875 61.421875 55.765625 63.765625 
Q 49.609375 66.109375 42.828125 66.109375 
Q 29.4375 66.109375 22.71875 58.640625 
Q 16.015625 51.171875 16.015625 36.375 
Q 16.015625 21.625 22.71875 14.15625 
Q 29.4375 6.6875 42.828125 6.6875 
Q 48.046875 6.6875 52.140625 7.59375 
Q 56.25 8.5 59.515625 10.40625 
z
" id="DejaVuSans-71"/>
      <path d="M 2.984375 54.6875 
L 12.5 54.6875 
L 29.59375 8.796875 
L 46.6875 54.6875 
L 56.203125 54.6875 
L 35.6875 0 
L 23.484375 0 
z
" id="DejaVuSans-118"/>
      <path id="DejaVuSans-32"/>
      <path d="M 37.109375 75.984375 
L 37.109375 68.5 
L 28.515625 68.5 
Q 23.6875 68.5 21.796875 66.546875 
Q 19.921875 64.59375 19.921875 59.515625 
L 19.921875 54.6875 
L 34.71875 54.6875 
L 34.71875 47.703125 
L 19.921875 47.703125 
L 19.921875 0 
L 10.890625 0 
L 10.890625 47.703125 
L 2.296875 47.703125 
L 2.296875 54.6875 
L 10.890625 54.6875 
L 10.890625 58.5 
Q 10.890625 67.625 15.140625 71.796875 
Q 19.390625 75.984375 28.609375 75.984375 
z
" id="DejaVuSans-102"/>
      <path d="M 30.609375 48.390625 
Q 23.390625 48.390625 19.1875 42.75 
Q 14.984375 37.109375 14.984375 27.296875 
Q 14.984375 17.484375 19.15625 11.84375 
Q 23.34375 6.203125 30.609375 6.203125 
Q 37.796875 6.203125 41.984375 11.859375 
Q 46.1875 17.53125 46.1875 27.296875 
Q 46.1875 37.015625 41.984375 42.703125 
Q 37.796875 48.390625 30.609375 48.390625 
z
M 30.609375 56 
Q 42.328125 56 49.015625 48.375 
Q 55.71875 40.765625 55.71875 27.296875 
Q 55.71875 13.875 49.015625 6.21875 
Q 42.328125 -1.421875 30.609375 -1.421875 
Q 18.84375 -1.421875 12.171875 6.21875 
Q 5.515625 13.875 5.515625 27.296875 
Q 5.515625 40.765625 12.171875 48.375 
Q 18.84375 56 30.609375 56 
z
" id="DejaVuSans-111"/>
      <path d="M 52 44.1875 
Q 55.375 50.25 60.0625 53.125 
Q 64.75 56 71.09375 56 
Q 79.640625 56 84.28125 50.015625 
Q 88.921875 44.046875 88.921875 33.015625 
L 88.921875 0 
L 79.890625 0 
L 79.890625 32.71875 
Q 79.890625 40.578125 77.09375 44.375 
Q 74.3125 48.1875 68.609375 48.1875 
Q 61.625 48.1875 57.5625 43.546875 
Q 53.515625 38.921875 53.515625 30.90625 
L 53.515625 0 
L 44.484375 0 
L 44.484375 32.71875 
Q 44.484375 40.625 41.703125 44.40625 
Q 38.921875 48.1875 33.109375 48.1875 
Q 26.21875 48.1875 22.15625 43.53125 
Q 18.109375 38.875 18.109375 30.90625 
L 18.109375 0 
L 9.078125 0 
L 9.078125 54.6875 
L 18.109375 54.6875 
L 18.109375 46.1875 
Q 21.1875 51.21875 25.484375 53.609375 
Q 29.78125 56 35.6875 56 
Q 41.65625 56 45.828125 52.96875 
Q 50 49.953125 52 44.1875 
z
" id="DejaVuSans-109"/>
      <path d="M 9.8125 72.90625 
L 19.671875 72.90625 
L 19.671875 43.015625 
L 55.515625 43.015625 
L 55.515625 72.90625 
L 65.375 72.90625 
L 65.375 0 
L 55.515625 0 
L 55.515625 34.71875 
L 19.671875 34.71875 
L 19.671875 0 
L 9.8125 0 
z
" id="DejaVuSans-72"/>
      <path d="M 8.6875 72.90625 
L 18.609375 72.90625 
L 18.609375 28.609375 
Q 18.609375 16.890625 22.84375 11.734375 
Q 27.09375 6.59375 36.625 6.59375 
Q 46.09375 6.59375 50.34375 11.734375 
Q 54.59375 16.890625 54.59375 28.609375 
L 54.59375 72.90625 
L 64.5 72.90625 
L 64.5 27.390625 
Q 64.5 13.140625 57.4375 5.859375 
Q 50.390625 -1.421875 36.625 -1.421875 
Q 22.796875 -1.421875 15.734375 5.859375 
Q 8.6875 13.140625 8.6875 27.390625 
z
" id="DejaVuSans-85"/>
      <path d="M 45.40625 46.390625 
L 45.40625 75.984375 
L 54.390625 75.984375 
L 54.390625 0 
L 45.40625 0 
L 45.40625 8.203125 
Q 42.578125 3.328125 38.25 0.953125 
Q 33.9375 -1.421875 27.875 -1.421875 
Q 17.96875 -1.421875 11.734375 6.484375 
Q 5.515625 14.40625 5.515625 27.296875 
Q 5.515625 40.1875 11.734375 48.09375 
Q 17.96875 56 27.875 56 
Q 33.9375 56 38.25 53.625 
Q 42.578125 51.265625 45.40625 46.390625 
z
M 14.796875 27.296875 
Q 14.796875 17.390625 18.875 11.75 
Q 22.953125 6.109375 30.078125 6.109375 
Q 37.203125 6.109375 41.296875 11.75 
Q 45.40625 17.390625 45.40625 27.296875 
Q 45.40625 37.203125 41.296875 42.84375 
Q 37.203125 48.484375 30.078125 48.484375 
Q 22.953125 48.484375 18.875 42.84375 
Q 14.796875 37.203125 14.796875 27.296875 
z
" id="DejaVuSans-100"/>
      <path d="M 18.3125 70.21875 
L 18.3125 54.6875 
L 36.8125 54.6875 
L 36.8125 47.703125 
L 18.3125 47.703125 
L 18.3125 18.015625 
Q 18.3125 11.328125 20.140625 9.421875 
Q 21.96875 7.515625 27.59375 7.515625 
L 36.8125 7.515625 
L 36.8125 0 
L 27.59375 0 
Q 17.1875 0 13.234375 3.875 
Q 9.28125 7.765625 9.28125 18.015625 
L 9.28125 47.703125 
L 2.6875 47.703125 
L 2.6875 54.6875 
L 9.28125 54.6875 
L 9.28125 70.21875 
z
" id="DejaVuSans-116"/>
     </defs>
     <use xlink:href="#DejaVuSans-71"/>
     <use x="77.490234" xlink:href="#DejaVuSans-101"/>
     <use x="139.013672" xlink:href="#DejaVuSans-110"/>
     <use x="202.392578" xlink:href="#DejaVuSans-101"/>
     <use x="263.916016" xlink:href="#DejaVuSans-118"/>
     <use x="323.095703" xlink:href="#DejaVuSans-97"/>
     <use x="384.375" xlink:href="#DejaVuSans-32"/>
     <use x="416.162109" xlink:href="#DejaVuSans-45"/>
     <use x="452.246094" xlink:href="#DejaVuSans-32"/>
     <use x="484.033203" xlink:href="#DejaVuSans-102"/>
     <use x="519.238281" xlink:href="#DejaVuSans-114"/>
     <use x="558.101562" xlink:href="#DejaVuSans-111"/>
     <use x="619.283203" xlink:href="#DejaVuSans-109"/>
     <use x="716.695312" xlink:href="#DejaVuSans-32"/>
     <use x="748.482422" xlink:href="#DejaVuSans-72"/>
     <use x="823.677734" xlink:href="#DejaVuSans-85"/>
     <use x="896.871094" xlink:href="#DejaVuSans-71"/>
     <use x="974.361328" xlink:href="#DejaVuSans-32"/>
     <use x="1006.148438" xlink:href="#DejaVuSans-100"/>
     <use x="1069.625" xlink:href="#DejaVuSans-97"/>
     <use x="1130.904297" xlink:href="#DejaVuSans-116"/>
     <use x="1170.113281" xlink:href="#DejaVuSans-97"/>
    </g>
   </g>
   <g id="legend_1">
    <g id="patch_7">
     <path d="M 271.554219 159.54 
L 552.86 159.54 
Q 555.46 159.54 555.46 156.94 
L 555.46 100.995312 
Q 555.46 98.395312 552.86 98.395312 
L 271.554219 98.395312 
Q 268.954219 98.395312 268.954219 100.995312 
L 268.954219 156.94 
Q 268.954219 159.54 271.554219 159.54 
z
" style="fill:#ffffff;opacity:0.8;stroke:#cccccc;stroke-linejoin:miter;"/>
    </g>
    <g id="line2d_16">
     <path d="M 274.154219 108.923281 
L 300.154219 108.923281 
" style="fill:none;stroke:#151624;stroke-linecap:square;stroke-width:1.5;"/>
    </g>
    <g id="line2d_17"/>
    <g id="text_17">
     <!-- Logistic fit -->
     <g transform="translate(310.554219 113.473281)scale(0.13 -0.13)">
      <defs>
       <path d="M 9.8125 72.90625 
L 19.671875 72.90625 
L 19.671875 8.296875 
L 55.171875 8.296875 
L 55.171875 0 
L 9.8125 0 
z
" id="DejaVuSans-76"/>
       <path d="M 45.40625 27.984375 
Q 45.40625 37.75 41.375 43.109375 
Q 37.359375 48.484375 30.078125 48.484375 
Q 22.859375 48.484375 18.828125 43.109375 
Q 14.796875 37.75 14.796875 27.984375 
Q 14.796875 18.265625 18.828125 12.890625 
Q 22.859375 7.515625 30.078125 7.515625 
Q 37.359375 7.515625 41.375 12.890625 
Q 45.40625 18.265625 45.40625 27.984375 
z
M 54.390625 6.78125 
Q 54.390625 -7.171875 48.1875 -13.984375 
Q 42 -20.796875 29.203125 -20.796875 
Q 24.46875 -20.796875 20.265625 -20.09375 
Q 16.0625 -19.390625 12.109375 -17.921875 
L 12.109375 -9.1875 
Q 16.0625 -11.328125 19.921875 -12.34375 
Q 23.78125 -13.375 27.78125 -13.375 
Q 36.625 -13.375 41.015625 -8.765625 
Q 45.40625 -4.15625 45.40625 5.171875 
L 45.40625 9.625 
Q 42.625 4.78125 38.28125 2.390625 
Q 33.9375 0 27.875 0 
Q 17.828125 0 11.671875 7.65625 
Q 5.515625 15.328125 5.515625 27.984375 
Q 5.515625 40.671875 11.671875 48.328125 
Q 17.828125 56 27.875 56 
Q 33.9375 56 38.28125 53.609375 
Q 42.625 51.21875 45.40625 46.390625 
L 45.40625 54.6875 
L 54.390625 54.6875 
z
" id="DejaVuSans-103"/>
       <path d="M 9.421875 54.6875 
L 18.40625 54.6875 
L 18.40625 0 
L 9.421875 0 
z
M 9.421875 75.984375 
L 18.40625 75.984375 
L 18.40625 64.59375 
L 9.421875 64.59375 
z
" id="DejaVuSans-105"/>
       <path d="M 44.28125 53.078125 
L 44.28125 44.578125 
Q 40.484375 46.53125 36.375 47.5 
Q 32.28125 48.484375 27.875 48.484375 
Q 21.1875 48.484375 17.84375 46.4375 
Q 14.5 44.390625 14.5 40.28125 
Q 14.5 37.15625 16.890625 35.375 
Q 19.28125 33.59375 26.515625 31.984375 
L 29.59375 31.296875 
Q 39.15625 29.25 43.1875 25.515625 
Q 47.21875 21.78125 47.21875 15.09375 
Q 47.21875 7.46875 41.1875 3.015625 
Q 35.15625 -1.421875 24.609375 -1.421875 
Q 20.21875 -1.421875 15.453125 -0.5625 
Q 10.6875 0.296875 5.421875 2 
L 5.421875 11.28125 
Q 10.40625 8.6875 15.234375 7.390625 
Q 20.0625 6.109375 24.8125 6.109375 
Q 31.15625 6.109375 34.5625 8.28125 
Q 37.984375 10.453125 37.984375 14.40625 
Q 37.984375 18.0625 35.515625 20.015625 
Q 33.0625 21.96875 24.703125 23.78125 
L 21.578125 24.515625 
Q 13.234375 26.265625 9.515625 29.90625 
Q 5.8125 33.546875 5.8125 39.890625 
Q 5.8125 47.609375 11.28125 51.796875 
Q 16.75 56 26.8125 56 
Q 31.78125 56 36.171875 55.265625 
Q 40.578125 54.546875 44.28125 53.078125 
z
" id="DejaVuSans-115"/>
       <path d="M 48.78125 52.59375 
L 48.78125 44.1875 
Q 44.96875 46.296875 41.140625 47.34375 
Q 37.3125 48.390625 33.40625 48.390625 
Q 24.65625 48.390625 19.8125 42.84375 
Q 14.984375 37.3125 14.984375 27.296875 
Q 14.984375 17.28125 19.8125 11.734375 
Q 24.65625 6.203125 33.40625 6.203125 
Q 37.3125 6.203125 41.140625 7.25 
Q 44.96875 8.296875 48.78125 10.40625 
L 48.78125 2.09375 
Q 45.015625 0.34375 40.984375 -0.53125 
Q 36.96875 -1.421875 32.421875 -1.421875 
Q 20.0625 -1.421875 12.78125 6.34375 
Q 5.515625 14.109375 5.515625 27.296875 
Q 5.515625 40.671875 12.859375 48.328125 
Q 20.21875 56 33.015625 56 
Q 37.15625 56 41.109375 55.140625 
Q 45.0625 54.296875 48.78125 52.59375 
z
" id="DejaVuSans-99"/>
      </defs>
      <use xlink:href="#DejaVuSans-76"/>
      <use x="53.962891" xlink:href="#DejaVuSans-111"/>
      <use x="115.144531" xlink:href="#DejaVuSans-103"/>
      <use x="178.621094" xlink:href="#DejaVuSans-105"/>
      <use x="206.404297" xlink:href="#DejaVuSans-115"/>
      <use x="258.503906" xlink:href="#DejaVuSans-116"/>
      <use x="297.712891" xlink:href="#DejaVuSans-105"/>
      <use x="325.496094" xlink:href="#DejaVuSans-99"/>
      <use x="380.476562" xlink:href="#DejaVuSans-32"/>
      <use x="412.263672" xlink:href="#DejaVuSans-102"/>
      <use x="447.46875" xlink:href="#DejaVuSans-105"/>
      <use x="475.251953" xlink:href="#DejaVuSans-116"/>
     </g>
    </g>
    <g id="patch_8">
     <path d="M 274.154219 132.554844 
L 300.154219 132.554844 
L 300.154219 123.454844 
L 274.154219 123.454844 
z
" style="fill:#bfbfbf;stroke:#bfbfbf;stroke-linejoin:miter;"/>
    </g>
    <g id="text_18">
     <!-- Confidence interval -->
     <g transform="translate(310.554219 132.554844)scale(0.13 -0.13)">
      <defs>
       <path d="M 64.40625 67.28125 
L 64.40625 56.890625 
Q 59.421875 61.53125 53.78125 63.8125 
Q 48.140625 66.109375 41.796875 66.109375 
Q 29.296875 66.109375 22.65625 58.46875 
Q 16.015625 50.828125 16.015625 36.375 
Q 16.015625 21.96875 22.65625 14.328125 
Q 29.296875 6.6875 41.796875 6.6875 
Q 48.140625 6.6875 53.78125 8.984375 
Q 59.421875 11.28125 64.40625 15.921875 
L 64.40625 5.609375 
Q 59.234375 2.09375 53.4375 0.328125 
Q 47.65625 -1.421875 41.21875 -1.421875 
Q 24.65625 -1.421875 15.125 8.703125 
Q 5.609375 18.84375 5.609375 36.375 
Q 5.609375 53.953125 15.125 64.078125 
Q 24.65625 74.21875 41.21875 74.21875 
Q 47.75 74.21875 53.53125 72.484375 
Q 59.328125 70.75 64.40625 67.28125 
z
" id="DejaVuSans-67"/>
       <path d="M 9.421875 75.984375 
L 18.40625 75.984375 
L 18.40625 0 
L 9.421875 0 
z
" id="DejaVuSans-108"/>
      </defs>
      <use xlink:href="#DejaVuSans-67"/>
      <use x="69.824219" xlink:href="#DejaVuSans-111"/>
      <use x="131.005859" xlink:href="#DejaVuSans-110"/>
      <use x="194.384766" xlink:href="#DejaVuSans-102"/>
      <use x="229.589844" xlink:href="#DejaVuSans-105"/>
      <use x="257.373047" xlink:href="#DejaVuSans-100"/>
      <use x="320.849609" xlink:href="#DejaVuSans-101"/>
      <use x="382.373047" xlink:href="#DejaVuSans-110"/>
      <use x="445.751953" xlink:href="#DejaVuSans-99"/>
      <use x="500.732422" xlink:href="#DejaVuSans-101"/>
      <use x="562.255859" xlink:href="#DejaVuSans-32"/>
      <use x="594.042969" xlink:href="#DejaVuSans-105"/>
      <use x="621.826172" xlink:href="#DejaVuSans-110"/>
      <use x="685.205078" xlink:href="#DejaVuSans-116"/>
      <use x="724.414062" xlink:href="#DejaVuSans-101"/>
      <use x="785.9375" xlink:href="#DejaVuSans-114"/>
      <use x="827.050781" xlink:href="#DejaVuSans-118"/>
      <use x="886.230469" xlink:href="#DejaVuSans-97"/>
      <use x="947.509766" xlink:href="#DejaVuSans-108"/>
     </g>
    </g>
    <g id="PathCollection_1">
     <defs>
      <path d="M 0 1.870829 
C 0.49615 1.870829 0.972045 1.673706 1.322876 1.322876 
C 1.673706 0.972045 1.870829 0.49615 1.870829 0 
C 1.870829 -0.49615 1.673706 -0.972045 1.322876 -1.322876 
C 0.972045 -1.673706 0.49615 -1.870829 0 -1.870829 
C -0.49615 -1.870829 -0.972045 -1.673706 -1.322876 -1.322876 
C -1.673706 -0.972045 -1.870829 -0.49615 -1.870829 0 
C -1.870829 0.49615 -1.673706 0.972045 -1.322876 1.322876 
C -0.972045 1.673706 -0.49615 1.870829 0 1.870829 
z
" id="ma78f5b5627" style="stroke:#67916e;"/>
     </defs>
     <g>
      <use style="fill:#67916e;stroke:#67916e;" x="287.154219" xlink:href="#ma78f5b5627" y="148.223906"/>
     </g>
    </g>
    <g id="text_19">
     <!-- Estimated daily proportion of B.1.1.7 -->
     <g transform="translate(310.554219 151.636406)scale(0.13 -0.13)">
      <defs>
       <path d="M 9.8125 72.90625 
L 55.90625 72.90625 
L 55.90625 64.59375 
L 19.671875 64.59375 
L 19.671875 43.015625 
L 54.390625 43.015625 
L 54.390625 34.71875 
L 19.671875 34.71875 
L 19.671875 8.296875 
L 56.78125 8.296875 
L 56.78125 0 
L 9.8125 0 
z
" id="DejaVuSans-69"/>
       <path d="M 32.171875 -5.078125 
Q 28.375 -14.84375 24.75 -17.8125 
Q 21.140625 -20.796875 15.09375 -20.796875 
L 7.90625 -20.796875 
L 7.90625 -13.28125 
L 13.1875 -13.28125 
Q 16.890625 -13.28125 18.9375 -11.515625 
Q 21 -9.765625 23.484375 -3.21875 
L 25.09375 0.875 
L 2.984375 54.6875 
L 12.5 54.6875 
L 29.59375 11.921875 
L 46.6875 54.6875 
L 56.203125 54.6875 
z
" id="DejaVuSans-121"/>
       <path d="M 19.671875 34.8125 
L 19.671875 8.109375 
L 35.5 8.109375 
Q 43.453125 8.109375 47.28125 11.40625 
Q 51.125 14.703125 51.125 21.484375 
Q 51.125 28.328125 47.28125 31.5625 
Q 43.453125 34.8125 35.5 34.8125 
z
M 19.671875 64.796875 
L 19.671875 42.828125 
L 34.28125 42.828125 
Q 41.5 42.828125 45.03125 45.53125 
Q 48.578125 48.25 48.578125 53.8125 
Q 48.578125 59.328125 45.03125 62.0625 
Q 41.5 64.796875 34.28125 64.796875 
z
M 9.8125 72.90625 
L 35.015625 72.90625 
Q 46.296875 72.90625 52.390625 68.21875 
Q 58.5 63.53125 58.5 54.890625 
Q 58.5 48.1875 55.375 44.234375 
Q 52.25 40.28125 46.1875 39.3125 
Q 53.46875 37.75 57.5 32.78125 
Q 61.53125 27.828125 61.53125 20.40625 
Q 61.53125 10.640625 54.890625 5.3125 
Q 48.25 0 35.984375 0 
L 9.8125 0 
z
" id="DejaVuSans-66"/>
       <path d="M 8.203125 72.90625 
L 55.078125 72.90625 
L 55.078125 68.703125 
L 28.609375 0 
L 18.3125 0 
L 43.21875 64.59375 
L 8.203125 64.59375 
z
" id="DejaVuSans-55"/>
      </defs>
      <use xlink:href="#DejaVuSans-69"/>
      <use x="63.183594" xlink:href="#DejaVuSans-115"/>
      <use x="115.283203" xlink:href="#DejaVuSans-116"/>
      <use x="154.492188" xlink:href="#DejaVuSans-105"/>
      <use x="182.275391" xlink:href="#DejaVuSans-109"/>
      <use x="279.6875" xlink:href="#DejaVuSans-97"/>
      <use x="340.966797" xlink:href="#DejaVuSans-116"/>
      <use x="380.175781" xlink:href="#DejaVuSans-101"/>
      <use x="441.699219" xlink:href="#DejaVuSans-100"/>
      <use x="505.175781" xlink:href="#DejaVuSans-32"/>
      <use x="536.962891" xlink:href="#DejaVuSans-100"/>
      <use x="600.439453" xlink:href="#DejaVuSans-97"/>
      <use x="661.71875" xlink:href="#DejaVuSans-105"/>
      <use x="689.501953" xlink:href="#DejaVuSans-108"/>
      <use x="717.285156" xlink:href="#DejaVuSans-121"/>
      <use x="776.464844" xlink:href="#DejaVuSans-32"/>
      <use x="808.251953" xlink:href="#DejaVuSans-112"/>
      <use x="871.728516" xlink:href="#DejaVuSans-114"/>
      <use x="910.591797" xlink:href="#DejaVuSans-111"/>
      <use x="971.773438" xlink:href="#DejaVuSans-112"/>
      <use x="1035.25" xlink:href="#DejaVuSans-111"/>
      <use x="1096.431641" xlink:href="#DejaVuSans-114"/>
      <use x="1137.544922" xlink:href="#DejaVuSans-116"/>
      <use x="1176.753906" xlink:href="#DejaVuSans-105"/>
      <use x="1204.537109" xlink:href="#DejaVuSans-111"/>
      <use x="1265.71875" xlink:href="#DejaVuSans-110"/>
      <use x="1329.097656" xlink:href="#DejaVuSans-32"/>
      <use x="1360.884766" xlink:href="#DejaVuSans-111"/>
      <use x="1422.066406" xlink:href="#DejaVuSans-102"/>
      <use x="1457.271484" xlink:href="#DejaVuSans-32"/>
      <use x="1489.058594" xlink:href="#DejaVuSans-66"/>
      <use x="1557.662109" xlink:href="#DejaVuSans-46"/>
      <use x="1589.449219" xlink:href="#DejaVuSans-49"/>
      <use x="1653.072266" xlink:href="#DejaVuSans-46"/>
      <use x="1684.859375" xlink:href="#DejaVuSans-49"/>
      <use x="1748.482422" xlink:href="#DejaVuSans-46"/>
      <use x="1780.269531" xlink:href="#DejaVuSans-55"/>
     </g>
    </g>
   </g>
   <g id="PathCollection_2">
    <g clip-path="url(#p70f5bd9b81)">
     <use style="fill:#67916e;stroke:#67916e;" x="80.917983" xlink:href="#ma78f5b5627" y="166.04"/>
     <use style="fill:#67916e;stroke:#67916e;" x="85.291092" xlink:href="#ma78f5b5627" y="166.04"/>
     <use style="fill:#67916e;stroke:#67916e;" x="89.664202" xlink:href="#ma78f5b5627" y="166.04"/>
     <use style="fill:#67916e;stroke:#67916e;" x="94.037311" xlink:href="#ma78f5b5627" y="115.61"/>
     <use style="fill:#67916e;stroke:#67916e;" x="98.41042" xlink:href="#ma78f5b5627" y="166.04"/>
     <use style="fill:#67916e;stroke:#67916e;" x="102.783529" xlink:href="#ma78f5b5627" y="158.568889"/>
     <use style="fill:#67916e;stroke:#67916e;" x="107.156639" xlink:href="#ma78f5b5627" y="166.04"/>
     <use style="fill:#67916e;stroke:#67916e;" x="111.529748" xlink:href="#ma78f5b5627" y="166.04"/>
     <use style="fill:#67916e;stroke:#67916e;" x="115.902857" xlink:href="#ma78f5b5627" y="154.346087"/>
     <use style="fill:#67916e;stroke:#67916e;" x="120.275966" xlink:href="#ma78f5b5627" y="160.193043"/>
     <use style="fill:#67916e;stroke:#67916e;" x="124.649076" xlink:href="#ma78f5b5627" y="166.04"/>
     <use style="fill:#67916e;stroke:#67916e;" x="142.141513" xlink:href="#ma78f5b5627" y="31.56"/>
     <use style="fill:#67916e;stroke:#67916e;" x="150.887731" xlink:href="#ma78f5b5627" y="121.213333"/>
     <use style="fill:#67916e;stroke:#67916e;" x="155.26084" xlink:href="#ma78f5b5627" y="157.363871"/>
     <use style="fill:#67916e;stroke:#67916e;" x="159.63395" xlink:href="#ma78f5b5627" y="142.506"/>
     <use style="fill:#67916e;stroke:#67916e;" x="164.007059" xlink:href="#ma78f5b5627" y="144.232432"/>
     <use style="fill:#67916e;stroke:#67916e;" x="168.380168" xlink:href="#ma78f5b5627" y="123.0064"/>
     <use style="fill:#67916e;stroke:#67916e;" x="172.753277" xlink:href="#ma78f5b5627" y="151.733617"/>
     <use style="fill:#67916e;stroke:#67916e;" x="177.126387" xlink:href="#ma78f5b5627" y="155.492549"/>
     <use style="fill:#67916e;stroke:#67916e;" x="181.499496" xlink:href="#ma78f5b5627" y="146.198689"/>
     <use style="fill:#67916e;stroke:#67916e;" x="185.872605" xlink:href="#ma78f5b5627" y="137.427234"/>
     <use style="fill:#67916e;stroke:#67916e;" x="190.245714" xlink:href="#ma78f5b5627" y="128.2175"/>
     <use style="fill:#67916e;stroke:#67916e;" x="194.618824" xlink:href="#ma78f5b5627" y="132.880548"/>
     <use style="fill:#67916e;stroke:#67916e;" x="198.991933" xlink:href="#ma78f5b5627" y="136.155556"/>
     <use style="fill:#67916e;stroke:#67916e;" x="203.365042" xlink:href="#ma78f5b5627" y="147.165614"/>
     <use style="fill:#67916e;stroke:#67916e;" x="207.738151" xlink:href="#ma78f5b5627" y="152.92"/>
     <use style="fill:#67916e;stroke:#67916e;" x="212.111261" xlink:href="#ma78f5b5627" y="103.282667"/>
     <use style="fill:#67916e;stroke:#67916e;" x="216.48437" xlink:href="#ma78f5b5627" y="135.301714"/>
     <use style="fill:#67916e;stroke:#67916e;" x="220.857479" xlink:href="#ma78f5b5627" y="124.201778"/>
     <use style="fill:#67916e;stroke:#67916e;" x="225.230588" xlink:href="#ma78f5b5627" y="133.24"/>
     <use style="fill:#67916e;stroke:#67916e;" x="229.603697" xlink:href="#ma78f5b5627" y="108.987879"/>
     <use style="fill:#67916e;stroke:#67916e;" x="233.976807" xlink:href="#ma78f5b5627" y="106.558462"/>
     <use style="fill:#67916e;stroke:#67916e;" x="238.349916" xlink:href="#ma78f5b5627" y="109.259556"/>
     <use style="fill:#67916e;stroke:#67916e;" x="242.723025" xlink:href="#ma78f5b5627" y="111.336271"/>
     <use style="fill:#67916e;stroke:#67916e;" x="247.096134" xlink:href="#ma78f5b5627" y="106.271111"/>
     <use style="fill:#67916e;stroke:#67916e;" x="251.469244" xlink:href="#ma78f5b5627" y="100.524103"/>
     <use style="fill:#67916e;stroke:#67916e;" x="255.842353" xlink:href="#ma78f5b5627" y="106.8688"/>
     <use style="fill:#67916e;stroke:#67916e;" x="260.215462" xlink:href="#ma78f5b5627" y="82.790476"/>
     <use style="fill:#67916e;stroke:#67916e;" x="264.588571" xlink:href="#ma78f5b5627" y="66.641739"/>
     <use style="fill:#67916e;stroke:#67916e;" x="268.961681" xlink:href="#ma78f5b5627" y="88.340444"/>
     <use style="fill:#67916e;stroke:#67916e;" x="273.33479" xlink:href="#ma78f5b5627" y="81.660392"/>
     <use style="fill:#67916e;stroke:#67916e;" x="277.707899" xlink:href="#ma78f5b5627" y="76.386667"/>
     <use style="fill:#67916e;stroke:#67916e;" x="282.081008" xlink:href="#ma78f5b5627" y="118.011429"/>
     <use style="fill:#67916e;stroke:#67916e;" x="286.454118" xlink:href="#ma78f5b5627" y="71.904"/>
     <use style="fill:#67916e;stroke:#67916e;" x="290.827227" xlink:href="#ma78f5b5627" y="65.18"/>
     <use style="fill:#67916e;stroke:#67916e;" x="295.200336" xlink:href="#ma78f5b5627" y="62.123636"/>
     <use style="fill:#67916e;stroke:#67916e;" x="299.573445" xlink:href="#ma78f5b5627" y="68.542"/>
     <use style="fill:#67916e;stroke:#67916e;" x="303.946555" xlink:href="#ma78f5b5627" y="63.8352"/>
     <use style="fill:#67916e;stroke:#67916e;" x="308.319664" xlink:href="#ma78f5b5627" y="76.386667"/>
     <use style="fill:#67916e;stroke:#67916e;" x="312.692773" xlink:href="#ma78f5b5627" y="98.8"/>
     <use style="fill:#67916e;stroke:#67916e;" x="317.065882" xlink:href="#ma78f5b5627" y="59.576667"/>
     <use style="fill:#67916e;stroke:#67916e;" x="321.438992" xlink:href="#ma78f5b5627" y="82.444324"/>
     <use style="fill:#67916e;stroke:#67916e;" x="325.812101" xlink:href="#ma78f5b5627" y="76.386667"/>
     <use style="fill:#67916e;stroke:#67916e;" x="330.18521" xlink:href="#ma78f5b5627" y="83.857778"/>
     <use style="fill:#67916e;stroke:#67916e;" x="334.558319" xlink:href="#ma78f5b5627" y="68.236364"/>
     <use style="fill:#67916e;stroke:#67916e;" x="338.931429" xlink:href="#ma78f5b5627" y="68.657931"/>
     <use style="fill:#67916e;stroke:#67916e;" x="343.304538" xlink:href="#ma78f5b5627" y="55.7664"/>
     <use style="fill:#67916e;stroke:#67916e;" x="347.677647" xlink:href="#ma78f5b5627" y="59.383448"/>
     <use style="fill:#67916e;stroke:#67916e;" x="352.050756" xlink:href="#ma78f5b5627" y="61.444444"/>
     <use style="fill:#67916e;stroke:#67916e;" x="356.423866" xlink:href="#ma78f5b5627" y="64.161212"/>
     <use style="fill:#67916e;stroke:#67916e;" x="360.796975" xlink:href="#ma78f5b5627" y="66.425185"/>
     <use style="fill:#67916e;stroke:#67916e;" x="365.170084" xlink:href="#ma78f5b5627" y="31.56"/>
     <use style="fill:#67916e;stroke:#67916e;" x="369.543193" xlink:href="#ma78f5b5627" y="42.766667"/>
     <use style="fill:#67916e;stroke:#67916e;" x="373.916303" xlink:href="#ma78f5b5627" y="43.086857"/>
     <use style="fill:#67916e;stroke:#67916e;" x="378.289412" xlink:href="#ma78f5b5627" y="39.965"/>
     <use style="fill:#67916e;stroke:#67916e;" x="382.662521" xlink:href="#ma78f5b5627" y="45.008"/>
     <use style="fill:#67916e;stroke:#67916e;" x="387.03563" xlink:href="#ma78f5b5627" y="47.6976"/>
     <use style="fill:#67916e;stroke:#67916e;" x="391.408739" xlink:href="#ma78f5b5627" y="41.165714"/>
     <use style="fill:#67916e;stroke:#67916e;" x="395.781849" xlink:href="#ma78f5b5627" y="36.540741"/>
     <use style="fill:#67916e;stroke:#67916e;" x="400.154958" xlink:href="#ma78f5b5627" y="41.165714"/>
     <use style="fill:#67916e;stroke:#67916e;" x="404.528067" xlink:href="#ma78f5b5627" y="45.715789"/>
     <use style="fill:#67916e;stroke:#67916e;" x="408.901176" xlink:href="#ma78f5b5627" y="31.56"/>
     <use style="fill:#67916e;stroke:#67916e;" x="413.274286" xlink:href="#ma78f5b5627" y="36.042667"/>
     <use style="fill:#67916e;stroke:#67916e;" x="417.647395" xlink:href="#ma78f5b5627" y="40.236129"/>
     <use style="fill:#67916e;stroke:#67916e;" x="422.020504" xlink:href="#ma78f5b5627" y="31.56"/>
     <use style="fill:#67916e;stroke:#67916e;" x="426.393613" xlink:href="#ma78f5b5627" y="31.56"/>
    </g>
   </g>
  </g>
 </g>
 <defs>
  <clipPath id="p70f5bd9b81">
   <rect height="134.48" width="520.4" x="41.56" y="31.56"/>
  </clipPath>
 </defs>
</svg>
