<?xml version="1.0" encoding="utf-8" standalone="no"?>
<!DOCTYPE svg PUBLIC "-//W3C//DTD SVG 1.1//EN"
  "http://www.w3.org/Graphics/SVG/1.1/DTD/svg11.dtd">
<!-- Created with matplotlib (https://matplotlib.org/) -->
<svg height="216pt" version="1.1" viewBox="0 0 576 216" width="576pt" xmlns="http://www.w3.org/2000/svg" xmlns:xlink="http://www.w3.org/1999/xlink">
 <metadata>
  <rdf:RDF xmlns:cc="http://creativecommons.org/ns#" xmlns:dc="http://purl.org/dc/elements/1.1/" xmlns:rdf="http://www.w3.org/1999/02/22-rdf-syntax-ns#">
   <cc:Work>
    <dc:type rdf:resource="http://purl.org/dc/dcmitype/StillImage"/>
    <dc:date>2021-03-23T17:42:43.155599</dc:date>
    <dc:format>image/svg+xml</dc:format>
    <dc:creator>
     <cc:Agent>
      <dc:title>Matplotlib v3.3.4, https://matplotlib.org/</dc:title>
     </cc:Agent>
    </dc:creator>
   </cc:Work>
  </rdf:RDF>
 </metadata>
 <defs>
  <style type="text/css">*{stroke-linecap:butt;stroke-linejoin:round;}</style>
 </defs>
 <g id="figure_1">
  <g id="patch_1">
   <path d="M 0 216 
L 576 216 
L 576 0 
L 0 0 
z
" style="fill:#ffffff;"/>
  </g>
  <g id="axes_1">
   <g id="patch_2">
    <path d="M 41.56 166.04 
L 561.96 166.04 
L 561.96 31.56 
L 41.56 31.56 
z
" style="fill:#ffffff;"/>
   </g>
   <g id="PolyCollection_1">
    <defs>
     <path d="M 41.56 -50.986842 
L 41.56 -50.562924 
L 45.933109 -50.630285 
L 50.306218 -50.70499 
L 54.679328 -50.787818 
L 59.052437 -50.879626 
L 63.425546 -50.981357 
L 67.798655 -51.094049 
L 72.171765 -51.218845 
L 76.544874 -51.356996 
L 80.917983 -51.509877 
L 85.291092 -51.678993 
L 89.664202 -51.865994 
L 94.037311 -52.072679 
L 98.41042 -52.301014 
L 102.783529 -52.553141 
L 107.156639 -52.83139 
L 111.529748 -53.138288 
L 115.902857 -53.476574 
L 120.275966 -53.849205 
L 124.649076 -54.259369 
L 129.022185 -54.710487 
L 133.395294 -55.206223 
L 137.768403 -55.750483 
L 142.141513 -56.347413 
L 146.514622 -57.001393 
L 150.887731 -57.717024 
L 155.26084 -58.499109 
L 159.63395 -59.352625 
L 164.007059 -60.282685 
L 168.380168 -61.294494 
L 172.753277 -62.393285 
L 177.126387 -63.58425 
L 181.499496 -64.872452 
L 185.872605 -66.262724 
L 190.245714 -67.759558 
L 194.618824 -69.366973 
L 198.991933 -71.088377 
L 203.365042 -72.926415 
L 207.738151 -74.882821 
L 212.111261 -76.958259 
L 216.48437 -79.152181 
L 220.857479 -81.462696 
L 225.230588 -83.886467 
L 229.603697 -86.418649 
L 233.976807 -89.052868 
L 238.349916 -91.781263 
L 242.723025 -94.59459 
L 247.096134 -97.482389 
L 251.469244 -100.433203 
L 255.842353 -103.434843 
L 260.215462 -106.47467 
L 264.588571 -109.539871 
L 268.961681 -112.617709 
L 273.33479 -115.695732 
L 277.707899 -118.761935 
L 282.081008 -121.804874 
L 286.454118 -124.813747 
L 290.827227 -127.778456 
L 295.200336 -130.689648 
L 299.573445 -133.538753 
L 303.946555 -136.318019 
L 308.319664 -139.020538 
L 312.692773 -141.640277 
L 317.065882 -144.172087 
L 321.438992 -146.611713 
L 325.812101 -148.955791 
L 330.18521 -151.201824 
L 334.558319 -153.348158 
L 338.931429 -155.393934 
L 343.304538 -157.339041 
L 347.677647 -159.184054 
L 352.050756 -160.930168 
L 356.423866 -162.579128 
L 360.796975 -164.133157 
L 365.170084 -165.594885 
L 369.543193 -166.967278 
L 373.916303 -168.253575 
L 378.289412 -169.45722 
L 382.662521 -170.581805 
L 387.03563 -171.631023 
L 391.408739 -172.608615 
L 395.781849 -173.518332 
L 400.154958 -174.363899 
L 404.528067 -175.148984 
L 408.901176 -175.877177 
L 413.274286 -176.551964 
L 417.647395 -177.176715 
L 422.020504 -177.75467 
L 426.393613 -178.288932 
L 430.766723 -178.78246 
L 435.139832 -179.238064 
L 439.512941 -179.658407 
L 443.88605 -180.046002 
L 448.25916 -180.403217 
L 452.632269 -180.732278 
L 457.005378 -181.035271 
L 461.378487 -181.314146 
L 465.751597 -181.570729 
L 470.124706 -181.806718 
L 474.497815 -182.023697 
L 478.870924 -182.223137 
L 483.244034 -182.406408 
L 487.617143 -182.574775 
L 491.990252 -182.729415 
L 496.363361 -182.871417 
L 500.736471 -183.001786 
L 505.10958 -183.121453 
L 509.482689 -183.231278 
L 513.855798 -183.332053 
L 518.228908 -183.424512 
L 522.602017 -183.509327 
L 526.975126 -183.587121 
L 531.348235 -183.658466 
L 535.721345 -183.72389 
L 540.094454 -183.783878 
L 544.467563 -183.838875 
L 548.840672 -183.889294 
L 553.213782 -183.935509 
L 557.586891 -183.97787 
L 561.96 -184.016694 
L 561.96 -184.1699 
L 561.96 -184.1699 
L 557.586891 -184.143612 
L 553.213782 -184.114772 
L 548.840672 -184.083133 
L 544.467563 -184.048425 
L 540.094454 -184.010352 
L 535.721345 -183.968591 
L 531.348235 -183.922786 
L 526.975126 -183.872549 
L 522.602017 -183.817455 
L 518.228908 -183.75704 
L 513.855798 -183.690794 
L 509.482689 -183.618162 
L 505.10958 -183.538536 
L 500.736471 -183.451253 
L 496.363361 -183.355587 
L 491.990252 -183.250747 
L 487.617143 -183.135871 
L 483.244034 -183.010017 
L 478.870924 -182.87216 
L 474.497815 -182.721186 
L 470.124706 -182.555879 
L 465.751597 -182.374922 
L 461.378487 -182.176881 
L 457.005378 -181.960204 
L 452.632269 -181.723208 
L 448.25916 -181.464073 
L 443.88605 -181.180832 
L 439.512941 -180.871364 
L 435.139832 -180.533387 
L 430.766723 -180.164446 
L 426.393613 -179.76191 
L 422.020504 -179.322965 
L 417.647395 -178.84461 
L 413.274286 -178.323651 
L 408.901176 -177.756704 
L 404.528067 -177.140193 
L 400.154958 -176.470357 
L 395.781849 -175.743259 
L 391.408739 -174.954799 
L 387.03563 -174.100733 
L 382.662521 -173.176694 
L 378.289412 -172.178228 
L 373.916303 -171.100834 
L 369.543193 -169.940004 
L 365.170084 -168.691287 
L 360.796975 -167.35035 
L 356.423866 -165.913054 
L 352.050756 -164.375537 
L 347.677647 -162.73431 
L 343.304538 -160.986353 
L 338.931429 -159.129226 
L 334.558319 -157.161177 
L 330.18521 -155.081254 
L 325.812101 -152.889419 
L 321.438992 -150.586644 
L 317.065882 -148.175015 
L 312.692773 -145.657799 
L 308.319664 -143.039511 
L 303.946555 -140.325939 
L 299.573445 -137.524157 
L 295.200336 -134.642488 
L 290.827227 -131.690446 
L 286.454118 -128.678638 
L 282.081008 -125.618628 
L 277.707899 -122.522777 
L 273.33479 -119.404049 
L 268.961681 -116.275799 
L 264.588571 -113.151545 
L 260.215462 -110.044737 
L 255.842353 -106.968527 
L 251.469244 -103.935545 
L 247.096134 -100.957704 
L 242.723025 -98.04602 
L 238.349916 -95.210468 
L 233.976807 -92.45987 
L 229.603697 -89.801814 
L 225.230588 -87.242617 
L 220.857479 -84.787311 
L 216.48437 -82.439671 
L 212.111261 -80.202255 
L 207.738151 -78.076481 
L 203.365042 -76.062714 
L 198.991933 -74.160361 
L 194.618824 -72.367985 
L 190.245714 -70.683413 
L 185.872605 -69.103851 
L 181.499496 -67.625987 
L 177.126387 -66.246102 
L 172.753277 -64.960158 
L 168.380168 -63.763894 
L 164.007059 -62.652896 
L 159.63395 -61.622675 
L 155.26084 -60.66872 
L 150.887731 -59.78655 
L 146.514622 -58.971762 
L 142.141513 -58.220056 
L 137.768403 -57.527271 
L 133.395294 -56.889402 
L 129.022185 -56.302613 
L 124.649076 -55.763254 
L 120.275966 -55.26786 
L 115.902857 -54.81316 
L 111.529748 -54.396075 
L 107.156639 -54.013714 
L 102.783529 -53.663371 
L 98.41042 -53.342521 
L 94.037311 -53.048812 
L 89.664202 -52.780058 
L 85.291092 -52.53423 
L 80.917983 -52.309448 
L 76.544874 -52.103976 
L 72.171765 -51.916207 
L 67.798655 -51.744661 
L 63.425546 -51.587973 
L 59.052437 -51.444889 
L 54.679328 -51.314252 
L 50.306218 -51.195001 
L 45.933109 -51.086163 
L 41.56 -50.986842 
z
" id="m0253f7b9fb" style="stroke:#bfbfbf;"/>
    </defs>
    <g clip-path="url(#pbd1af382bc)">
     <use style="fill:#bfbfbf;stroke:#bfbfbf;" x="0" xlink:href="#m0253f7b9fb" y="216"/>
    </g>
   </g>
   <g id="PolyCollection_2">
    <defs>
     <path d="M 41.56 -50.986842 
L 41.56 -51.41076 
L 45.933109 -51.54204 
L 50.306218 -51.685012 
L 54.679328 -51.840685 
L 59.052437 -52.010152 
L 63.425546 -52.19459 
L 67.798655 -52.395272 
L 72.171765 -52.613568 
L 76.544874 -52.850955 
L 80.917983 -53.109019 
L 85.291092 -53.389466 
L 89.664202 -53.694123 
L 94.037311 -54.024946 
L 98.41042 -54.384028 
L 102.783529 -54.7736 
L 107.156639 -55.196037 
L 111.529748 -55.653862 
L 115.902857 -56.149747 
L 120.275966 -56.686514 
L 124.649076 -57.267139 
L 129.022185 -57.89474 
L 133.395294 -58.572581 
L 137.768403 -59.30406 
L 142.141513 -60.092699 
L 146.514622 -60.94213 
L 150.887731 -61.856077 
L 155.26084 -62.83833 
L 159.63395 -63.892726 
L 164.007059 -65.023108 
L 168.380168 -66.233293 
L 172.753277 -67.527031 
L 177.126387 -68.907953 
L 181.499496 -70.379523 
L 185.872605 -71.944977 
L 190.245714 -73.607268 
L 194.618824 -75.368996 
L 198.991933 -77.232345 
L 203.365042 -79.199013 
L 207.738151 -81.270142 
L 212.111261 -83.44625 
L 216.48437 -85.72716 
L 220.857479 -88.111927 
L 225.230588 -90.598766 
L 229.603697 -93.184979 
L 233.976807 -95.866872 
L 238.349916 -98.639674 
L 242.723025 -101.497449 
L 247.096134 -104.433018 
L 251.469244 -107.437886 
L 255.842353 -110.50221 
L 260.215462 -113.614805 
L 264.588571 -116.763219 
L 268.961681 -119.933889 
L 273.33479 -123.112366 
L 277.707899 -126.283619 
L 282.081008 -129.432382 
L 286.454118 -132.543528 
L 290.827227 -135.602436 
L 295.200336 -138.595328 
L 299.573445 -141.509561 
L 303.946555 -144.33386 
L 308.319664 -147.058483 
L 312.692773 -149.675321 
L 317.065882 -152.177943 
L 321.438992 -154.561576 
L 325.812101 -156.823046 
L 330.18521 -158.960684 
L 334.558319 -160.974196 
L 338.931429 -162.864518 
L 343.304538 -164.633665 
L 347.677647 -166.284565 
L 352.050756 -167.820906 
L 356.423866 -169.246979 
L 360.796975 -170.567543 
L 365.170084 -171.78769 
L 369.543193 -172.91273 
L 373.916303 -173.948092 
L 378.289412 -174.899237 
L 382.662521 -175.771582 
L 387.03563 -176.570442 
L 391.408739 -177.300983 
L 395.781849 -177.968186 
L 400.154958 -178.576814 
L 404.528067 -179.131401 
L 408.901176 -179.636231 
L 413.274286 -180.095339 
L 417.647395 -180.512506 
L 422.020504 -180.891261 
L 426.393613 -181.234887 
L 430.766723 -181.546431 
L 435.139832 -181.82871 
L 439.512941 -182.084322 
L 443.88605 -182.315662 
L 448.25916 -182.524929 
L 452.632269 -182.714138 
L 457.005378 -182.885138 
L 461.378487 -183.039616 
L 465.751597 -183.179115 
L 470.124706 -183.305041 
L 474.497815 -183.418675 
L 478.870924 -183.521183 
L 483.244034 -183.613626 
L 487.617143 -183.696966 
L 491.990252 -183.772079 
L 496.363361 -183.839757 
L 500.736471 -183.90072 
L 505.10958 -183.955619 
L 509.482689 -184.005046 
L 513.855798 -184.049535 
L 518.228908 -184.089568 
L 522.602017 -184.125584 
L 526.975126 -184.157977 
L 531.348235 -184.187105 
L 535.721345 -184.213292 
L 540.094454 -184.236827 
L 544.467563 -184.257975 
L 548.840672 -184.276972 
L 553.213782 -184.294034 
L 557.586891 -184.309354 
L 561.96 -184.323106 
L 561.96 -184.1699 
L 561.96 -184.1699 
L 557.586891 -184.143612 
L 553.213782 -184.114772 
L 548.840672 -184.083133 
L 544.467563 -184.048425 
L 540.094454 -184.010352 
L 535.721345 -183.968591 
L 531.348235 -183.922786 
L 526.975126 -183.872549 
L 522.602017 -183.817455 
L 518.228908 -183.75704 
L 513.855798 -183.690794 
L 509.482689 -183.618162 
L 505.10958 -183.538536 
L 500.736471 -183.451253 
L 496.363361 -183.355587 
L 491.990252 -183.250747 
L 487.617143 -183.135871 
L 483.244034 -183.010017 
L 478.870924 -182.87216 
L 474.497815 -182.721186 
L 470.124706 -182.555879 
L 465.751597 -182.374922 
L 461.378487 -182.176881 
L 457.005378 -181.960204 
L 452.632269 -181.723208 
L 448.25916 -181.464073 
L 443.88605 -181.180832 
L 439.512941 -180.871364 
L 435.139832 -180.533387 
L 430.766723 -180.164446 
L 426.393613 -179.76191 
L 422.020504 -179.322965 
L 417.647395 -178.84461 
L 413.274286 -178.323651 
L 408.901176 -177.756704 
L 404.528067 -177.140193 
L 400.154958 -176.470357 
L 395.781849 -175.743259 
L 391.408739 -174.954799 
L 387.03563 -174.100733 
L 382.662521 -173.176694 
L 378.289412 -172.178228 
L 373.916303 -171.100834 
L 369.543193 -169.940004 
L 365.170084 -168.691287 
L 360.796975 -167.35035 
L 356.423866 -165.913054 
L 352.050756 -164.375537 
L 347.677647 -162.73431 
L 343.304538 -160.986353 
L 338.931429 -159.129226 
L 334.558319 -157.161177 
L 330.18521 -155.081254 
L 325.812101 -152.889419 
L 321.438992 -150.586644 
L 317.065882 -148.175015 
L 312.692773 -145.657799 
L 308.319664 -143.039511 
L 303.946555 -140.325939 
L 299.573445 -137.524157 
L 295.200336 -134.642488 
L 290.827227 -131.690446 
L 286.454118 -128.678638 
L 282.081008 -125.618628 
L 277.707899 -122.522777 
L 273.33479 -119.404049 
L 268.961681 -116.275799 
L 264.588571 -113.151545 
L 260.215462 -110.044737 
L 255.842353 -106.968527 
L 251.469244 -103.935545 
L 247.096134 -100.957704 
L 242.723025 -98.04602 
L 238.349916 -95.210468 
L 233.976807 -92.45987 
L 229.603697 -89.801814 
L 225.230588 -87.242617 
L 220.857479 -84.787311 
L 216.48437 -82.439671 
L 212.111261 -80.202255 
L 207.738151 -78.076481 
L 203.365042 -76.062714 
L 198.991933 -74.160361 
L 194.618824 -72.367985 
L 190.245714 -70.683413 
L 185.872605 -69.103851 
L 181.499496 -67.625987 
L 177.126387 -66.246102 
L 172.753277 -64.960158 
L 168.380168 -63.763894 
L 164.007059 -62.652896 
L 159.63395 -61.622675 
L 155.26084 -60.66872 
L 150.887731 -59.78655 
L 146.514622 -58.971762 
L 142.141513 -58.220056 
L 137.768403 -57.527271 
L 133.395294 -56.889402 
L 129.022185 -56.302613 
L 124.649076 -55.763254 
L 120.275966 -55.26786 
L 115.902857 -54.81316 
L 111.529748 -54.396075 
L 107.156639 -54.013714 
L 102.783529 -53.663371 
L 98.41042 -53.342521 
L 94.037311 -53.048812 
L 89.664202 -52.780058 
L 85.291092 -52.53423 
L 80.917983 -52.309448 
L 76.544874 -52.103976 
L 72.171765 -51.916207 
L 67.798655 -51.744661 
L 63.425546 -51.587973 
L 59.052437 -51.444889 
L 54.679328 -51.314252 
L 50.306218 -51.195001 
L 45.933109 -51.086163 
L 41.56 -50.986842 
z
" id="m074a191165" style="stroke:#bfbfbf;"/>
    </defs>
    <g clip-path="url(#pbd1af382bc)">
     <use style="fill:#bfbfbf;stroke:#bfbfbf;" x="0" xlink:href="#m074a191165" y="216"/>
    </g>
   </g>
   <g id="matplotlib.axis_1">
    <g id="xtick_1">
     <g id="line2d_1">
      <defs>
       <path d="M 0 0 
L 0 3.5 
" id="m59e8fbd7af" style="stroke:#000000;stroke-width:0.8;"/>
      </defs>
      <g>
       <use style="stroke:#000000;stroke-width:0.8;" x="45.933109" xlink:href="#m59e8fbd7af" y="166.04"/>
      </g>
     </g>
     <g id="text_1">
      <!-- 15 -->
      <g transform="translate(37.661859 182.917969)scale(0.13 -0.13)">
       <defs>
        <path d="M 12.40625 8.296875 
L 28.515625 8.296875 
L 28.515625 63.921875 
L 10.984375 60.40625 
L 10.984375 69.390625 
L 28.421875 72.90625 
L 38.28125 72.90625 
L 38.28125 8.296875 
L 54.390625 8.296875 
L 54.390625 0 
L 12.40625 0 
z
" id="DejaVuSans-49"/>
        <path d="M 10.796875 72.90625 
L 49.515625 72.90625 
L 49.515625 64.59375 
L 19.828125 64.59375 
L 19.828125 46.734375 
Q 21.96875 47.46875 24.109375 47.828125 
Q 26.265625 48.1875 28.421875 48.1875 
Q 40.625 48.1875 47.75 41.5 
Q 54.890625 34.8125 54.890625 23.390625 
Q 54.890625 11.625 47.5625 5.09375 
Q 40.234375 -1.421875 26.90625 -1.421875 
Q 22.3125 -1.421875 17.546875 -0.640625 
Q 12.796875 0.140625 7.71875 1.703125 
L 7.71875 11.625 
Q 12.109375 9.234375 16.796875 8.0625 
Q 21.484375 6.890625 26.703125 6.890625 
Q 35.15625 6.890625 40.078125 11.328125 
Q 45.015625 15.765625 45.015625 23.390625 
Q 45.015625 31 40.078125 35.4375 
Q 35.15625 39.890625 26.703125 39.890625 
Q 22.75 39.890625 18.8125 39.015625 
Q 14.890625 38.140625 10.796875 36.28125 
z
" id="DejaVuSans-53"/>
       </defs>
       <use xlink:href="#DejaVuSans-49"/>
       <use x="63.623047" xlink:href="#DejaVuSans-53"/>
      </g>
     </g>
    </g>
    <g id="xtick_2">
     <g id="line2d_2">
      <g>
       <use style="stroke:#000000;stroke-width:0.8;" x="120.275966" xlink:href="#m59e8fbd7af" y="166.04"/>
      </g>
     </g>
     <g id="text_2">
      <!-- Jan -->
      <g transform="translate(110.25581 182.917969)scale(0.13 -0.13)">
       <defs>
        <path d="M 9.8125 72.90625 
L 19.671875 72.90625 
L 19.671875 5.078125 
Q 19.671875 -8.109375 14.671875 -14.0625 
Q 9.671875 -20.015625 -1.421875 -20.015625 
L -5.171875 -20.015625 
L -5.171875 -11.71875 
L -2.09375 -11.71875 
Q 4.4375 -11.71875 7.125 -8.046875 
Q 9.8125 -4.390625 9.8125 5.078125 
z
" id="DejaVuSans-74"/>
        <path d="M 34.28125 27.484375 
Q 23.390625 27.484375 19.1875 25 
Q 14.984375 22.515625 14.984375 16.5 
Q 14.984375 11.71875 18.140625 8.90625 
Q 21.296875 6.109375 26.703125 6.109375 
Q 34.1875 6.109375 38.703125 11.40625 
Q 43.21875 16.703125 43.21875 25.484375 
L 43.21875 27.484375 
z
M 52.203125 31.203125 
L 52.203125 0 
L 43.21875 0 
L 43.21875 8.296875 
Q 40.140625 3.328125 35.546875 0.953125 
Q 30.953125 -1.421875 24.3125 -1.421875 
Q 15.921875 -1.421875 10.953125 3.296875 
Q 6 8.015625 6 15.921875 
Q 6 25.140625 12.171875 29.828125 
Q 18.359375 34.515625 30.609375 34.515625 
L 43.21875 34.515625 
L 43.21875 35.40625 
Q 43.21875 41.609375 39.140625 45 
Q 35.0625 48.390625 27.6875 48.390625 
Q 23 48.390625 18.546875 47.265625 
Q 14.109375 46.140625 10.015625 43.890625 
L 10.015625 52.203125 
Q 14.9375 54.109375 19.578125 55.046875 
Q 24.21875 56 28.609375 56 
Q 40.484375 56 46.34375 49.84375 
Q 52.203125 43.703125 52.203125 31.203125 
z
" id="DejaVuSans-97"/>
        <path d="M 54.890625 33.015625 
L 54.890625 0 
L 45.90625 0 
L 45.90625 32.71875 
Q 45.90625 40.484375 42.875 44.328125 
Q 39.84375 48.1875 33.796875 48.1875 
Q 26.515625 48.1875 22.3125 43.546875 
Q 18.109375 38.921875 18.109375 30.90625 
L 18.109375 0 
L 9.078125 0 
L 9.078125 54.6875 
L 18.109375 54.6875 
L 18.109375 46.1875 
Q 21.34375 51.125 25.703125 53.5625 
Q 30.078125 56 35.796875 56 
Q 45.21875 56 50.046875 50.171875 
Q 54.890625 44.34375 54.890625 33.015625 
z
" id="DejaVuSans-110"/>
       </defs>
       <use xlink:href="#DejaVuSans-74"/>
       <use x="29.492188" xlink:href="#DejaVuSans-97"/>
       <use x="90.771484" xlink:href="#DejaVuSans-110"/>
      </g>
     </g>
    </g>
    <g id="xtick_3">
     <g id="line2d_3">
      <g>
       <use style="stroke:#000000;stroke-width:0.8;" x="181.499496" xlink:href="#m59e8fbd7af" y="166.04"/>
      </g>
     </g>
     <g id="text_3">
      <!-- 15 -->
      <g transform="translate(173.228246 182.917969)scale(0.13 -0.13)">
       <use xlink:href="#DejaVuSans-49"/>
       <use x="63.623047" xlink:href="#DejaVuSans-53"/>
      </g>
     </g>
    </g>
    <g id="xtick_4">
     <g id="line2d_4">
      <g>
       <use style="stroke:#000000;stroke-width:0.8;" x="255.842353" xlink:href="#m59e8fbd7af" y="166.04"/>
      </g>
     </g>
     <g id="text_4">
      <!-- Feb -->
      <g transform="translate(244.335322 182.917969)scale(0.13 -0.13)">
       <defs>
        <path d="M 9.8125 72.90625 
L 51.703125 72.90625 
L 51.703125 64.59375 
L 19.671875 64.59375 
L 19.671875 43.109375 
L 48.578125 43.109375 
L 48.578125 34.8125 
L 19.671875 34.8125 
L 19.671875 0 
L 9.8125 0 
z
" id="DejaVuSans-70"/>
        <path d="M 56.203125 29.59375 
L 56.203125 25.203125 
L 14.890625 25.203125 
Q 15.484375 15.921875 20.484375 11.0625 
Q 25.484375 6.203125 34.421875 6.203125 
Q 39.59375 6.203125 44.453125 7.46875 
Q 49.3125 8.734375 54.109375 11.28125 
L 54.109375 2.78125 
Q 49.265625 0.734375 44.1875 -0.34375 
Q 39.109375 -1.421875 33.890625 -1.421875 
Q 20.796875 -1.421875 13.15625 6.1875 
Q 5.515625 13.8125 5.515625 26.8125 
Q 5.515625 40.234375 12.765625 48.109375 
Q 20.015625 56 32.328125 56 
Q 43.359375 56 49.78125 48.890625 
Q 56.203125 41.796875 56.203125 29.59375 
z
M 47.21875 32.234375 
Q 47.125 39.59375 43.09375 43.984375 
Q 39.0625 48.390625 32.421875 48.390625 
Q 24.90625 48.390625 20.390625 44.140625 
Q 15.875 39.890625 15.1875 32.171875 
z
" id="DejaVuSans-101"/>
        <path d="M 48.6875 27.296875 
Q 48.6875 37.203125 44.609375 42.84375 
Q 40.53125 48.484375 33.40625 48.484375 
Q 26.265625 48.484375 22.1875 42.84375 
Q 18.109375 37.203125 18.109375 27.296875 
Q 18.109375 17.390625 22.1875 11.75 
Q 26.265625 6.109375 33.40625 6.109375 
Q 40.53125 6.109375 44.609375 11.75 
Q 48.6875 17.390625 48.6875 27.296875 
z
M 18.109375 46.390625 
Q 20.953125 51.265625 25.265625 53.625 
Q 29.59375 56 35.59375 56 
Q 45.5625 56 51.78125 48.09375 
Q 58.015625 40.1875 58.015625 27.296875 
Q 58.015625 14.40625 51.78125 6.484375 
Q 45.5625 -1.421875 35.59375 -1.421875 
Q 29.59375 -1.421875 25.265625 0.953125 
Q 20.953125 3.328125 18.109375 8.203125 
L 18.109375 0 
L 9.078125 0 
L 9.078125 75.984375 
L 18.109375 75.984375 
z
" id="DejaVuSans-98"/>
       </defs>
       <use xlink:href="#DejaVuSans-70"/>
       <use x="52.019531" xlink:href="#DejaVuSans-101"/>
       <use x="113.542969" xlink:href="#DejaVuSans-98"/>
      </g>
     </g>
    </g>
    <g id="xtick_5">
     <g id="line2d_5">
      <g>
       <use style="stroke:#000000;stroke-width:0.8;" x="317.065882" xlink:href="#m59e8fbd7af" y="166.04"/>
      </g>
     </g>
     <g id="text_5">
      <!-- 15 -->
      <g transform="translate(308.794632 182.917969)scale(0.13 -0.13)">
       <use xlink:href="#DejaVuSans-49"/>
       <use x="63.623047" xlink:href="#DejaVuSans-53"/>
      </g>
     </g>
    </g>
    <g id="xtick_6">
     <g id="line2d_6">
      <g>
       <use style="stroke:#000000;stroke-width:0.8;" x="378.289412" xlink:href="#m59e8fbd7af" y="166.04"/>
      </g>
     </g>
     <g id="text_6">
      <!-- Mar -->
      <g transform="translate(366.02574 182.917969)scale(0.13 -0.13)">
       <defs>
        <path d="M 9.8125 72.90625 
L 24.515625 72.90625 
L 43.109375 23.296875 
L 61.8125 72.90625 
L 76.515625 72.90625 
L 76.515625 0 
L 66.890625 0 
L 66.890625 64.015625 
L 48.09375 14.015625 
L 38.1875 14.015625 
L 19.390625 64.015625 
L 19.390625 0 
L 9.8125 0 
z
" id="DejaVuSans-77"/>
        <path d="M 41.109375 46.296875 
Q 39.59375 47.171875 37.8125 47.578125 
Q 36.03125 48 33.890625 48 
Q 26.265625 48 22.1875 43.046875 
Q 18.109375 38.09375 18.109375 28.8125 
L 18.109375 0 
L 9.078125 0 
L 9.078125 54.6875 
L 18.109375 54.6875 
L 18.109375 46.1875 
Q 20.953125 51.171875 25.484375 53.578125 
Q 30.03125 56 36.53125 56 
Q 37.453125 56 38.578125 55.875 
Q 39.703125 55.765625 41.0625 55.515625 
z
" id="DejaVuSans-114"/>
       </defs>
       <use xlink:href="#DejaVuSans-77"/>
       <use x="86.279297" xlink:href="#DejaVuSans-97"/>
       <use x="147.558594" xlink:href="#DejaVuSans-114"/>
      </g>
     </g>
    </g>
    <g id="xtick_7">
     <g id="line2d_7">
      <g>
       <use style="stroke:#000000;stroke-width:0.8;" x="439.512941" xlink:href="#m59e8fbd7af" y="166.04"/>
      </g>
     </g>
     <g id="text_7">
      <!-- 15 -->
      <g transform="translate(431.241691 182.917969)scale(0.13 -0.13)">
       <use xlink:href="#DejaVuSans-49"/>
       <use x="63.623047" xlink:href="#DejaVuSans-53"/>
      </g>
     </g>
    </g>
    <g id="xtick_8">
     <g id="line2d_8">
      <g>
       <use style="stroke:#000000;stroke-width:0.8;" x="513.855798" xlink:href="#m59e8fbd7af" y="166.04"/>
      </g>
     </g>
     <g id="text_8">
      <!-- Apr -->
      <g transform="translate(502.610798 182.917969)scale(0.13 -0.13)">
       <defs>
        <path d="M 34.1875 63.1875 
L 20.796875 26.90625 
L 47.609375 26.90625 
z
M 28.609375 72.90625 
L 39.796875 72.90625 
L 67.578125 0 
L 57.328125 0 
L 50.6875 18.703125 
L 17.828125 18.703125 
L 11.1875 0 
L 0.78125 0 
z
" id="DejaVuSans-65"/>
        <path d="M 18.109375 8.203125 
L 18.109375 -20.796875 
L 9.078125 -20.796875 
L 9.078125 54.6875 
L 18.109375 54.6875 
L 18.109375 46.390625 
Q 20.953125 51.265625 25.265625 53.625 
Q 29.59375 56 35.59375 56 
Q 45.5625 56 51.78125 48.09375 
Q 58.015625 40.1875 58.015625 27.296875 
Q 58.015625 14.40625 51.78125 6.484375 
Q 45.5625 -1.421875 35.59375 -1.421875 
Q 29.59375 -1.421875 25.265625 0.953125 
Q 20.953125 3.328125 18.109375 8.203125 
z
M 48.6875 27.296875 
Q 48.6875 37.203125 44.609375 42.84375 
Q 40.53125 48.484375 33.40625 48.484375 
Q 26.265625 48.484375 22.1875 42.84375 
Q 18.109375 37.203125 18.109375 27.296875 
Q 18.109375 17.390625 22.1875 11.75 
Q 26.265625 6.109375 33.40625 6.109375 
Q 40.53125 6.109375 44.609375 11.75 
Q 48.6875 17.390625 48.6875 27.296875 
z
" id="DejaVuSans-112"/>
       </defs>
       <use xlink:href="#DejaVuSans-65"/>
       <use x="68.408203" xlink:href="#DejaVuSans-112"/>
       <use x="131.884766" xlink:href="#DejaVuSans-114"/>
      </g>
     </g>
    </g>
    <g id="text_9">
     <!-- 2021-Apr -->
     <g transform="translate(501.987344 198.499531)scale(0.13 -0.13)">
      <defs>
       <path d="M 19.1875 8.296875 
L 53.609375 8.296875 
L 53.609375 0 
L 7.328125 0 
L 7.328125 8.296875 
Q 12.9375 14.109375 22.625 23.890625 
Q 32.328125 33.6875 34.8125 36.53125 
Q 39.546875 41.84375 41.421875 45.53125 
Q 43.3125 49.21875 43.3125 52.78125 
Q 43.3125 58.59375 39.234375 62.25 
Q 35.15625 65.921875 28.609375 65.921875 
Q 23.96875 65.921875 18.8125 64.3125 
Q 13.671875 62.703125 7.8125 59.421875 
L 7.8125 69.390625 
Q 13.765625 71.78125 18.9375 73 
Q 24.125 74.21875 28.421875 74.21875 
Q 39.75 74.21875 46.484375 68.546875 
Q 53.21875 62.890625 53.21875 53.421875 
Q 53.21875 48.921875 51.53125 44.890625 
Q 49.859375 40.875 45.40625 35.40625 
Q 44.1875 33.984375 37.640625 27.21875 
Q 31.109375 20.453125 19.1875 8.296875 
z
" id="DejaVuSans-50"/>
       <path d="M 31.78125 66.40625 
Q 24.171875 66.40625 20.328125 58.90625 
Q 16.5 51.421875 16.5 36.375 
Q 16.5 21.390625 20.328125 13.890625 
Q 24.171875 6.390625 31.78125 6.390625 
Q 39.453125 6.390625 43.28125 13.890625 
Q 47.125 21.390625 47.125 36.375 
Q 47.125 51.421875 43.28125 58.90625 
Q 39.453125 66.40625 31.78125 66.40625 
z
M 31.78125 74.21875 
Q 44.046875 74.21875 50.515625 64.515625 
Q 56.984375 54.828125 56.984375 36.375 
Q 56.984375 17.96875 50.515625 8.265625 
Q 44.046875 -1.421875 31.78125 -1.421875 
Q 19.53125 -1.421875 13.0625 8.265625 
Q 6.59375 17.96875 6.59375 36.375 
Q 6.59375 54.828125 13.0625 64.515625 
Q 19.53125 74.21875 31.78125 74.21875 
z
" id="DejaVuSans-48"/>
       <path d="M 4.890625 31.390625 
L 31.203125 31.390625 
L 31.203125 23.390625 
L 4.890625 23.390625 
z
" id="DejaVuSans-45"/>
      </defs>
      <use xlink:href="#DejaVuSans-50"/>
      <use x="63.623047" xlink:href="#DejaVuSans-48"/>
      <use x="127.246094" xlink:href="#DejaVuSans-50"/>
      <use x="190.869141" xlink:href="#DejaVuSans-49"/>
      <use x="254.492188" xlink:href="#DejaVuSans-45"/>
      <use x="288.326172" xlink:href="#DejaVuSans-65"/>
      <use x="356.734375" xlink:href="#DejaVuSans-112"/>
      <use x="420.210938" xlink:href="#DejaVuSans-114"/>
     </g>
    </g>
   </g>
   <g id="matplotlib.axis_2">
    <g id="ytick_1">
     <g id="line2d_9">
      <defs>
       <path d="M 0 0 
L -3.5 0 
" id="m373ef457d6" style="stroke:#000000;stroke-width:0.8;"/>
      </defs>
      <g>
       <use style="stroke:#000000;stroke-width:0.8;" x="41.56" xlink:href="#m373ef457d6" y="166.04"/>
      </g>
     </g>
     <g id="text_10">
      <!-- 0.0 -->
      <g transform="translate(13.885938 170.978984)scale(0.13 -0.13)">
       <defs>
        <path d="M 10.6875 12.40625 
L 21 12.40625 
L 21 0 
L 10.6875 0 
z
" id="DejaVuSans-46"/>
       </defs>
       <use xlink:href="#DejaVuSans-48"/>
       <use x="63.623047" xlink:href="#DejaVuSans-46"/>
       <use x="95.410156" xlink:href="#DejaVuSans-48"/>
      </g>
     </g>
    </g>
    <g id="ytick_2">
     <g id="line2d_10">
      <g>
       <use style="stroke:#000000;stroke-width:0.8;" x="41.56" xlink:href="#m373ef457d6" y="139.144"/>
      </g>
     </g>
     <g id="text_11">
      <!-- 0.2 -->
      <g transform="translate(13.885938 144.082984)scale(0.13 -0.13)">
       <use xlink:href="#DejaVuSans-48"/>
       <use x="63.623047" xlink:href="#DejaVuSans-46"/>
       <use x="95.410156" xlink:href="#DejaVuSans-50"/>
      </g>
     </g>
    </g>
    <g id="ytick_3">
     <g id="line2d_11">
      <g>
       <use style="stroke:#000000;stroke-width:0.8;" x="41.56" xlink:href="#m373ef457d6" y="112.248"/>
      </g>
     </g>
     <g id="text_12">
      <!-- 0.4 -->
      <g transform="translate(13.885938 117.186984)scale(0.13 -0.13)">
       <defs>
        <path d="M 37.796875 64.3125 
L 12.890625 25.390625 
L 37.796875 25.390625 
z
M 35.203125 72.90625 
L 47.609375 72.90625 
L 47.609375 25.390625 
L 58.015625 25.390625 
L 58.015625 17.1875 
L 47.609375 17.1875 
L 47.609375 0 
L 37.796875 0 
L 37.796875 17.1875 
L 4.890625 17.1875 
L 4.890625 26.703125 
z
" id="DejaVuSans-52"/>
       </defs>
       <use xlink:href="#DejaVuSans-48"/>
       <use x="63.623047" xlink:href="#DejaVuSans-46"/>
       <use x="95.410156" xlink:href="#DejaVuSans-52"/>
      </g>
     </g>
    </g>
    <g id="ytick_4">
     <g id="line2d_12">
      <g>
       <use style="stroke:#000000;stroke-width:0.8;" x="41.56" xlink:href="#m373ef457d6" y="85.352"/>
      </g>
     </g>
     <g id="text_13">
      <!-- 0.6 -->
      <g transform="translate(13.885938 90.290984)scale(0.13 -0.13)">
       <defs>
        <path d="M 33.015625 40.375 
Q 26.375 40.375 22.484375 35.828125 
Q 18.609375 31.296875 18.609375 23.390625 
Q 18.609375 15.53125 22.484375 10.953125 
Q 26.375 6.390625 33.015625 6.390625 
Q 39.65625 6.390625 43.53125 10.953125 
Q 47.40625 15.53125 47.40625 23.390625 
Q 47.40625 31.296875 43.53125 35.828125 
Q 39.65625 40.375 33.015625 40.375 
z
M 52.59375 71.296875 
L 52.59375 62.3125 
Q 48.875 64.0625 45.09375 64.984375 
Q 41.3125 65.921875 37.59375 65.921875 
Q 27.828125 65.921875 22.671875 59.328125 
Q 17.53125 52.734375 16.796875 39.40625 
Q 19.671875 43.65625 24.015625 45.921875 
Q 28.375 48.1875 33.59375 48.1875 
Q 44.578125 48.1875 50.953125 41.515625 
Q 57.328125 34.859375 57.328125 23.390625 
Q 57.328125 12.15625 50.6875 5.359375 
Q 44.046875 -1.421875 33.015625 -1.421875 
Q 20.359375 -1.421875 13.671875 8.265625 
Q 6.984375 17.96875 6.984375 36.375 
Q 6.984375 53.65625 15.1875 63.9375 
Q 23.390625 74.21875 37.203125 74.21875 
Q 40.921875 74.21875 44.703125 73.484375 
Q 48.484375 72.75 52.59375 71.296875 
z
" id="DejaVuSans-54"/>
       </defs>
       <use xlink:href="#DejaVuSans-48"/>
       <use x="63.623047" xlink:href="#DejaVuSans-46"/>
       <use x="95.410156" xlink:href="#DejaVuSans-54"/>
      </g>
     </g>
    </g>
    <g id="ytick_5">
     <g id="line2d_13">
      <g>
       <use style="stroke:#000000;stroke-width:0.8;" x="41.56" xlink:href="#m373ef457d6" y="58.456"/>
      </g>
     </g>
     <g id="text_14">
      <!-- 0.8 -->
      <g transform="translate(13.885938 63.394984)scale(0.13 -0.13)">
       <defs>
        <path d="M 31.78125 34.625 
Q 24.75 34.625 20.71875 30.859375 
Q 16.703125 27.09375 16.703125 20.515625 
Q 16.703125 13.921875 20.71875 10.15625 
Q 24.75 6.390625 31.78125 6.390625 
Q 38.8125 6.390625 42.859375 10.171875 
Q 46.921875 13.96875 46.921875 20.515625 
Q 46.921875 27.09375 42.890625 30.859375 
Q 38.875 34.625 31.78125 34.625 
z
M 21.921875 38.8125 
Q 15.578125 40.375 12.03125 44.71875 
Q 8.5 49.078125 8.5 55.328125 
Q 8.5 64.0625 14.71875 69.140625 
Q 20.953125 74.21875 31.78125 74.21875 
Q 42.671875 74.21875 48.875 69.140625 
Q 55.078125 64.0625 55.078125 55.328125 
Q 55.078125 49.078125 51.53125 44.71875 
Q 48 40.375 41.703125 38.8125 
Q 48.828125 37.15625 52.796875 32.3125 
Q 56.78125 27.484375 56.78125 20.515625 
Q 56.78125 9.90625 50.3125 4.234375 
Q 43.84375 -1.421875 31.78125 -1.421875 
Q 19.734375 -1.421875 13.25 4.234375 
Q 6.78125 9.90625 6.78125 20.515625 
Q 6.78125 27.484375 10.78125 32.3125 
Q 14.796875 37.15625 21.921875 38.8125 
z
M 18.3125 54.390625 
Q 18.3125 48.734375 21.84375 45.5625 
Q 25.390625 42.390625 31.78125 42.390625 
Q 38.140625 42.390625 41.71875 45.5625 
Q 45.3125 48.734375 45.3125 54.390625 
Q 45.3125 60.0625 41.71875 63.234375 
Q 38.140625 66.40625 31.78125 66.40625 
Q 25.390625 66.40625 21.84375 63.234375 
Q 18.3125 60.0625 18.3125 54.390625 
z
" id="DejaVuSans-56"/>
       </defs>
       <use xlink:href="#DejaVuSans-48"/>
       <use x="63.623047" xlink:href="#DejaVuSans-46"/>
       <use x="95.410156" xlink:href="#DejaVuSans-56"/>
      </g>
     </g>
    </g>
    <g id="ytick_6">
     <g id="line2d_14">
      <g>
       <use style="stroke:#000000;stroke-width:0.8;" x="41.56" xlink:href="#m373ef457d6" y="31.56"/>
      </g>
     </g>
     <g id="text_15">
      <!-- 1.0 -->
      <g transform="translate(13.885938 36.498984)scale(0.13 -0.13)">
       <use xlink:href="#DejaVuSans-49"/>
       <use x="63.623047" xlink:href="#DejaVuSans-46"/>
       <use x="95.410156" xlink:href="#DejaVuSans-48"/>
      </g>
     </g>
    </g>
   </g>
   <g id="LineCollection_1">
    <path clip-path="url(#pbd1af382bc)" d="M 80.917983 166.04 
L 80.917983 59.336752 
" style="fill:none;stroke:#0d4a70;stroke-width:1.5;"/>
    <path clip-path="url(#pbd1af382bc)" d="M 85.291092 166.04 
L 85.291092 135.365734 
" style="fill:none;stroke:#0d4a70;stroke-width:1.5;"/>
    <path clip-path="url(#pbd1af382bc)" d="M 89.664202 166.04 
L 89.664202 128.717389 
" style="fill:none;stroke:#0d4a70;stroke-width:1.5;"/>
    <path clip-path="url(#pbd1af382bc)" d="M 94.037311 147.63718 
L 94.037311 72.676237 
" style="fill:none;stroke:#0d4a70;stroke-width:1.5;"/>
    <path clip-path="url(#pbd1af382bc)" d="M 98.41042 166.04 
L 98.41042 77.603293 
" style="fill:none;stroke:#0d4a70;stroke-width:1.5;"/>
    <path clip-path="url(#pbd1af382bc)" d="M 102.783529 164.711984 
L 102.783529 131.401582 
" style="fill:none;stroke:#0d4a70;stroke-width:1.5;"/>
    <path clip-path="url(#pbd1af382bc)" d="M 107.156639 166.04 
L 107.156639 107.610798 
" style="fill:none;stroke:#0d4a70;stroke-width:1.5;"/>
    <path clip-path="url(#pbd1af382bc)" d="M 111.529748 166.04 
L 111.529748 59.336752 
" style="fill:none;stroke:#0d4a70;stroke-width:1.5;"/>
    <path clip-path="url(#pbd1af382bc)" d="M 115.902857 162.788273 
L 115.902857 130.004765 
" style="fill:none;stroke:#0d4a70;stroke-width:1.5;"/>
    <path clip-path="url(#pbd1af382bc)" d="M 120.275966 165.002263 
L 120.275966 137.811095 
" style="fill:none;stroke:#0d4a70;stroke-width:1.5;"/>
    <path clip-path="url(#pbd1af382bc)" d="M 124.649076 166.04 
L 124.649076 143.423258 
" style="fill:none;stroke:#0d4a70;stroke-width:1.5;"/>
    <path clip-path="url(#pbd1af382bc)" d="M 142.141513 138.263248 
L 142.141513 31.56 
" style="fill:none;stroke:#0d4a70;stroke-width:1.5;"/>
    <path clip-path="url(#pbd1af382bc)" d="M 150.887731 153.026181 
L 150.887731 71.903101 
" style="fill:none;stroke:#0d4a70;stroke-width:1.5;"/>
    <path clip-path="url(#pbd1af382bc)" d="M 155.26084 165.271148 
L 155.26084 144.262167 
" style="fill:none;stroke:#0d4a70;stroke-width:1.5;"/>
    <path clip-path="url(#pbd1af382bc)" d="M 159.63395 154.279168 
L 159.63395 123.073653 
" style="fill:none;stroke:#0d4a70;stroke-width:1.5;"/>
    <path clip-path="url(#pbd1af382bc)" d="M 164.007059 158.087802 
L 164.007059 128.415977 
" style="fill:none;stroke:#0d4a70;stroke-width:1.5;"/>
    <path clip-path="url(#pbd1af382bc)" d="M 168.380168 150.579757 
L 168.380168 107.635762 
" style="fill:none;stroke:#0d4a70;stroke-width:1.5;"/>
    <path clip-path="url(#pbd1af382bc)" d="M 172.753277 166.04 
L 172.753277 155.879013 
" style="fill:none;stroke:#0d4a70;stroke-width:1.5;"/>
    <path clip-path="url(#pbd1af382bc)" d="M 177.126387 165.573396 
L 177.126387 152.182416 
" style="fill:none;stroke:#0d4a70;stroke-width:1.5;"/>
    <path clip-path="url(#pbd1af382bc)" d="M 181.499496 166.04 
L 181.499496 158.072885 
" style="fill:none;stroke:#0d4a70;stroke-width:1.5;"/>
    <path clip-path="url(#pbd1af382bc)" d="M 185.872605 166.04 
L 185.872605 155.879013 
" style="fill:none;stroke:#0d4a70;stroke-width:1.5;"/>
    <path clip-path="url(#pbd1af382bc)" d="M 190.245714 165.295269 
L 190.245714 144.867114 
" style="fill:none;stroke:#0d4a70;stroke-width:1.5;"/>
    <path clip-path="url(#pbd1af382bc)" d="M 194.618824 160.901015 
L 194.618824 143.454897 
" style="fill:none;stroke:#0d4a70;stroke-width:1.5;"/>
    <path clip-path="url(#pbd1af382bc)" d="M 198.991933 164.666103 
L 198.991933 149.182694 
" style="fill:none;stroke:#0d4a70;stroke-width:1.5;"/>
    <path clip-path="url(#pbd1af382bc)" d="M 203.365042 156.240071 
L 203.365042 131.98366 
" style="fill:none;stroke:#0d4a70;stroke-width:1.5;"/>
    <path clip-path="url(#pbd1af382bc)" d="M 207.738151 160.849464 
L 207.738151 135.717878 
" style="fill:none;stroke:#0d4a70;stroke-width:1.5;"/>
    <path clip-path="url(#pbd1af382bc)" d="M 212.111261 132.676137 
L 212.111261 72.061315 
" style="fill:none;stroke:#0d4a70;stroke-width:1.5;"/>
    <path clip-path="url(#pbd1af382bc)" d="M 216.48437 149.813805 
L 216.48437 113.569512 
" style="fill:none;stroke:#0d4a70;stroke-width:1.5;"/>
    <path clip-path="url(#pbd1af382bc)" d="M 220.857479 139.777805 
L 220.857479 104.629969 
" style="fill:none;stroke:#0d4a70;stroke-width:1.5;"/>
    <path clip-path="url(#pbd1af382bc)" d="M 225.230588 147.448136 
L 225.230588 113.131081 
" style="fill:none;stroke:#0d4a70;stroke-width:1.5;"/>
    <path clip-path="url(#pbd1af382bc)" d="M 229.603697 129.41357 
L 229.603697 86.437608 
" style="fill:none;stroke:#0d4a70;stroke-width:1.5;"/>
    <path clip-path="url(#pbd1af382bc)" d="M 233.976807 123.550968 
L 233.976807 88.498512 
" style="fill:none;stroke:#0d4a70;stroke-width:1.5;"/>
    <path clip-path="url(#pbd1af382bc)" d="M 238.349916 127.082889 
L 238.349916 89.790901 
" style="fill:none;stroke:#0d4a70;stroke-width:1.5;"/>
    <path clip-path="url(#pbd1af382bc)" d="M 242.723025 126.921068 
L 242.723025 94.218806 
" style="fill:none;stroke:#0d4a70;stroke-width:1.5;"/>
    <path clip-path="url(#pbd1af382bc)" d="M 247.096134 123.003086 
L 247.096134 88.546769 
" style="fill:none;stroke:#0d4a70;stroke-width:1.5;"/>
    <path clip-path="url(#pbd1af382bc)" d="M 251.469244 120.498112 
L 251.469244 80.240903 
" style="fill:none;stroke:#0d4a70;stroke-width:1.5;"/>
    <path clip-path="url(#pbd1af382bc)" d="M 255.842353 130.180049 
L 255.842353 81.408148 
" style="fill:none;stroke:#0d4a70;stroke-width:1.5;"/>
    <path clip-path="url(#pbd1af382bc)" d="M 260.215462 111.066386 
L 260.215462 59.46596 
" style="fill:none;stroke:#0d4a70;stroke-width:1.5;"/>
    <path clip-path="url(#pbd1af382bc)" d="M 264.588571 94.052863 
L 264.588571 48.435379 
" style="fill:none;stroke:#0d4a70;stroke-width:1.5;"/>
    <path clip-path="url(#pbd1af382bc)" d="M 268.961681 107.809099 
L 268.961681 70.517111 
" style="fill:none;stroke:#0d4a70;stroke-width:1.5;"/>
    <path clip-path="url(#pbd1af382bc)" d="M 273.33479 100.110893 
L 273.33479 65.611035 
" style="fill:none;stroke:#0d4a70;stroke-width:1.5;"/>
    <path clip-path="url(#pbd1af382bc)" d="M 277.707899 93.793966 
L 277.707899 61.80967 
" style="fill:none;stroke:#0d4a70;stroke-width:1.5;"/>
    <path clip-path="url(#pbd1af382bc)" d="M 282.081008 144.059605 
L 282.081008 83.690396 
" style="fill:none;stroke:#0d4a70;stroke-width:1.5;"/>
    <path clip-path="url(#pbd1af382bc)" d="M 286.454118 101.351465 
L 286.454118 51.12378 
" style="fill:none;stroke:#0d4a70;stroke-width:1.5;"/>
    <path clip-path="url(#pbd1af382bc)" d="M 290.827227 88.184901 
L 290.827227 49.381829 
" style="fill:none;stroke:#0d4a70;stroke-width:1.5;"/>
    <path clip-path="url(#pbd1af382bc)" d="M 295.200336 89.978049 
L 295.200336 45.173464 
" style="fill:none;stroke:#0d4a70;stroke-width:1.5;"/>
    <path clip-path="url(#pbd1af382bc)" d="M 299.573445 92.654289 
L 299.573445 55.867052 
" style="fill:none;stroke:#0d4a70;stroke-width:1.5;"/>
    <path clip-path="url(#pbd1af382bc)" d="M 303.946555 89.964238 
L 303.946555 47.020243 
" style="fill:none;stroke:#0d4a70;stroke-width:1.5;"/>
    <path clip-path="url(#pbd1af382bc)" d="M 308.319664 97.4856 
L 308.319664 59.307199 
" style="fill:none;stroke:#0d4a70;stroke-width:1.5;"/>
    <path clip-path="url(#pbd1af382bc)" d="M 312.692773 122.15497 
L 312.692773 75.44503 
" style="fill:none;stroke:#0d4a70;stroke-width:1.5;"/>
    <path clip-path="url(#pbd1af382bc)" d="M 317.065882 85.984666 
L 317.065882 43.992441 
" style="fill:none;stroke:#0d4a70;stroke-width:1.5;"/>
    <path clip-path="url(#pbd1af382bc)" d="M 321.438992 104.044141 
L 321.438992 63.921266 
" style="fill:none;stroke:#0d4a70;stroke-width:1.5;"/>
    <path clip-path="url(#pbd1af382bc)" d="M 325.812101 103.229345 
L 325.812101 55.729002 
" style="fill:none;stroke:#0d4a70;stroke-width:1.5;"/>
    <path clip-path="url(#pbd1af382bc)" d="M 330.18521 114.105113 
L 330.18521 58.866496 
" style="fill:none;stroke:#0d4a70;stroke-width:1.5;"/>
    <path clip-path="url(#pbd1af382bc)" d="M 334.558319 96.314452 
L 334.558319 49.245142 
" style="fill:none;stroke:#0d4a70;stroke-width:1.5;"/>
    <path clip-path="url(#pbd1af382bc)" d="M 338.931429 93.0404 
L 338.931429 51.326886 
" style="fill:none;stroke:#0d4a70;stroke-width:1.5;"/>
    <path clip-path="url(#pbd1af382bc)" d="M 343.304538 72.974533 
L 343.304538 44.698955 
" style="fill:none;stroke:#0d4a70;stroke-width:1.5;"/>
    <path clip-path="url(#pbd1af382bc)" d="M 347.677647 83.186994 
L 347.677647 44.800995 
" style="fill:none;stroke:#0d4a70;stroke-width:1.5;"/>
    <path clip-path="url(#pbd1af382bc)" d="M 352.050756 86.369918 
L 352.050756 45.824616 
" style="fill:none;stroke:#0d4a70;stroke-width:1.5;"/>
    <path clip-path="url(#pbd1af382bc)" d="M 356.423866 86.729909 
L 356.423866 48.816088 
" style="fill:none;stroke:#0d4a70;stroke-width:1.5;"/>
    <path clip-path="url(#pbd1af382bc)" d="M 360.796975 91.643743 
L 360.796975 49.27152 
" style="fill:none;stroke:#0d4a70;stroke-width:1.5;"/>
    <path clip-path="url(#pbd1af382bc)" d="M 365.170084 89.989202 
L 365.170084 31.56 
" style="fill:none;stroke:#0d4a70;stroke-width:1.5;"/>
    <path clip-path="url(#pbd1af382bc)" d="M 369.543193 60.912534 
L 369.543193 35.426113 
" style="fill:none;stroke:#0d4a70;stroke-width:1.5;"/>
    <path clip-path="url(#pbd1af382bc)" d="M 373.916303 61.655648 
L 373.916303 35.538237 
" style="fill:none;stroke:#0d4a70;stroke-width:1.5;"/>
    <path clip-path="url(#pbd1af382bc)" d="M 378.289412 58.653851 
L 378.289412 33.887925 
" style="fill:none;stroke:#0d4a70;stroke-width:1.5;"/>
    <path clip-path="url(#pbd1af382bc)" d="M 382.662521 72.043005 
L 382.662521 35.307484 
" style="fill:none;stroke:#0d4a70;stroke-width:1.5;"/>
    <path clip-path="url(#pbd1af382bc)" d="M 387.03563 78.138574 
L 387.03563 38.258466 
" style="fill:none;stroke:#0d4a70;stroke-width:1.5;"/>
    <path clip-path="url(#pbd1af382bc)" d="M 391.408739 64.694166 
L 391.408739 32.817656 
" style="fill:none;stroke:#0d4a70;stroke-width:1.5;"/>
   </g>
   <g id="line2d_15">
    <path clip-path="url(#pbd1af382bc)" d="M 41.56 165.013158 
L 45.933109 164.913837 
L 50.306218 164.804999 
L 54.679328 164.685748 
L 59.052437 164.555111 
L 63.425546 164.412027 
L 67.798655 164.255339 
L 72.171765 164.083793 
L 76.544874 163.896024 
L 80.917983 163.690552 
L 85.291092 163.46577 
L 89.664202 163.219942 
L 94.037311 162.951188 
L 98.41042 162.657479 
L 102.783529 162.336629 
L 107.156639 161.986286 
L 111.529748 161.603925 
L 115.902857 161.18684 
L 120.275966 160.73214 
L 124.649076 160.236746 
L 129.022185 159.697387 
L 133.395294 159.110598 
L 137.768403 158.472729 
L 142.141513 157.779944 
L 146.514622 157.028238 
L 150.887731 156.21345 
L 155.26084 155.33128 
L 159.63395 154.377325 
L 164.007059 153.347104 
L 168.380168 152.236106 
L 172.753277 151.039842 
L 177.126387 149.753898 
L 181.499496 148.374013 
L 185.872605 146.896149 
L 190.245714 145.316587 
L 194.618824 143.632015 
L 198.991933 141.839639 
L 203.365042 139.937286 
L 207.738151 137.923519 
L 212.111261 135.797745 
L 216.48437 133.560329 
L 220.857479 131.212689 
L 225.230588 128.757383 
L 229.603697 126.198186 
L 233.976807 123.54013 
L 238.349916 120.789532 
L 242.723025 117.95398 
L 247.096134 115.042296 
L 251.469244 112.064455 
L 255.842353 109.031473 
L 260.215462 105.955263 
L 264.588571 102.848455 
L 268.961681 99.724201 
L 273.33479 96.595951 
L 277.707899 93.477223 
L 282.081008 90.381372 
L 286.454118 87.321362 
L 290.827227 84.309554 
L 295.200336 81.357512 
L 299.573445 78.475843 
L 303.946555 75.674061 
L 308.319664 72.960489 
L 312.692773 70.342201 
L 317.065882 67.824985 
L 321.438992 65.413356 
L 325.812101 63.110581 
L 330.18521 60.918746 
L 334.558319 58.838823 
L 338.931429 56.870774 
L 343.304538 55.013647 
L 347.677647 53.26569 
L 352.050756 51.624463 
L 356.423866 50.086946 
L 360.796975 48.64965 
L 365.170084 47.308713 
L 369.543193 46.059996 
L 373.916303 44.899166 
L 378.289412 43.821772 
L 382.662521 42.823306 
L 387.03563 41.899267 
L 391.408739 41.045201 
L 395.781849 40.256741 
L 400.154958 39.529643 
L 404.528067 38.859807 
L 408.901176 38.243296 
L 413.274286 37.676349 
L 417.647395 37.15539 
L 422.020504 36.677035 
L 426.393613 36.23809 
L 430.766723 35.835554 
L 435.139832 35.466613 
L 439.512941 35.128636 
L 443.88605 34.819168 
L 448.25916 34.535927 
L 452.632269 34.276792 
L 457.005378 34.039796 
L 461.378487 33.823119 
L 465.751597 33.625078 
L 470.124706 33.444121 
L 474.497815 33.278814 
L 478.870924 33.12784 
L 483.244034 32.989983 
L 487.617143 32.864129 
L 491.990252 32.749253 
L 496.363361 32.644413 
L 500.736471 32.548747 
L 505.10958 32.461464 
L 509.482689 32.381838 
L 513.855798 32.309206 
L 518.228908 32.24296 
L 522.602017 32.182545 
L 526.975126 32.127451 
L 531.348235 32.077214 
L 535.721345 32.031409 
L 540.094454 31.989648 
L 544.467563 31.951575 
L 548.840672 31.916867 
L 553.213782 31.885228 
L 557.586891 31.856388 
L 561.96 31.8301 
" style="fill:none;stroke:#151624;stroke-linecap:square;stroke-width:1.5;"/>
   </g>
   <g id="patch_3">
    <path d="M 41.56 166.04 
L 41.56 31.56 
" style="fill:none;stroke:#000000;stroke-linecap:square;stroke-linejoin:miter;stroke-width:0.8;"/>
   </g>
   <g id="patch_4">
    <path d="M 561.96 166.04 
L 561.96 31.56 
" style="fill:none;stroke:#000000;stroke-linecap:square;stroke-linejoin:miter;stroke-width:0.8;"/>
   </g>
   <g id="patch_5">
    <path d="M 41.56 166.04 
L 561.96 166.04 
" style="fill:none;stroke:#000000;stroke-linecap:square;stroke-linejoin:miter;stroke-width:0.8;"/>
   </g>
   <g id="patch_6">
    <path d="M 41.56 31.56 
L 561.96 31.56 
" style="fill:none;stroke:#000000;stroke-linecap:square;stroke-linejoin:miter;stroke-width:0.8;"/>
   </g>
   <g id="text_16">
    <!-- Geneva - from HUG data -->
    <g transform="translate(205.71275 25.56)scale(0.156 -0.156)">
     <defs>
      <path d="M 59.515625 10.40625 
L 59.515625 29.984375 
L 43.40625 29.984375 
L 43.40625 38.09375 
L 69.28125 38.09375 
L 69.28125 6.78125 
Q 63.578125 2.734375 56.6875 0.65625 
Q 49.8125 -1.421875 42 -1.421875 
Q 24.90625 -1.421875 15.25 8.5625 
Q 5.609375 18.5625 5.609375 36.375 
Q 5.609375 54.25 15.25 64.234375 
Q 24.90625 74.21875 42 74.21875 
Q 49.125 74.21875 55.546875 72.453125 
Q 61.96875 70.703125 67.390625 67.28125 
L 67.390625 56.78125 
Q 61.921875 61.421875 55.765625 63.765625 
Q 49.609375 66.109375 42.828125 66.109375 
Q 29.4375 66.109375 22.71875 58.640625 
Q 16.015625 51.171875 16.015625 36.375 
Q 16.015625 21.625 22.71875 14.15625 
Q 29.4375 6.6875 42.828125 6.6875 
Q 48.046875 6.6875 52.140625 7.59375 
Q 56.25 8.5 59.515625 10.40625 
z
" id="DejaVuSans-71"/>
      <path d="M 2.984375 54.6875 
L 12.5 54.6875 
L 29.59375 8.796875 
L 46.6875 54.6875 
L 56.203125 54.6875 
L 35.6875 0 
L 23.484375 0 
z
" id="DejaVuSans-118"/>
      <path id="DejaVuSans-32"/>
      <path d="M 37.109375 75.984375 
L 37.109375 68.5 
L 28.515625 68.5 
Q 23.6875 68.5 21.796875 66.546875 
Q 19.921875 64.59375 19.921875 59.515625 
L 19.921875 54.6875 
L 34.71875 54.6875 
L 34.71875 47.703125 
L 19.921875 47.703125 
L 19.921875 0 
L 10.890625 0 
L 10.890625 47.703125 
L 2.296875 47.703125 
L 2.296875 54.6875 
L 10.890625 54.6875 
L 10.890625 58.5 
Q 10.890625 67.625 15.140625 71.796875 
Q 19.390625 75.984375 28.609375 75.984375 
z
" id="DejaVuSans-102"/>
      <path d="M 30.609375 48.390625 
Q 23.390625 48.390625 19.1875 42.75 
Q 14.984375 37.109375 14.984375 27.296875 
Q 14.984375 17.484375 19.15625 11.84375 
Q 23.34375 6.203125 30.609375 6.203125 
Q 37.796875 6.203125 41.984375 11.859375 
Q 46.1875 17.53125 46.1875 27.296875 
Q 46.1875 37.015625 41.984375 42.703125 
Q 37.796875 48.390625 30.609375 48.390625 
z
M 30.609375 56 
Q 42.328125 56 49.015625 48.375 
Q 55.71875 40.765625 55.71875 27.296875 
Q 55.71875 13.875 49.015625 6.21875 
Q 42.328125 -1.421875 30.609375 -1.421875 
Q 18.84375 -1.421875 12.171875 6.21875 
Q 5.515625 13.875 5.515625 27.296875 
Q 5.515625 40.765625 12.171875 48.375 
Q 18.84375 56 30.609375 56 
z
" id="DejaVuSans-111"/>
      <path d="M 52 44.1875 
Q 55.375 50.25 60.0625 53.125 
Q 64.75 56 71.09375 56 
Q 79.640625 56 84.28125 50.015625 
Q 88.921875 44.046875 88.921875 33.015625 
L 88.921875 0 
L 79.890625 0 
L 79.890625 32.71875 
Q 79.890625 40.578125 77.09375 44.375 
Q 74.3125 48.1875 68.609375 48.1875 
Q 61.625 48.1875 57.5625 43.546875 
Q 53.515625 38.921875 53.515625 30.90625 
L 53.515625 0 
L 44.484375 0 
L 44.484375 32.71875 
Q 44.484375 40.625 41.703125 44.40625 
Q 38.921875 48.1875 33.109375 48.1875 
Q 26.21875 48.1875 22.15625 43.53125 
Q 18.109375 38.875 18.109375 30.90625 
L 18.109375 0 
L 9.078125 0 
L 9.078125 54.6875 
L 18.109375 54.6875 
L 18.109375 46.1875 
Q 21.1875 51.21875 25.484375 53.609375 
Q 29.78125 56 35.6875 56 
Q 41.65625 56 45.828125 52.96875 
Q 50 49.953125 52 44.1875 
z
" id="DejaVuSans-109"/>
      <path d="M 9.8125 72.90625 
L 19.671875 72.90625 
L 19.671875 43.015625 
L 55.515625 43.015625 
L 55.515625 72.90625 
L 65.375 72.90625 
L 65.375 0 
L 55.515625 0 
L 55.515625 34.71875 
L 19.671875 34.71875 
L 19.671875 0 
L 9.8125 0 
z
" id="DejaVuSans-72"/>
      <path d="M 8.6875 72.90625 
L 18.609375 72.90625 
L 18.609375 28.609375 
Q 18.609375 16.890625 22.84375 11.734375 
Q 27.09375 6.59375 36.625 6.59375 
Q 46.09375 6.59375 50.34375 11.734375 
Q 54.59375 16.890625 54.59375 28.609375 
L 54.59375 72.90625 
L 64.5 72.90625 
L 64.5 27.390625 
Q 64.5 13.140625 57.4375 5.859375 
Q 50.390625 -1.421875 36.625 -1.421875 
Q 22.796875 -1.421875 15.734375 5.859375 
Q 8.6875 13.140625 8.6875 27.390625 
z
" id="DejaVuSans-85"/>
      <path d="M 45.40625 46.390625 
L 45.40625 75.984375 
L 54.390625 75.984375 
L 54.390625 0 
L 45.40625 0 
L 45.40625 8.203125 
Q 42.578125 3.328125 38.25 0.953125 
Q 33.9375 -1.421875 27.875 -1.421875 
Q 17.96875 -1.421875 11.734375 6.484375 
Q 5.515625 14.40625 5.515625 27.296875 
Q 5.515625 40.1875 11.734375 48.09375 
Q 17.96875 56 27.875 56 
Q 33.9375 56 38.25 53.625 
Q 42.578125 51.265625 45.40625 46.390625 
z
M 14.796875 27.296875 
Q 14.796875 17.390625 18.875 11.75 
Q 22.953125 6.109375 30.078125 6.109375 
Q 37.203125 6.109375 41.296875 11.75 
Q 45.40625 17.390625 45.40625 27.296875 
Q 45.40625 37.203125 41.296875 42.84375 
Q 37.203125 48.484375 30.078125 48.484375 
Q 22.953125 48.484375 18.875 42.84375 
Q 14.796875 37.203125 14.796875 27.296875 
z
" id="DejaVuSans-100"/>
      <path d="M 18.3125 70.21875 
L 18.3125 54.6875 
L 36.8125 54.6875 
L 36.8125 47.703125 
L 18.3125 47.703125 
L 18.3125 18.015625 
Q 18.3125 11.328125 20.140625 9.421875 
Q 21.96875 7.515625 27.59375 7.515625 
L 36.8125 7.515625 
L 36.8125 0 
L 27.59375 0 
Q 17.1875 0 13.234375 3.875 
Q 9.28125 7.765625 9.28125 18.015625 
L 9.28125 47.703125 
L 2.6875 47.703125 
L 2.6875 54.6875 
L 9.28125 54.6875 
L 9.28125 70.21875 
z
" id="DejaVuSans-116"/>
     </defs>
     <use xlink:href="#DejaVuSans-71"/>
     <use x="77.490234" xlink:href="#DejaVuSans-101"/>
     <use x="139.013672" xlink:href="#DejaVuSans-110"/>
     <use x="202.392578" xlink:href="#DejaVuSans-101"/>
     <use x="263.916016" xlink:href="#DejaVuSans-118"/>
     <use x="323.095703" xlink:href="#DejaVuSans-97"/>
     <use x="384.375" xlink:href="#DejaVuSans-32"/>
     <use x="416.162109" xlink:href="#DejaVuSans-45"/>
     <use x="452.246094" xlink:href="#DejaVuSans-32"/>
     <use x="484.033203" xlink:href="#DejaVuSans-102"/>
     <use x="519.238281" xlink:href="#DejaVuSans-114"/>
     <use x="558.101562" xlink:href="#DejaVuSans-111"/>
     <use x="619.283203" xlink:href="#DejaVuSans-109"/>
     <use x="716.695312" xlink:href="#DejaVuSans-32"/>
     <use x="748.482422" xlink:href="#DejaVuSans-72"/>
     <use x="823.677734" xlink:href="#DejaVuSans-85"/>
     <use x="896.871094" xlink:href="#DejaVuSans-71"/>
     <use x="974.361328" xlink:href="#DejaVuSans-32"/>
     <use x="1006.148438" xlink:href="#DejaVuSans-100"/>
     <use x="1069.625" xlink:href="#DejaVuSans-97"/>
     <use x="1130.904297" xlink:href="#DejaVuSans-116"/>
     <use x="1170.113281" xlink:href="#DejaVuSans-97"/>
    </g>
   </g>
   <g id="legend_1">
    <g id="patch_7">
     <path d="M 271.554219 159.54 
L 552.86 159.54 
Q 555.46 159.54 555.46 156.94 
L 555.46 100.995312 
Q 555.46 98.395312 552.86 98.395312 
L 271.554219 98.395312 
Q 268.954219 98.395312 268.954219 100.995312 
L 268.954219 156.94 
Q 268.954219 159.54 271.554219 159.54 
z
" style="fill:#ffffff;opacity:0.8;stroke:#cccccc;stroke-linejoin:miter;"/>
    </g>
    <g id="line2d_16">
     <path d="M 274.154219 108.923281 
L 300.154219 108.923281 
" style="fill:none;stroke:#151624;stroke-linecap:square;stroke-width:1.5;"/>
    </g>
    <g id="line2d_17"/>
    <g id="text_17">
     <!-- Logistic fit -->
     <g transform="translate(310.554219 113.473281)scale(0.13 -0.13)">
      <defs>
       <path d="M 9.8125 72.90625 
L 19.671875 72.90625 
L 19.671875 8.296875 
L 55.171875 8.296875 
L 55.171875 0 
L 9.8125 0 
z
" id="DejaVuSans-76"/>
       <path d="M 45.40625 27.984375 
Q 45.40625 37.75 41.375 43.109375 
Q 37.359375 48.484375 30.078125 48.484375 
Q 22.859375 48.484375 18.828125 43.109375 
Q 14.796875 37.75 14.796875 27.984375 
Q 14.796875 18.265625 18.828125 12.890625 
Q 22.859375 7.515625 30.078125 7.515625 
Q 37.359375 7.515625 41.375 12.890625 
Q 45.40625 18.265625 45.40625 27.984375 
z
M 54.390625 6.78125 
Q 54.390625 -7.171875 48.1875 -13.984375 
Q 42 -20.796875 29.203125 -20.796875 
Q 24.46875 -20.796875 20.265625 -20.09375 
Q 16.0625 -19.390625 12.109375 -17.921875 
L 12.109375 -9.1875 
Q 16.0625 -11.328125 19.921875 -12.34375 
Q 23.78125 -13.375 27.78125 -13.375 
Q 36.625 -13.375 41.015625 -8.765625 
Q 45.40625 -4.15625 45.40625 5.171875 
L 45.40625 9.625 
Q 42.625 4.78125 38.28125 2.390625 
Q 33.9375 0 27.875 0 
Q 17.828125 0 11.671875 7.65625 
Q 5.515625 15.328125 5.515625 27.984375 
Q 5.515625 40.671875 11.671875 48.328125 
Q 17.828125 56 27.875 56 
Q 33.9375 56 38.28125 53.609375 
Q 42.625 51.21875 45.40625 46.390625 
L 45.40625 54.6875 
L 54.390625 54.6875 
z
" id="DejaVuSans-103"/>
       <path d="M 9.421875 54.6875 
L 18.40625 54.6875 
L 18.40625 0 
L 9.421875 0 
z
M 9.421875 75.984375 
L 18.40625 75.984375 
L 18.40625 64.59375 
L 9.421875 64.59375 
z
" id="DejaVuSans-105"/>
       <path d="M 44.28125 53.078125 
L 44.28125 44.578125 
Q 40.484375 46.53125 36.375 47.5 
Q 32.28125 48.484375 27.875 48.484375 
Q 21.1875 48.484375 17.84375 46.4375 
Q 14.5 44.390625 14.5 40.28125 
Q 14.5 37.15625 16.890625 35.375 
Q 19.28125 33.59375 26.515625 31.984375 
L 29.59375 31.296875 
Q 39.15625 29.25 43.1875 25.515625 
Q 47.21875 21.78125 47.21875 15.09375 
Q 47.21875 7.46875 41.1875 3.015625 
Q 35.15625 -1.421875 24.609375 -1.421875 
Q 20.21875 -1.421875 15.453125 -0.5625 
Q 10.6875 0.296875 5.421875 2 
L 5.421875 11.28125 
Q 10.40625 8.6875 15.234375 7.390625 
Q 20.0625 6.109375 24.8125 6.109375 
Q 31.15625 6.109375 34.5625 8.28125 
Q 37.984375 10.453125 37.984375 14.40625 
Q 37.984375 18.0625 35.515625 20.015625 
Q 33.0625 21.96875 24.703125 23.78125 
L 21.578125 24.515625 
Q 13.234375 26.265625 9.515625 29.90625 
Q 5.8125 33.546875 5.8125 39.890625 
Q 5.8125 47.609375 11.28125 51.796875 
Q 16.75 56 26.8125 56 
Q 31.78125 56 36.171875 55.265625 
Q 40.578125 54.546875 44.28125 53.078125 
z
" id="DejaVuSans-115"/>
       <path d="M 48.78125 52.59375 
L 48.78125 44.1875 
Q 44.96875 46.296875 41.140625 47.34375 
Q 37.3125 48.390625 33.40625 48.390625 
Q 24.65625 48.390625 19.8125 42.84375 
Q 14.984375 37.3125 14.984375 27.296875 
Q 14.984375 17.28125 19.8125 11.734375 
Q 24.65625 6.203125 33.40625 6.203125 
Q 37.3125 6.203125 41.140625 7.25 
Q 44.96875 8.296875 48.78125 10.40625 
L 48.78125 2.09375 
Q 45.015625 0.34375 40.984375 -0.53125 
Q 36.96875 -1.421875 32.421875 -1.421875 
Q 20.0625 -1.421875 12.78125 6.34375 
Q 5.515625 14.109375 5.515625 27.296875 
Q 5.515625 40.671875 12.859375 48.328125 
Q 20.21875 56 33.015625 56 
Q 37.15625 56 41.109375 55.140625 
Q 45.0625 54.296875 48.78125 52.59375 
z
" id="DejaVuSans-99"/>
      </defs>
      <use xlink:href="#DejaVuSans-76"/>
      <use x="53.962891" xlink:href="#DejaVuSans-111"/>
      <use x="115.144531" xlink:href="#DejaVuSans-103"/>
      <use x="178.621094" xlink:href="#DejaVuSans-105"/>
      <use x="206.404297" xlink:href="#DejaVuSans-115"/>
      <use x="258.503906" xlink:href="#DejaVuSans-116"/>
      <use x="297.712891" xlink:href="#DejaVuSans-105"/>
      <use x="325.496094" xlink:href="#DejaVuSans-99"/>
      <use x="380.476562" xlink:href="#DejaVuSans-32"/>
      <use x="412.263672" xlink:href="#DejaVuSans-102"/>
      <use x="447.46875" xlink:href="#DejaVuSans-105"/>
      <use x="475.251953" xlink:href="#DejaVuSans-116"/>
     </g>
    </g>
    <g id="patch_8">
     <path d="M 274.154219 132.554844 
L 300.154219 132.554844 
L 300.154219 123.454844 
L 274.154219 123.454844 
z
" style="fill:#bfbfbf;stroke:#bfbfbf;stroke-linejoin:miter;"/>
    </g>
    <g id="text_18">
     <!-- Confidence interval -->
     <g transform="translate(310.554219 132.554844)scale(0.13 -0.13)">
      <defs>
       <path d="M 64.40625 67.28125 
L 64.40625 56.890625 
Q 59.421875 61.53125 53.78125 63.8125 
Q 48.140625 66.109375 41.796875 66.109375 
Q 29.296875 66.109375 22.65625 58.46875 
Q 16.015625 50.828125 16.015625 36.375 
Q 16.015625 21.96875 22.65625 14.328125 
Q 29.296875 6.6875 41.796875 6.6875 
Q 48.140625 6.6875 53.78125 8.984375 
Q 59.421875 11.28125 64.40625 15.921875 
L 64.40625 5.609375 
Q 59.234375 2.09375 53.4375 0.328125 
Q 47.65625 -1.421875 41.21875 -1.421875 
Q 24.65625 -1.421875 15.125 8.703125 
Q 5.609375 18.84375 5.609375 36.375 
Q 5.609375 53.953125 15.125 64.078125 
Q 24.65625 74.21875 41.21875 74.21875 
Q 47.75 74.21875 53.53125 72.484375 
Q 59.328125 70.75 64.40625 67.28125 
z
" id="DejaVuSans-67"/>
       <path d="M 9.421875 75.984375 
L 18.40625 75.984375 
L 18.40625 0 
L 9.421875 0 
z
" id="DejaVuSans-108"/>
      </defs>
      <use xlink:href="#DejaVuSans-67"/>
      <use x="69.824219" xlink:href="#DejaVuSans-111"/>
      <use x="131.005859" xlink:href="#DejaVuSans-110"/>
      <use x="194.384766" xlink:href="#DejaVuSans-102"/>
      <use x="229.589844" xlink:href="#DejaVuSans-105"/>
      <use x="257.373047" xlink:href="#DejaVuSans-100"/>
      <use x="320.849609" xlink:href="#DejaVuSans-101"/>
      <use x="382.373047" xlink:href="#DejaVuSans-110"/>
      <use x="445.751953" xlink:href="#DejaVuSans-99"/>
      <use x="500.732422" xlink:href="#DejaVuSans-101"/>
      <use x="562.255859" xlink:href="#DejaVuSans-32"/>
      <use x="594.042969" xlink:href="#DejaVuSans-105"/>
      <use x="621.826172" xlink:href="#DejaVuSans-110"/>
      <use x="685.205078" xlink:href="#DejaVuSans-116"/>
      <use x="724.414062" xlink:href="#DejaVuSans-101"/>
      <use x="785.9375" xlink:href="#DejaVuSans-114"/>
      <use x="827.050781" xlink:href="#DejaVuSans-118"/>
      <use x="886.230469" xlink:href="#DejaVuSans-97"/>
      <use x="947.509766" xlink:href="#DejaVuSans-108"/>
     </g>
    </g>
    <g id="PathCollection_1">
     <defs>
      <path d="M 0 1.870829 
C 0.49615 1.870829 0.972045 1.673706 1.322876 1.322876 
C 1.673706 0.972045 1.870829 0.49615 1.870829 0 
C 1.870829 -0.49615 1.673706 -0.972045 1.322876 -1.322876 
C 0.972045 -1.673706 0.49615 -1.870829 0 -1.870829 
C -0.49615 -1.870829 -0.972045 -1.673706 -1.322876 -1.322876 
C -1.673706 -0.972045 -1.870829 -0.49615 -1.870829 0 
C -1.870829 0.49615 -1.673706 0.972045 -1.322876 1.322876 
C -0.972045 1.673706 -0.49615 1.870829 0 1.870829 
z
" id="m77c2bdb6d1" style="stroke:#67916e;"/>
     </defs>
     <g>
      <use style="fill:#67916e;stroke:#67916e;" x="287.154219" xlink:href="#m77c2bdb6d1" y="148.223906"/>
     </g>
    </g>
    <g id="text_19">
     <!-- Estimated daily proportion of B.1.1.7 -->
     <g transform="translate(310.554219 151.636406)scale(0.13 -0.13)">
      <defs>
       <path d="M 9.8125 72.90625 
L 55.90625 72.90625 
L 55.90625 64.59375 
L 19.671875 64.59375 
L 19.671875 43.015625 
L 54.390625 43.015625 
L 54.390625 34.71875 
L 19.671875 34.71875 
L 19.671875 8.296875 
L 56.78125 8.296875 
L 56.78125 0 
L 9.8125 0 
z
" id="DejaVuSans-69"/>
       <path d="M 32.171875 -5.078125 
Q 28.375 -14.84375 24.75 -17.8125 
Q 21.140625 -20.796875 15.09375 -20.796875 
L 7.90625 -20.796875 
L 7.90625 -13.28125 
L 13.1875 -13.28125 
Q 16.890625 -13.28125 18.9375 -11.515625 
Q 21 -9.765625 23.484375 -3.21875 
L 25.09375 0.875 
L 2.984375 54.6875 
L 12.5 54.6875 
L 29.59375 11.921875 
L 46.6875 54.6875 
L 56.203125 54.6875 
z
" id="DejaVuSans-121"/>
       <path d="M 19.671875 34.8125 
L 19.671875 8.109375 
L 35.5 8.109375 
Q 43.453125 8.109375 47.28125 11.40625 
Q 51.125 14.703125 51.125 21.484375 
Q 51.125 28.328125 47.28125 31.5625 
Q 43.453125 34.8125 35.5 34.8125 
z
M 19.671875 64.796875 
L 19.671875 42.828125 
L 34.28125 42.828125 
Q 41.5 42.828125 45.03125 45.53125 
Q 48.578125 48.25 48.578125 53.8125 
Q 48.578125 59.328125 45.03125 62.0625 
Q 41.5 64.796875 34.28125 64.796875 
z
M 9.8125 72.90625 
L 35.015625 72.90625 
Q 46.296875 72.90625 52.390625 68.21875 
Q 58.5 63.53125 58.5 54.890625 
Q 58.5 48.1875 55.375 44.234375 
Q 52.25 40.28125 46.1875 39.3125 
Q 53.46875 37.75 57.5 32.78125 
Q 61.53125 27.828125 61.53125 20.40625 
Q 61.53125 10.640625 54.890625 5.3125 
Q 48.25 0 35.984375 0 
L 9.8125 0 
z
" id="DejaVuSans-66"/>
       <path d="M 8.203125 72.90625 
L 55.078125 72.90625 
L 55.078125 68.703125 
L 28.609375 0 
L 18.3125 0 
L 43.21875 64.59375 
L 8.203125 64.59375 
z
" id="DejaVuSans-55"/>
      </defs>
      <use xlink:href="#DejaVuSans-69"/>
      <use x="63.183594" xlink:href="#DejaVuSans-115"/>
      <use x="115.283203" xlink:href="#DejaVuSans-116"/>
      <use x="154.492188" xlink:href="#DejaVuSans-105"/>
      <use x="182.275391" xlink:href="#DejaVuSans-109"/>
      <use x="279.6875" xlink:href="#DejaVuSans-97"/>
      <use x="340.966797" xlink:href="#DejaVuSans-116"/>
      <use x="380.175781" xlink:href="#DejaVuSans-101"/>
      <use x="441.699219" xlink:href="#DejaVuSans-100"/>
      <use x="505.175781" xlink:href="#DejaVuSans-32"/>
      <use x="536.962891" xlink:href="#DejaVuSans-100"/>
      <use x="600.439453" xlink:href="#DejaVuSans-97"/>
      <use x="661.71875" xlink:href="#DejaVuSans-105"/>
      <use x="689.501953" xlink:href="#DejaVuSans-108"/>
      <use x="717.285156" xlink:href="#DejaVuSans-121"/>
      <use x="776.464844" xlink:href="#DejaVuSans-32"/>
      <use x="808.251953" xlink:href="#DejaVuSans-112"/>
      <use x="871.728516" xlink:href="#DejaVuSans-114"/>
      <use x="910.591797" xlink:href="#DejaVuSans-111"/>
      <use x="971.773438" xlink:href="#DejaVuSans-112"/>
      <use x="1035.25" xlink:href="#DejaVuSans-111"/>
      <use x="1096.431641" xlink:href="#DejaVuSans-114"/>
      <use x="1137.544922" xlink:href="#DejaVuSans-116"/>
      <use x="1176.753906" xlink:href="#DejaVuSans-105"/>
      <use x="1204.537109" xlink:href="#DejaVuSans-111"/>
      <use x="1265.71875" xlink:href="#DejaVuSans-110"/>
      <use x="1329.097656" xlink:href="#DejaVuSans-32"/>
      <use x="1360.884766" xlink:href="#DejaVuSans-111"/>
      <use x="1422.066406" xlink:href="#DejaVuSans-102"/>
      <use x="1457.271484" xlink:href="#DejaVuSans-32"/>
      <use x="1489.058594" xlink:href="#DejaVuSans-66"/>
      <use x="1557.662109" xlink:href="#DejaVuSans-46"/>
      <use x="1589.449219" xlink:href="#DejaVuSans-49"/>
      <use x="1653.072266" xlink:href="#DejaVuSans-46"/>
      <use x="1684.859375" xlink:href="#DejaVuSans-49"/>
      <use x="1748.482422" xlink:href="#DejaVuSans-46"/>
      <use x="1780.269531" xlink:href="#DejaVuSans-55"/>
     </g>
    </g>
   </g>
   <g id="PathCollection_2">
    <g clip-path="url(#pbd1af382bc)">
     <use style="fill:#67916e;stroke:#67916e;" x="80.917983" xlink:href="#m77c2bdb6d1" y="166.04"/>
     <use style="fill:#67916e;stroke:#67916e;" x="85.291092" xlink:href="#m77c2bdb6d1" y="166.04"/>
     <use style="fill:#67916e;stroke:#67916e;" x="89.664202" xlink:href="#m77c2bdb6d1" y="166.04"/>
     <use style="fill:#67916e;stroke:#67916e;" x="94.037311" xlink:href="#m77c2bdb6d1" y="115.61"/>
     <use style="fill:#67916e;stroke:#67916e;" x="98.41042" xlink:href="#m77c2bdb6d1" y="166.04"/>
     <use style="fill:#67916e;stroke:#67916e;" x="102.783529" xlink:href="#m77c2bdb6d1" y="158.568889"/>
     <use style="fill:#67916e;stroke:#67916e;" x="107.156639" xlink:href="#m77c2bdb6d1" y="166.04"/>
     <use style="fill:#67916e;stroke:#67916e;" x="111.529748" xlink:href="#m77c2bdb6d1" y="166.04"/>
     <use style="fill:#67916e;stroke:#67916e;" x="115.902857" xlink:href="#m77c2bdb6d1" y="154.346087"/>
     <use style="fill:#67916e;stroke:#67916e;" x="120.275966" xlink:href="#m77c2bdb6d1" y="160.193043"/>
     <use style="fill:#67916e;stroke:#67916e;" x="124.649076" xlink:href="#m77c2bdb6d1" y="166.04"/>
     <use style="fill:#67916e;stroke:#67916e;" x="142.141513" xlink:href="#m77c2bdb6d1" y="31.56"/>
     <use style="fill:#67916e;stroke:#67916e;" x="150.887731" xlink:href="#m77c2bdb6d1" y="121.213333"/>
     <use style="fill:#67916e;stroke:#67916e;" x="155.26084" xlink:href="#m77c2bdb6d1" y="161.701935"/>
     <use style="fill:#67916e;stroke:#67916e;" x="159.63395" xlink:href="#m77c2bdb6d1" y="142.506"/>
     <use style="fill:#67916e;stroke:#67916e;" x="164.007059" xlink:href="#m77c2bdb6d1" y="147.867027"/>
     <use style="fill:#67916e;stroke:#67916e;" x="168.380168" xlink:href="#m77c2bdb6d1" y="133.7648"/>
     <use style="fill:#67916e;stroke:#67916e;" x="172.753277" xlink:href="#m77c2bdb6d1" y="166.04"/>
     <use style="fill:#67916e;stroke:#67916e;" x="177.126387" xlink:href="#m77c2bdb6d1" y="163.403137"/>
     <use style="fill:#67916e;stroke:#67916e;" x="181.499496" xlink:href="#m77c2bdb6d1" y="166.04"/>
     <use style="fill:#67916e;stroke:#67916e;" x="185.872605" xlink:href="#m77c2bdb6d1" y="166.04"/>
     <use style="fill:#67916e;stroke:#67916e;" x="190.245714" xlink:href="#m77c2bdb6d1" y="161.8375"/>
     <use style="fill:#67916e;stroke:#67916e;" x="194.618824" xlink:href="#m77c2bdb6d1" y="154.986849"/>
     <use style="fill:#67916e;stroke:#67916e;" x="198.991933" xlink:href="#m77c2bdb6d1" y="161.059259"/>
     <use style="fill:#67916e;stroke:#67916e;" x="203.365042" xlink:href="#m77c2bdb6d1" y="147.165614"/>
     <use style="fill:#67916e;stroke:#67916e;" x="207.738151" xlink:href="#m77c2bdb6d1" y="152.92"/>
     <use style="fill:#67916e;stroke:#67916e;" x="212.111261" xlink:href="#m77c2bdb6d1" y="103.282667"/>
     <use style="fill:#67916e;stroke:#67916e;" x="216.48437" xlink:href="#m77c2bdb6d1" y="135.301714"/>
     <use style="fill:#67916e;stroke:#67916e;" x="220.857479" xlink:href="#m77c2bdb6d1" y="124.201778"/>
     <use style="fill:#67916e;stroke:#67916e;" x="225.230588" xlink:href="#m77c2bdb6d1" y="133.24"/>
     <use style="fill:#67916e;stroke:#67916e;" x="229.603697" xlink:href="#m77c2bdb6d1" y="108.987879"/>
     <use style="fill:#67916e;stroke:#67916e;" x="233.976807" xlink:href="#m77c2bdb6d1" y="106.558462"/>
     <use style="fill:#67916e;stroke:#67916e;" x="238.349916" xlink:href="#m77c2bdb6d1" y="109.259556"/>
     <use style="fill:#67916e;stroke:#67916e;" x="242.723025" xlink:href="#m77c2bdb6d1" y="111.336271"/>
     <use style="fill:#67916e;stroke:#67916e;" x="247.096134" xlink:href="#m77c2bdb6d1" y="106.271111"/>
     <use style="fill:#67916e;stroke:#67916e;" x="251.469244" xlink:href="#m77c2bdb6d1" y="100.524103"/>
     <use style="fill:#67916e;stroke:#67916e;" x="255.842353" xlink:href="#m77c2bdb6d1" y="106.8688"/>
     <use style="fill:#67916e;stroke:#67916e;" x="260.215462" xlink:href="#m77c2bdb6d1" y="82.790476"/>
     <use style="fill:#67916e;stroke:#67916e;" x="264.588571" xlink:href="#m77c2bdb6d1" y="66.641739"/>
     <use style="fill:#67916e;stroke:#67916e;" x="268.961681" xlink:href="#m77c2bdb6d1" y="88.340444"/>
     <use style="fill:#67916e;stroke:#67916e;" x="273.33479" xlink:href="#m77c2bdb6d1" y="81.660392"/>
     <use style="fill:#67916e;stroke:#67916e;" x="277.707899" xlink:href="#m77c2bdb6d1" y="76.386667"/>
     <use style="fill:#67916e;stroke:#67916e;" x="282.081008" xlink:href="#m77c2bdb6d1" y="118.011429"/>
     <use style="fill:#67916e;stroke:#67916e;" x="286.454118" xlink:href="#m77c2bdb6d1" y="71.904"/>
     <use style="fill:#67916e;stroke:#67916e;" x="290.827227" xlink:href="#m77c2bdb6d1" y="65.18"/>
     <use style="fill:#67916e;stroke:#67916e;" x="295.200336" xlink:href="#m77c2bdb6d1" y="62.123636"/>
     <use style="fill:#67916e;stroke:#67916e;" x="299.573445" xlink:href="#m77c2bdb6d1" y="71.904"/>
     <use style="fill:#67916e;stroke:#67916e;" x="303.946555" xlink:href="#m77c2bdb6d1" y="63.8352"/>
     <use style="fill:#67916e;stroke:#67916e;" x="308.319664" xlink:href="#m77c2bdb6d1" y="76.386667"/>
     <use style="fill:#67916e;stroke:#67916e;" x="312.692773" xlink:href="#m77c2bdb6d1" y="98.8"/>
     <use style="fill:#67916e;stroke:#67916e;" x="317.065882" xlink:href="#m77c2bdb6d1" y="59.576667"/>
     <use style="fill:#67916e;stroke:#67916e;" x="321.438992" xlink:href="#m77c2bdb6d1" y="82.444324"/>
     <use style="fill:#67916e;stroke:#67916e;" x="325.812101" xlink:href="#m77c2bdb6d1" y="76.386667"/>
     <use style="fill:#67916e;stroke:#67916e;" x="330.18521" xlink:href="#m77c2bdb6d1" y="83.857778"/>
     <use style="fill:#67916e;stroke:#67916e;" x="334.558319" xlink:href="#m77c2bdb6d1" y="68.236364"/>
     <use style="fill:#67916e;stroke:#67916e;" x="338.931429" xlink:href="#m77c2bdb6d1" y="68.657931"/>
     <use style="fill:#67916e;stroke:#67916e;" x="343.304538" xlink:href="#m77c2bdb6d1" y="55.7664"/>
     <use style="fill:#67916e;stroke:#67916e;" x="347.677647" xlink:href="#m77c2bdb6d1" y="59.383448"/>
     <use style="fill:#67916e;stroke:#67916e;" x="352.050756" xlink:href="#m77c2bdb6d1" y="61.444444"/>
     <use style="fill:#67916e;stroke:#67916e;" x="356.423866" xlink:href="#m77c2bdb6d1" y="64.161212"/>
     <use style="fill:#67916e;stroke:#67916e;" x="360.796975" xlink:href="#m77c2bdb6d1" y="66.425185"/>
     <use style="fill:#67916e;stroke:#67916e;" x="365.170084" xlink:href="#m77c2bdb6d1" y="31.56"/>
     <use style="fill:#67916e;stroke:#67916e;" x="369.543193" xlink:href="#m77c2bdb6d1" y="42.766667"/>
     <use style="fill:#67916e;stroke:#67916e;" x="373.916303" xlink:href="#m77c2bdb6d1" y="43.086857"/>
     <use style="fill:#67916e;stroke:#67916e;" x="378.289412" xlink:href="#m77c2bdb6d1" y="39.965"/>
     <use style="fill:#67916e;stroke:#67916e;" x="382.662521" xlink:href="#m77c2bdb6d1" y="45.008"/>
     <use style="fill:#67916e;stroke:#67916e;" x="387.03563" xlink:href="#m77c2bdb6d1" y="50.771429"/>
     <use style="fill:#67916e;stroke:#67916e;" x="391.408739" xlink:href="#m77c2bdb6d1" y="38.637895"/>
    </g>
   </g>
  </g>
 </g>
 <defs>
  <clipPath id="pbd1af382bc">
   <rect height="134.48" width="520.4" x="41.56" y="31.56"/>
  </clipPath>
 </defs>
</svg>
